<svg width="333" height="322" viewBox="0 0 333 322" xmlns="http://www.w3.org/2000/svg"><title>logo dvor</title><defs><linearGradient x1="49.952%" y1="-.007%" x2="49.952%" y2="99.974%" id="a"><stop stop-color="#F2904C" offset="0%"/><stop stop-color="#EE713E" offset="100%"/></linearGradient><linearGradient x1="50.013%" y1=".048%" x2="50.013%" y2="100.03%" id="b"><stop stop-color="#F6E83C" offset="0%"/><stop stop-color="#EAE325" stop-opacity=".65" offset="100%"/></linearGradient><linearGradient x1="49.984%" y1="-.04%" x2="49.984%" y2="99.941%" id="c"><stop stop-color="#73B72B" stop-opacity=".63" offset="0%"/><stop stop-color="#C2D100" offset="100%"/></linearGradient></defs><g fill="none" fill-rule="evenodd"><path d="M86.17 321.84L.063 138.878 159.313.187l173.27 117.878-52.174 190.59L86.17 321.84z" fill-opacity=".3" fill="#FFF"/><path d="M86.573 310.758l-74.315-174.4L166.27 11.954 324.504 128.41l-55.498 176.74-182.432 5.608z" fill-opacity=".6" fill="#FFF"/><path d="M87.898 296.205L26.233 132.328 173.28 23.635l141.4 113.73-58.216 160.893-168.566-2.053z" fill-opacity=".9" fill="#FFF"/><path d="M83.127 44.907h6.61v7.36h8.814v84.46s-7.6-1.47-22.032-1.47c-14.434 0-22.035 1.47-22.035 1.47v-84.46h8.814v-7.36h6.61v-8.7h13.22v8.7z" fill="url(#a)" transform="translate(93.757 76.944)"/><path d="M85.33 61.636l24.973 17.398v59.897s-3.656-1.096-12.065-2.228c-8.41-1.13-12.908-1.236-12.908-1.236v-73.83z" fill="url(#b)" transform="translate(93.757 76.944)"/><path d="M46.403 87.733h-4.406v51.2s3.177-.773 11.07-1.996c7.894-1.224 13.168-1.382 13.168-1.382V87.733h-4.408v-4.015H46.403v4.015z" fill="url(#c)" transform="translate(93.757 76.944)"/><path d="M217.325 192.8l-5.714-5.883-6.08-1.05 6.85-.914 5.255 4.254.378-5.62-5.096-30.793 2.682-16.24h2.412l-1.073 15.66 1.547 9.138 4.396-2.105 10.26-3.387 6.173-6.192-4.528 7.077-9.34 4.607-6.25 2.923 3.642 22.8-.536 35.41-6.704-2.937 1.725-26.748z" fill="#805D49"/><path d="M189.17 95.16l18.11-18.1 30.482 10.726L246.66 115l-16.556 21.497-25.19 2.994-20.684-22.29 4.94-22.04z" fill="#81BB38"/><path d="M203.94 96.566l12.76-10.69 18.942 15.22-29.287 13.423-6.702-13.423 4.287-4.53z" fill="#98C449"/><path d="M189.353 95.075l12.527 2.64-12.527 20.518-5.124-.775 5.123-22.383z" fill="#80BA27"/><path d="M188.686 118.19l12.726 8.953 3.383 5.055v7.652l-20.38-22.645 4.27.986z" fill="#66A330"/><path d="M220.726 130.093l9.293 6.382-25.226 3.453v-5.274l15.932-4.56z" fill="#80BA27"/><path d="M246.66 115.312l-16.556 21.235-9.885-6.34 13.22-28.605 13.22 13.71z" fill="#98C449"/><path d="M218.853 87.684h19.11l8.91 27.86-28.02-27.86zM189.396 94.96l17.84-17.898 8.576 10.89-15.67 12.643-10.746-5.636z" fill="#9AC449"/><path d="M206.946 76.988l30.156 10.423s1.3.464.75.484c-6.633.226-22.305.253-22.305.253l-8.6-11.16z" fill="#D5DE6C"/><g><path d="M124.2 203.817l3.108-3.117 3.304-.555-3.724-.486-2.855 2.253-.205-2.98 1.107-6.522 6.627-2.638.81-4.19-1.467 3.516-5.766 1.584.58-2.897.877-5.168-1.458-8.606h-1.312l.583 8.3-.84 4.84-2.388-1.114-5.577-1.794-3.355-3.28 2.46 3.75 5.078 2.44 3.396 1.548-1.98 12.083.292 18.764 3.643-1.556-.94-14.173z" fill="#805D49"/><path d="M139.747 152.012l-9.587-9.583-16.137 5.677-4.712 14.408 8.767 11.38 13.336 1.585 10.95-11.8-2.616-11.668z" fill="#81BB38"/><path d="M132.01 152.592l-6.77-5.756-10.052 8.197 15.54 7.227 3.556-7.227-2.275-2.44z" fill="#98C449"/><path d="M139.592 151.977l-6.777 1.423 6.777 11.062 2.772-.417-2.772-12.068z" fill="#80BA27"/><path d="M140.055 164.24l-6.88 4.646-1.83 2.624v3.97l11.02-11.75-2.31.51z" fill="#66A330"/><path d="M122.997 170.34l-4.87 3.334 13.22 1.806v-2.758l-8.35-2.383z" fill="#80BA27"/><path d="M109.312 162.118l8.738 11.158 5.218-3.33-6.978-15.03-6.978 7.202z" fill="#98C449"/><path d="M124 147.57h-10.017l-4.67 14.69L124 147.57zM139.425 151.925L130 142.43l-4.53 5.777 8.278 6.708 5.677-2.99z" fill="#9AC449"/><path d="M129.877 142.43l-16.41 5.488s-.71.243-.408.254c3.61.12 12.137.132 12.137.132l4.68-5.875z" fill="#D5DE6C"/></g><g><path d="M138.35 211.137l-.617-7.546-.228-3.14h.42l.507 3.042.76 8.242-.52 2.933-1.167.473.846-4.003z" fill="#805D49"/><path d="M132.895 193.364l2.983-3.195 5.02 1.893 1.466 4.802-2.726 3.793-4.15.528-3.406-3.933.813-3.89z" fill="#81BB38"/><path d="M135.72 193.558l2.082-1.92 3.093 2.734-4.782 2.408-1.094-2.408.7-.814z" fill="#98C449"/><path d="M133.147 193.107l2.606.418-2.606 3.254-1.066-.124 1.067-3.55z" fill="#80BA27"/><path d="M132.85 197.674l2.293 1.452.61.82v1.24l-3.672-3.673.77.16z" fill="#66A330"/><path d="M138.536 198.982l1.624 1.43-4.406.773v-1.18l2.782-1.023z" fill="#80BA27"/><path d="M143.098 196.435l-3.22 4.016-1.922-1.197 2.57-5.41 2.572 2.592z" fill="#98C449"/><path d="M137.956 191.638h3.507l1.635 5.142-5.142-5.142zM132.815 193.52l3.472-3.35 1.67 2.04-3.05 2.365-2.092-1.054z" fill="#9AC449"/><path d="M135.753 189.435l4.995 2.06s.215.09.123.094c-1.097.043-3.693.048-3.693.048l-1.424-2.203z" fill="#D5DE6C"/></g><g><g fill="#010202"><path d="M199.848 208.102l-2.428-5.906 1.216-2.48h-.42l-1.494 2.38 2.288 6.603-1.54 5.233 1.167.473 1.21-6.304z"/><path d="M193.122 192.63l2.983-3.195 5.02 1.893 1.466 4.803-2.726 3.794-4.15.527-3.406-3.932.814-3.89z"/><path d="M195.946 192.823l2.084-1.92 3.092 2.733-4.78 2.41-1.095-2.41.7-.813z"/><path d="M193.374 192.373l2.607.418-2.606 3.254-1.066-.12 1.066-3.55zM193.078 196.205l2.293 1.452.61.82v1.24l-3.672-3.673.77.16z"/><path d="M198.763 198.248l1.624 1.43-4.406.773v-1.18l2.783-1.022z"/><path d="M203.325 195.7l-3.22 4.017-1.922-1.2 2.57-5.41 2.572 2.593z"/><path d="M198.184 190.903h3.507l1.635 5.14-5.14-5.14zM193.043 192.786l3.472-3.352 1.67 2.04-3.05 2.367-2.092-1.054z"/><path d="M195.98 188.7l4.996 2.06s.215.09.123.094c-1.1.044-3.695.05-3.695.05l-1.424-2.204z"/></g><path d="M199.848 208.102l-2.428-5.906 1.216-2.48h-.42l-1.494 2.38 2.288 6.603-1.54 5.233 1.167.473 1.21-6.304z" fill="#805D49"/><path d="M193.122 192.63l2.983-3.195 5.02 1.893 1.466 4.803-2.726 3.794-4.15.527-3.406-3.932.814-3.89z" fill="#81BB38"/><path d="M195.946 192.823l2.084-1.92 3.092 2.733-4.78 2.41-1.095-2.41.7-.813z" fill="#98C449"/><path d="M193.374 192.373l2.607.418-2.606 3.254-1.066-.12 1.066-3.55z" fill="#80BA27"/><path d="M193.078 196.205l2.293 1.452.61.82v1.24l-3.672-3.673.77.16z" fill="#66A330"/><path d="M198.763 198.248l1.624 1.43-4.406.773v-1.18l2.783-1.022z" fill="#80BA27"/><path d="M203.325 195.7l-3.22 4.017-1.922-1.2 2.57-5.41 2.572 2.593z" fill="#98C449"/><path d="M198.184 190.903h3.507l1.635 5.14-5.14-5.14zM193.043 192.786l3.472-3.352 1.67 2.04-3.05 2.367-2.092-1.054z" fill="#9AC449"/><path d="M195.98 188.7l4.996 2.06s.215.09.123.094c-1.1.044-3.695.05-3.695.05l-1.424-2.204z" fill="#D5DE6C"/></g><g><path d="M110.186 216.12l-1.49-1.563-.724-1.672.924 1.15 1.37 1.13.1-1.493-1.33-8.175.7-4.312h.63l-.28 4.16.438 2.635.543-.104h.74s3.087-.67 3.47-.437l-2.662 1.07-1.886.71.894 5.377-.14 8.62-1.75.736.452-7.834z" fill="#805D49"/><path d="M102.512 190.447l4.687-4.685 7.887 2.776 2.304 7.045-4.284 5.563-6.52.774-5.353-5.77 1.28-5.703z" fill="#81BB38"/><path d="M106.777 190.707l3.386-2.74 5.025 3.902-7.77 3.44-1.78-3.44 1.14-1.163z" fill="#98C449"/><path d="M102.725 190.17l3.65.67-3.65 5.204-1.492-.196 1.492-5.68z" fill="#80BA27"/><path d="M102.464 196.302l3.67 2.322.974 1.312v1.984l-5.875-5.876 1.23.258z" fill="#66A330"/><path d="M111.283 198.982l2.436 1.907-6.61 1.03v-1.575l4.173-1.363z" fill="#80BA27"/><path d="M118.126 195.384l-4.6 5.802-2.745-1.732 3.673-7.816 3.673 3.746z" fill="#98C449"/><path d="M110.78 188.7h5.01l2.336 7.344-7.345-7.344zM102.702 190.79l4.96-5.028 2.385 3.06-4.356 3.55-2.988-1.582z" fill="#9AC449"/><path d="M107.108 185.762l7.85 2.745s.338.122.193.127c-1.724.06-5.803.066-5.803.066l-2.24-2.938z" fill="#D5DE6C"/></g><path d="M104.5 247.124l.02.058c.026 1.382-.426 2.486-1.356 3.312-.93.826-2.15 1.24-3.66 1.24-1.57 0-2.834-.567-3.796-1.7-.962-1.132-1.443-2.6-1.443-4.402v-2.294c0-1.794.48-3.262 1.443-4.4.962-1.14 2.227-1.712 3.795-1.712 1.53 0 2.756.405 3.676 1.21.918.81 1.366 1.92 1.34 3.332l-.02.06h-1.085c0-1.137-.347-2.024-1.04-2.66-.695-.634-1.652-.953-2.872-.953-1.233 0-2.222.477-2.968 1.433-.744.955-1.118 2.18-1.118 3.67v.59h5.47v.98h-5.47v.743c0 1.512.374 2.744 1.118 3.697.747.95 1.736 1.427 2.968 1.427 1.22 0 2.178-.31 2.87-.93.695-.62 1.042-1.52 1.042-2.7h1.085zm3.226 4.415v-14.1h4.114c1.465 0 2.608.31 3.428.927.82.615 1.23 1.543 1.23 2.783 0 .704-.198 1.32-.596 1.848-.397.53-.93.904-1.602 1.123.89.112 1.62.5 2.183 1.163a3.49 3.49 0 0 1 .848 2.334c0 1.26-.408 2.227-1.224 2.905-.816.678-1.91 1.016-3.278 1.016h-5.102zm1.16-6.798v5.82h3.94c1.04 0 1.858-.257 2.452-.77.594-.513.89-1.23.89-2.154 0-.846-.292-1.53-.876-2.058-.584-.525-1.367-.805-2.348-.838h-4.058zm0-.977h3.39c.975-.02 1.728-.255 2.26-.703.534-.448.8-1.1.8-1.952 0-.89-.297-1.56-.892-2.007-.593-.45-1.462-.675-2.604-.675h-2.953v5.337zm12.23 1.916v5.86h-1.16v-14.098h4.86c1.477 0 2.623.377 3.433 1.133.81.755 1.214 1.748 1.214 2.982 0 1.253-.405 2.252-1.215 3-.81.75-1.956 1.124-3.435 1.124h-3.698zm0-.986h3.7c1.162 0 2.033-.296 2.614-.887.58-.59.872-1.333.872-2.232 0-.903-.29-1.654-.872-2.25-.58-.597-1.452-.897-2.615-.897h-3.698v6.266zm21.41.948c0 1.82-.5 3.293-1.497 4.416-.998 1.123-2.336 1.685-4.015 1.685-1.652 0-2.97-.562-3.955-1.685-.984-1.123-1.476-2.596-1.476-4.416v-2.295c0-1.813.49-3.285 1.47-4.416.982-1.127 2.3-1.693 3.952-1.693 1.678 0 3.017.566 4.018 1.694 1 1.132 1.5 2.604 1.5 4.417v2.295zm-1.152-2.313c0-1.525-.386-2.752-1.157-3.68-.77-.93-1.84-1.395-3.21-1.395-1.342 0-2.39.465-3.138 1.394-.75.93-1.124 2.155-1.124 3.68v2.312c0 1.537.375 2.77 1.128 3.7.752.93 1.8 1.394 3.142 1.394 1.375 0 2.445-.463 3.21-1.39.765-.927 1.147-2.16 1.147-3.704v-2.313zm14.485 8.21h-1.163v-13.112h-8.018v13.11h-1.162v-14.097h10.342v14.1zm11.077-6.827h-6.323v5.848h7.31v.98h-8.472v-14.098h8.424v.986h-7.262v5.298h6.323v.987zm12.695-7.27h1.15v14.097h-1.15v-12.056l-.06-.01-8.016 12.065h-1.16v-14.1h1.16v12.037l.058.01 8.018-12.045zm-1.25-3.856l.02.06c.025.722-.21 1.308-.708 1.76-.497.452-1.175.68-2.033.68-.858 0-1.537-.23-2.037-.683-.5-.455-.734-1.042-.703-1.758l.02-.06h.91c0 .5.145.9.435 1.2.29.306.75.458 1.376.458.608 0 1.06-.155 1.36-.465.302-.31.45-.708.45-1.193h.912zm15.696 13.548l.02.057c.026 1.38-.426 2.486-1.356 3.312-.93.826-2.15 1.24-3.66 1.24-1.57 0-2.834-.567-3.797-1.7-.96-1.134-1.44-2.6-1.44-4.402v-2.295c0-1.794.48-3.26 1.44-4.4.963-1.14 2.228-1.71 3.796-1.71 1.532 0 2.757.403 3.677 1.21.92.807 1.367 1.917 1.34 3.33l-.02.06h-1.083c0-1.137-.347-2.022-1.04-2.657-.695-.637-1.652-.955-2.872-.955-1.232 0-2.223.477-2.968 1.433-.744.956-1.118 2.178-1.118 3.67v2.314c0 1.51.373 2.742 1.118 3.694.745.952 1.736 1.43 2.968 1.43 1.22 0 2.177-.31 2.87-.93.695-.62 1.042-1.523 1.042-2.703h1.084v.002zm4.096-3.75h3.525c1.483 0 2.63.374 3.44 1.12.81.745 1.216 1.725 1.216 2.94 0 1.218-.407 2.207-1.224 2.96-.818.757-1.962 1.134-3.434 1.134h-4.686v-14.1h1.162v5.946zm0 .99v6.186h3.525c1.16 0 2.032-.3 2.613-.9.58-.6.872-1.346.872-2.236 0-.858-.29-1.58-.872-2.17-.58-.586-1.452-.88-2.614-.88h-3.526zm13.73.475h-1.52v6.69h-1.16v-14.098h1.16v6.43h1.51l5.54-6.43h1.316l.02.048-5.848 6.778 6.43 7.223-.02.05h-1.395l-6.032-6.69zm18.777-7.408h1.153v14.098h-1.152v-12.056l-.057-.01-8.018 12.065h-1.16v-14.1h1.16v12.037l.058.01 8.018-12.045zm13.983 0h1.152v14.098h-1.152v-12.056l-.058-.01-8.017 12.065h-1.162v-14.1h1.162v12.037l.057.01 8.018-12.045zm-1.25-3.855l.02.06c.026.722-.21 1.308-.707 1.76-.497.452-1.175.68-2.034.68-.86 0-1.538-.23-2.037-.683-.5-.455-.736-1.04-.703-1.758l.02-.06h.91c0 .5.145.9.435 1.2.29.306.75.458 1.375.458.607 0 1.06-.155 1.36-.465.3-.31.45-.708.45-1.193h.912zm-83.032 40.477h1.512v4.397h-1.162v-3.417h-10.99v3.418h-1.152v-4.396h.638c.897 0 1.623-.688 2.18-2.067.554-1.378.913-3.37 1.074-5.98l.368-5.073h7.532v13.12zm-6.73-8.046c-.115 1.942-.355 3.6-.72 4.968-.365 1.37-.866 2.394-1.506 3.08h7.794V261.93h-5.285l-.282 4.088zm10.68 9.025v-14.1h4.117c1.465 0 2.608.31 3.428.927.82.615 1.23 1.543 1.23 2.783 0 .704-.2 1.32-.596 1.85-.398.528-.933.902-1.604 1.12.89.112 1.62.5 2.185 1.164.565.665.848 1.442.848 2.333 0 1.26-.408 2.228-1.225 2.905-.817.678-1.91 1.017-3.278 1.017h-5.104zm1.164-6.8v5.82h3.94c1.04 0 1.856-.255 2.45-.768.594-.514.89-1.232.89-2.154 0-.846-.29-1.53-.875-2.058-.586-.525-1.368-.805-2.35-.838h-4.056zm0-.975h3.39c.974-.02 1.73-.254 2.26-.703.532-.447.8-1.1.8-1.95 0-.892-.297-1.562-.89-2.01-.595-.448-1.464-.674-2.606-.674h-2.954v5.338zm12.53 7.775h-1.162v-14.1h1.163v14.1zm5.064-5.86v5.86h-1.162v-14.1h4.86c1.48 0 2.625.378 3.435 1.134.81.755 1.215 1.75 1.215 2.982 0 1.252-.405 2.25-1.214 3-.81.75-1.954 1.124-3.433 1.124h-3.7zm0-.986h3.7c1.16 0 2.033-.295 2.614-.886.58-.59.87-1.333.87-2.23 0-.905-.29-1.655-.87-2.252-.58-.597-1.453-.897-2.615-.897h-3.7v6.267z" fill="#010202"/></g></svg>