<?xml version="1.0" encoding="utf-8"?>
<!-- Generator: Adobe Illustrator 15.0.2, SVG Export Plug-In  -->
<!DOCTYPE svg PUBLIC "-//W3C//DTD SVG 1.1//EN" "http://www.w3.org/Graphics/SVG/1.1/DTD/svg11.dtd" [
	<!ENTITY ns_flows "http://ns.adobe.com/Flows/1.0/">
]>
<svg version="1.1"
	 xmlns="http://www.w3.org/2000/svg" xmlns:xlink="http://www.w3.org/1999/xlink" xmlns:a="http://ns.adobe.com/AdobeSVGViewerExtensions/3.0/"
	 x="0px" y="0px" width="154px" height="206px" viewBox="0 0 154 206" enable-background="new 0 0 154 206" xml:space="preserve">
<defs>
</defs>
<polygon fill="#EDEDED" points="4.782,161.801 91.467,161.801 91.467,203.099 150.577,203.099 150.577,176.051 128.543,176.051 
	128.543,161.801 138.967,161.801 138.967,18.645 4.782,18.645 "/>
<g>
	<defs>
		<rect id="SVGID_5_" width="153.62" height="206.292"/>
	</defs>
	<clipPath id="SVGID_6_">
		<use xlink:href="#SVGID_5_"  overflow="visible"/>
	</clipPath>
	
		<path clip-path="url(#SVGID_6_)" fill="none" stroke="#B2B2B2" stroke-width="0.5" stroke-linecap="round" stroke-linejoin="round" stroke-miterlimit="10" d="
		M138.967,161.801h-10.425 M153.15,161.801h-5.211 M128.542,161.801v14.116 M91.468,161.801H77.613 M75.633,161.801H47.531
		 M47.531,161.801v8.972 M91.468,170.772v-8.972 M16.656,161.801H4.781 M16.656,170.772v-8.972 M138.808,151.5h-15.771
		 M4.781,18.645h47.762 M54.392,18.645h11.083 M65.475,18.645V9.671 M65.475,9.671H0.823 M86.718,18.645h11.083 M99.779,18.645
		h39.188 M86.718,9.671v8.973"/>
</g>
<path fill="none" stroke="#B2B2B2" stroke-width="0.5" stroke-linecap="round" stroke-linejoin="round" stroke-miterlimit="10" d="
	M138.967,18.645v52.117 M138.967,72.609v89.192 M123.036,72.609v78.6 M147.938,161.801v-72.04 M147.938,87.914V45.297
	 M147.938,43.45V9.672"/>
<path fill="none" stroke="#B2B2B2" stroke-width="0.5" stroke-linecap="round" stroke-linejoin="round" stroke-miterlimit="10" d="
	M147.938,87.914v1.847 M147.938,43.45v1.847"/>
<line fill="none" stroke="#B2B2B2" stroke-width="0.5" stroke-linecap="round" stroke-linejoin="round" stroke-miterlimit="10" x1="147.938" y1="9.671" x2="147.938" y2="43.449"/>
<line fill="none" stroke="#B2B2B2" stroke-width="0.5" stroke-linecap="round" stroke-linejoin="round" stroke-miterlimit="10" x1="147.938" y1="87.914" x2="147.938" y2="45.428"/>
<line fill="none" stroke="#B2B2B2" stroke-width="0.5" stroke-linecap="round" stroke-linejoin="round" stroke-miterlimit="10" x1="147.938" y1="138.183" x2="147.938" y2="123.934"/>
<path fill="none" stroke="#B2B2B2" stroke-width="0.5" stroke-linecap="round" stroke-linejoin="round" stroke-miterlimit="10" d="
	M94.501,33.118v0.962 M96.218,33.118h-1.717 M94.501,50.707v1.318 M97.801,72.608h1.979 M99.779,18.645h-1.979 M99.779,72.608
	h39.188 M138.967,70.761h-0.265 M138.967,72.608v-1.847 M94.501,70.761v1.847 M94.501,72.608h3.3 M54.392,49.122V18.645
	 M52.543,18.645v31.27 M52.543,49.915l2.179,2.375 M53.996,51.497l0.397-0.395 M54.392,18.645h-1.848 M77.613,161.801V72.608
	 M75.633,73.136v88.665 M75.633,161.801h1.98"/>
<path fill="none" stroke="#B2B2B2" stroke-width="0.5" stroke-linecap="round" stroke-linejoin="round" stroke-miterlimit="10" d="
	M138.967,70.762V18.645 M138.967,18.645h-27.444 M138.702,70.762h0.265 M134.744,60.997h0.133 M134.875,60.997l0.133,0.131
	 M135.008,61.128h0.133 M135.141,61.128v0.133 M135.141,61.261v0.131 M135.141,61.392v0.133 M135.141,61.525v0.131 M135.141,61.656
	l-0.133,0.134 M135.008,61.79h-0.133 M134.875,61.79v0.13 M134.877,61.92h-0.133 M134.744,61.92h-0.132 M134.612,61.92l-0.132-0.13
	 M134.48,61.79h-0.132 M134.349,61.79v-0.134 M134.349,61.656l-0.132-0.131 M134.217,61.525v-0.133 M134.217,61.392v-0.131
	 M134.217,61.261l0.132-0.133 M134.349,61.128l0.132-0.131 M134.48,60.997h0.132 M134.612,60.997h0.132 M137.515,54.531v13.722
	 M136.063,53.213h0.396 M136.459,53.213l0.396,0.133 M136.855,53.346l0.264,0.261 M137.119,53.607l0.265,0.264 M137.383,53.871
	l0.132,0.265 M137.515,54.136v0.395 M105.718,53.213h30.346 M105.718,69.705l-1.584-0.131 M104.134,69.574l-1.451-0.398
	 M102.683,69.177l-1.319-0.79 M101.363,68.387l-1.32-0.924 M100.043,67.463l-0.924-1.057 M99.119,66.406l-0.923-1.318
	 M98.196,65.088l-0.528-1.451 M97.668,63.636l-0.263-1.452 M97.405,62.184v-1.582 M97.405,60.602l0.263-1.452 M97.668,59.15
	l0.528-1.451 M98.196,57.699l0.924-1.319 M99.119,56.38l0.924-1.056 M100.043,55.324l1.32-0.924 M101.363,54.4l1.319-0.659
	 M102.683,53.741l1.45-0.395 M104.134,53.346l1.584-0.133 M136.063,69.705h-30.346 M137.515,68.253v0.398 M137.515,68.651
	l-0.132,0.262 M137.383,68.913l-0.265,0.397 M137.119,69.31l-0.264,0.131 M136.855,69.441l-0.396,0.133 M136.459,69.574
	l-0.396,0.131 M94.501,52.025h44.201 M96.218,70.893V52.025 M138.702,70.893H96.218 M102.532,25.77v-0.134 M102.532,25.636
	l0.132-0.131 M102.664,25.505h0.133 M102.797,25.505l0.132,0.131 M102.929,25.636v0.134 M102.929,25.77v0.13 M102.929,25.9
	l-0.132,0.132 M102.797,26.032h-0.134 M102.664,26.032l-0.132-0.132 M102.532,25.9v-0.13 M99.233,25.77l0.132-0.926 M99.365,24.844
	l0.266-0.79 M99.631,24.054l0.658-0.793 M100.289,23.261l0.66-0.529 M100.949,22.733l0.923-0.395 M101.872,22.338l0.925-0.131
	 M102.797,22.207l0.923,0.131 M103.72,22.338l0.792,0.395 M104.512,22.733l0.792,0.528 M105.304,23.261l0.526,0.793 M105.83,24.054
	l0.396,0.79 M106.227,24.844v0.926 M106.227,25.77v0.924 M106.227,26.694l-0.396,0.789 M105.83,27.483l-0.526,0.793 M105.304,28.276
	l-0.793,0.528 M104.512,28.804l-0.792,0.395 M103.72,29.199l-0.923,0.131 M102.797,29.33l-0.925-0.131 M101.872,29.199l-0.923-0.395
	 M100.949,28.804l-0.661-0.528 M100.289,28.276l-0.658-0.793 M99.631,27.483l-0.266-0.79 M99.365,26.694l-0.132-0.924
	 M96.218,32.781V21.233 M109.789,32.893H96.218 M109.789,18.644v14.249 M97.405,18.645h14.117 M133.952,31.575h-0.132
	 M133.82,31.575l-0.132-0.134 M133.688,31.444l-0.131-0.134 M133.558,31.31v-0.131 M133.558,31.179v-0.133 M133.558,31.046v-0.131
	 M133.558,30.915v-0.133 M133.558,30.782h0.131 M133.688,30.782v-0.131 M133.688,30.651h0.132 M133.82,30.651h0.132 M133.952,30.651
	h0.132 M134.084,30.651h0.133 M134.217,30.651l0.132,0.131 M134.349,30.782l0.132,0.133 M134.48,30.915v0.131 M134.48,31.046v0.133
	 M134.48,31.179l-0.132,0.131 M134.349,31.31v0.134 M134.349,31.441h-0.132 M134.217,31.441l-0.133,0.134 M134.084,31.575h-0.132
	 M130.391,28.276v5.674 M130.391,33.95l-1.057,0.395 M129.334,34.345l-1.318,0.264 M128.016,34.609h-1.188 M126.828,34.609
	l-1.319-0.131 M125.509,34.478l-1.188-0.264 M124.32,34.214l-1.187-0.398 M123.134,33.816l-0.924-0.526 M122.21,33.29l-0.659-0.662
	 M121.55,32.629l-0.396-0.791 M121.154,31.838l-0.132-0.792 M121.022,31.046l0.132-0.79 M121.154,30.256l0.396-0.662
	 M121.551,29.594l0.659-0.659 M122.21,28.935l0.924-0.659 M123.134,28.276l1.187-0.395 M124.32,27.881l1.188-0.264 M125.509,27.617
	l1.319-0.134 M126.828,27.483l1.188,0.134 M128.016,27.617l1.317,0.264 M129.334,27.881l1.057,0.395 M131.974,26.694l-0.132,0.263
	 M131.842,26.957l-0.133,0.262 M131.709,27.219l-0.132,0.264 M129.598,26.694h2.376 M129.598,35.401l-1.45,0.265 M128.146,35.666
	l-1.451,0.13 M126.695,35.796l-1.451-0.13 M125.244,35.666l-1.319-0.265 M123.925,35.401l-1.319-0.528 M122.605,34.873l-1.055-0.66
	 M121.55,34.214l-0.792-0.793 M120.759,33.421l-0.66-0.923 M120.099,32.498l-0.265-0.923 M119.834,31.575v-0.924 M119.834,30.651
	l0.265-1.056 M120.099,29.594l0.66-0.79 M120.759,28.804l0.791-0.792 M121.551,28.012l1.055-0.659 M122.605,27.353l1.319-0.529
	 M123.925,26.824l1.318-0.395 M125.244,26.429l1.451-0.133 M126.695,26.296l1.451,0.133 M128.147,26.429l1.45,0.265 M131.974,35.401
	h-2.376 M131.577,34.609l0.132,0.264 M131.709,34.873l0.133,0.395 M131.842,35.268l0.132,0.133 M131.577,27.483v7.125
	 M136.327,27.483v7.125 M135.141,26.296l0.395,0.133 M135.535,26.429l0.266,0.131 M135.801,26.56l0.263,0.134 M136.063,26.694
	l0.132,0.263 M136.195,26.957l0.132,0.262 M136.327,27.219v0.264 M132.765,26.296h2.376 M131.577,27.483l0.132-0.264
	 M131.709,27.219l0.133-0.262 M131.842,26.957l0.132-0.264 M131.974,26.694l0.264-0.134 M132.237,26.56l0.264-0.131 M132.501,26.429
	l0.264-0.133 M131.577,34.609v-7.126 M132.765,35.796h-0.264 M132.501,35.796l-0.264-0.13 M132.237,35.666l-0.264-0.265
	 M131.974,35.401l-0.132-0.133 M131.842,35.268l-0.133-0.395 M131.709,34.873l-0.132-0.265 M135.141,35.796h-2.376 M136.327,34.609
	v0.264 M136.327,34.873l-0.132,0.395 M136.195,35.268l-0.132,0.133 M136.063,35.401l-0.263,0.265 M135.801,35.666l-0.266,0.13
	 M135.535,35.796h-0.396 M136.327,44.373h0.132"/>
<path fill="none" stroke="#B2B2B2" stroke-width="0.5" stroke-linecap="round" stroke-linejoin="round" stroke-miterlimit="10" d="
	M136.46,44.373l0.132,0.132 M136.592,44.504h0.132 M136.724,44.504v0.131 M136.724,44.635l0.132,0.133 M136.855,44.769v0.131
	 M136.855,44.899v0.133 M136.855,45.032l-0.132,0.131 M136.724,45.164l-0.132,0.133 M136.592,45.296h-0.132 M136.46,45.296h-0.132
	 M136.328,45.296h-0.133 M136.195,45.296h-0.132 M136.063,45.296v-0.133 M136.063,45.164h-0.133 M135.931,45.164v-0.131
	 M135.931,45.032v-0.133 M135.931,44.899v-0.131 M135.931,44.769v-0.133 M135.931,44.635l0.133-0.131 M136.063,44.504l0.132-0.132
	 M136.195,44.373h0.133 M137.515,40.677v8.444 M137.119,40.151l0.132,0.131 M137.251,40.282h0.132 M137.383,40.282l0.132,0.131
	 M137.515,40.414v0.133 M137.515,40.545v0.132 M133.293,40.151h3.826 M132.765,40.677v-0.132 M132.765,40.545l0.132-0.132
	 M132.896,40.414v-0.131 M132.896,40.282h0.132 M133.029,40.282l0.132-0.131 M133.161,40.151h0.132 M132.765,49.122v-8.444
	 M133.293,49.649h-0.132 M133.161,49.649l-0.132-0.131 M133.029,49.519h-0.133 M132.896,49.519v-0.133 M132.896,49.385l-0.132-0.131
	 M132.765,49.254v-0.133 M137.119,49.649h-3.826 M137.515,49.122v0.133 M137.515,49.254v0.131 M137.515,49.385l-0.132,0.133
	 M137.383,49.519h-0.132 M137.251,49.519l-0.132,0.131 M131.577,38.963h7.125 M131.577,50.837V38.963 M138.703,50.837h-7.125
	 M135.141,112.058l0.396,0.133 M135.536,112.19l0.395,0.131 M135.931,112.321l0.397,0.265 M136.328,112.586l0.264,0.396
	 M136.592,112.981l0.132,0.396 M136.724,113.378l0.132,0.396 M136.855,113.773l-0.132,0.395 M136.724,114.168l-0.132,0.398
	 M136.592,114.566l-0.264,0.395 M136.328,114.961l-0.397,0.265 M135.931,115.226l-0.395,0.131 M135.536,115.356h-0.396
	 M135.141,115.356h-0.396 M134.744,115.356l-0.396-0.131 M134.349,115.226l-0.396-0.265 M133.953,114.961l-0.265-0.395
	 M133.688,114.566l-0.132-0.398 M133.557,114.168v-0.395 M133.557,113.773v-0.396 M133.557,113.378l0.132-0.396 M133.688,112.981
	l0.265-0.396 M133.953,112.586l0.396-0.265 M134.349,112.321l0.396-0.131 M134.745,112.19l0.396-0.133 M135.141,104.272l0.66,0.134
	 M135.801,104.406l0.527,0.264 M136.328,104.67l0.527,0.396 M136.855,105.065l0.396,0.395 M137.251,105.46l0.132,0.662
	 M137.383,106.121l0.132,0.527 M137.515,106.648l-0.132,0.659 M137.383,107.308l-0.132,0.528 M137.251,107.836l-0.396,0.528
	 M136.855,108.363l-0.527,0.396 M136.328,108.76l-0.527,0.264 M135.801,109.023h-0.661 M135.141,109.023h-0.528 M134.612,109.023
	l-0.659-0.264 M133.953,108.76l-0.396-0.396 M133.557,108.363l-0.396-0.528 M133.161,107.836l-0.265-0.528 M132.896,107.308
	l-0.132-0.659 M132.765,106.648l0.132-0.527 M132.896,106.121l0.265-0.661 M133.161,105.46l0.396-0.395 M133.557,105.065
	l0.396-0.396 M133.953,104.67l0.659-0.264 M134.612,104.406l0.528-0.134 M128.147,111.398l0.527,0.133 M128.675,111.531l0.528,0.131
	 M129.203,111.662l0.527,0.396 M129.729,112.058l0.396,0.528 M130.126,112.586l0.265,0.528 M130.391,113.114v0.659 M130.391,113.773
	v0.659 M130.391,114.433l-0.265,0.528 M130.126,114.961l-0.396,0.528 M129.729,115.489l-0.526,0.264 M129.203,115.753l-0.528,0.265
	 M128.675,116.018l-0.527,0.131 M128.146,116.148l-0.66-0.131 M127.487,116.018l-0.527-0.265 M126.96,115.753l-0.528-0.264
	 M126.432,115.489l-0.396-0.528 M126.035,114.961l-0.264-0.528 M125.771,114.433v-0.659 M125.771,113.773v-0.659 M125.771,113.114
	l0.264-0.528 M126.035,112.586l0.396-0.528 M126.432,112.058l0.528-0.396 M126.96,111.662l0.527-0.131 M127.487,111.531l0.659-0.133
	 M128.147,105.065h0.396 M128.543,105.065l0.396,0.131 M128.938,105.196l0.265,0.264 M129.203,105.46l0.264,0.398 M129.466,105.858
	l0.264,0.395 M129.729,106.252v0.396 M129.729,106.648v0.396 M129.729,107.045l-0.264,0.396 M129.466,107.44l-0.263,0.396
	 M129.203,107.836l-0.265,0.265 M128.938,108.1l-0.396,0.134 M128.543,108.233l-0.396,0.13 M128.146,108.363l-0.526-0.13
	 M127.62,108.233l-0.397-0.134 M127.224,108.1l-0.264-0.265 M126.96,107.836l-0.265-0.396 M126.695,107.44l-0.264-0.396
	 M126.432,107.045v-0.396 M126.432,106.648v-0.396 M126.432,106.252l0.264-0.395 M126.695,105.858l0.265-0.398 M126.96,105.46
	l0.264-0.264 M127.224,105.196l0.396-0.131 M127.62,105.065h0.526 M124.585,103.085h14.118 M124.585,117.336v-14.25
	 M138.703,117.336h-14.118 M133.953,88.309h0.131 M134.084,88.309l0.133,0.133 M134.217,88.441h0.132 M134.349,88.441v0.131
	 M134.349,88.572l0.132,0.131 M134.48,88.704v0.134 M134.48,88.836v0.131 M134.48,88.967l-0.132,0.134 M134.349,89.102l-0.132,0.131
	 M134.217,89.232h-0.133 M134.084,89.232h-0.131 M133.953,89.232h-0.134 M133.819,89.232h-0.131 M133.688,89.232v-0.131
	 M133.688,89.102h-0.132 M133.557,89.102v-0.134 M133.557,88.967v-0.131 M133.557,88.836v-0.133 M133.557,88.704v-0.131
	 M133.557,88.572l0.132-0.131 M133.688,88.441l0.131-0.133 M133.819,88.309h0.134 M135.141,85.143v7.257 M134.745,84.615
	l0.133,0.131 M134.876,84.747h0.132 M135.008,84.747l0.132,0.133 M135.141,84.878v0.132 M135.141,85.01v0.132 M128.543,84.615h6.201
	 M128.147,85.143V85.01 M128.147,85.01v-0.132 M128.147,84.878l0.132-0.132 M128.278,84.747h0.133 M128.411,84.747l0.132-0.131
	 M128.147,92.399v-7.257 M128.543,92.927h-0.132 M128.411,92.927h-0.133 M128.278,92.927v-0.133 M128.279,92.794l-0.132-0.131
	 M128.147,92.664V92.53 M128.147,92.53v-0.131 M134.744,92.927h-6.201 M135.141,92.399v0.131 M135.141,92.53v0.133 M135.141,92.664
	l-0.133,0.131 M135.008,92.794l-0.132,0.133 M134.878,92.927h-0.133 M126.96,75.248h9.368 M126.96,94.113V75.248"/>
<path fill="none" stroke="#B2B2B2" stroke-width="0.5" stroke-linecap="round" stroke-linejoin="round" stroke-miterlimit="10" d="
	M136.327,94.114h-9.368 M136.327,75.247v18.866 M129.203,76.435v6.993 M130.391,76.435v6.993 M131.577,76.435v6.993 M132.765,76.435
	v6.993 M133.952,76.435v6.993 M128.147,83.428v-6.993 M135.141,76.435v6.993"/>
<path fill="none" stroke="#B2B2B2" stroke-width="0.5" stroke-linecap="round" stroke-linejoin="round" stroke-miterlimit="10" d="
	M94.502,34.08l-2.771,0.265 M91.732,34.345l-2.772,0.792 M88.96,35.137l-2.638,1.187"/>
<line fill="none" stroke="#B2B2B2" stroke-width="0.5" stroke-linecap="round" stroke-linejoin="round" stroke-miterlimit="10" x1="86.322" y1="36.324" x2="94.502" y2="50.706"/>
<g>
	<defs>
		<rect id="SVGID_4_" width="153.62" height="206.292"/>
	</defs>
	<clipPath id="SVGID_7_">
		<use xlink:href="#SVGID_4_"  overflow="visible"/>
	</clipPath>
	
		<path clip-path="url(#SVGID_7_)" fill="none" stroke="#B2B2B2" stroke-width="0.5" stroke-linecap="round" stroke-linejoin="round" stroke-miterlimit="10" d="
		M88.697,203.099v-27.181 M91.467,203.099v-31.006 M120.23,205.868H91.467 M120.23,203.099H91.467 M150.577,189.111h2.243
		 M152.952,189.111h0.396 M153.349,189.111v13.987 M150.577,189.111v13.987"/>
	
		<path clip-path="url(#SVGID_7_)" fill="none" stroke="#B2B2B2" stroke-width="0.5" stroke-linecap="round" stroke-linejoin="round" stroke-miterlimit="10" d="
		M150.577,205.868h2.771 M153.349,205.868v-2.77 M91.467,172.093v-1.32 M153.349,189.111v-1.317 M153.347,187.794h-2.77
		 M150.577,187.794v1.317 M150.577,189.111h2.771"/>
	
		<path clip-path="url(#SVGID_7_)" fill="none" stroke="#B2B2B2" stroke-width="0.5" stroke-linecap="round" stroke-linejoin="round" stroke-miterlimit="10" d="
		M121.682,205.868v-0.394 M121.682,204.021v-0.923 M125.508,203.099v0.923 M125.508,205.475v0.394 M125.508,205.868h-3.826
		 M125.508,203.099h-3.826"/>
	
		<path clip-path="url(#SVGID_7_)" fill="none" stroke="#B2B2B2" stroke-width="0.5" stroke-linecap="round" stroke-linejoin="round" stroke-miterlimit="10" d="
		M120.23,205.868h1.451 M121.682,205.868v-2.77 M121.682,203.099h-1.451 M120.23,203.099v2.77"/>
	
		<path clip-path="url(#SVGID_7_)" fill="none" stroke="#B2B2B2" stroke-width="0.5" stroke-linecap="round" stroke-linejoin="round" stroke-miterlimit="10" d="
		M150.577,205.868H126.96 M150.577,203.099H126.96"/>
	
		<path clip-path="url(#SVGID_7_)" fill="none" stroke="#B2B2B2" stroke-width="0.5" stroke-linecap="round" stroke-linejoin="round" stroke-miterlimit="10" d="
		M125.508,205.868h1.451 M126.959,205.868v-2.77 M126.959,203.099h-1.451 M125.508,203.099v2.77"/>
	
		<path clip-path="url(#SVGID_7_)" fill="none" stroke="#B2B2B2" stroke-width="0.5" stroke-linecap="round" stroke-linejoin="round" stroke-miterlimit="10" d="
		M57.954,203.099v-27.182 M60.857,175.917v27.182 M60.857,175.917h-2.903 M153.349,205.868H57.954 M60.857,203.099h27.839
		 M93.578,203.099h26.652 M126.96,203.099h23.617 M153.349,205.868v-2.77 M57.954,203.099v2.77"/>
	
		<path clip-path="url(#SVGID_7_)" fill="none" stroke="#B2B2B2" stroke-width="0.5" stroke-linecap="round" stroke-linejoin="round" stroke-miterlimit="10" d="
		M153.349,187.793V161.8 M153.348,175.917h-24.805 M150.576,175.917v11.876 M150.576,187.793h2.771 M77.519,72.382l-7.162-7.163
		 M70.356,65.219l-1.32,1.32 M69.037,66.539l6.597,6.598 M55.448,50.178l-1.056-1.057 M54.392,51.101l1.055-0.923"/>
</g>
<path fill="none" stroke="#B2B2B2" stroke-width="0.5" stroke-linecap="round" stroke-linejoin="round" stroke-miterlimit="10" d="
	M54.796,52.434l-1.988,2.361 M52.808,54.795l-1.714,2.904 M51.094,57.699l-1.056,3.034"/>
<line fill="none" stroke="#B2B2B2" stroke-width="0.5" stroke-linecap="round" stroke-linejoin="round" stroke-miterlimit="10" x1="50.038" y1="60.733" x2="68.245" y2="65.614"/>
<line fill="none" stroke="#B2B2B2" stroke-width="0.5" stroke-linecap="round" stroke-linejoin="round" stroke-miterlimit="10" x1="68.245" y1="65.614" x2="68.862" y2="66.388"/>
<g>
	<defs>
		<rect id="SVGID_3_" width="153.62" height="206.292"/>
	</defs>
	<clipPath id="SVGID_8_">
		<use xlink:href="#SVGID_3_"  overflow="visible"/>
	</clipPath>
	
		<path clip-path="url(#SVGID_8_)" fill="none" stroke="#B2B2B2" stroke-width="0.5" stroke-linecap="round" stroke-linejoin="round" stroke-miterlimit="10" d="
		M4.782,161.801V18.645 M0.296,9.671v152.129 M4.782,18.645H0.296 M0.296,161.801h4.486"/>
</g>
<line fill="none" stroke="#B2B2B2" stroke-width="0.5" stroke-linecap="round" stroke-linejoin="round" stroke-miterlimit="10" x1="77.876" y1="78.282" x2="79.196" y2="80.919"/>
<line fill="none" stroke="#B2B2B2" stroke-width="0.5" stroke-linecap="round" stroke-linejoin="round" stroke-miterlimit="10" x1="79.196" y1="80.919" x2="94.528" y2="71.978"/>
<path fill="none" stroke="#B2B2B2" stroke-width="0.5" stroke-linecap="round" stroke-linejoin="round" stroke-miterlimit="10" d="
	M94.502,72.609V52.024 M94.502,33.119V18.644 M96.218,33.007V18.875"/>
<g>
	<defs>
		<rect id="SVGID_2_" width="153.62" height="206.292"/>
	</defs>
	<clipPath id="SVGID_9_">
		<use xlink:href="#SVGID_2_"  overflow="visible"/>
	</clipPath>
	
		<path clip-path="url(#SVGID_9_)" fill="none" stroke="#B2B2B2" stroke-width="0.5" stroke-linecap="round" stroke-linejoin="round" stroke-miterlimit="10" d="
		M47.53,170.772v5.145 M47.53,175.917h43.938 M88.697,178.083h2.771 M88.697,201h2.771 M0.295,161.801v11.347 M0.295,173.147v2.77
		 M0.295,175.917h16.361 M16.657,175.917v-5.145"/>
</g>
<path fill="none" stroke="#B2B2B2" stroke-width="0.5" stroke-linecap="round" stroke-linejoin="round" stroke-miterlimit="10" d="
	M38.559,170.772h-2.375 M35.127,170.772h-2.375 M45.684,170.772h-2.242 M42.253,170.772h-2.243 M42.78,170.772H32.752
	 M38.559,169.32h-5.806 M45.684,169.32h-5.673 M42.78,169.32H32.752"/>
<path fill="none" stroke="#B2B2B2" stroke-width="0.5" stroke-linecap="round" stroke-linejoin="round" stroke-miterlimit="10" d="
	M44.233,169.32H34.205 M34.205,170.772h10.028"/>
<path fill="none" stroke="#B2B2B2" stroke-width="0.5" stroke-linecap="round" stroke-linejoin="round" stroke-miterlimit="10" d="
	M44.233,170.772h1.451 M45.684,170.772v-1.452 M45.684,169.32h-1.451 M44.233,169.32v1.452 M34.205,170.772v-1.452 M34.205,169.32
	h-1.452 M32.753,169.32v1.452 M32.753,170.772h1.452"/>
<path fill="none" stroke="#B2B2B2" stroke-width="0.5" stroke-linecap="round" stroke-linejoin="round" stroke-miterlimit="10" d="
	M32.753,170.772h4.75 M41.066,170.772h4.618 M32.753,169.32h12.931"/>
<path fill="none" stroke="#B2B2B2" stroke-width="0.5" stroke-linecap="round" stroke-linejoin="round" stroke-miterlimit="10" d="
	M45.683,169.32h-12.93 M31.434,169.32H18.503 M32.753,170.772h12.93 M18.503,170.772h12.931"/>
<path fill="none" stroke="#B2B2B2" stroke-width="0.5" stroke-linecap="round" stroke-linejoin="round" stroke-miterlimit="10" d="
	M31.435,170.772h1.318 M32.752,170.772v-1.452 M32.752,169.32h-1.318 M31.435,169.32v1.452 M45.684,170.772h1.451 M47.134,170.772
	v-1.452 M47.134,169.32h-1.451 M45.684,169.32v1.452 M18.503,170.772v-1.452 M18.503,169.32h-1.451 M17.053,169.32v1.452
	 M17.053,170.772h1.451"/>
<path fill="none" stroke="#B2B2B2" stroke-width="0.5" stroke-linecap="round" stroke-linejoin="round" stroke-miterlimit="10" d="
	M47.53,169.321h-0.396 M47.134,169.321v1.451 M47.134,170.772h0.396 M47.53,170.772v-1.451 M17.053,169.321h-0.396 M16.657,169.321
	v1.451 M16.657,170.772h0.396 M17.053,170.772v-1.451 M16.657,176.051v-5.278 M47.53,170.772v5.278 M47.53,176.051H16.657
	 M47.53,170.772H16.657 M47.53,170.772H16.657 M47.53,161.01v8.312 M16.657,169.321v-8.312 M47.53,169.321H16.657 M16.657,161.01
	H47.53"/>
<g>
	<defs>
		<rect id="SVGID_1_" width="153.62" height="206.292"/>
	</defs>
	<clipPath id="SVGID_10_">
		<use xlink:href="#SVGID_1_"  overflow="visible"/>
	</clipPath>
	
		<line clip-path="url(#SVGID_10_)" fill="none" stroke="#B2B2B2" stroke-width="0.5" stroke-linecap="round" stroke-linejoin="round" stroke-miterlimit="10" x1="3.198" y1="175.917" x2="0.295" y2="175.917"/>
	
		<path clip-path="url(#SVGID_10_)" fill="none" stroke="#B2B2B2" stroke-width="0.5" stroke-linecap="round" stroke-linejoin="round" stroke-miterlimit="10" d="
		M0.257,9.671"/>
	
		<path clip-path="url(#SVGID_10_)" fill="none" stroke="#B2B2B2" stroke-width="0.5" stroke-linecap="round" stroke-linejoin="round" stroke-miterlimit="10" d="
		M0.257,9.671"/>
	
		<line clip-path="url(#SVGID_10_)" fill="none" stroke="#B2B2B2" stroke-width="0.5" stroke-linecap="round" stroke-linejoin="round" stroke-miterlimit="10" x1="4.313" y1="9.671" x2="0.295" y2="9.671"/>
</g>
<path fill="none" stroke="#B2B2B2" stroke-width="0.5" stroke-linecap="round" stroke-linejoin="round" stroke-miterlimit="10" d="
	M66.662,9.671l0.264-3.298 M66.926,6.374l0.923-3.167 M67.849,3.206l1.32-2.903"/>
<line fill="none" stroke="#B2B2B2" stroke-width="0.5" stroke-linecap="round" stroke-linejoin="round" stroke-miterlimit="10" x1="69.169" y1="0.304" x2="85.529" y2="9.671"/>
<path fill="none" stroke="#B2B2B2" stroke-width="0.5" stroke-linecap="round" stroke-linejoin="round" stroke-miterlimit="10" d="
	M65.571,9.671h0.958 M65.475,11.649V9.671 M86.718,9.671v1.978 M85.813,9.671h62.125"/>
</svg>
