<?xml version="1.0" encoding="utf-8"?>
<!-- Generator: Adobe Illustrator 15.0.2, SVG Export Plug-In  -->
<!DOCTYPE svg PUBLIC "-//W3C//DTD SVG 1.1//EN" "http://www.w3.org/Graphics/SVG/1.1/DTD/svg11.dtd" [
	<!ENTITY ns_flows "http://ns.adobe.com/Flows/1.0/">
]>
<svg version="1.1"
	 xmlns="http://www.w3.org/2000/svg" xmlns:xlink="http://www.w3.org/1999/xlink" xmlns:a="http://ns.adobe.com/AdobeSVGViewerExtensions/3.0/"
	 x="0px" y="0px" width="223px" height="207px" viewBox="0 0 223 207" enable-background="new 0 0 223 207" xml:space="preserve">
<defs>
</defs>
<polygon fill="#EDEDED" points="9.465,162.987 172.676,162.987 172.676,171.959 160.933,171.959 160.933,177.104 130.192,177.104 
	130.192,204.285 219.912,204.285 219.912,171.959 209.751,171.959 209.751,162.987 218.328,162.987 218.328,19.831 9.465,19.831 "/>
<line fill="none" stroke="#B2B2B2" stroke-width="0.5" stroke-linecap="round" stroke-linejoin="round" stroke-miterlimit="10" x1="61.054" y1="177.104" x2="61.054" y2="176.973"/>
<g>
	<defs>
		<rect id="SVGID_5_" width="223.104" height="207.359"/>
	</defs>
	<clipPath id="SVGID_6_">
		<use xlink:href="#SVGID_5_"  overflow="visible"/>
	</clipPath>
	
		<path clip-path="url(#SVGID_6_)" fill="none" stroke="#B2B2B2" stroke-width="0.5" stroke-linecap="round" stroke-linejoin="round" stroke-miterlimit="10" d="
		M218.328,162.987h-8.576 M209.752,162.987v8.973 M209.752,171.959h13.063 M172.676,162.987h-32.324 M138.503,162.987H118.58
		 M118.58,162.987v8.973 M172.676,171.959v-8.973 M87.574,162.987H74.775 M72.796,162.987H61.054 M61.054,162.987v8.973
		 M87.574,171.959v-8.973 M30.047,162.987H9.465 M30.047,171.959v-8.973 M9.465,19.831h41.562 M51.159,19.831v-8.973 M75.962,19.831
		h62.541 M140.352,19.831h77.977 M222.814,10.858H110.399 M105.914,10.858H74.248 M75.962,10.858v8.973"/>
</g>
<line fill="none" stroke="#B2B2B2" stroke-width="0.5" stroke-linecap="round" stroke-linejoin="round" stroke-miterlimit="10" x1="105.914" y1="10.858" x2="110.4" y2="10.858"/>
<path fill="none" stroke="#B2B2B2" stroke-width="0.5" stroke-linecap="round" stroke-linejoin="round" stroke-miterlimit="10" d="
	M218.328,19.831V134.62 M222.814,177.104V10.858 M222.814,19.831h-4.486"/>
<g>
	<defs>
		<rect id="SVGID_4_" width="223.104" height="207.359"/>
	</defs>
	<clipPath id="SVGID_7_">
		<use xlink:href="#SVGID_4_"  overflow="visible"/>
	</clipPath>
	
		<path clip-path="url(#SVGID_7_)" fill="none" stroke="#B2B2B2" stroke-width="0.5" stroke-linecap="round" stroke-linejoin="round" stroke-miterlimit="10" d="
		M0.493,10.858v61.09 M0.493,73.795v103.309 M9.465,162.988V90.947 M9.465,89.101V46.483 M9.465,44.636V19.832"/>
	
		<path clip-path="url(#SVGID_7_)" fill="none" stroke="#B2B2B2" stroke-width="0.5" stroke-linecap="round" stroke-linejoin="round" stroke-miterlimit="10" d="
		M53.004,10.858l0.265-3.693 M53.27,7.166l0.923-3.564 M54.192,3.602l1.582-3.299"/>
	
		<line clip-path="url(#SVGID_7_)" fill="none" stroke="#B2B2B2" stroke-width="0.5" stroke-linecap="round" stroke-linejoin="round" stroke-miterlimit="10" x1="55.775" y1="0.303" x2="74.248" y2="10.858"/>
</g>
<path fill="none" stroke="#B2B2B2" stroke-width="0.5" stroke-linecap="round" stroke-linejoin="round" stroke-miterlimit="10" d="
	M75.962,13.234v-2.376 M51.159,10.858v2.376"/>
<path fill="none" stroke="#B2B2B2" stroke-width="0.5" stroke-linecap="round" stroke-linejoin="round" stroke-miterlimit="10" d="
	M51.026,19.831v3.165 M51.026,22.996h1.847 M52.873,23.996v-4.165 M52.873,19.831h-1.715 M51.026,41.6v3.037 M51.026,46.483v6.862
	 M52.873,52.729V40.545 M52.873,41.6h-1.847 M51.026,71.025v18.076 M51.026,90.947h0.66 M52.873,89.101V71.025 M52.873,71.025
	h-1.847 M51.158,19.831h-0.132 M51.026,89.101H34.269 M9.465,90.947h41.561 M9.465,89.101v1.846 M140.351,162.987V44.637
	 M140.351,44.637h-1.848 M138.503,44.637v3.56 M138.503,50.046v112.941 M140.351,23.394v-3.563 M138.503,19.831v3.563
	 M138.503,23.394h1.848 M138.503,162.987h1.848 M140.351,19.831h-1.848 M74.775,162.987V67.726 M74.775,65.087l-1.978,1.978
	 M72.797,67.065v23.81 M72.797,90.947v72.04 M25.167,90.947v72.04 M72.797,162.987h1.978 M51.026,44.637H9.465 M9.465,46.483h41.561
	 M9.465,44.637v1.846 M138.503,48.197h-9.104 M129.399,48.197v1.849 M129.399,50.046h9.104 M108.157,48.197H94.302 M92.456,50.046
	h15.701 M108.157,50.046v-1.849 M74.775,67.726l17.681-17.68 M94.302,48.197h-2.638 M91.664,48.197l-16.889,16.89"/>
<g>
	<defs>
		<rect id="SVGID_3_" width="223.104" height="207.359"/>
	</defs>
	<clipPath id="SVGID_8_">
		<use xlink:href="#SVGID_3_"  overflow="visible"/>
	</clipPath>
	
		<path clip-path="url(#SVGID_8_)" fill="none" stroke="#B2B2B2" stroke-width="0.5" stroke-linecap="round" stroke-linejoin="round" stroke-miterlimit="10" d="
		M51.026,46.483H21.207 M21.208,46.483v0.131 M51.026,19.832H9.465 M53.005,10.858H0.493 M9.465,19.832v24.805 M9.465,44.636h41.561
		"/>
</g>
<path fill="none" stroke="#B2B2B2" stroke-width="0.5" stroke-linecap="round" stroke-linejoin="round" stroke-miterlimit="10" d="
	M52.873,89.1l0.265-3.298 M53.138,85.802l0.791-3.168 M53.929,82.634L55.38,79.6"/>
<line fill="none" stroke="#B2B2B2" stroke-width="0.5" stroke-linecap="round" stroke-linejoin="round" stroke-miterlimit="10" x1="55.38" y1="79.6" x2="71.741" y2="89.1"/>
<path fill="none" stroke="#B2B2B2" stroke-width="0.5" stroke-linecap="round" stroke-linejoin="round" stroke-miterlimit="10" d="
	M71.741,89.101h0.792 M52.873,90.947H51.95 M52.873,89.101v1.847"/>
<path fill="none" stroke="#B2B2B2" stroke-width="0.5" stroke-linecap="round" stroke-linejoin="round" stroke-miterlimit="10" d="
	M128.212,48.197l-0.396-3.298 M127.816,44.898l-0.791-3.166 M127.025,41.732l-1.452-3.034"/>
<line fill="none" stroke="#B2B2B2" stroke-width="0.5" stroke-linecap="round" stroke-linejoin="round" stroke-miterlimit="10" x1="125.573" y1="38.699" x2="109.212" y2="48.197"/>
<path fill="none" stroke="#B2B2B2" stroke-width="0.5" stroke-linecap="round" stroke-linejoin="round" stroke-miterlimit="10" d="
	M108.343,48.196h0.869 M108.157,50.045v-1.849 M129.398,48.196v1.849 M128.295,48.196h1.021 M14.214,31.837h0.131 M14.345,31.837
	l0.132,0.131 M14.478,31.968h0.132 M14.609,31.968v0.133 M14.609,32.102v0.131 M14.609,32.232v0.133 M14.609,32.365v0.131
	 M14.609,32.497l-0.132,0.134 M14.478,32.627h-0.132 M14.345,32.627v0.134 M14.345,32.761h-0.131 M14.214,32.761h-0.133
	 M14.082,32.761l-0.131-0.134 M13.95,32.627h-0.131 M13.819,32.63v-0.134 M13.819,32.497l-0.133-0.131 M13.687,32.365v-0.133
	 M13.687,32.232v-0.131 M13.687,32.102l0.132-0.133 M13.819,31.968l0.131-0.131 M13.95,31.837h0.131 M14.082,31.837h0.133
	 M17.645,35.136v-5.674 M17.645,29.462l1.187-0.395 M18.832,29.067l1.188-0.264 M20.02,28.803l1.32-0.134 M21.339,28.669
	l1.318,0.134 M22.658,28.803l1.187,0.264 M23.845,29.067l1.187,0.395 M25.033,29.462l0.924,0.659 M25.958,30.122l0.659,0.659
	 M26.616,30.78l0.397,0.662 M27.013,31.442l0.131,0.79 M27.145,32.232l-0.131,0.792 M27.013,33.024l-0.397,0.791 M26.616,33.815
	l-0.659,0.662 M25.958,34.477l-0.924,0.527 M25.033,35.003L23.846,35.4 M23.845,35.4l-1.187,0.264 M22.657,35.665l-1.318,0.131
	 M21.339,35.795h-1.32 M20.02,35.795l-1.188-0.264 M18.832,35.531l-1.187-0.395 M16.193,36.587l0.131-0.133 M16.324,36.455
	l0.133-0.395 M16.458,36.06l0.132-0.264 M18.567,36.587h-2.374 M18.567,27.88l1.452-0.265 M20.02,27.615l1.452-0.133 M21.471,27.482
	l1.451,0.133 M22.922,27.615l1.319,0.395 M24.241,28.01l1.32,0.529 M25.562,28.54l1.055,0.659 M26.616,29.198l0.792,0.792
	 M27.408,29.99l0.529,0.79 M27.937,30.78l0.396,1.056 M28.333,31.837v0.924 M28.333,32.761l-0.396,0.923 M27.937,33.685
	l-0.529,0.924 M27.408,34.607L26.616,35.4 M26.616,35.4l-1.055,0.659 M25.562,36.06l-1.32,0.528 M24.241,36.587l-1.319,0.265
	 M22.922,36.853l-1.451,0.13 M21.471,36.982l-1.452-0.13 M20.02,36.853l-1.452-0.265 M16.193,27.88h2.374 M16.589,28.669
	l-0.132-0.264 M16.458,28.405l-0.133-0.262 M16.324,28.144l-0.131-0.264 M16.589,35.795v-7.126 M11.838,35.795v-7.126
	 M13.026,36.982h-0.395 M12.631,36.982l-0.265-0.13 M12.366,36.853l-0.264-0.265 M12.104,36.587l-0.132-0.133 M11.971,36.455
	l-0.132-0.395 M11.838,36.06v-0.264 M15.401,36.982h-2.375 M16.589,35.795l-0.132,0.264 M16.458,36.06l-0.133,0.395 M16.324,36.455
	l-0.131,0.133 M16.193,36.587l-0.264,0.265 M15.93,36.853l-0.265,0.13 M15.666,36.982h-0.264 M16.589,28.669v7.126 M15.401,27.482
	l0.265,0.133 M15.666,27.615l0.265,0.131 M15.93,27.747l0.263,0.134 M16.193,27.88l0.131,0.263 M16.324,28.144l0.133,0.262
	 M16.458,28.405l0.132,0.264 M13.026,27.482h2.375 M11.838,28.669v-0.264 M11.838,28.405l0.133-0.262 M11.971,28.144l0.132-0.264
	 M12.104,27.88l0.264-0.134 M12.366,27.747l0.265-0.131 M12.631,27.615l0.395-0.133 M19.361,85.143v0.131 M19.361,85.273v0.131
	 M19.361,85.404l-0.133,0.134 M19.229,85.539h-0.132 M19.096,85.539l-0.132,0.13 M18.964,85.668h-0.133 M18.832,85.668H18.7
	 M18.7,85.668v-0.13 M18.7,85.539h-0.133 M18.567,85.539l-0.131-0.134 M18.437,85.404v-0.131 M18.437,85.273v-0.131 M18.437,85.143
	v-0.133 M18.437,85.009v-0.131 M18.437,84.878h0.131 M18.567,84.878l0.133-0.134 M18.7,84.745l0.131-0.13 M18.832,84.614l0.133,0.13
	 M18.964,84.745h0.132 M19.096,84.745l0.132,0.134 M19.229,84.878h0.133 M19.361,84.878v0.131 M19.361,85.009v0.133 M25.693,88.043
	H12.103 M27.145,86.591v0.398 M27.145,86.989l-0.131,0.264 M27.013,87.253l-0.265,0.264 M26.749,87.518l-0.264,0.262 M26.484,87.779
	l-0.396,0.133 M26.089,87.913l-0.396,0.131 M27.145,56.114v30.477 M10.651,56.114l0.132-1.582 M10.783,54.532l0.396-1.452
	 M11.179,53.081l0.659-1.32 M11.838,51.759l0.925-1.188 M12.763,50.571l1.186-1.054 M13.95,49.518l1.32-0.793 M15.271,48.726
	l1.319-0.529 M16.589,48.196l1.583-0.261 M18.172,47.936h1.451 M19.625,47.936l1.583,0.261 M21.208,48.196l1.32,0.529
	 M22.527,48.726l1.318,0.792 M23.845,49.518l1.187,1.054 M25.033,50.571l0.924,1.188 M25.958,51.759l0.659,1.321 M26.616,53.081
	l0.397,1.452 M27.013,54.532l0.131,1.582 M10.651,86.591V56.114 M12.104,88.043l-0.395-0.131 M11.708,87.913l-0.397-0.133
	 M11.312,87.779l-0.264-0.262 M11.047,87.518l-0.264-0.264 M10.783,87.253l-0.132-0.264 M10.651,86.989v-0.398 M28.333,46.614
	v42.486 M9.465,46.614h18.867 M9.465,89.101V46.614 M28.333,89.101H9.465 M28.86,86.856l-0.132,0.133 M28.728,86.989v0.131
	 M28.728,87.121l-0.132,0.133 M28.595,87.253h-0.132 M28.463,87.253h-0.131 M28.333,87.253H28.2 M28.2,87.253h-0.132 M28.068,87.253
	l-0.132-0.133 M27.937,87.121v-0.131 M27.937,86.989l-0.132-0.133 M27.804,86.856l0.132-0.131 M27.937,86.726v-0.134 M27.937,86.591
	v-0.13 M27.937,86.461l0.132-0.132 M28.068,86.33H28.2 M28.2,86.33h0.131 M28.333,86.33h0.131 M28.463,86.33h0.132 M28.595,86.33
	l0.132,0.132 M28.728,86.461v0.13 M28.728,86.591v0.134 M28.728,86.726l0.133,0.131 M32.554,88.043h-8.445 M33.082,87.518v0.131
	 M33.082,87.648l-0.131,0.131 M32.95,87.779l-0.133,0.133 M32.817,87.913h-0.131 M32.688,87.913l-0.133,0.131 M33.082,83.691v3.826
	 M32.554,83.293h0.133 M32.687,83.293h0.131 M32.817,83.293l0.133,0.133"/>
<path fill="none" stroke="#B2B2B2" stroke-width="0.5" stroke-linecap="round" stroke-linejoin="round" stroke-miterlimit="10" d="
	M32.95,83.427v0.131 M32.95,83.558h0.132 M33.082,83.558v0.133 M24.109,83.293h8.445 M23.583,83.691v-0.133 M23.583,83.558h0.132
	 M23.715,83.558v-0.131 M23.715,83.427l0.131-0.134 M23.846,83.293h0.132 M23.978,83.293h0.132 M23.583,87.517v-3.826
	 M24.109,88.044l-0.132-0.132 M23.978,87.912h-0.132 M23.846,87.912l-0.131-0.133 M23.715,87.78l-0.133-0.131 M23.583,87.649v-0.132
	 M34.27,82.106V89.1 M22.395,82.106H34.27 M22.395,89.1v-6.994 M34.27,89.1H22.395 M14.213,99.26h-0.132 M14.082,99.26H13.95
	 M13.95,99.26l-0.131-0.133 M13.818,99.127l-0.132-0.131 M13.687,98.996v-0.133 M13.687,98.863v-0.131 M13.687,98.732l0.132-0.133
	 M13.818,98.599v-0.132 M13.818,98.467h0.131 M13.95,98.467l0.132-0.131 M14.082,98.336h0.133 M14.213,98.336h0.132 M14.346,98.336
	v0.131 M14.346,98.467h0.132 M14.478,98.467l0.132,0.132 M14.609,98.599v0.133 M14.609,98.732v0.131 M14.609,98.863v0.133
	 M14.609,98.996v0.131 M14.609,99.127h-0.132 M14.478,99.127l-0.132,0.133 M14.346,99.26h-0.132 M13.026,102.558v-7.389
	 M13.422,102.954h-0.132 M13.291,102.954h-0.132 M13.159,102.954v-0.131 M13.159,102.823l-0.132-0.133 M13.026,102.69v-0.132
	 M19.624,102.954h-6.201 M20.019,102.558v0.132 M20.019,102.69l-0.131,0.133 M19.888,102.823v0.131 M19.888,102.954h-0.132
	 M19.755,102.954h-0.132 M20.019,95.169v7.389 M19.624,94.774h0.132 M19.755,94.774h0.132 M19.888,94.774v0.131 M19.888,94.905
	h0.131 M20.019,94.905v0.133 M20.019,95.038v0.131 M13.422,94.774h6.201 M13.026,95.169v-0.131 M13.026,95.038v-0.133
	 M13.026,94.905h0.132 M13.159,94.905v-0.131 M13.159,94.774h0.132 M13.291,94.774h0.132 M21.208,112.454h-9.369 M21.208,93.586
	v18.868 M11.838,93.586h9.369 M11.838,112.454V93.587 M18.832,111.266v-7.125 M17.645,111.266v-7.125 M16.588,111.266v-7.125
	 M15.401,111.266v-7.125 M14.213,111.266v-7.125 M20.019,104.141v7.125 M13.026,111.266v-7.125 M13.026,130.398l-0.528-0.133
	 M12.499,130.265l-0.396-0.13 M12.103,130.135l-0.264-0.266 M11.838,129.87l-0.263-0.396 M11.576,129.473l-0.132-0.396
	 M11.443,129.078l-0.132-0.395 M11.312,128.683l0.132-0.398 M11.443,128.286l0.132-0.395 M11.576,127.891l0.263-0.396
	 M11.838,127.495l0.264-0.264 M12.103,127.231L12.5,127.1 M12.499,127.1h0.528 M13.026,127.1h0.396 M13.422,127.1l0.396,0.131
	 M13.818,127.231l0.396,0.264 M14.213,127.495l0.264,0.396 M14.478,127.891l0.132,0.395 M14.609,128.286v0.397 M14.609,128.683
	v0.395 M14.609,129.078l-0.132,0.396 M14.478,129.473l-0.264,0.396 M14.213,129.87l-0.395,0.266 M13.818,130.135l-0.396,0.13
	 M13.422,130.265l-0.396,0.134 M13.026,138.183l-0.66-0.133 M12.367,138.05l-0.528-0.265 M11.838,137.786l-0.527-0.264
	 M11.312,137.522l-0.396-0.526 M10.916,136.996l-0.264-0.528 M10.651,136.467v-0.659 M10.651,135.809v-0.662 M10.651,135.147
	l0.264-0.526 M10.916,134.621l0.396-0.528 M11.312,134.092l0.527-0.396 M11.838,133.697l0.529-0.133 M12.367,133.564l0.66-0.131
	 M13.026,133.433l0.528,0.131 M13.555,133.564l0.66,0.133 M14.213,133.697l0.396,0.396 M14.609,134.092l0.396,0.527 M15.005,134.621
	l0.264,0.526 M15.27,135.147l0.132,0.662 M15.401,135.809l-0.132,0.659 M15.27,136.467l-0.264,0.528 M15.005,136.996l-0.396,0.526
	 M14.609,137.522l-0.396,0.264 M14.213,137.786l-0.659,0.265 M13.555,138.05l-0.528,0.133 M20.019,131.058h-0.528 M19.492,131.058
	l-0.66-0.265 M18.832,130.793l-0.395-0.396 M18.437,130.398l-0.396-0.528 M18.041,129.87l-0.265-0.527 M17.776,129.342l-0.132-0.659
	 M17.645,128.683l0.132-0.529 M17.776,128.155l0.265-0.66 M18.041,127.495l0.396-0.395 M18.437,127.1l0.395-0.398 M18.832,126.702
	l0.66-0.263 M19.492,126.439l0.528-0.131 M20.019,126.308l0.661,0.131 M20.68,126.439l0.528,0.263 M21.208,126.702l0.527,0.398
	 M21.734,127.1l0.396,0.395 M22.13,127.495l0.264,0.66 M22.395,128.155v0.528 M22.395,128.683v0.659 M22.395,129.342l-0.264,0.527
	 M22.13,129.87l-0.396,0.529 M21.734,130.398l-0.527,0.396 M21.208,130.793l-0.528,0.265 M20.68,131.058h-0.66 M20.019,137.391
	h-0.395 M19.624,137.391l-0.395-0.133 M19.229,137.258l-0.264-0.263 M18.965,136.996l-0.265-0.397 M18.7,136.598l-0.263-0.396
	 M18.437,136.203v-0.395 M18.437,135.809v-0.398 M18.437,135.411l0.263-0.395 M18.7,135.016l0.265-0.396 M18.965,134.621
	l0.264-0.265 M19.229,134.356l0.395-0.133 M19.624,134.223l0.396-0.131 M20.019,134.092l0.528,0.131 M20.546,134.223l0.396,0.133
	 M20.942,134.356l0.265,0.265 M21.208,134.621l0.264,0.396 M21.472,135.016l0.132,0.395 M21.604,135.411l0.131,0.398
	 M21.734,135.809l-0.131,0.395 M21.604,136.203l-0.132,0.396 M21.472,136.598l-0.264,0.397 M21.208,136.996l-0.265,0.263
	 M20.942,137.258l-0.396,0.133 M20.546,137.391h-0.528 M23.583,139.369H9.465 M23.583,125.12v14.249 M9.465,125.12h14.118
	 M9.465,139.369V125.12 M44.166,81.975v0.131 M44.166,82.106h-0.133 M44.033,82.106v0.133 M44.033,82.239H43.9 M43.9,82.239
	l-0.132-0.134 M43.769,82.106l-0.132-0.131 M43.637,81.975v-0.131 M43.637,81.844h0.132 M43.769,81.844v-0.133 M43.769,81.711H43.9
	 M43.9,81.711h0.132 M44.033,81.711v0.133 M44.033,81.844h0.132 M44.166,81.844v0.131 M47.463,81.975l-0.132,0.924 M47.332,82.898
	l-0.396,0.793 M46.936,83.691l-0.528,0.79 M46.409,84.481l-0.66,0.529 M45.748,85.01l-0.924,0.394 M44.825,85.404L43.9,85.538
	 M43.9,85.538l-0.924-0.134"/>
<path fill="none" stroke="#B2B2B2" stroke-width="0.5" stroke-linecap="round" stroke-linejoin="round" stroke-miterlimit="10" d="
	M42.977,85.404l-0.791-0.394 M42.186,85.01l-0.792-0.53 M41.394,84.48l-0.528-0.79 M40.867,83.691l-0.397-0.793 M40.47,82.898
	l-0.131-0.923 M40.339,81.975l0.131-0.924 M40.47,81.051l0.397-0.923 M40.867,80.128l0.528-0.66 M41.394,79.469l0.792-0.529
	 M42.186,78.94l0.791-0.395 M42.977,78.545l0.924-0.133 M43.901,78.412l0.924,0.133 M44.825,78.545l0.923,0.395 M45.749,78.94
	l0.66,0.529 M46.409,79.469l0.527,0.659 M46.935,80.128l0.397,0.923 M47.332,81.051l0.131,0.924 M51.026,74.849V89.1 M36.777,74.849
	h14.25 M36.777,89.1V74.849 M51.026,89.1h-14.25 M41.263,22.47l0.131-0.134 M41.394,22.337v-0.131 M41.394,22.206v-0.133
	 M41.394,22.073h0.132 M41.526,22.073l0.131-0.131 M41.657,21.942h0.133 M41.79,21.942h0.132 M41.922,21.942l0.132,0.131
	 M42.054,22.073h0.132 M42.186,22.073v0.133 M42.186,22.206v0.131 M42.186,22.337l0.133,0.133 M42.319,22.47l-0.133,0.13
	 M42.186,22.6v0.134 M42.186,22.732l-0.132,0.133 M42.054,22.865h-0.132 M41.922,22.865l-0.132,0.131 M41.79,22.996l-0.133-0.131
	 M41.657,22.865h-0.131 M41.526,22.865l-0.132-0.133 M41.394,22.734v-0.133 M41.394,22.6l-0.131-0.13 M37.567,21.282h8.445
	 M37.04,21.809v-0.132 M37.04,21.677l0.132-0.13 M37.172,21.547v-0.134 M37.172,21.413l0.132-0.131 M37.304,21.282h0.132
	 M37.436,21.282h0.131 M37.04,25.504v-3.695 M37.567,26.031h-0.131 M37.436,26.033L37.304,25.9 M37.304,25.9h-0.132 M37.172,25.9
	v-0.132 M37.172,25.768l-0.132-0.133 M37.04,25.635v-0.131 M46.012,26.031h-8.445 M46.54,25.504v0.131 M46.54,25.635l-0.131,0.133
	 M46.409,25.768V25.9 M46.409,25.9h-0.133 M46.276,25.9l-0.132,0.133 M46.144,26.031h-0.132 M46.54,21.809v3.695 M46.012,21.282
	h0.132 M46.144,21.282h0.132 M46.276,21.282l0.133,0.131 M46.409,21.413v0.134 M46.409,21.547l0.131,0.13 M46.54,21.677v0.132
	 M35.853,27.218v-7.123 M47.728,27.218H35.853 M47.728,20.095v7.123"/>
<path fill="none" stroke="#B2B2B2" stroke-width="0.5" stroke-linecap="round" stroke-linejoin="round" stroke-miterlimit="10" d="
	M52.873,40.546l2.904-0.265 M55.774,40.281l2.772-0.792 M58.546,39.489l2.639-1.187"/>
<line fill="none" stroke="#B2B2B2" stroke-width="0.5" stroke-linecap="round" stroke-linejoin="round" stroke-miterlimit="10" x1="61.186" y1="38.301" x2="52.873" y2="24.053"/>
<path fill="none" stroke="#B2B2B2" stroke-width="0.5" stroke-linecap="round" stroke-linejoin="round" stroke-miterlimit="10" d="
	M52.873,53.344l2.904,0.262 M55.774,53.606l2.772,0.793 M58.546,54.399l2.639,1.187"/>
<line fill="none" stroke="#B2B2B2" stroke-width="0.5" stroke-linecap="round" stroke-linejoin="round" stroke-miterlimit="10" x1="61.186" y1="55.586" x2="52.873" y2="69.969"/>
<path fill="none" stroke="#B2B2B2" stroke-width="0.5" stroke-linecap="round" stroke-linejoin="round" stroke-miterlimit="10" d="
	M52.873,52.552v0.793 M52.873,53.344h-1.846 M52.873,69.968v0.793"/>
<g>
	<defs>
		<rect id="SVGID_2_" width="223.104" height="207.359"/>
	</defs>
	<clipPath id="SVGID_9_">
		<use xlink:href="#SVGID_2_"  overflow="visible"/>
	</clipPath>
	
		<path clip-path="url(#SVGID_9_)" fill="none" stroke="#B2B2B2" stroke-width="0.5" stroke-linecap="round" stroke-linejoin="round" stroke-miterlimit="10" d="
		M160.934,202.093h-2.904 M160.934,178.937h-2.904 M158.029,204.286v-27.182 M160.934,204.286v-31.007 M189.697,207.055h-28.764
		 M189.697,204.286h-28.764 M219.911,190.298h2.243 M222.419,190.298h0.396 M222.814,190.298v13.987 M219.911,190.298v13.987"/>
	
		<path clip-path="url(#SVGID_9_)" fill="none" stroke="#B2B2B2" stroke-width="0.5" stroke-linecap="round" stroke-linejoin="round" stroke-miterlimit="10" d="
		M219.911,207.055h2.903 M222.814,207.055v-2.77 M160.934,173.279v-1.319 M222.814,190.298v-1.318 M222.814,188.98h-2.903
		 M219.911,188.98v1.318 M219.911,190.298h2.903"/>
	
		<path clip-path="url(#SVGID_9_)" fill="none" stroke="#B2B2B2" stroke-width="0.5" stroke-linecap="round" stroke-linejoin="round" stroke-miterlimit="10" d="
		M191.147,207.055v-0.395 M191.147,205.208v-0.923 M194.843,204.285v0.923 M194.843,206.661v0.395 M194.843,207.055h-3.695
		 M194.843,204.285h-3.695"/>
	
		<path clip-path="url(#SVGID_9_)" fill="none" stroke="#B2B2B2" stroke-width="0.5" stroke-linecap="round" stroke-linejoin="round" stroke-miterlimit="10" d="
		M189.697,207.055h1.45 M191.148,207.055v-2.771 M191.148,204.285h-1.451 M189.697,204.285v2.771"/>
	
		<path clip-path="url(#SVGID_9_)" fill="none" stroke="#B2B2B2" stroke-width="0.5" stroke-linecap="round" stroke-linejoin="round" stroke-miterlimit="10" d="
		M219.911,207.055h-23.616 M219.911,204.285h-23.616"/>
	
		<path clip-path="url(#SVGID_9_)" fill="none" stroke="#B2B2B2" stroke-width="0.5" stroke-linecap="round" stroke-linejoin="round" stroke-miterlimit="10" d="
		M194.843,207.055h1.451 M196.294,207.055v-2.771 M196.294,204.285h-1.451 M194.843,204.285v2.771"/>
	
		<path clip-path="url(#SVGID_9_)" fill="none" stroke="#B2B2B2" stroke-width="0.5" stroke-linecap="round" stroke-linejoin="round" stroke-miterlimit="10" d="
		M127.42,204.285v-27.181 M130.192,177.104v27.181 M130.192,177.104h-2.772 M222.815,207.055H127.42 M130.192,204.285h27.838
		 M200.516,204.285h19.396 M222.815,207.055v-2.771 M127.42,204.285v2.771"/>
	
		<path clip-path="url(#SVGID_9_)" fill="none" stroke="#B2B2B2" stroke-width="0.5" stroke-linecap="round" stroke-linejoin="round" stroke-miterlimit="10" d="
		M222.814,188.98v-11.876 M219.912,171.959v17.021 M219.912,188.98h2.902 M118.58,171.959v5.145 M118.58,177.104h42.353
		 M160.933,177.104v-2.771 M160.933,174.334v-2.375 M61.054,171.959v5.145 M61.054,177.104h26.52 M87.574,177.104v-5.145
		 M0.493,177.104h29.554 M30.047,177.104v-5.145 M172.676,171.959h-11.743"/>
</g>
<path fill="none" stroke="#B2B2B2" stroke-width="0.5" stroke-linecap="round" stroke-linejoin="round" stroke-miterlimit="10" d="
	M109.477,171.959h-2.243 M106.046,171.959h-2.243 M116.601,171.959h-2.243 M113.17,171.959h-2.243 M113.831,171.959h-10.028
	 M109.477,170.507h-5.674 M116.601,170.507h-5.674 M113.831,170.507h-10.028"/>
<path fill="none" stroke="#B2B2B2" stroke-width="0.5" stroke-linecap="round" stroke-linejoin="round" stroke-miterlimit="10" d="
	M115.281,170.507h-10.159 M105.122,171.959h10.159"/>
<path fill="none" stroke="#B2B2B2" stroke-width="0.5" stroke-linecap="round" stroke-linejoin="round" stroke-miterlimit="10" d="
	M115.281,171.959h1.319 M116.601,171.959v-1.452 M116.601,170.507h-1.319 M115.281,170.507v1.452 M105.122,171.959v-1.452
	 M105.122,170.507h-1.319 M103.803,170.507v1.452 M103.803,171.959h1.319"/>
<path fill="none" stroke="#B2B2B2" stroke-width="0.5" stroke-linecap="round" stroke-linejoin="round" stroke-miterlimit="10" d="
	M103.803,171.959h4.619 M111.982,171.959h4.618 M103.803,170.507h12.798"/>
<path fill="none" stroke="#B2B2B2" stroke-width="0.5" stroke-linecap="round" stroke-linejoin="round" stroke-miterlimit="10" d="
	M116.601,170.507h-12.798 M102.352,170.507H89.421 M103.803,171.959h12.798 M89.421,171.959h12.93"/>
<path fill="none" stroke="#B2B2B2" stroke-width="0.5" stroke-linecap="round" stroke-linejoin="round" stroke-miterlimit="10" d="
	M102.352,171.959h1.451 M103.803,171.959v-1.452 M103.803,170.507h-1.451 M102.352,170.507v1.452 M116.601,171.959h1.452
	 M118.053,171.959v-1.452 M118.053,170.507h-1.452 M116.601,170.507v1.452 M89.421,171.959v-1.452 M89.421,170.507h-1.319
	 M88.102,170.507v1.452 M88.102,171.959h1.319"/>
<path fill="none" stroke="#B2B2B2" stroke-width="0.5" stroke-linecap="round" stroke-linejoin="round" stroke-miterlimit="10" d="
	M118.58,170.507h-0.527 M118.053,170.507v1.452 M118.053,171.959h0.527 M118.58,171.959v-1.452 M88.102,170.507h-0.528
	 M87.574,170.507v1.452 M87.574,171.959h0.528 M88.102,171.959v-1.452 M87.574,177.238v-5.278 M118.58,171.959v5.278
	 M118.58,177.238H87.574 M118.58,171.959H87.574 M118.58,171.959H87.574 M118.58,162.197v8.311 M87.574,170.507v-8.311
	 M118.58,170.507H87.574 M87.574,162.197h31.006"/>
<path fill="none" stroke="#B2B2B2" stroke-width="0.5" stroke-linecap="round" stroke-linejoin="round" stroke-miterlimit="10" d="
	M51.95,171.959h-2.244 M48.519,171.959h-2.243 M59.206,171.959h-2.375 M55.775,171.959h-2.374 M56.304,171.959H46.276
	 M51.95,170.507h-5.674 M59.206,170.507h-5.805 M56.304,170.507H46.276"/>
<path fill="none" stroke="#B2B2B2" stroke-width="0.5" stroke-linecap="round" stroke-linejoin="round" stroke-miterlimit="10" d="
	M57.756,170.507H47.728 M47.728,171.959h10.028"/>
<path fill="none" stroke="#B2B2B2" stroke-width="0.5" stroke-linecap="round" stroke-linejoin="round" stroke-miterlimit="10" d="
	M57.755,171.959h1.45 M59.205,171.959v-1.452 M59.205,170.507h-1.45 M57.755,170.507v1.452 M47.728,171.959v-1.452 M47.728,170.507
	h-1.452 M46.276,170.507v1.452 M46.276,171.959h1.452"/>
<path fill="none" stroke="#B2B2B2" stroke-width="0.5" stroke-linecap="round" stroke-linejoin="round" stroke-miterlimit="10" d="
	M46.276,171.959h4.619 M54.457,171.959h4.749 M46.276,170.507h12.929"/>
<path fill="none" stroke="#B2B2B2" stroke-width="0.5" stroke-linecap="round" stroke-linejoin="round" stroke-miterlimit="10" d="
	M59.205,170.507H46.276 M44.824,170.507H32.026 M46.276,171.959h12.929 M32.026,171.959h12.798"/>
<path fill="none" stroke="#B2B2B2" stroke-width="0.5" stroke-linecap="round" stroke-linejoin="round" stroke-miterlimit="10" d="
	M44.825,171.959h1.451 M46.276,171.959v-1.452 M46.276,170.507h-1.451 M44.825,170.507v1.452 M59.206,171.959h1.319 M60.525,171.959
	v-1.452 M60.525,170.507h-1.319 M59.206,170.507v1.452 M32.026,171.959v-1.452 M32.026,170.507h-1.451 M30.575,170.507v1.452
	 M30.575,171.959h1.451"/>
<path fill="none" stroke="#B2B2B2" stroke-width="0.5" stroke-linecap="round" stroke-linejoin="round" stroke-miterlimit="10" d="
	M61.054,170.507h-0.529 M60.525,170.507v1.452 M60.525,171.959h0.529 M61.054,171.959v-1.452 M30.574,170.507h-0.527
	 M30.047,170.507v1.452 M30.047,171.959h0.527 M30.574,171.959v-1.452 M30.047,177.238v-5.278 M61.054,171.959v5.278
	 M61.054,177.238H30.047 M61.054,171.959H30.047 M61.054,171.959H30.047 M61.054,162.197v8.311 M30.047,170.507v-8.311
	 M61.054,170.507H30.047 M30.047,162.197h31.007"/>
<path fill="none" stroke="#B2B2B2" stroke-width="0.5" stroke-linecap="round" stroke-linejoin="round" stroke-miterlimit="10" d="
	M140.352,24.581l3.298,0.265 M143.649,24.846l3.167,0.923 M146.816,25.769l3.034,1.318"/>
<line fill="none" stroke="#B2B2B2" stroke-width="0.5" stroke-linecap="round" stroke-linejoin="round" stroke-miterlimit="10" x1="149.851" y1="27.087" x2="140.352" y2="43.449"/>
<path fill="none" stroke="#B2B2B2" stroke-width="0.5" stroke-linecap="round" stroke-linejoin="round" stroke-miterlimit="10" d="
	M140.352,24.582v-1.188 M140.352,23.394h-1.85 M138.502,44.636h1.85 M140.352,44.636v-1.095"/>
<g>
	<defs>
		<rect id="SVGID_1_" width="223.104" height="207.359"/>
	</defs>
	<clipPath id="SVGID_10_">
		<use xlink:href="#SVGID_1_"  overflow="visible"/>
	</clipPath>
	
		<line clip-path="url(#SVGID_10_)" fill="none" stroke="#B2B2B2" stroke-width="0.5" stroke-linecap="round" stroke-linejoin="round" stroke-miterlimit="10" x1="0.493" y1="73.795" x2="0.493" y2="71.948"/>
	
		<line clip-path="url(#SVGID_10_)" fill="none" stroke="#B2B2B2" stroke-width="0.5" stroke-linecap="round" stroke-linejoin="round" stroke-miterlimit="10" x1="0.493" y1="71.948" x2="0.493" y2="10.858"/>
	
		<path clip-path="url(#SVGID_10_)" fill="none" stroke="#B2B2B2" stroke-width="0.5" stroke-linecap="round" stroke-linejoin="round" stroke-miterlimit="10" d="
		M0.228,52.024"/>
</g>
<line fill="none" stroke="#B2B2B2" stroke-width="0.5" stroke-linecap="round" stroke-linejoin="round" stroke-miterlimit="10" x1="14.874" y1="177.104" x2="12.103" y2="177.104"/>
<path fill="none" stroke="#B2B2B2" stroke-width="0.5" stroke-linecap="round" stroke-linejoin="round" stroke-miterlimit="10" d="
	M218.328,134.62v8.974 M218.328,143.593v19.394"/>
</svg>
