<?xml version="1.0" encoding="utf-8"?>
<!-- Generator: Adobe Illustrator 15.0.2, SVG Export Plug-In  -->
<!DOCTYPE svg PUBLIC "-//W3C//DTD SVG 1.1//EN" "http://www.w3.org/Graphics/SVG/1.1/DTD/svg11.dtd" [
	<!ENTITY ns_flows "http://ns.adobe.com/Flows/1.0/">
]>
<svg version="1.1"
	 xmlns="http://www.w3.org/2000/svg" xmlns:xlink="http://www.w3.org/1999/xlink" xmlns:a="http://ns.adobe.com/AdobeSVGViewerExtensions/3.0/"
	 x="0px" y="0px" width="158px" height="186px" viewBox="0 0 158 186" enable-background="new 0 0 158 186" xml:space="preserve">
<defs>
</defs>
<polygon fill="#EDEDED" points="4.777,44.482 4.777,171.014 148.33,171.014 148.33,44.482 138.962,44.482 138.962,35.51 
	154.662,35.51 154.662,3.184 64.943,3.184 64.943,30.232 92.914,30.232 92.914,35.51 101.754,35.51 101.754,44.482 "/>
<g>
	<defs>
		<rect id="SVGID_4_" width="157.844" height="186.328"/>
	</defs>
	<clipPath id="SVGID_5_">
		<use xlink:href="#SVGID_4_"  overflow="visible"/>
	</clipPath>
	
		<path clip-path="url(#SVGID_5_)" fill="none" stroke="#B2B2B2" stroke-width="0.5" stroke-linecap="round" stroke-linejoin="round" stroke-miterlimit="10" d="
		M157.302,44.482"/>
	
		<path clip-path="url(#SVGID_5_)" fill="none" stroke="#B2B2B2" stroke-width="0.5" stroke-linecap="round" stroke-linejoin="round" stroke-miterlimit="10" d="
		M148.33,44.481v68.083 M148.33,114.41v56.604 M148.33,175.501h8.972 M157.302,175.501V97.127 M157.302,97.127V35.511"/>
	
		<path clip-path="url(#SVGID_5_)" fill="none" stroke="#B2B2B2" stroke-width="0.5" stroke-linecap="round" stroke-linejoin="round" stroke-miterlimit="10" d="
		M154.662,35.51h2.903 M154.662,30.232v2.903 M154.662,33.135v2.375 M157.565,35.51v-5.278"/>
	
		<path clip-path="url(#SVGID_5_)" fill="none" stroke="#B2B2B2" stroke-width="0.5" stroke-linecap="round" stroke-linejoin="round" stroke-miterlimit="10" d="
		M154.663,35.51h-15.701 M138.962,35.51v8.972 M138.962,44.482h9.368 M101.754,35.51h-7.257 M49.109,35.51v8.972 M49.109,44.482
		h33.645 M84.603,44.482h17.151 M101.754,44.482V35.51 M0.375,44.482h8.523 M4.777,44.482h13.326 M18.103,44.482V35.51"/>
</g>
<path fill="none" stroke="#B2B2B2" stroke-width="0.5" stroke-linecap="round" stroke-linejoin="round" stroke-miterlimit="10" d="
	M101.755,35.51h0.131 M101.755,35.51v8.972 M101.886,44.482V35.51 M101.886,44.482h-0.131"/>
<g>
	<defs>
		<rect id="SVGID_3_" width="157.844" height="186.328"/>
	</defs>
	<clipPath id="SVGID_6_">
		<use xlink:href="#SVGID_3_"  overflow="visible"/>
	</clipPath>
	
		<path clip-path="url(#SVGID_6_)" fill="none" stroke="#B2B2B2" stroke-width="0.5" stroke-linecap="round" stroke-linejoin="round" stroke-miterlimit="10" d="
		M132.467,104.251V57.14 M104.921,112.266v-8.015 M154.662,30.232v2.903 M154.662,33.135v2.375 M154.662,35.51h2.903 M92.914,30.232
		H49.108 M49.108,30.232v5.278 M18.103,30.232H0.375 M18.103,35.51v-5.278 M157.565,35.51v-5.278 M106.769,171.014v-18.867
		 M106.769,152.146h-1.848 M104.921,151.234v19.779 M106.769,112.563h-1.848 M104.921,114.411v20.054 M104.921,171.014h1.848
		 M148.065,114.411h0.265 M148.33,112.563H102.81 M148.33,114.411v-1.848 M104.921,112.563h-0.923 M103.998,112.563v1.848
		 M103.998,114.411h0.923 M86.175,112.563h-1.573 M59.533,137.633v33.381 M61.513,171.014v-32.59 M61.513,135.653l-1.98,1.979
		 M59.533,171.014h1.979 M82.755,44.482v69.929 M82.755,117.181l1.847-1.979 M84.602,115.202v-0.791 M84.602,114.411V44.482
		 M84.602,44.482h-1.847"/>
</g>
<path fill="none" stroke="#B2B2B2" stroke-width="0.5" stroke-linecap="round" stroke-linejoin="round" stroke-miterlimit="10" d="
	M144.107,123.251l-0.132,0.133 M143.976,123.384h-0.132 M143.844,123.384l-0.133,0.132 M143.711,123.516l-0.132,0.131
	 M143.579,123.646v0.133 M143.579,123.779v0.132 M143.579,123.911l0.132,0.131 M143.711,124.042v0.133 M143.711,124.175h0.133
	 M143.844,124.175l0.132,0.132 M143.976,124.307h0.132 M144.107,124.307h0.132 M144.239,124.307l0.132-0.132 M144.371,124.175
	l0.132-0.133 M144.503,124.042v-0.132 M144.503,123.911v-0.132 M144.503,123.779v-0.133 M144.503,123.646v-0.131 M144.503,123.516
	h-0.132 M144.371,123.516v-0.132 M144.371,123.384h-0.132 M144.239,123.384l-0.132-0.133 M146.878,116.918v-0.396 M146.878,116.522
	l-0.132-0.265 M146.746,116.259l-0.264-0.265 M146.482,115.994l-0.264-0.264 M146.219,115.73l-0.396-0.132 M145.822,115.599
	l-0.263-0.132 M145.56,115.467H115.08 M115.08,115.467l-0.533,0.076 M114.42,115.599l-1.45,0.527 M112.97,116.126l-1.32,0.66
	 M111.649,116.786l-1.187,0.924 M110.463,117.71l-1.057,1.056 M109.406,118.766l-0.792,1.318 M108.615,120.084l-0.527,1.451
	 M108.088,121.536l-0.396,1.451 M107.691,122.987v1.584 M107.691,124.571l0.396,1.451 M108.088,126.022l0.527,1.45 M108.615,127.474
	l0.791,1.318 M109.406,128.792l1.055,1.057 M110.463,129.849l1.187,0.924 M111.649,130.772l1.32,0.659 M112.97,131.432l1.45,0.527
	 M114.42,131.959l1.583,0.133 M116.003,132.092h29.557 M145.56,132.092l0.263-0.133 M145.822,131.959l0.396-0.132 M146.219,131.827
	l0.264-0.132 M146.482,131.695l0.264-0.396 M146.746,131.3l0.132-0.264 M146.878,131.036v-0.396 M146.878,130.64v-13.722
	 M148.065,114.279h-41.297 M105.58,133.279h42.485 M114.156,159.403l-0.132-0.133 M114.024,159.271h-0.131 M113.893,159.271v-0.131
	 M113.893,159.14l-0.131,0.131 M113.762,159.271h-0.132 M113.628,159.271v0.133 M113.628,159.403v0.132 M113.628,159.535
	l0.133,0.132 M113.762,159.667h0.131 M113.893,159.667h0.132 M114.024,159.667v-0.132 M114.024,159.535h0.132 M114.156,159.535
	v-0.132 M117.455,159.403l-0.132-0.924 M117.323,158.48l-0.396-0.792 M116.928,157.688l-0.528-0.792 M116.399,156.896l-0.791-0.528
	 M115.608,156.369l-0.792-0.396 M114.816,155.973l-0.924-0.133 M113.893,155.84l-0.923,0.133 M112.97,155.973l-0.925,0.396
	 M112.045,156.369l-0.659,0.527 M111.386,156.896l-0.527,0.792 M110.858,157.688l-0.396,0.792 M110.463,158.48l-0.133,0.923
	 M110.33,159.403l0.133,0.923 M110.463,160.326l0.396,0.924 M110.858,161.25l0.527,0.66 M111.386,161.91l0.659,0.659
	 M112.045,162.569l0.925,0.264 M112.97,162.833l0.923,0.132 M113.893,162.965l0.924-0.132 M114.816,162.833l0.792-0.264
	 M115.608,162.569l0.791-0.66 M116.399,161.91l0.528-0.66 M116.928,161.25l0.396-0.924 M117.323,160.326l0.131-0.923
	 M106.769,166.527h14.25 M121.019,166.527V152.41 M121.019,152.41h-14.25 M106.769,152.41v14.118 M106.769,114.41v18.876
	 M143.448,154.653v-0.132 M143.448,154.521h0.131 M143.579,154.521h0.132 M143.711,154.521l0.133-0.132 M143.844,154.39v-0.132
	 M143.844,154.258v-0.132 M143.844,154.126v-0.133 M143.844,153.993v-0.132 M143.844,153.861l-0.133-0.132 M143.711,153.729h-0.132
	 M143.579,153.729h-0.131 M143.448,153.729v-0.132 M143.448,153.598l-0.133,0.132 M143.315,153.729h-0.132 M143.184,153.729h-0.131
	 M143.053,153.729l-0.133,0.132 M142.92,153.861v0.132 M142.92,153.993v0.133 M142.92,154.126v0.132 M142.92,154.258v0.132
	 M142.92,154.39l0.133,0.132 M143.053,154.521h0.131 M143.184,154.521h0.132 M143.315,154.521l0.132,0.132 M139.886,151.354
	l-1.188-0.396 M138.697,150.958l-1.187-0.263 M137.511,150.695l-1.32-0.132 M136.19,150.563l-1.319,0.132 M134.871,150.695
	l-1.187,0.264 M133.684,150.958l-1.056,0.396 M132.628,151.354l-0.924,0.528"/>
<path fill="none" stroke="#B2B2B2" stroke-width="0.5" stroke-linecap="round" stroke-linejoin="round" stroke-miterlimit="10" d="
	M131.705,151.883l-0.792,0.66 M130.914,152.543l-0.396,0.791 M130.518,153.334l-0.132,0.792 M130.386,154.126l0.132,0.792
	 M130.518,154.917l0.396,0.793 M130.914,155.71l0.791,0.658 M131.705,156.368l0.924,0.528 M132.629,156.896l1.055,0.396
	 M133.684,157.293l1.188,0.264 M134.871,157.557l1.319,0.131 M136.19,157.688l1.32-0.131 M137.511,157.557l1.187-0.264
	 M138.697,157.293l1.188-0.396 M139.885,156.896v-5.542 M141.072,157.688v-7.124 M141.072,150.563V150.3 M141.072,150.3l0.133-0.265
	 M141.205,150.035l0.131-0.264 M141.337,149.771h-2.375 M138.962,149.771l-1.451-0.264 M137.511,149.508l-1.452-0.132
	 M136.059,149.376l-1.451,0.132 M134.607,149.508l-1.319,0.396 M133.288,149.903l-1.188,0.396 M132.101,150.3l-1.056,0.66
	 M131.045,150.959l-0.923,0.792 M130.122,151.751l-0.528,0.923 M129.594,152.674l-0.396,0.924 M129.198,153.598v1.055
	 M129.198,154.653l0.396,0.924 M129.594,155.576l0.528,0.925 M130.122,156.501l0.923,0.792 M131.045,157.293l1.056,0.658
	 M132.101,157.951l1.188,0.396 M133.288,158.348l1.319,0.396 M134.607,158.742l1.451,0.134 M136.059,158.876l1.452-0.134
	 M137.511,158.742l1.451-0.263 M138.962,158.479h2.375 M141.336,158.479l-0.131-0.264 M141.205,158.216l-0.133-0.265
	 M141.072,157.951v-0.264 M145.69,150.563V150.3 M145.69,150.3l-0.131-0.265 M145.559,150.035l-0.132-0.264 M145.427,149.771
	l-0.263-0.264 M145.163,149.508h-0.265 M144.899,149.508l-0.396-0.132 M144.504,149.376h-2.243 M142.261,149.376l-0.396,0.132
	 M141.864,149.508H141.6 M141.6,149.508l-0.263,0.264 M141.336,149.771l-0.131,0.264 M141.205,150.035l-0.133,0.265 M141.072,150.3
	v0.264 M141.072,150.563v7.124 M141.072,157.688v0.264 M141.072,157.951l0.133,0.265 M141.205,158.216l0.131,0.264 M141.337,158.479
	l0.263,0.264 M141.6,158.742h0.265 M141.864,158.742l0.396,0.134 M142.261,158.876h2.243 M144.504,158.876l0.395-0.134
	 M144.899,158.742h0.265 M145.163,158.742l0.264-0.263 M145.427,158.479l0.132-0.264 M145.559,158.216l0.132-0.265 M145.69,157.951
	v-0.264 M145.69,157.688v-7.124 M145.69,139.876h-0.131 M145.559,139.876l-0.132,0.133 M145.427,140.009l-0.132,0.131
	 M145.295,140.14v0.132 M145.295,140.271v0.132 M145.295,140.403v0.132 M145.295,140.535l0.132,0.133 M145.427,140.668h0.132
	 M145.559,140.668l0.132,0.132 M145.69,140.8h0.132 M145.822,140.8l0.133-0.132 M145.955,140.668h0.132 M146.087,140.668
	l0.132-0.133 M146.219,140.535v-0.132 M146.219,140.403v-0.132 M146.219,140.271v-0.132 M146.219,140.14l-0.132-0.131
	 M146.087,140.009l-0.132-0.133 M145.955,139.876h-0.133 M145.822,139.876h-0.132 M146.879,136.049v-0.131 M146.879,135.918v-0.133
	 M146.878,135.785h-0.131 M146.747,135.785v-0.132 M146.747,135.653h-0.133 M146.614,135.653h-0.132 M146.482,135.653h-3.827
	 M142.655,135.653h-0.132 M142.523,135.653h-0.131 M142.392,135.653v0.132 M142.392,135.785h-0.131 M142.261,135.785v0.133
	 M142.261,135.918v0.131 M142.261,136.049v8.577 M142.261,144.626v0.132 M142.261,144.758l0.131,0.132 M142.392,144.89v0.132
	 M142.392,145.021h0.132 M142.523,145.021h0.132 M142.655,145.021h3.827 M146.482,145.021h0.132 M146.614,145.021h0.132
	 M146.747,145.021v-0.132 M146.747,144.89l0.131-0.132 M146.879,144.758v-0.132 M146.879,144.626v-8.577 M148.065,134.467h-6.993
	 M141.072,134.467v11.742 M141.072,146.209h6.993 M137.511,69.022l-0.66,0.132 M136.851,69.154l-0.528,0.264 M136.322,69.418
	l-0.526,0.396 M135.796,69.814l-0.397,0.396 M135.399,70.21l-0.132,0.66 M135.268,70.871l-0.132,0.527 M135.136,71.397l0.132,0.66
	 M135.268,72.058l0.132,0.528 M135.399,72.585l0.396,0.528 M135.796,73.114l0.526,0.396 M136.322,73.51l0.528,0.264 M136.851,73.773
	h0.66 M137.511,73.773h0.527 M138.038,73.773l0.659-0.264 M138.697,73.51l0.396-0.396 M139.094,73.114l0.396-0.528 M139.489,72.585
	l0.265-0.528 M139.754,72.058l0.131-0.66 M139.885,71.397l-0.131-0.527 M139.754,70.871l-0.265-0.66 M139.489,70.21l-0.396-0.396
	 M139.094,69.814l-0.396-0.396 M138.697,69.418l-0.658-0.264 M138.038,69.154l-0.527-0.132 M144.504,76.148l-0.528,0.131
	 M143.976,76.279l-0.528,0.132 M143.447,76.412l-0.527,0.396 M142.92,76.808l-0.396,0.529 M142.523,77.336l-0.263,0.527
	 M142.261,77.862v0.66 M142.261,78.522v0.66 M142.261,79.183l0.263,0.528 M142.523,79.709l0.396,0.528 M142.92,80.237l0.527,0.265
	 M143.447,80.502l0.528,0.263 M143.976,80.766l0.528,0.132 M144.504,80.897l0.659-0.132 M145.163,80.766l0.527-0.263 M145.69,80.502
	l0.528-0.265 M146.219,80.237l0.396-0.528 M146.614,79.709l0.265-0.527 M146.879,79.183v-0.66 M146.879,78.522v-0.66
	 M146.879,77.862l-0.265-0.527 M146.614,77.336l-0.396-0.529 M146.219,76.808l-0.528-0.396 M145.69,76.412l-0.526-0.132
	 M145.163,76.279l-0.659-0.131 M144.504,69.814h-0.396 M144.107,69.814l-0.396,0.132 M143.712,69.946l-0.265,0.264 M143.447,70.21
	l-0.264,0.396 M143.184,70.606l-0.264,0.396 M142.92,71.002v0.395 M142.92,71.397v0.528 M142.92,71.925l0.264,0.396 M143.184,72.321
	l0.264,0.264 M143.447,72.585l0.265,0.264 M143.712,72.85l0.396,0.132 M144.107,72.981l0.396,0.132 M144.504,73.114l0.526-0.132
	 M145.03,72.981l0.396-0.132 M145.427,72.85l0.264-0.264 M145.69,72.585l0.265-0.264 M145.955,72.321l0.264-0.396 M146.219,71.925
	v-0.528 M146.219,71.397v-0.395 M146.219,71.002l-0.264-0.396 M145.955,70.606l-0.265-0.396 M145.69,70.21l-0.264-0.264
	 M145.427,69.946l-0.396-0.132 M145.03,69.814h-0.526 M137.511,76.808l-0.396,0.132 M137.114,76.939l-0.396,0.132 M136.719,77.071
	l-0.396,0.265 M136.322,77.336l-0.264,0.395 M136.059,77.731l-0.132,0.395 M135.927,78.126l-0.131,0.396 M135.796,78.522
	l0.131,0.396 M135.927,78.918l0.132,0.396"/>
<path fill="none" stroke="#B2B2B2" stroke-width="0.5" stroke-linecap="round" stroke-linejoin="round" stroke-miterlimit="10" d="
	M136.06,79.314l0.264,0.396 M136.323,79.709l0.395,0.265 M136.718,79.974l0.396,0.131 M137.114,80.105l0.396,0.133 M137.51,80.238
	l0.396-0.133 M137.906,80.105l0.396-0.131 M138.302,79.974l0.396-0.265 M138.697,79.709l0.265-0.395 M138.962,79.314l0.132-0.396
	 M139.094,78.918v-0.396 M139.094,78.522v-0.395 M139.094,78.127l-0.132-0.396 M138.962,77.731l-0.265-0.396 M138.698,77.336
	l-0.396-0.265 M138.302,77.071l-0.396-0.132 M137.906,76.939l-0.396-0.132 M148.065,67.835h-14.117 M133.948,67.835v14.25
	 M133.948,82.085h14.117 M143.448,95.939h-0.133 M143.315,95.939h-0.132 M143.184,95.939l-0.132,0.132 M143.052,96.071l-0.132,0.132
	 M142.92,96.203v0.132 M142.92,96.335v0.132 M142.92,96.467v0.132 M142.92,96.599l0.132,0.133 M143.052,96.731l0.133,0.132
	 M143.184,96.863h0.132 M143.315,96.863h0.133 M143.448,96.863h0.131 M143.58,96.863l0.131-0.132 M143.711,96.731l0.132-0.133
	 M143.843,96.599v-0.132 M143.843,96.467v-0.132 M143.843,96.335v-0.132 M143.843,96.203l-0.132-0.132 M143.711,96.071l-0.131-0.132
	 M143.579,95.939h-0.131 M144.503,92.772v-0.131 M144.503,92.641v-0.132 M144.503,92.509l-0.132-0.133 M144.371,92.376l-0.132-0.132
	 M144.239,92.244h-0.132 M144.107,92.244h-6.201 M137.906,92.244h-0.132 M137.774,92.244v0.132 M137.774,92.376h-0.132
	 M137.643,92.376l-0.133,0.133 M137.51,92.509v0.132 M137.51,92.641v0.131 M137.51,92.772v7.257 M137.51,100.029v0.132
	 M137.51,100.161v0.132 M137.51,100.293l0.133,0.132 M137.643,100.425h0.132 M137.774,100.425v0.133 M137.774,100.558h0.132
	 M137.906,100.558h6.201 M144.107,100.558h0.132 M144.239,100.558l0.132-0.133 M144.371,100.425l0.132-0.132 M144.503,100.293
	v-0.132 M144.503,100.161v-0.132 M144.503,100.029v-7.257 M145.691,109.925V91.057 M145.691,91.057h-9.368 M136.323,91.057v18.868
	 M136.323,109.925h9.368 M138.697,108.737v-6.993 M139.885,108.737v-6.993 M141.073,108.737v-6.993 M142.26,108.737v-6.993
	 M143.448,108.737v-6.993 M137.51,101.744v6.993 M144.503,108.737v-6.993"/>
<path fill="none" stroke="#B2B2B2" stroke-width="0.5" stroke-linecap="round" stroke-linejoin="round" stroke-miterlimit="10" d="
	M104.921,151.09l-2.903-0.263 M102.018,150.827l-2.771-0.792 M99.247,150.035l-2.64-1.188"/>
<line fill="none" stroke="#B2B2B2" stroke-width="0.5" stroke-linecap="round" stroke-linejoin="round" stroke-miterlimit="10" x1="96.608" y1="148.848" x2="104.921" y2="134.466"/>
<path fill="none" stroke="#B2B2B2" stroke-width="0.5" stroke-linecap="round" stroke-linejoin="round" stroke-miterlimit="10" d="
	M104.921,152.146v-0.264 M106.372,152.146h-1.451 M105.236,133.286h0.368 M104.921,133.675v-0.265"/>
<g>
	<defs>
		<rect id="SVGID_2_" width="157.844" height="186.328"/>
	</defs>
	<clipPath id="SVGID_7_">
		<use xlink:href="#SVGID_2_"  overflow="visible"/>
	</clipPath>
	
		<path clip-path="url(#SVGID_7_)" fill="none" stroke="#B2B2B2" stroke-width="0.5" stroke-linecap="round" stroke-linejoin="round" stroke-miterlimit="10" d="
		M95.685,3.184v30.874 M92.915,3.184v30.874 M124.447,3.184H95.685 M124.447,0.282H95.685 M157.565,17.038h-0.396 M156.905,17.038
		h-2.243 M154.662,17.038V3.184 M157.565,17.038V3.184"/>
	
		<path clip-path="url(#SVGID_7_)" fill="none" stroke="#B2B2B2" stroke-width="0.5" stroke-linecap="round" stroke-linejoin="round" stroke-miterlimit="10" d="
		M95.685,0.282h-2.771 M157.565,3.184V0.281 M157.565,0.282h-2.903 M95.685,35.51v-1.452 M92.915,34.058v1.452 M92.915,35.51h2.771
		 M154.662,17.038v1.451 M154.662,18.489h2.903 M157.565,18.489v-1.451 M157.565,17.038h-2.903"/>
	
		<path clip-path="url(#SVGID_7_)" fill="none" stroke="#B2B2B2" stroke-width="0.5" stroke-linecap="round" stroke-linejoin="round" stroke-miterlimit="10" d="
		M125.899,3.184V2.129 M125.899,0.809V0.282 M129.726,0.282V0.81 M129.726,2.129v1.055 M129.726,3.184h-3.826 M129.726,0.282h-3.826
		"/>
	
		<path clip-path="url(#SVGID_7_)" fill="none" stroke="#B2B2B2" stroke-width="0.5" stroke-linecap="round" stroke-linejoin="round" stroke-miterlimit="10" d="
		M124.448,3.184h1.451 M125.899,3.184V0.281 M125.899,0.282h-1.451 M124.448,0.282v2.902 M131.045,0.677v0.264"/>
	
		<path clip-path="url(#SVGID_7_)" fill="none" stroke="#B2B2B2" stroke-width="0.5" stroke-linecap="round" stroke-linejoin="round" stroke-miterlimit="10" d="
		M154.662,3.184h-23.617 M154.662,0.282h-23.617"/>
	
		<path clip-path="url(#SVGID_7_)" fill="none" stroke="#B2B2B2" stroke-width="0.5" stroke-linecap="round" stroke-linejoin="round" stroke-miterlimit="10" d="
		M129.726,3.184h1.319 M131.045,3.184V0.282 M131.045,0.282h-1.319 M129.726,0.282v2.902"/>
	
		<path clip-path="url(#SVGID_7_)" fill="none" stroke="#B2B2B2" stroke-width="0.5" stroke-linecap="round" stroke-linejoin="round" stroke-miterlimit="10" d="
		M64.943,3.184v27.048 M62.172,30.232V3.184 M62.172,30.232h2.771 M92.915,3.184H64.943 M62.172,0.282h95.393 M157.565,3.184V0.282
		 M62.172,0.282v2.902"/>
	
		<path clip-path="url(#SVGID_7_)" fill="none" stroke="#B2B2B2" stroke-width="0.5" stroke-linecap="round" stroke-linejoin="round" stroke-miterlimit="10" d="
		M154.663,18.489v11.743 M154.663,30.232h2.903 M92.914,27.734h2.771 M92.914,5.161h2.771 M157.566,30.232V18.489 M157.566,18.489
		h-2.903 M148.33,171.014h-41.562 M104.921,171.014H93.97 M93.97,171.014v4.486 M93.97,175.5h54.36 M69.164,171.014h-7.652
		 M59.533,171.014H4.777 M69.164,175.5v-4.486 M148.33,175.5v-4.486 M0.291,30.232V175.5 M4.777,171.014V44.482 M4.777,44.482H0.291
		"/>
	
		<path clip-path="url(#SVGID_7_)" fill="none" stroke="#B2B2B2" stroke-width="0.5" stroke-linecap="round" stroke-linejoin="round" stroke-miterlimit="10" d="
		M92.122,175.5l-0.265,3.694 M91.859,179.194l-0.925,3.563 M90.935,182.757l-1.583,3.298"/>
	
		<line clip-path="url(#SVGID_7_)" fill="none" stroke="#B2B2B2" stroke-width="0.5" stroke-linecap="round" stroke-linejoin="round" stroke-miterlimit="10" x1="89.352" y1="186.056" x2="70.88" y2="175.5"/>
</g>
<g>
	<defs>
		<rect id="SVGID_1_" width="157.844" height="186.328"/>
	</defs>
	<clipPath id="SVGID_8_">
		<use xlink:href="#SVGID_1_"  overflow="visible"/>
	</clipPath>
	
		<path clip-path="url(#SVGID_8_)" fill="none" stroke="#B2B2B2" stroke-width="0.5" stroke-linecap="round" stroke-linejoin="round" stroke-miterlimit="10" d="
		M70.879,175.5H0.291 M93.441,175.5h-1.319"/>
</g>
<path fill="none" stroke="#B2B2B2" stroke-width="0.5" stroke-linecap="round" stroke-linejoin="round" stroke-miterlimit="10" d="
	M93.97,175.5h-0.527 M93.97,173.125v2.375 M69.164,175.5v-2.375 M69.692,175.5h-0.528"/>
<path fill="none" stroke="#B2B2B2" stroke-width="0.5" stroke-linecap="round" stroke-linejoin="round" stroke-miterlimit="10" d="
	M82.755,114.411l-4.223,4.222 M78.532,118.633l1.319,1.452 M79.852,120.085l2.903-2.903 M63.491,133.675l-1.979,1.979
	 M61.512,138.424l3.298-3.43 M64.811,134.994l-1.32-1.319"/>
<path fill="none" stroke="#B2B2B2" stroke-width="0.5" stroke-linecap="round" stroke-linejoin="round" stroke-miterlimit="10" d="
	M64.283,132.882l-2.112-2.506 M62.171,130.376l-1.715-2.903 M60.456,127.473l-1.055-3.033"/>
<line fill="none" stroke="#B2B2B2" stroke-width="0.5" stroke-linecap="round" stroke-linejoin="round" stroke-miterlimit="10" x1="59.401" y1="124.438" x2="77.609" y2="119.557"/>
<line fill="none" stroke="#B2B2B2" stroke-width="0.5" stroke-linecap="round" stroke-linejoin="round" stroke-miterlimit="10" x1="63.774" y1="133.392" x2="64.259" y2="132.906"/>
<path fill="none" stroke="#B2B2B2" stroke-width="0.5" stroke-linecap="round" stroke-linejoin="round" stroke-miterlimit="10" d="
	M63.491,133.674l0.264-0.263 M64.81,134.994l-1.319-1.319 M78.268,118.897l0.265-0.265 M64.283,132.882l-0.528,0.529
	 M78.137,119.028l-0.528,0.527"/>
<path fill="none" stroke="#B2B2B2" stroke-width="0.5" stroke-linecap="round" stroke-linejoin="round" stroke-miterlimit="10" d="
	M132.486,57.141h15.479 M104.921,104.251h27.565"/>
<path fill="none" stroke="#B2B2B2" stroke-width="0.5" stroke-linecap="round" stroke-linejoin="round" stroke-miterlimit="10" d="
	M86.317,112.563l0.263-2.902 M86.58,109.66l0.792-2.77 M87.372,106.891l1.188-2.641"/>
<line fill="none" stroke="#B2B2B2" stroke-width="0.5" stroke-linecap="round" stroke-linejoin="round" stroke-miterlimit="10" x1="88.561" y1="104.251" x2="102.811" y2="112.563"/>
<path fill="none" stroke="#B2B2B2" stroke-width="0.5" stroke-linecap="round" stroke-linejoin="round" stroke-miterlimit="10" d="
	M85.262,112.563h0.264 M103.997,112.563v1.583 M103.733,112.563h0.264"/>
<path fill="none" stroke="#B2B2B2" stroke-width="0.5" stroke-linecap="round" stroke-linejoin="round" stroke-miterlimit="10" d="
	M27.207,35.51h2.243 M30.638,35.51h2.243 M20.082,35.51h2.243 M23.381,35.51h2.375 M22.853,35.51h10.028 M27.207,36.961h5.674
	 M20.082,36.961h5.674 M22.853,36.961h10.028"/>
<path fill="none" stroke="#B2B2B2" stroke-width="0.5" stroke-linecap="round" stroke-linejoin="round" stroke-miterlimit="10" d="
	M21.401,36.961h10.028 M31.429,35.51H21.401"/>
<path fill="none" stroke="#B2B2B2" stroke-width="0.5" stroke-linecap="round" stroke-linejoin="round" stroke-miterlimit="10" d="
	M21.401,35.51h-1.32 M20.082,35.51v1.451 M20.082,36.961h1.32 M21.401,36.961V35.51 M31.43,35.51v1.451 M31.43,36.961h1.451
	 M32.88,36.961V35.51 M32.88,35.51H31.43"/>
<path fill="none" stroke="#B2B2B2" stroke-width="0.5" stroke-linecap="round" stroke-linejoin="round" stroke-miterlimit="10" d="
	M32.88,35.51h-4.618 M24.7,35.51h-4.618 M32.88,36.961H20.082"/>
<path fill="none" stroke="#B2B2B2" stroke-width="0.5" stroke-linecap="round" stroke-linejoin="round" stroke-miterlimit="10" d="
	M20.082,36.961H32.88 M34.332,36.961H47.13 M32.88,35.51H20.082 M47.13,35.51H34.332"/>
<path fill="none" stroke="#B2B2B2" stroke-width="0.5" stroke-linecap="round" stroke-linejoin="round" stroke-miterlimit="10" d="
	M34.332,35.51H32.88 M32.88,35.51v1.451 M32.88,36.961h1.451 M34.332,36.961V35.51 M20.082,35.51H18.63 M18.63,35.51v1.451
	 M18.63,36.961h1.452 M20.082,36.961V35.51 M47.13,35.51v1.451 M47.13,36.961h1.451 M48.582,36.961V35.51 M48.582,35.51H47.13"/>
<path fill="none" stroke="#B2B2B2" stroke-width="0.5" stroke-linecap="round" stroke-linejoin="round" stroke-miterlimit="10" d="
	M18.103,36.961h0.527 M18.631,36.961V35.51 M18.631,35.51h-0.528 M18.103,35.51v1.45 M48.582,36.961h0.527 M49.109,36.961V35.51
	 M49.109,35.51h-0.528 M48.582,35.51v1.45 M49.109,30.1v5.279 M18.103,35.378V30.1 M18.103,30.1h31.006 M18.103,45.142V36.96
	 M49.109,36.961v8.18 M18.103,36.961h31.006 M49.109,45.142H18.103"/>
</svg>
