<?xml version="1.0" encoding="utf-8"?>
<!-- Generator: Adobe Illustrator 15.0.2, SVG Export Plug-In  -->
<!DOCTYPE svg PUBLIC "-//W3C//DTD SVG 1.1//EN" "http://www.w3.org/Graphics/SVG/1.1/DTD/svg11.dtd" [
	<!ENTITY ns_flows "http://ns.adobe.com/Flows/1.0/">
]>
<svg version="1.1"
	 xmlns="http://www.w3.org/2000/svg" xmlns:xlink="http://www.w3.org/1999/xlink" xmlns:a="http://ns.adobe.com/AdobeSVGViewerExtensions/3.0/"
	 x="0px" y="0px" width="158px" height="181px" viewBox="0.25 0.25 158 181" enable-background="new 0.25 0.25 158 181"
	 xml:space="preserve">
<defs>
</defs>
<polygon fill="#EDEDED" points="9.485,166.509 153.038,166.509 153.038,44.464 55.929,44.464 55.929,35.492 64.673,35.492 
	64.673,30.214 92.741,30.214 92.741,3.166 3.021,3.166 3.021,35.492 18.854,35.492 18.854,44.464 9.551,44.464 "/>
<path fill="none" stroke="#B2B2B2" stroke-width="0.5" stroke-linecap="round" stroke-linejoin="round" stroke-miterlimit="10" d="
	M9.485,44.464h9.368 M18.854,44.464v-8.972 M56.062,44.464h17.151 M75.062,44.464h25.069 M56.062,35.492v8.972"/>
<path fill="none" stroke="#B2B2B2" stroke-width="0.5" stroke-linecap="round" stroke-linejoin="round" stroke-miterlimit="10" d="
	M56.062,44.464h-0.133 M56.062,44.464v-8.972 M55.929,35.492v8.972 M55.929,35.492h0.133"/>
<g>
	<defs>
		<rect id="SVGID_6_" x="0.25" y="0.25" width="157.545" height="181.301"/>
	</defs>
	<clipPath id="SVGID_7_">
		<use xlink:href="#SVGID_6_"  overflow="visible"/>
	</clipPath>
	
		<path clip-path="url(#SVGID_7_)" fill="none" stroke="#B2B2B2" stroke-width="0.5" stroke-linecap="round" stroke-linejoin="round" stroke-miterlimit="10" d="
		M0.573,170.996h8.912 M9.485,166.509v-52.116 M9.485,112.545V44.464"/>
	
		<path clip-path="url(#SVGID_7_)" fill="none" stroke="#B2B2B2" stroke-width="0.5" stroke-linecap="round" stroke-linejoin="round" stroke-miterlimit="10" d="
		M0.25,35.492h2.771 M3.02,35.492v-2.375 M3.02,33.117v-2.903 M103.428,35.492v-5.278 M103.428,30.214H65.067 M157.378,30.214
		h-23.075 M134.303,30.214v5.278 M0.25,30.214v5.278 M56.061,35.492h8.613 M52.895,166.51v-14.383 M52.895,134.039v-19.777
		 M54.873,114.261v-1.717 M71.498,114.157v-1.716 M52.895,112.544h-1.847 M51.048,166.51h1.847 M51.048,112.544H9.485
		 M9.485,114.393h0.264 M9.485,112.544v1.849 M54.873,112.544h-1.978 M73.213,112.544h-1.715 M96.302,138.406v28.104 M98.282,166.51
		v-28.896 M98.282,137.615l-1.98-1.979 M96.302,166.51h1.98 M73.213,44.464v68.082 M73.213,114.261v0.923 M73.213,115.184
		l1.848,1.979 M75.061,114.393V44.464 M75.061,44.464h-1.848"/>
</g>
<path fill="none" stroke="#B2B2B2" stroke-width="0.5" stroke-linecap="round" stroke-linejoin="round" stroke-miterlimit="10" d="
	M13.707,124.289h-0.131 M13.576,124.289l-0.132-0.132 M13.444,124.157h-0.132 M13.312,124.157v-0.132 M13.312,124.025l-0.132-0.133
	 M13.18,123.892v-0.132 M13.18,123.76v-0.132 M13.18,123.628l0.132-0.131 M13.312,123.498l0.132-0.132 M13.444,123.366h0.132
	 M13.576,123.366l0.131-0.133 M13.707,123.233l0.132,0.133 M13.839,123.366h0.132 M13.971,123.366v0.132 M13.971,123.498h0.133
	 M14.104,123.498v0.131 M14.104,123.628l0.131,0.132 M14.235,123.76l-0.131,0.132 M14.104,123.892v0.133 M14.104,124.025
	l-0.133,0.132 M13.971,124.157l-0.132,0.132 M13.839,124.289h-0.132 M10.805,130.622v-13.721 M12.256,132.074l-0.395-0.133
	 M11.861,131.941l-0.265-0.133 M11.596,131.808l-0.264-0.132 M11.332,131.676l-0.263-0.396 M11.069,131.282l-0.132-0.265
	 M10.938,131.017l-0.133-0.396 M41.68,132.074H12.256 M41.68,115.449l1.582,0.132 M43.262,115.581l1.451,0.528 M44.714,116.109
	l1.32,0.66 M46.034,116.767l1.187,0.925 M47.221,117.692l1.055,1.055 M48.276,118.747l0.792,1.32 M49.068,120.067l0.528,1.45
	 M49.596,121.517l0.263,1.451 M49.859,122.968v1.584 M49.859,124.552l-0.263,1.451 M49.596,126.003l-0.528,1.451 M49.068,127.455
	l-0.792,1.32 M48.276,128.775l-1.055,1.055 M47.221,129.83l-1.187,0.924 M46.034,130.753l-1.32,0.66 M44.714,131.414l-1.452,0.528
	 M43.262,131.941l-1.582,0.133 M12.256,115.449H41.68 M10.805,116.901l0.132-0.397 M10.938,116.503l0.131-0.264 M11.069,116.24
	l0.263-0.263 M11.332,115.977l0.264-0.265 M11.596,115.712l0.265-0.132 M11.861,115.581l0.395-0.132 M52.819,133.26H9.749
	 M9.749,114.261h41.299 M52.894,114.261h1.979 M71.498,114.261h1.715 M9.749,133.26v-18.999 M44.186,159.384v0.133 M44.186,159.517
	l-0.132,0.132 M44.054,159.649h-0.132 M43.922,159.649H43.79 M43.79,159.649l-0.132-0.132 M43.659,159.517v-0.133 M43.659,159.384
	v-0.132 M43.659,159.252h0.132 M43.79,159.252h0.132 M43.922,159.252v-0.132 M43.922,159.121v0.132 M43.922,159.252h0.132
	 M44.054,159.252h0.132 M44.186,159.252v0.132 M47.485,159.384l-0.132,0.924 M47.353,160.308l-0.396,0.925 M46.957,161.233
	l-0.528,0.658 M46.429,161.891l-0.792,0.66 M45.637,162.551l-0.791,0.265 M44.846,162.816l-0.924,0.132 M43.922,162.948
	l-0.923-0.132 M42.999,162.816l-0.793-0.265 M42.206,162.551l-0.791-0.66 M41.415,161.891l-0.527-0.658 M40.888,161.233
	l-0.396-0.925 M40.492,160.308l-0.133-0.924 M40.359,159.384l0.133-0.923 M40.492,158.461l0.396-0.792 M40.888,157.669l0.527-0.791
	 M41.415,156.878l0.791-0.528 M42.206,156.35l0.793-0.396 M42.999,155.955l0.924-0.133 M43.922,155.822l0.924,0.133 M44.846,155.955
	l0.791,0.396 M45.637,156.35l0.793,0.528 M46.429,156.878l0.528,0.791 M46.957,157.669l0.396,0.792 M47.353,158.461l0.132,0.924
	 M51.048,152.392v14.117 M51.048,114.392v18.671 M36.797,152.392h16.022 M36.797,166.509v-14.118 M51.048,166.509H36.797
	 M14.368,153.58l0.132,0.132 M14.5,153.711h0.131 M14.631,153.711h0.133 M14.764,153.711v0.132 M14.764,153.843l0.131,0.132
	 M14.895,153.975v0.133 M14.895,154.108v0.132 M14.895,154.24l-0.131,0.132 M14.764,154.372v0.132 M14.764,154.503h-0.133
	 M14.631,154.503H14.5 M14.5,154.503l-0.132,0.132 M14.368,154.635l-0.133-0.132 M14.235,154.503h-0.131 M14.104,154.503
	l-0.133-0.132 M13.971,154.372v-0.132 M13.971,154.24v-0.132 M13.971,154.108v-0.133 M13.971,153.975v-0.132 M13.971,153.843
	l0.133-0.132 M14.104,153.711h0.131 M14.235,153.711l0.133-0.132 M17.929,156.878v-5.542 M17.929,151.336l1.187-0.396
	 M19.117,150.941l1.187-0.265 M20.304,150.677l1.32-0.133 M21.624,150.544l1.319,0.133 M22.943,150.677l1.188,0.264 M24.131,150.941
	l1.056,0.396"/>
<path fill="none" stroke="#B2B2B2" stroke-width="0.5" stroke-linecap="round" stroke-linejoin="round" stroke-miterlimit="10" d="
	M25.187,151.335l0.924,0.529 M26.111,151.865l0.66,0.659 M26.771,152.524l0.527,0.792 M27.298,153.316l0.132,0.792 M27.43,154.108
	l-0.132,0.791 M27.298,154.899l-0.527,0.792 M26.771,155.691l-0.661,0.66 M26.111,156.351l-0.924,0.527 M25.187,156.877
	l-1.056,0.396 M24.131,157.274l-1.187,0.264 M22.944,157.538l-1.32,0.132 M21.624,157.669l-1.32-0.132 M20.304,157.538l-1.187-0.264
	 M19.117,157.274l-1.187-0.396 M16.479,158.461l0.132-0.264 M16.611,158.198l0.132-0.264 M16.743,157.934v-0.265 M18.854,158.461
	h-2.375 M18.854,149.753l1.319-0.265 M20.173,149.489l1.451-0.132 M21.624,149.357l1.452,0.132 M23.076,149.489l1.451,0.397
	 M24.527,149.886l1.187,0.396 M25.714,150.282l1.057,0.659 M26.771,150.941l0.923,0.791 M27.694,151.732l0.527,0.924
	 M28.221,152.656l0.264,0.924 M28.485,153.58v1.056 M28.485,154.635l-0.264,0.924 M28.221,155.559l-0.527,0.924 M27.694,156.483
	l-0.923,0.792 M26.771,157.274l-1.057,0.66 M25.714,157.934l-1.187,0.396 M24.527,158.33l-1.451,0.396 M23.076,158.725l-1.452,0.132
	 M21.624,158.857l-1.451-0.132 M20.173,158.725l-1.319-0.264 M16.479,149.753h2.375 M16.743,150.544v-0.263 M16.743,150.282
	l-0.132-0.265 M16.611,150.017l-0.132-0.264 M16.743,157.669v-7.125 M11.993,157.669v-7.125 M13.18,158.857l-0.264-0.132
	 M12.916,158.725h-0.264 M12.652,158.725l-0.263-0.264 M12.389,158.461l-0.132-0.264 M12.256,158.198l-0.131-0.264 M12.125,157.934
	l-0.132-0.265 M15.555,158.857H13.18 M16.743,157.669v0.265 M16.743,157.934l-0.132,0.264 M16.611,158.198l-0.132,0.264
	 M16.479,158.461l-0.264,0.264 M16.215,158.725h-0.264 M15.951,158.725l-0.396,0.132 M16.743,150.544v7.125 M15.555,149.357
	l0.396,0.132 M15.951,149.489h0.264 M16.215,149.489l0.264,0.265 M16.479,149.753l0.132,0.264 M16.611,150.017l0.132,0.265
	 M16.743,150.282v0.263 M13.18,149.357h2.375 M11.993,150.544l0.132-0.263 M12.125,150.282l0.131-0.265 M12.256,150.017l0.133-0.264
	 M12.389,149.753l0.263-0.265 M12.652,149.489h0.264 M12.916,149.489l0.265-0.132 M11.993,140.781h-0.132 M11.861,140.781v-0.131
	 M11.861,140.65h-0.132 M11.729,140.65l-0.133-0.133 M11.596,140.517v-0.131 M11.596,140.386v-0.133 M11.596,140.253v-0.132
	 M11.596,140.122l0.133-0.132 M11.729,139.99l0.132-0.132 M11.861,139.858h0.132 M11.993,139.858h0.132 M12.125,139.858h0.131
	 M12.256,139.858l0.133,0.132 M12.389,139.99v0.132 M12.389,140.122h0.131 M12.52,140.122v0.132 M12.52,140.253v0.133
	 M12.52,140.386l-0.131,0.131 M12.389,140.517v0.133 M12.389,140.65h-0.132 M12.256,140.65l-0.131,0.131 M12.125,140.781h-0.132
	 M10.805,144.608v-8.577 M11.332,145.003h-0.13 M11.202,145.003h-0.133 M11.069,145.003l-0.132-0.132 M10.938,144.872v-0.132
	 M10.938,144.74v-0.132 M10.938,144.608h-0.133 M15.159,145.003h-3.827 M15.555,144.608v0.132 M15.555,144.74l-0.132,0.132
	 M15.423,144.872l-0.132,0.132 M15.291,145.003h-0.132 M15.555,136.031v8.577 M15.159,135.635h0.132 M15.291,135.635l0.132,0.132
	 M15.423,135.767h0.132 M15.555,135.767v0.133 M15.555,135.9v0.131 M11.332,135.635h3.827 M10.805,136.031l0.133-0.131
	 M10.938,135.9v-0.133 M10.938,135.767l0.131-0.132 M11.069,135.635h0.133 M11.202,135.635h0.13 M16.743,146.191H9.75
	 M16.743,134.448v11.743 M9.749,134.448h6.994 M9.749,146.191v-11.743 M13.18,73.095l-0.396-0.132 M12.784,72.963l-0.395-0.131
	 M12.389,72.832l-0.396-0.265 M11.993,72.567l-0.264-0.264 M11.729,72.303l-0.133-0.395 M11.596,71.908V71.38 M11.596,71.38v-0.396
	 M11.596,70.984l0.133-0.395 M11.729,70.589l0.264-0.397 M11.993,70.192l0.396-0.264 M12.389,69.929l0.395-0.132 M12.784,69.797
	h0.397 M13.18,69.797h0.527 M13.707,69.797l0.397,0.132 M14.104,69.929l0.264,0.264 M14.368,70.192l0.263,0.397 M14.631,70.589
	l0.133,0.395 M14.764,70.984l0.131,0.396 M14.895,71.38l-0.131,0.528 M14.764,71.908l-0.133,0.396 M14.631,72.303l-0.263,0.264
	 M14.368,72.567l-0.264,0.265 M14.104,72.832l-0.397,0.131 M13.707,72.963l-0.527,0.132 M13.18,80.88l-0.528-0.132 M12.652,80.748
	l-0.659-0.264 M11.993,80.484l-0.397-0.264 M11.596,80.22l-0.394-0.528 M11.202,79.692l-0.265-0.528 M10.938,79.165l-0.133-0.66
	 M10.805,78.505l0.133-0.66 M10.938,77.845l0.264-0.527 M11.202,77.318l0.394-0.528 M11.596,76.79l0.397-0.396 M11.993,76.394
	l0.659-0.132 M12.652,76.262l0.529-0.132 M13.18,76.13l0.659,0.132 M13.839,76.262l0.529,0.132 M14.368,76.394l0.527,0.396
	 M14.895,76.79l0.396,0.528 M15.291,77.318l0.264,0.527 M15.555,77.845v0.66 M15.555,78.505v0.66 M15.555,79.165l-0.264,0.527
	 M15.291,79.692l-0.396,0.528 M14.895,80.22l-0.527,0.264 M14.368,80.484l-0.529,0.264 M13.839,80.748L13.18,80.88 M20.304,73.755
	h-0.659 M19.645,73.755l-0.528-0.264 M19.117,73.491l-0.527-0.396 M18.59,73.095l-0.264-0.528 M18.326,72.567l-0.263-0.527
	 M18.063,72.04l-0.133-0.661 M17.93,71.38l0.133-0.528 M18.063,70.852l0.263-0.66 M18.326,70.192l0.264-0.396 M18.59,69.797
	l0.527-0.396 M19.117,69.401l0.528-0.264 M19.645,69.137l0.659-0.132 M20.304,69.005l0.661,0.132 M20.965,69.137l0.527,0.264
	 M21.492,69.401l0.529,0.396 M22.021,69.797l0.395,0.396 M22.415,70.192l0.133,0.66 M22.548,70.852l0.132,0.528 M22.68,71.38
	l-0.133,0.66 M22.548,72.04l-0.132,0.527 M22.415,72.567l-0.394,0.528 M22.021,73.095l-0.529,0.396 M21.492,73.491l-0.527,0.264
	 M20.965,73.755h-0.661 M20.304,80.22l-0.395-0.132 M19.909,80.088l-0.396-0.132 M19.513,79.956l-0.396-0.264 M19.117,79.692
	l-0.263-0.396 M18.854,79.297l-0.132-0.396 M18.722,78.901v-0.396 M18.722,78.505v-0.396 M18.722,78.109l0.132-0.396"/>
<path fill="none" stroke="#B2B2B2" stroke-width="0.5" stroke-linecap="round" stroke-linejoin="round" stroke-miterlimit="10" d="
	M18.854,77.713l0.262-0.396 M19.117,77.318l0.396-0.265 M19.513,77.053l0.396-0.132 M19.909,76.921l0.395-0.132 M20.304,76.789
	l0.397,0.132 M20.7,76.921l0.397,0.132 M21.097,77.053l0.395,0.265 M21.492,77.318l0.264,0.395 M21.756,77.713l0.132,0.396
	 M21.888,78.109l0.132,0.395 M22.02,78.504L21.888,78.9 M21.888,78.9l-0.132,0.396 M21.756,79.296l-0.264,0.396 M21.492,79.691
	l-0.395,0.265 M21.097,79.956L20.7,80.087 M20.7,80.087l-0.396,0.133 M23.867,82.067H9.749 M23.867,67.817v14.25 M25.366,57.185
	v47.047 M52.819,104.232v8.314 M9.749,67.817h14.118 M9.749,57.185h15.617 M25.562,104.233h27.257 M14.368,96.845h-0.133
	 M14.235,96.845l-0.131-0.132 M14.103,96.713l-0.132-0.133 M13.971,96.581v-0.132 M13.971,96.449v-0.132 M13.971,96.317v-0.132
	 M13.971,96.185l0.132-0.132 M14.103,96.053l0.132-0.132 M14.235,95.921h0.133 M14.368,95.921H14.5 M14.5,95.921h0.131
	 M14.631,95.921l0.133,0.132 M14.764,96.053v0.132 M14.764,96.185l0.131,0.132 M14.895,96.317v0.132 M14.895,96.449l-0.131,0.132
	 M14.764,96.581v0.133 M14.764,96.713l-0.133,0.132 M14.631,96.845H14.5 M14.5,96.845h-0.132 M13.18,100.011v-7.257 M13.707,100.54
	h-0.131 M13.576,100.54l-0.132-0.133 M13.444,100.407h-0.132 M13.312,100.407v-0.132 M13.312,100.275l-0.132-0.132 M13.18,100.143
	v-0.132 M19.777,100.54h-6.07 M20.304,100.011v0.132 M20.304,100.143v0.132 M20.304,100.275l-0.131,0.132 M20.173,100.407h-0.132
	 M20.041,100.407l-0.132,0.133 M19.909,100.54h-0.132 M20.304,92.754v7.257 M19.777,92.226h0.132 M19.909,92.226l0.132,0.132
	 M20.041,92.358h0.132 M20.173,92.358l0.131,0.133 M20.304,92.491v0.133 M20.304,92.624v0.131 M13.707,92.226h6.07 M13.18,92.754
	v-0.131 M13.18,92.624l0.132-0.133 M13.312,92.491v-0.133 M13.312,92.358h0.132 M13.444,92.358l0.132-0.132 M13.576,92.226h0.131
	 M21.492,109.907h-9.5 M21.492,91.039v18.868 M11.992,91.039h9.5 M11.992,109.907V91.039 M19.117,108.719v-6.993 M17.929,108.719
	v-6.993 M16.743,108.719v-6.993 M15.555,108.719v-6.993 M14.368,108.719v-6.993 M20.304,101.726v6.993 M13.18,108.719v-6.993"/>
<path fill="none" stroke="#B2B2B2" stroke-width="0.5" stroke-linecap="round" stroke-linejoin="round" stroke-miterlimit="10" d="
	M52.896,151.072l2.902-0.263 M55.797,150.809l2.771-0.792 M58.568,150.017l2.639-1.188"/>
<line fill="none" stroke="#B2B2B2" stroke-width="0.5" stroke-linecap="round" stroke-linejoin="round" stroke-miterlimit="10" x1="61.207" y1="148.83" x2="52.895" y2="134.448"/>
<path fill="none" stroke="#B2B2B2" stroke-width="0.5" stroke-linecap="round" stroke-linejoin="round" stroke-miterlimit="10" d="
	M52.895,134.31v-0.271 M52.895,152.128v-0.99"/>
<g>
	<defs>
		<rect id="SVGID_5_" x="0.25" y="0.25" width="157.545" height="181.301"/>
	</defs>
	<clipPath id="SVGID_8_">
		<use xlink:href="#SVGID_5_"  overflow="visible"/>
	</clipPath>
	
		<path clip-path="url(#SVGID_8_)" fill="none" stroke="#B2B2B2" stroke-width="0.5" stroke-linecap="round" stroke-linejoin="round" stroke-miterlimit="10" d="
		M64.901,3.166v32.326 M62.13,3.166V34.04 M33.235,0.264H62.13 M33.235,3.166H62.13 M3.021,17.02H0.777 M0.646,17.02H0.25
		 M0.25,17.02V3.166 M3.021,17.02V3.166"/>
	
		<path clip-path="url(#SVGID_8_)" fill="none" stroke="#B2B2B2" stroke-width="0.5" stroke-linecap="round" stroke-linejoin="round" stroke-miterlimit="10" d="
		M64.901,0.264H62.13 M3.021,0.264H0.25 M0.25,0.264v2.902 M64.901,35.492V34.04 M62.13,34.04v1.452 M62.13,35.492h2.771
		 M0.25,17.02v1.451 M0.25,18.471h2.77 M3.021,18.471V17.02 M3.021,17.02H0.25"/>
	
		<path clip-path="url(#SVGID_8_)" fill="none" stroke="#B2B2B2" stroke-width="0.5" stroke-linecap="round" stroke-linejoin="round" stroke-miterlimit="10" d="
		M28.089,3.166V2.11 M28.089,0.792V0.264 M28.089,0.264h3.827 M28.089,3.166h3.827"/>
	
		<path clip-path="url(#SVGID_8_)" fill="none" stroke="#B2B2B2" stroke-width="0.5" stroke-linecap="round" stroke-linejoin="round" stroke-miterlimit="10" d="
		M3.021,0.264h23.618 M3.021,3.166h23.618"/>
	
		<path clip-path="url(#SVGID_8_)" fill="none" stroke="#B2B2B2" stroke-width="0.5" stroke-linecap="round" stroke-linejoin="round" stroke-miterlimit="10" d="
		M28.089,0.264h-1.451 M26.638,0.264v2.902 M26.638,3.166h1.451 M28.089,3.166V0.264"/>
	
		<path clip-path="url(#SVGID_8_)" fill="none" stroke="#B2B2B2" stroke-width="0.5" stroke-linecap="round" stroke-linejoin="round" stroke-miterlimit="10" d="
		M95.645,3.166v27.048 M92.741,30.213V3.166 M92.741,30.213h2.903 M0.25,0.264h95.394 M92.741,3.166h-27.84 M0.25,0.264v2.902
		 M95.645,3.166V0.264"/>
	
		<path clip-path="url(#SVGID_8_)" fill="none" stroke="#B2B2B2" stroke-width="0.5" stroke-linecap="round" stroke-linejoin="round" stroke-miterlimit="10" d="
		M33.567,0.25h-1.451 M32.117,0.25v2.903 M32.117,3.153h1.451 M33.567,3.153V0.25"/>
	
		<path clip-path="url(#SVGID_8_)" fill="none" stroke="#B2B2B2" stroke-width="0.5" stroke-linecap="round" stroke-linejoin="round" stroke-miterlimit="10" d="
		M0.25,18.471v11.743 M0.25,30.214h2.77 M62.146,27.466h2.67 M62.146,5.404h2.67 M3.021,30.214V18.471 M3.021,18.471H0.25
		 M9.485,170.996h54.36 M63.845,170.996v-4.485 M63.845,166.51h-10.95 M51.048,166.51H9.485 M88.65,170.996h67.979 M153.038,166.51
		H98.281 M96.303,166.51H88.65 M88.65,166.51v4.485 M9.485,166.51v4.485 M153.038,44.464V166.51 M157.524,170.996V30.214
		 M157.112,44.464h-4.407"/>
	
		<path clip-path="url(#SVGID_8_)" fill="none" stroke="#B2B2B2" stroke-width="0.5" stroke-linecap="round" stroke-linejoin="round" stroke-miterlimit="10" d="
		M65.561,170.996l0.397,3.694 M65.958,174.69l0.923,3.563 M66.88,178.252l1.584,3.298"/>
	
		<line clip-path="url(#SVGID_8_)" fill="none" stroke="#B2B2B2" stroke-width="0.5" stroke-linecap="round" stroke-linejoin="round" stroke-miterlimit="10" x1="68.464" y1="181.551" x2="86.803" y2="170.997"/>
</g>
<path fill="none" stroke="#B2B2B2" stroke-width="0.5" stroke-linecap="round" stroke-linejoin="round" stroke-miterlimit="10" d="
	M86.803,170.996h1.32 M64.373,170.996h1.188"/>
<path fill="none" stroke="#B2B2B2" stroke-width="0.5" stroke-linecap="round" stroke-linejoin="round" stroke-miterlimit="10" d="
	M63.845,168.62v2.376 M63.845,170.996h0.528 M88.123,170.996h0.527 M88.65,170.996v-2.376"/>
<g>
	<defs>
		<rect id="SVGID_4_" x="0.25" y="0.25" width="157.545" height="181.301"/>
	</defs>
	<clipPath id="SVGID_9_">
		<use xlink:href="#SVGID_4_"  overflow="visible"/>
	</clipPath>
	
		<path clip-path="url(#SVGID_9_)" fill="none" stroke="#B2B2B2" stroke-width="0.5" stroke-linecap="round" stroke-linejoin="round" stroke-miterlimit="10" d="
		M100.13,44.464h3.298 M103.429,44.464v-8.972 M134.303,44.464h18.736 M147.114,44.464h10.264 M134.303,35.492v8.972 M64.674,35.492
		h-8.612"/>
</g>
<path fill="none" stroke="#B2B2B2" stroke-width="0.5" stroke-linecap="round" stroke-linejoin="round" stroke-miterlimit="10" d="
	M112.4,35.492h2.374 M115.831,35.492h2.376 M105.275,35.492h2.375 M108.706,35.492h2.375 M108.177,35.492h10.028 M112.4,36.943
	h5.805 M105.275,36.943h5.806 M108.177,36.943h10.028"/>
<path fill="none" stroke="#B2B2B2" stroke-width="0.5" stroke-linecap="round" stroke-linejoin="round" stroke-miterlimit="10" d="
	M106.728,36.943h10.027 M116.755,35.492h-10.027"/>
<path fill="none" stroke="#B2B2B2" stroke-width="0.5" stroke-linecap="round" stroke-linejoin="round" stroke-miterlimit="10" d="
	M106.728,35.492h-1.452 M105.275,35.492v1.451 M105.275,36.943h1.452 M106.728,36.943v-1.451 M116.755,35.492v1.451 M116.755,36.943
	h1.45 M118.205,36.943v-1.451 M118.205,35.492h-1.45"/>
<path fill="none" stroke="#B2B2B2" stroke-width="0.5" stroke-linecap="round" stroke-linejoin="round" stroke-miterlimit="10" d="
	M118.205,35.492h-4.618 M110.025,35.492h-4.75 M118.205,36.943h-12.931"/>
<path fill="none" stroke="#B2B2B2" stroke-width="0.5" stroke-linecap="round" stroke-linejoin="round" stroke-miterlimit="10" d="
	M105.275,36.943h12.93 M119.657,36.943h12.798 M118.205,35.492h-12.93 M132.455,35.492h-12.798"/>
<path fill="none" stroke="#B2B2B2" stroke-width="0.5" stroke-linecap="round" stroke-linejoin="round" stroke-miterlimit="10" d="
	M119.657,35.492h-1.451 M118.206,35.492v1.451 M118.206,36.943h1.451 M119.657,36.943v-1.451 M105.275,35.492h-1.319
	 M103.955,35.492v1.451 M103.955,36.943h1.32 M105.275,36.943v-1.451 M132.455,35.492v1.451 M132.455,36.943h1.452 M133.907,36.943
	v-1.451 M133.907,35.492h-1.452"/>
<path fill="none" stroke="#B2B2B2" stroke-width="0.5" stroke-linecap="round" stroke-linejoin="round" stroke-miterlimit="10" d="
	M103.429,36.943h0.527 M103.955,36.943v-1.451 M103.955,35.492h-0.527 M103.429,35.492v1.45 M133.907,36.943h0.396 M134.303,36.943
	v-1.451 M134.303,35.492h-0.396 M133.907,35.492v1.45 M134.303,30.081v5.279 M103.429,35.36v-5.279 M103.429,30.081h30.874
	 M106.727,35.492h5.277 M103.429,45.123v-8.181 M134.303,36.943v8.18 M103.429,36.943h30.874 M134.303,45.123h-30.874"/>
<path fill="none" stroke="#B2B2B2" stroke-width="0.5" stroke-linecap="round" stroke-linejoin="round" stroke-miterlimit="10" d="
	M75.061,117.164l2.902,2.902 M77.963,120.066l1.32-1.451 M79.283,118.615l-4.222-4.223 M93.004,134.975l3.298,3.432 M96.302,135.635
	l-1.978-1.979 M94.324,133.657l-1.32,1.318"/>
<path fill="none" stroke="#B2B2B2" stroke-width="0.5" stroke-linecap="round" stroke-linejoin="round" stroke-miterlimit="10" d="
	M93.533,132.864l2.111-2.506 M95.645,130.358l1.583-2.903 M97.228,127.455l1.187-3.033"/>
<line fill="none" stroke="#B2B2B2" stroke-width="0.5" stroke-linecap="round" stroke-linejoin="round" stroke-miterlimit="10" x1="98.414" y1="124.42" x2="80.207" y2="119.539"/>
<path fill="none" stroke="#B2B2B2" stroke-width="0.5" stroke-linecap="round" stroke-linejoin="round" stroke-miterlimit="10" d="
	M93.004,134.976l1.32-1.319 M94.27,133.602l-0.683-0.682 M80.206,119.538l-0.923-0.923 M79.283,118.615l-1.32,1.452"/>
<g>
	<defs>
		<rect id="SVGID_3_" x="0.25" y="0.25" width="157.545" height="181.301"/>
	</defs>
	<clipPath id="SVGID_10_">
		<use xlink:href="#SVGID_3_"  overflow="visible"/>
	</clipPath>
	
		<path clip-path="url(#SVGID_10_)" fill="none" stroke="#B2B2B2" stroke-width="0.5" stroke-linecap="round" stroke-linejoin="round" stroke-miterlimit="10" d="
		M157.795,30.082"/>
</g>
<path fill="none" stroke="#B2B2B2" stroke-width="0.5" stroke-linecap="round" stroke-linejoin="round" stroke-miterlimit="10" d="
	M71.498,112.545l-0.264-2.902 M71.234,109.642l-0.791-2.77 M70.443,106.873l-1.188-2.641"/>
<line fill="none" stroke="#B2B2B2" stroke-width="0.5" stroke-linecap="round" stroke-linejoin="round" stroke-miterlimit="10" x1="69.255" y1="104.233" x2="54.873" y2="112.544"/>
<g>
	<defs>
		<rect id="SVGID_2_" x="0.25" y="0.25" width="157.545" height="181.301"/>
	</defs>
	<clipPath id="SVGID_11_">
		<use xlink:href="#SVGID_2_"  overflow="visible"/>
	</clipPath>
	
		<path clip-path="url(#SVGID_11_)" fill="none" stroke="#B2B2B2" stroke-width="0.5" stroke-linecap="round" stroke-linejoin="round" stroke-miterlimit="10" d="
		M157.524,170.996"/>
	
		<line clip-path="url(#SVGID_11_)" fill="none" stroke="#B2B2B2" stroke-width="0.5" stroke-linecap="round" stroke-linejoin="round" stroke-miterlimit="10" x1="157.524" y1="170.996" x2="156.904" y2="170.996"/>
</g>
<line fill="none" stroke="#B2B2B2" stroke-width="0.5" stroke-linecap="round" stroke-linejoin="round" stroke-miterlimit="10" x1="156.904" y1="170.996" x2="156.629" y2="170.996"/>
<g>
	<defs>
		<rect id="SVGID_1_" x="0.25" y="0.25" width="157.545" height="181.301"/>
	</defs>
	<clipPath id="SVGID_12_">
		<use xlink:href="#SVGID_1_"  overflow="visible"/>
	</clipPath>
	
		<path clip-path="url(#SVGID_12_)" fill="none" stroke="#B2B2B2" stroke-width="0.5" stroke-linecap="round" stroke-linejoin="round" stroke-miterlimit="10" d="
		M0.25,35.492h18.604 M3.02,35.492v-2.375 M3.02,33.117v-2.903 M0.25,30.214v5.278"/>
	
		<line clip-path="url(#SVGID_12_)" fill="none" stroke="#B2B2B2" stroke-width="0.5" stroke-linecap="round" stroke-linejoin="round" stroke-miterlimit="10" x1="0.573" y1="35.492" x2="0.573" y2="170.997"/>
</g>
</svg>
