<?xml version="1.0" encoding="utf-8"?>
<!-- Generator: Adobe Illustrator 15.0.2, SVG Export Plug-In  -->
<!DOCTYPE svg PUBLIC "-//W3C//DTD SVG 1.1//EN" "http://www.w3.org/Graphics/SVG/1.1/DTD/svg11.dtd" [
	<!ENTITY ns_flows "http://ns.adobe.com/Flows/1.0/">
]>
<svg version="1.1"
	 xmlns="http://www.w3.org/2000/svg" xmlns:xlink="http://www.w3.org/1999/xlink" xmlns:a="http://ns.adobe.com/AdobeSVGViewerExtensions/3.0/"
	 x="0px" y="0px" width="158px" height="182px" viewBox="0 0.11 158 182" enable-background="new 0 0.11 158 182"
	 xml:space="preserve">
<defs>
</defs>
<polygon fill="#EDEDED" points="4.77,44.592 4.77,166.638 148.323,166.638 148.323,44.592 138.823,44.592 138.823,35.62 
	154.656,35.62 154.656,3.294 95.678,3.294 95.678,35.62 101.747,35.62 101.747,44.592 "/>
<g>
	<defs>
		<rect id="SVGID_4_" y="0.11" width="157.844" height="181.859"/>
	</defs>
	<clipPath id="SVGID_5_">
		<use xlink:href="#SVGID_4_"  overflow="visible"/>
	</clipPath>
	
		<line clip-path="url(#SVGID_5_)" fill="none" stroke="#B2B2B2" stroke-width="0.5" stroke-linecap="round" stroke-linejoin="round" stroke-miterlimit="10" x1="156.899" y1="171.124" x2="157.295" y2="170.86"/>
	
		<path clip-path="url(#SVGID_5_)" fill="none" stroke="#B2B2B2" stroke-width="0.5" stroke-linecap="round" stroke-linejoin="round" stroke-miterlimit="10" d="
		M23.374,35.62v-5.278 M23.374,30.341H0.284 M92.775,30.341H54.38 M54.38,30.341v5.278 M157.56,35.62v-2.375 M157.56,33.245v-2.902
		 M157.56,30.341h-2.903 M154.656,30.341v2.903 M154.656,33.245v2.376 M154.656,35.62h2.903 M157.295,169.277v1.847"/>
	
		<path clip-path="url(#SVGID_5_)" fill="none" stroke="#B2B2B2" stroke-width="0.5" stroke-linecap="round" stroke-linejoin="round" stroke-miterlimit="10" d="
		M0.284,171.124h65.839 M66.123,171.124v-4.485 M66.123,166.638h-4.75 M59.526,166.638H4.77 M90.928,171.124h23.618
		 M114.546,171.124h33.776 M148.323,166.638h-41.563 M104.782,166.638H90.928 M90.928,166.638v4.485 M148.323,171.124v-4.485
		 M0.284,30.342v140.782 M4.77,166.638V44.592 M4.77,44.592H0.284"/>
	
		<path clip-path="url(#SVGID_5_)" fill="none" stroke="#B2B2B2" stroke-width="0.5" stroke-linecap="round" stroke-linejoin="round" stroke-miterlimit="10" d="
		M1.02,44.592h10.014 M4.77,44.592h18.604 M23.374,44.592V35.62 M54.38,44.592h28.236 M84.595,44.592h17.021 M101.615,44.592V35.62
		 M101.615,35.62h-7.124 M54.38,35.62v8.972 M138.823,44.592h9.5 M154.656,35.62h-15.833 M138.823,35.62v8.972 M157.56,35.62h-2.903
		"/>
</g>
<path fill="none" stroke="#B2B2B2" stroke-width="0.5" stroke-linecap="round" stroke-linejoin="round" stroke-miterlimit="10" d="
	M101.747,44.592h-0.132 M101.615,35.62v8.972 M101.747,44.592V35.62 M101.615,35.62h0.132"/>
<g>
	<defs>
		<rect id="SVGID_3_" y="0.11" width="157.844" height="181.859"/>
	</defs>
	<clipPath id="SVGID_6_">
		<use xlink:href="#SVGID_3_"  overflow="visible"/>
	</clipPath>
	
		<path clip-path="url(#SVGID_6_)" fill="none" stroke="#B2B2B2" stroke-width="0.5" stroke-linecap="round" stroke-linejoin="round" stroke-miterlimit="10" d="
		M148.323,44.592v68.083 M148.323,114.521v52.117 M148.323,171.124h8.972 M157.295,169.277V35.62 M104.783,152.256v14.382
		 M104.783,114.521v19 M104.783,166.638h1.978 M85.386,112.673h-0.791 M103.99,114.521h0.793 M148.058,114.521h0.266
		 M148.323,112.673H103.99 M103.99,112.673v1.848 M148.323,114.521v-1.848 M59.527,137.743v28.896 M61.373,166.638v-28.104
		 M61.373,135.763l-1.846,1.979 M59.527,166.638h1.846 M82.616,44.592v69.929 M82.616,117.291l1.979-1.979 M84.595,115.312v-2.983
		 M84.595,112.674V44.592 M84.595,44.592h-1.979"/>
</g>
<path fill="none" stroke="#B2B2B2" stroke-width="0.5" stroke-linecap="round" stroke-linejoin="round" stroke-miterlimit="10" d="
	M148.323,114.521h-0.265 M122.857,166.638h25.466 M148.323,166.638v-52.117 M144.101,123.361l-0.132,0.132 M143.969,123.493h-0.133
	 M143.836,123.493l-0.132,0.133 M143.704,123.625h-0.132 M143.572,123.625v0.131 M143.572,123.756v0.133 M143.572,123.889v0.132
	 M143.572,124.021v0.132 M143.572,124.152l0.132,0.133 M143.704,124.285h0.132 M143.836,124.285l0.133,0.131 M143.969,124.416h0.132
	 M144.101,124.416l0.133-0.131 M144.233,124.285h0.131 M144.364,124.285l0.133-0.133 M144.497,124.152v-0.131 M144.497,124.021
	v-0.132 M144.497,123.889v-0.133 M144.497,123.756v-0.131 M144.497,123.625h-0.133 M144.364,123.625l-0.131-0.133 M144.233,123.493
	h-0.133 M144.101,123.493v-0.132 M146.87,117.028v-0.396 M146.87,116.631l-0.131-0.264 M146.739,116.368l-0.263-0.264
	 M146.477,116.104l-0.266-0.264 M146.211,115.84l-0.396-0.132 M145.815,115.708l-0.396-0.132 M145.42,115.577h-29.095
	 M116.325,115.577l-1.451,0.132 M114.874,115.708l-1.45,0.528 M113.424,116.237l-1.452,0.659 M111.972,116.896l-1.188,0.924
	 M110.784,117.82l-1.056,1.055 M109.729,118.875l-0.791,1.32 M108.938,120.195l-0.528,1.451 M108.409,121.646l-0.264,1.451
	 M108.146,123.097v1.584 M108.146,124.681l0.265,1.45 M108.409,126.131l0.528,1.451 M108.938,127.583l0.791,1.32 M109.729,128.903
	l1.056,1.055 M110.784,129.958l1.188,0.924 M111.972,130.881l1.452,0.66 M113.424,131.542l1.45,0.528 M114.874,132.069l1.451,0.132
	 M116.325,132.201h29.095 M145.42,132.201l0.396-0.132 M145.815,132.069l0.396-0.132 M146.211,131.937l0.266-0.132 M146.477,131.805
	l0.262-0.396 M146.739,131.409l0.131-0.263 M146.87,131.146v-0.396 M146.87,130.75v-13.722 M148.059,133.389v-19 M148.059,114.389
	h-41.63 M106.429,114.521v18.868 M104.804,133.389h43.116 M114.019,159.513v-0.133 M114.019,159.38h-0.133 M113.886,159.38
	l-0.133-0.132 M113.753,159.249v0.132 M113.753,159.38h-0.131 M113.622,159.38v0.133 M113.622,159.513v0.132 M113.622,159.645v0.132
	 M113.622,159.777h0.131 M113.753,159.777h0.133 M113.886,159.777h0.133 M114.019,159.777v-0.132 M114.019,159.645v-0.132
	 M117.315,159.513l-0.131-0.924 M117.185,158.589l-0.265-0.792 M116.92,157.797l-0.658-0.792 M116.262,157.005l-0.66-0.526
	 M115.602,156.479l-0.924-0.396 M114.678,156.083l-0.925-0.133 M113.753,155.95l-0.79,0.133 M112.963,156.083l-0.925,0.396
	 M112.039,156.479l-0.659,0.527 M111.38,157.005l-0.661,0.792 M110.719,157.797l-0.265,0.792 M110.455,158.589l-0.131,0.924
	 M110.324,159.513l0.131,0.924 M110.455,160.437l0.265,0.923 M110.719,161.36l0.661,0.66 M111.38,162.02l0.659,0.66
	 M112.039,162.679l0.924,0.265 M112.963,162.944l0.79,0.132 M113.753,163.076l0.925-0.132 M114.678,162.944l0.924-0.265
	 M115.602,162.679l0.66-0.659 M116.262,162.02l0.66-0.66 M116.92,161.36l0.265-0.923 M117.185,160.437l0.131-0.924 M106.762,166.638
	h14.118 M120.878,166.638V152.52 M120.878,152.521h-15.959 M106.762,152.521v14.117 M143.311,154.763l0.13-0.132 M143.44,154.631
	h0.132 M143.572,154.631h0.132 M143.704,154.631v-0.133 M143.704,154.499l0.132-0.131 M143.836,154.368v-0.132 M143.836,154.236
	v-0.132 M143.836,154.104l-0.132-0.133 M143.704,153.971v-0.132 M143.704,153.839h-0.132 M143.572,153.839h-0.133 M143.44,153.839
	l-0.13-0.132 M143.311,153.708l-0.133,0.132 M143.178,153.839h-0.133 M143.045,153.839l-0.132,0.132 M142.913,153.971v0.133
	 M142.913,154.104v0.132 M142.913,154.236v0.132 M142.913,154.368v0.131 M142.913,154.499l0.132,0.133 M143.045,154.631h0.133
	 M143.178,154.631l0.133,0.132 M139.746,151.463l-1.055-0.395 M138.691,151.069l-1.32-0.264 M137.371,150.805l-1.187-0.133
	 M136.185,150.672l-1.32,0.133 M134.864,150.805l-1.32,0.264 M133.544,151.069l-1.055,0.395 M132.489,151.463l-0.924,0.529
	 M131.565,151.993l-0.659,0.659 M130.906,152.652l-0.396,0.792 M130.511,153.444l-0.133,0.792 M130.378,154.236l0.133,0.791
	 M130.511,155.027l0.396,0.792 M130.906,155.819l0.659,0.66 M131.565,156.479l0.924,0.527 M132.489,157.005l1.055,0.396
	 M133.544,157.402l1.32,0.265 M134.864,157.667l1.32,0.131 M136.185,157.797l1.187-0.131 M137.371,157.667l1.32-0.265
	 M138.691,157.402l1.055-0.396 M139.746,157.005v-5.542 M140.935,157.797v-7.125 M140.935,150.672l0.132-0.263 M141.066,150.41
	v-0.265 M141.066,150.145l0.263-0.264 M141.329,149.881h-2.374 M138.954,149.881l-1.451-0.265 M137.503,149.617l-1.45-0.132
	 M136.052,149.485l-1.45,0.132 M134.602,149.617l-1.32,0.397 M133.281,150.014l-1.318,0.396 M131.961,150.41l-1.055,0.659
	 M130.906,151.069l-0.791,0.791 M130.115,151.86l-0.661,0.924 M129.454,152.784l-0.264,0.924 M129.19,153.708v1.056 M129.19,154.763
	l0.264,0.924 M129.454,155.687l0.661,0.924 M130.115,156.611l0.791,0.792 M130.906,157.402l1.055,0.66 M131.961,158.062l1.32,0.396
	 M133.281,158.458l1.32,0.396 M134.602,158.853l1.45,0.132 M136.052,158.985l1.451-0.132 M137.503,158.853l1.451-0.264
	 M138.955,158.589h2.374 M141.329,158.589l-0.263-0.264 M141.066,158.326v-0.264 M141.066,158.062l-0.132-0.265 M145.684,150.672
	v-0.263 M145.685,150.41l-0.132-0.265 M145.553,150.145l-0.265-0.264 M145.288,149.881l-0.132-0.265 M145.156,149.617h-0.396
	 M144.761,149.617l-0.264-0.132 M144.497,149.485h-2.376 M142.121,149.485l-0.264,0.132 M141.857,149.617h-0.264 M141.594,149.617
	l-0.265,0.265 M141.329,149.881l-0.263,0.264 M141.066,150.145v0.265 M141.066,150.41l-0.132,0.263 M140.935,150.672v7.125
	 M140.935,157.797l0.132,0.265 M141.066,158.062v0.264 M141.066,158.326l0.263,0.264 M141.329,158.589l0.265,0.264 M141.594,158.853
	h0.264 M141.857,158.853l0.264,0.132 M142.121,158.985h2.376 M144.497,158.985l0.264-0.132 M144.761,158.853h0.396 M145.156,158.853
	l0.132-0.264 M145.288,158.589l0.266-0.264"/>
<path fill="none" stroke="#B2B2B2" stroke-width="0.5" stroke-linecap="round" stroke-linejoin="round" stroke-miterlimit="10" d="
	M145.552,158.326l0.133-0.264 M145.683,158.062v-0.264 M145.683,157.798v-7.125 M145.685,139.985h-0.133 M145.552,139.985h-0.132
	 M145.42,139.985v0.134 M145.42,140.119l-0.132,0.131 M145.288,140.25l-0.132,0.132 M145.156,140.381l0.132,0.132 M145.288,140.513
	v0.132 M145.288,140.645l0.132,0.132 M145.42,140.777l0.132,0.133 M145.552,140.91h0.133 M145.683,140.91h0.133 M145.815,140.91
	l0.132-0.133 M145.947,140.777h0.132 M146.079,140.777v-0.132 M146.079,140.645l0.132-0.132 M146.211,140.513v-0.132
	 M146.211,140.381v-0.132 M146.211,140.25h-0.131 M146.079,140.25v-0.131 M146.079,140.119l-0.132-0.134 M145.947,139.985h-0.132
	 M145.815,139.985h-0.133 M146.871,136.16v-0.133 M146.871,136.027v-0.132 M146.871,135.895h-0.132 M146.739,135.895l-0.131-0.132
	 M146.608,135.763h-0.132 M146.477,135.763h-0.133 M146.344,135.763h-3.694 M142.649,135.763h-0.132 M142.518,135.763h-0.133
	 M142.386,135.763l-0.132,0.132 M142.254,135.895l-0.132,0.132 M142.121,136.027v0.133 M142.121,136.16v8.575 M142.121,144.735
	l0.133,0.133 M142.254,144.868V145 M142.254,145l0.132,0.132 M142.385,145.131h0.133 M142.518,145.131h0.132 M142.649,145.131h3.694
	 M146.344,145.131h0.133 M146.477,145.131h0.132 M146.608,145.131l0.131-0.132 M146.739,145l0.132-0.132 M146.871,144.868v-0.133
	 M146.871,144.735v-8.575 M148.058,146.318v-11.741 M148.058,134.577h-7.123 M140.935,134.577v11.741 M140.935,146.318h7.123
	 M137.371,69.133l-0.528,0.131 M136.843,69.264l-0.658,0.265 M136.185,69.529l-0.397,0.395 M135.787,69.924l-0.395,0.396
	 M135.393,70.32l-0.265,0.66 M135.129,70.98v0.527 M135.129,71.507v0.66 M135.129,72.167l0.264,0.528 M135.393,72.695l0.396,0.528
	 M135.787,73.223l0.397,0.396 M136.185,73.619l0.658,0.264 M136.843,73.883h0.528 M137.371,73.883h0.66 M138.03,73.883l0.529-0.264
	 M138.56,73.619l0.526-0.396 M139.086,73.223l0.396-0.528 M139.482,72.695l0.265-0.528 M139.747,72.167v-0.66 M139.747,71.507V70.98
	 M139.747,70.98l-0.265-0.66 M139.482,70.32l-0.396-0.396 M139.086,69.924l-0.526-0.395 M138.56,69.529l-0.529-0.265 M138.03,69.264
	l-0.659-0.131 M144.497,76.258l-0.661,0.131 M143.836,76.389l-0.526,0.132 M143.311,76.521l-0.529,0.396 M142.781,76.917
	l-0.264,0.529 M142.518,77.446l-0.264,0.527 M142.254,77.972l-0.132,0.66 M142.121,78.632l0.133,0.66 M142.254,79.292l0.264,0.528
	 M142.518,79.819l0.264,0.529 M142.781,80.348l0.529,0.264 M143.311,80.612l0.526,0.263 M143.836,80.875l0.661,0.132
	 M144.497,81.007l0.659-0.132 M145.156,80.875l0.526-0.263 M145.683,80.612l0.528-0.264 M146.211,80.348l0.397-0.529
	 M146.608,79.819l0.131-0.527 M146.739,79.292l0.132-0.66 M146.871,78.632l-0.132-0.66 M146.739,77.972l-0.131-0.527
	 M146.608,77.446l-0.397-0.529 M146.211,76.917l-0.528-0.396 M145.683,76.521l-0.526-0.132 M145.156,76.389l-0.659-0.131
	 M144.497,69.924h-0.396 M144.102,69.924l-0.397,0.132 M143.704,70.056l-0.395,0.264 M143.311,70.32l-0.266,0.396 M143.045,70.716
	l-0.132,0.396 M142.913,71.112v0.395 M142.913,71.507v0.529 M142.913,72.036l0.132,0.395 M143.045,72.431l0.266,0.264
	 M143.311,72.695l0.394,0.264 M143.704,72.959l0.397,0.132 M144.102,73.091l0.396,0.132 M144.497,73.223l0.396-0.132
	 M144.893,73.091l0.396-0.132 M145.288,72.959l0.395-0.264 M145.683,72.695l0.265-0.264 M145.947,72.431l0.132-0.396
	 M146.079,72.036l0.132-0.529 M146.211,71.507l-0.131-0.395 M146.079,71.112l-0.132-0.396 M145.947,70.716l-0.265-0.396
	 M145.683,70.32l-0.395-0.264 M145.288,70.056l-0.396-0.132 M144.893,69.924h-0.396 M137.371,76.917l-0.396,0.132 M136.975,77.049
	l-0.395,0.132 M136.58,77.181l-0.264,0.265 M136.316,77.446l-0.265,0.395 M136.052,77.841l-0.265,0.396 M135.787,78.237v0.395
	 M135.787,78.632v0.396 M135.787,79.028l0.265,0.396 M136.052,79.424l0.265,0.396 M136.316,79.819l0.264,0.264 M136.58,80.084
	l0.395,0.131 M136.975,80.215l0.396,0.133 M137.371,80.348l0.529-0.133 M137.9,80.215l0.395-0.131 M138.295,80.083l0.265-0.264
	 M138.56,79.819l0.264-0.395 M138.823,79.424l0.263-0.396 M139.086,79.028v-0.396 M139.086,78.632v-0.395 M139.086,78.237
	l-0.263-0.396 M138.823,77.841l-0.264-0.396 M138.56,77.446l-0.265-0.265 M138.295,77.181l-0.395-0.132 M137.9,77.049l-0.529-0.132
	 M148.058,67.945H133.94 M148.058,57.375h-15.68 M133.94,67.945v14.25 M104.796,104.563l0.017,8.11 M132.378,57.375v46.688
	 M133.94,82.195h14.117 M104.803,104.361h27.575 M143.311,96.049h-0.134 M143.177,96.049h-0.132 M143.045,96.049v0.131
	 M143.045,96.18l-0.132,0.133 M142.913,96.313v0.132 M142.913,96.445v0.133 M142.913,96.578v0.131 M142.913,96.708l0.132,0.133
	 M143.045,96.841v0.131 M143.045,96.972h0.132 M143.177,96.972h0.134 M143.311,96.972h0.13 M143.44,96.972h0.133 M143.572,96.972
	l0.132-0.131 M143.704,96.841v-0.133 M143.704,96.708l0.132-0.131 M143.836,96.578v-0.133 M143.836,96.445l-0.132-0.132
	 M143.704,96.313V96.18 M143.704,96.18l-0.132-0.131 M143.572,96.049h-0.132 M143.44,96.049h-0.13 M144.497,92.882v-0.131
	 M144.497,92.751v-0.133 M144.497,92.619l-0.133-0.133 M144.364,92.486h-0.131 M144.233,92.486l-0.132-0.132 M144.102,92.354H137.9
	 M137.9,92.354h-0.132 M137.768,92.354l-0.133,0.132 M137.636,92.486h-0.132 M137.504,92.486v0.133 M137.504,92.619v0.133
	 M137.504,92.751l-0.133,0.131 M137.371,92.882v7.257 M137.371,100.139l0.133,0.132 M137.504,100.271v0.132 M137.504,100.403v0.133
	 M137.504,100.536h0.132 M137.636,100.536l0.133,0.132 M137.768,100.667h0.133 M137.9,100.667h6.201 M144.102,100.667l0.132-0.132
	 M144.233,100.536h0.131 M144.364,100.536l0.133-0.133 M144.497,100.403v-0.132"/>
<path fill="none" stroke="#B2B2B2" stroke-width="0.5" stroke-linecap="round" stroke-linejoin="round" stroke-miterlimit="10" d="
	M144.497,100.271v-0.132 M144.497,100.139v-7.257 M145.683,110.035V91.167 M145.683,91.167h-9.498 M136.185,91.167v18.868
	 M136.185,110.035h9.498 M138.56,108.847v-6.993 M139.747,108.847v-6.993 M140.935,108.847v-6.993 M142.121,108.847v-6.993
	 M143.311,108.847v-6.993 M137.371,101.854v6.993 M144.497,108.847v-6.993"/>
<path fill="none" stroke="#B2B2B2" stroke-width="0.5" stroke-linecap="round" stroke-linejoin="round" stroke-miterlimit="10" d="
	M104.783,151.2l-2.772-0.263 M102.011,150.937l-2.77-0.792 M99.241,150.145l-2.641-1.188"/>
<line fill="none" stroke="#B2B2B2" stroke-width="0.5" stroke-linecap="round" stroke-linejoin="round" stroke-miterlimit="10" x1="96.602" y1="148.958" x2="104.782" y2="134.576"/>
<path fill="none" stroke="#B2B2B2" stroke-width="0.5" stroke-linecap="round" stroke-linejoin="round" stroke-miterlimit="10" d="
	M104.782,152.173v-0.891 M104.782,134.438v-0.917"/>
<path fill="none" stroke="#B2B2B2" stroke-width="0.5" stroke-linecap="round" stroke-linejoin="round" stroke-miterlimit="10" d="
	M45.276,35.62h-2.243 M41.846,35.62h-2.243 M52.401,35.62h-2.243 M48.971,35.62h-2.243 M49.631,35.62H39.603 M45.276,37.071h-5.673
	 M52.401,37.071h-5.673 M49.631,37.071H39.603"/>
<path fill="none" stroke="#B2B2B2" stroke-width="0.5" stroke-linecap="round" stroke-linejoin="round" stroke-miterlimit="10" d="
	M50.95,37.071H40.922 M40.922,35.62H50.95"/>
<path fill="none" stroke="#B2B2B2" stroke-width="0.5" stroke-linecap="round" stroke-linejoin="round" stroke-miterlimit="10" d="
	M39.603,35.62h1.32 M39.603,37.071V35.62 M40.922,37.071h-1.319 M40.922,35.62v1.451 M50.95,37.071V35.62 M52.401,37.071H50.95
	 M52.401,35.62v1.451 M50.95,35.62h1.45"/>
<path fill="none" stroke="#B2B2B2" stroke-width="0.5" stroke-linecap="round" stroke-linejoin="round" stroke-miterlimit="10" d="
	M39.603,35.62h4.619 M47.783,35.62H52.4 M39.603,37.071H52.4"/>
<path fill="none" stroke="#B2B2B2" stroke-width="0.5" stroke-linecap="round" stroke-linejoin="round" stroke-miterlimit="10" d="
	M38.15,37.071h-12.93 M52.4,37.071H39.603 M25.222,35.62H38.15 M39.603,35.62H52.4"/>
<path fill="none" stroke="#B2B2B2" stroke-width="0.5" stroke-linecap="round" stroke-linejoin="round" stroke-miterlimit="10" d="
	M23.902,35.62h1.319 M23.902,37.071V35.62 M25.221,37.071h-1.319 M25.221,35.62v1.451 M38.151,37.071V35.62 M39.603,37.071h-1.452
	 M39.603,35.62v1.451 M38.151,35.62h1.452 M52.401,37.071V35.62 M53.852,37.071h-1.451 M53.852,35.62v1.451 M52.401,35.62h1.451"/>
<path fill="none" stroke="#B2B2B2" stroke-width="0.5" stroke-linecap="round" stroke-linejoin="round" stroke-miterlimit="10" d="
	M23.902,35.62v1.45 M23.374,35.62h0.528 M23.374,37.071V35.62 M23.902,37.071h-0.528 M54.38,35.62v1.45 M53.852,35.62h0.528
	 M53.852,37.071V35.62 M54.38,37.071h-0.528 M23.374,35.488v-5.279 M54.38,30.209v5.279 M23.374,30.209H54.38 M54.38,37.071v8.18
	 M23.374,45.251V37.07 M23.374,37.071H54.38 M54.38,45.251H23.374"/>
<path fill="none" stroke="#B2B2B2" stroke-width="0.5" stroke-linecap="round" stroke-linejoin="round" stroke-miterlimit="10" d="
	M82.616,114.521l-5.199,5.198 M78.394,118.743l1.318,1.452 M79.713,120.195l2.903-2.903 M63.352,133.785l-1.979,1.979
	 M61.373,138.534l3.298-3.43 M64.671,135.104l-1.32-1.319"/>
<path fill="none" stroke="#B2B2B2" stroke-width="0.5" stroke-linecap="round" stroke-linejoin="round" stroke-miterlimit="10" d="
	M64.09,132.773l-1.926-2.287 M62.164,130.486l-1.714-2.902 M60.45,127.583l-1.055-3.034"/>
<line fill="none" stroke="#B2B2B2" stroke-width="0.5" stroke-linecap="round" stroke-linejoin="round" stroke-miterlimit="10" x1="59.394" y1="124.548" x2="77.404" y2="119.719"/>
<path fill="none" stroke="#B2B2B2" stroke-width="0.5" stroke-linecap="round" stroke-linejoin="round" stroke-miterlimit="10" d="
	M63.406,133.729l0.81-0.807 M64.671,135.104l-1.32-1.319"/>
<g>
	<defs>
		<rect id="SVGID_2_" y="0.11" width="157.844" height="181.859"/>
	</defs>
	<clipPath id="SVGID_7_">
		<use xlink:href="#SVGID_2_"  overflow="visible"/>
	</clipPath>
	
		<path clip-path="url(#SVGID_7_)" fill="none" stroke="#B2B2B2" stroke-width="0.5" stroke-linecap="round" stroke-linejoin="round" stroke-miterlimit="10" d="
		M124.441,1.051V0.787 M156.899,17.148h0.264"/>
	
		<path clip-path="url(#SVGID_7_)" fill="none" stroke="#B2B2B2" stroke-width="0.5" stroke-linecap="round" stroke-linejoin="round" stroke-miterlimit="10" d="
		M95.678,3.294v30.874 M92.776,3.294v30.874 M124.441,3.294H95.678 M124.441,0.392H95.678 M157.56,17.148h-0.397 M156.899,17.148
		h-1.583 M155.052,17.148h-0.396 M154.656,17.148V3.294 M157.56,17.148V3.294"/>
	
		<path clip-path="url(#SVGID_7_)" fill="none" stroke="#B2B2B2" stroke-width="0.5" stroke-linecap="round" stroke-linejoin="round" stroke-miterlimit="10" d="
		M95.678,0.392L62.164,0.25 M157.56,3.294V0.391 M157.56,0.392h-2.903 M95.678,35.62v-1.452 M92.776,34.168v1.452 M92.776,35.62
		h2.901 M154.656,17.148v1.451 M154.656,18.599h2.903 M157.56,18.599v-1.451 M157.56,17.148h-2.903"/>
	
		<path clip-path="url(#SVGID_7_)" fill="none" stroke="#B2B2B2" stroke-width="0.5" stroke-linecap="round" stroke-linejoin="round" stroke-miterlimit="10" d="
		M125.892,3.293V2.239 M125.892,0.918V0.392 M129.587,0.392v0.528 M129.587,2.239v1.055 M129.587,3.293h-3.695 M129.587,0.392
		h-3.695"/>
	
		<path clip-path="url(#SVGID_7_)" fill="none" stroke="#B2B2B2" stroke-width="0.5" stroke-linecap="round" stroke-linejoin="round" stroke-miterlimit="10" d="
		M124.441,3.294h1.45 M125.893,3.294V0.391 M125.893,0.392h-1.451 M124.441,0.392v2.902 M131.038,0.787v0.264"/>
	
		<path clip-path="url(#SVGID_7_)" fill="none" stroke="#B2B2B2" stroke-width="0.5" stroke-linecap="round" stroke-linejoin="round" stroke-miterlimit="10" d="
		M154.655,3.293h-23.616 M154.655,0.392h-23.616"/>
	
		<path clip-path="url(#SVGID_7_)" fill="none" stroke="#B2B2B2" stroke-width="0.5" stroke-linecap="round" stroke-linejoin="round" stroke-miterlimit="10" d="
		M129.587,3.293h1.452 M131.039,3.293V0.392 M131.039,0.392h-1.452 M129.587,0.392v2.902"/>
	
		<path clip-path="url(#SVGID_7_)" fill="none" stroke="#B2B2B2" stroke-width="0.5" stroke-linecap="round" stroke-linejoin="round" stroke-miterlimit="10" d="
		M64.936,3.293v27.048 M62.164,30.342V3.293 M62.164,30.342h2.772 M154.656,3.293h-23.618 M124.441,3.293h-1.583 M92.774,3.293
		H64.936 M62.164,0.392v2.902"/>
	
		<path clip-path="url(#SVGID_7_)" fill="none" stroke="#B2B2B2" stroke-width="0.5" stroke-linecap="round" stroke-linejoin="round" stroke-miterlimit="10" d="
		M154.656,18.599v11.743 M154.656,30.342h2.903 M95.679,28.438h-2.903 M92.775,28.438h2.903 M95.679,5.501h-2.903 M92.775,5.501
		h2.903 M157.56,30.342V18.599 M157.56,18.599h-2.903"/>
</g>
<path fill="none" stroke="#B2B2B2" stroke-width="0.5" stroke-linecap="round" stroke-linejoin="round" stroke-miterlimit="10" d="
	M102.934,112.673l-0.262-2.902 M102.67,109.77l-0.659-2.77 M102.011,107l-1.319-2.641"/>
<line fill="none" stroke="#B2B2B2" stroke-width="0.5" stroke-linecap="round" stroke-linejoin="round" stroke-miterlimit="10" x1="100.691" y1="104.361" x2="86.441" y2="112.672"/>
<path fill="none" stroke="#B2B2B2" stroke-width="0.5" stroke-linecap="round" stroke-linejoin="round" stroke-miterlimit="10" d="
	M86.441,112.673h-1.056 M103.989,114.257v-1.584 M103.989,112.673h-1.055"/>
<g>
	<defs>
		<rect id="SVGID_1_" y="0.11" width="157.844" height="181.859"/>
	</defs>
	<clipPath id="SVGID_8_">
		<use xlink:href="#SVGID_1_"  overflow="visible"/>
	</clipPath>
	
		<line clip-path="url(#SVGID_8_)" fill="none" stroke="#B2B2B2" stroke-width="0.5" stroke-linecap="round" stroke-linejoin="round" stroke-miterlimit="10" x1="157.56" y1="3.293" x2="157.56" y2="0.604"/>
	
		<path clip-path="url(#SVGID_8_)" fill="none" stroke="#B2B2B2" stroke-width="0.5" stroke-linecap="round" stroke-linejoin="round" stroke-miterlimit="10" d="
		M157.56,0.392"/>
	
		<path clip-path="url(#SVGID_8_)" fill="none" stroke="#B2B2B2" stroke-width="0.5" stroke-linecap="round" stroke-linejoin="round" stroke-miterlimit="10" d="
		M67.837,171.124l0.397,3.694 M68.234,174.818l0.923,3.563 M69.158,178.38l1.584,3.298"/>
	
		<line clip-path="url(#SVGID_8_)" fill="none" stroke="#B2B2B2" stroke-width="0.5" stroke-linecap="round" stroke-linejoin="round" stroke-miterlimit="10" x1="70.741" y1="181.679" x2="89.081" y2="171.125"/>
</g>
<path fill="none" stroke="#B2B2B2" stroke-width="0.5" stroke-linecap="round" stroke-linejoin="round" stroke-miterlimit="10" d="
	M67.838,171.124H66.65 M90.4,171.124h-1.319"/>
<path fill="none" stroke="#B2B2B2" stroke-width="0.5" stroke-linecap="round" stroke-linejoin="round" stroke-miterlimit="10" d="
	M90.928,171.124H90.4 M90.928,168.748v2.376 M66.123,171.124v-2.376 M66.65,171.124h-0.527"/>
</svg>
