<?xml version="1.0" encoding="utf-8"?>
<!-- Generator: Adobe Illustrator 15.0.2, SVG Export Plug-In  -->
<!DOCTYPE svg PUBLIC "-//W3C//DTD SVG 1.1//EN" "http://www.w3.org/Graphics/SVG/1.1/DTD/svg11.dtd" [
	<!ENTITY ns_flows "http://ns.adobe.com/Flows/1.0/">
]>
<svg version="1.1"
	 xmlns="http://www.w3.org/2000/svg" xmlns:xlink="http://www.w3.org/1999/xlink" xmlns:a="http://ns.adobe.com/AdobeSVGViewerExtensions/3.0/"
	 x="0px" y="0px" width="215px" height="349px" viewBox="-1.029 -0.766 215 349" enable-background="new -1.029 -0.766 215 349"
	 xml:space="preserve">
<defs>
</defs>
<polygon fill="#EDEDED" points="127.838,332.48 198.69,332.48 198.69,217.691 149.983,217.691 149.983,208.718 198.69,208.718 
	198.69,44.451 111.213,44.451 111.213,35.478 120.185,35.478 120.185,30.2 148.157,30.2 148.157,3.152 58.437,3.152 58.437,35.478 
	74.137,35.478 74.137,44.451 58.437,44.451 58.437,170.982 15.423,170.982 15.423,208.718 131.4,208.718 131.4,217.691 
	127.838,217.691 "/>
<line fill="none" stroke="#B2B2B2" stroke-width="0.5" stroke-linecap="round" stroke-linejoin="round" stroke-miterlimit="10" x1="198.69" y1="44.45" x2="198.69" y2="128.496"/>
<line fill="none" stroke="#B2B2B2" stroke-width="0.5" stroke-linecap="round" stroke-linejoin="round" stroke-miterlimit="10" x1="198.69" y1="130.344" x2="198.69" y2="182.065"/>
<line fill="none" stroke="#B2B2B2" stroke-width="0.5" stroke-linecap="round" stroke-linejoin="round" stroke-miterlimit="10" x1="198.69" y1="183.913" x2="198.69" y2="208.717"/>
<line fill="none" stroke="#B2B2B2" stroke-width="0.5" stroke-linecap="round" stroke-linejoin="round" stroke-miterlimit="10" x1="198.69" y1="217.69" x2="198.69" y2="332.479"/>
<line fill="none" stroke="#B2B2B2" stroke-width="0.5" stroke-linecap="round" stroke-linejoin="round" stroke-miterlimit="10" x1="10.937" y1="217.69" x2="43.526" y2="217.69"/>
<line fill="none" stroke="#B2B2B2" stroke-width="0.5" stroke-linecap="round" stroke-linejoin="round" stroke-miterlimit="10" x1="45.375" y1="217.69" x2="123.352" y2="217.69"/>
<line fill="none" stroke="#B2B2B2" stroke-width="0.5" stroke-linecap="round" stroke-linejoin="round" stroke-miterlimit="10" x1="127.838" y1="217.69" x2="131.4" y2="217.69"/>
<line fill="none" stroke="#B2B2B2" stroke-width="0.5" stroke-linecap="round" stroke-linejoin="round" stroke-miterlimit="10" x1="131.4" y1="217.69" x2="131.4" y2="208.717"/>
<line fill="none" stroke="#B2B2B2" stroke-width="0.5" stroke-linecap="round" stroke-linejoin="round" stroke-miterlimit="10" x1="131.4" y1="208.717" x2="15.423" y2="208.717"/>
<line fill="none" stroke="#B2B2B2" stroke-width="0.5" stroke-linecap="round" stroke-linejoin="round" stroke-miterlimit="10" x1="150.135" y1="217.69" x2="198.69" y2="217.69"/>
<line fill="none" stroke="#B2B2B2" stroke-width="0.5" stroke-linecap="round" stroke-linejoin="round" stroke-miterlimit="10" x1="198.69" y1="208.717" x2="155.676" y2="208.717"/>
<line fill="none" stroke="#B2B2B2" stroke-width="0.5" stroke-linecap="round" stroke-linejoin="round" stroke-miterlimit="10" x1="153.698" y1="208.717" x2="150.135" y2="208.717"/>
<line fill="none" stroke="#B2B2B2" stroke-width="0.5" stroke-linecap="round" stroke-linejoin="round" stroke-miterlimit="10" x1="150.135" y1="208.717" x2="150.135" y2="217.691"/>
<path fill="none" stroke="#B2B2B2" stroke-width="0.5" stroke-linecap="round" stroke-linejoin="round" stroke-miterlimit="10" d="
	M58.437,35.478v-2.375 M58.437,33.103v-2.902 M58.437,30.2h-2.903 M55.534,30.2v2.903 M55.534,33.103v2.376 M159.24,35.478V30.2
	 M159.24,30.2h-38.924 M212.807,35.478v-2.375 M212.807,33.103v-2.902 M212.807,30.2h-22.692 M190.115,30.2v5.278 M55.534,35.478
	h2.903 M207.663,346.597h2.243 M209.906,346.597h2.901 M212.807,346.597V35.478 M155.676,208.717v-3.033 M155.676,205.684h-1.978
	 M153.699,204.627v4.09 M155.676,187.08v-3.166 M155.676,182.066v-13.987 M155.676,168.08h-1.978 M153.699,168.08v20.056
	 M155.676,149.088v-18.744 M155.676,128.497h-1.978 M153.699,130.344v20.055 M153.699,208.717h1.978 M198.69,128.497h-43.014
	 M198.69,130.344v-1.847 M153.699,128.497h-0.66 M153.039,128.497v1.847 M153.039,130.344h0.66 M131.795,128.497h-0.924
	 M130.873,130.344h0.923 M131.795,130.344v-1.847 M129.025,44.45v124.685 M130.873,169.135v-38.791 M130.873,128.497V44.45
	 M130.873,44.45h-1.848 M155.676,183.912h43.015 M184.441,182.066h-28.765 M198.69,183.912v-1.846 M58.172,170.982h12.139
	 M70.312,170.982v-1.847 M70.312,169.135H58.172 M91.554,170.982h39.319 M130.873,170.982v-1.847 M129.025,169.135H91.554
	 M91.554,169.135v1.847 M58.172,169.135v1.847"/>
<path fill="none" stroke="#B2B2B2" stroke-width="0.5" stroke-linecap="round" stroke-linejoin="round" stroke-miterlimit="10" d="
	M151.851,130.344l-0.265,3.299 M151.586,133.643l-0.791,3.166 M150.795,136.809l-1.452,3.035"/>
<line fill="none" stroke="#B2B2B2" stroke-width="0.5" stroke-linecap="round" stroke-linejoin="round" stroke-miterlimit="10" x1="149.344" y1="139.844" x2="132.983" y2="130.344"/>
<path fill="none" stroke="#B2B2B2" stroke-width="0.5" stroke-linecap="round" stroke-linejoin="round" stroke-miterlimit="10" d="
	M151.902,130.344h1.137 M153.039,130.344v-1.847 M131.795,128.497v1.847 M131.956,130.344h0.867"/>
<path fill="none" stroke="#B2B2B2" stroke-width="0.5" stroke-linecap="round" stroke-linejoin="round" stroke-miterlimit="10" d="
	M71.499,170.982l0.264,3.299 M71.762,174.281l0.792,3.166 M72.554,177.447l1.45,3.035"/>
<line fill="none" stroke="#B2B2B2" stroke-width="0.5" stroke-linecap="round" stroke-linejoin="round" stroke-miterlimit="10" x1="74.004" y1="180.482" x2="90.367" y2="170.982"/>
<path fill="none" stroke="#B2B2B2" stroke-width="0.5" stroke-linecap="round" stroke-linejoin="round" stroke-miterlimit="10" d="
	M70.311,169.134v1.848 M70.473,170.982h0.864 M90.366,170.982h1.075 M91.554,170.982v-1.848 M193.94,196.842h-0.131
	 M193.809,196.842l-0.132-0.132 M193.677,196.71h-0.132 M193.545,196.71v-0.132 M193.545,196.579l-0.133-0.131 M193.413,196.448
	v-0.132 M193.413,196.316v-0.134 M193.413,196.182h0.133 M193.545,196.182v-0.131 M193.545,196.051l0.132-0.132 M193.677,195.919
	h0.132 M193.809,195.919h0.131 M193.94,195.919h0.132 M194.072,195.919h0.132 M194.204,195.919v0.132 M194.204,196.051l0.133,0.131
	 M194.336,196.182v0.134 M194.336,196.316v0.132 M194.336,196.448v0.131 M194.336,196.579l-0.133,0.132 M194.204,196.71
	l-0.132,0.132 M194.072,196.842h-0.132 M190.378,193.544v5.673 M190.378,199.217l-1.188,0.396 M189.19,199.614l-1.187,0.264
	 M188.003,199.877h-1.32 M186.683,199.877l-1.319-0.132 M185.363,199.746l-1.187-0.264 M184.176,199.482l-1.056-0.396
	 M183.12,199.085l-0.923-0.528 M182.197,198.558l-0.659-0.659 M181.538,197.899l-0.528-0.792 M181.01,197.107l-0.132-0.792
	 M180.878,196.316l0.132-0.792 M181.01,195.524l0.527-0.66 M181.538,194.865l0.659-0.66 M182.197,194.205l0.924-0.528
	 M183.12,193.676l1.057-0.527 M184.176,193.149l1.187-0.265 M185.363,192.884l1.32-0.132 M186.683,192.752l1.32,0.132
	 M188.003,192.884l1.187,0.265 M189.19,193.149l1.188,0.396 M191.829,191.961l-0.133,0.263 M191.697,192.224l-0.131,0.265
	 M191.566,192.489v0.264 M189.453,191.961h2.376 M189.453,200.669l-1.317,0.396 M188.135,201.065h-1.452 M186.683,201.065
	l-1.451-0.133 M185.232,200.932l-1.451-0.263 M183.781,200.669l-1.187-0.528 M182.593,200.141l-1.056-0.659 M181.538,199.482
	l-0.924-0.792 M180.615,198.691l-0.528-0.925 M180.086,197.766l-0.265-0.924 M179.822,196.842v-0.923 M179.822,195.919l0.265-1.055
	 M180.086,194.865l0.528-0.793 M180.615,194.072l0.923-0.791 M181.538,193.281l1.056-0.66 M182.593,192.622l1.188-0.529
	 M183.781,192.092l1.451-0.396 M185.232,191.697h1.451 M186.683,191.697h1.452 M188.135,191.697l1.317,0.265 M191.829,200.669
	h-2.376 M191.566,199.877v0.264 M191.566,200.141l0.131,0.396 M191.696,200.538l0.133,0.132 M191.566,192.752v7.125
	 M196.315,192.752v7.125 M195.128,191.697h0.263 M195.391,191.697l0.264,0.132 M195.655,191.829l0.266,0.133 M195.92,191.961
	l0.131,0.263 M196.051,192.224l0.131,0.265 M196.183,192.489l0.132,0.264 M192.752,191.697h2.376 M191.566,192.752v-0.264
	 M191.566,192.489l0.131-0.265 M191.696,192.224l0.133-0.263 M191.829,191.961l0.265-0.133 M192.093,191.829l0.264-0.132
	 M192.357,191.697h0.396 M191.566,199.877v-7.125 M192.752,201.065h-0.396 M192.357,201.065l-0.264-0.133 M192.093,200.932
	l-0.265-0.263 M191.829,200.669l-0.133-0.132 M191.697,200.538l-0.131-0.396 M191.566,200.141v-0.264 M195.128,201.065h-2.376
	 M196.315,199.877l-0.132,0.264 M196.183,200.141l-0.132,0.396 M196.051,200.538l-0.131,0.132 M195.92,200.669l-0.266,0.263
	 M195.655,200.932l-0.264,0.133 M195.391,201.065h-0.263 M194.6,139.185h0.132 M194.732,139.185l0.132,0.131 M194.864,139.315h0.132
	 M194.995,139.315v0.133 M194.995,139.449l0.133,0.131 M195.128,139.58v0.133 M195.128,139.712v0.131 M195.128,139.843l-0.134,0.133
	 M194.996,139.977l-0.132,0.131 M194.864,140.107h-0.132 M194.732,140.107H194.6 M194.6,140.107h-0.132 M194.468,140.107h-0.132
	 M194.336,140.107v-0.131 M194.336,139.977h-0.133 M194.204,139.977v-0.133 M194.204,139.843v-0.131 M194.204,139.712v-0.133
	 M194.204,139.58v-0.131 M194.204,139.449l0.133-0.133 M194.336,139.315l0.132-0.131 M194.468,139.185h0.132 M197.502,132.851
	v13.723 M196.051,131.399l0.396,0.133 M196.447,131.533l0.266,0.131 M196.711,131.664l0.264,0.132 M196.975,131.795l0.263,0.396
	 M197.238,132.191l0.133,0.264 M197.371,132.456l0.132,0.395 M165.573,131.399h30.479 M165.573,147.893l-1.582-0.132 M163.99,147.76
	l-1.452-0.396 M162.538,147.365l-1.318-0.66 M161.219,146.706l-1.188-0.924 M160.031,145.782l-1.056-1.056 M158.975,144.726
	l-0.791-1.319 M158.184,143.407l-0.529-1.451 M157.656,141.956l-0.263-1.452 M157.393,140.503v-1.583 M157.393,138.92l0.263-1.451
	 M157.656,137.468l0.528-1.451 M158.184,136.018l0.791-1.319 M158.975,134.699l1.056-1.055 M160.031,133.643l1.188-0.924
	 M161.219,132.72l1.318-0.792 M162.538,131.927l1.452-0.396 M163.99,131.533l1.582-0.133 M196.051,147.893h-30.479 M197.502,146.574
	l-0.132,0.396 M197.371,146.97l-0.133,0.263 M197.238,147.232l-0.263,0.264 M196.975,147.497l-0.264,0.264 M196.711,147.76
	l-0.265,0.132 M196.447,147.893h-0.396 M155.693,130.211h42.997 M198.69,149.08h-44.992 M198.69,130.211v18.868 M196.315,155.809
	h0.132 M196.447,155.809l0.132,0.132 M196.579,155.94h0.133 M196.711,155.94v0.132 M196.711,156.072v0.132 M196.711,156.205v0.133
	 M196.711,156.337v0.131 M196.711,156.468l-0.133,0.132 M196.579,156.601h-0.132 M196.447,156.601v0.132 M196.447,156.732h-0.132
	 M196.315,156.732h-0.132 M196.183,156.732l-0.132-0.132 M196.051,156.601h-0.131 M195.92,156.601v-0.132 M195.92,156.468
	l-0.134-0.131 M195.787,156.337v-0.133 M195.787,156.205v-0.132 M195.787,156.072l0.134-0.132 M195.92,155.94l0.131-0.132
	 M196.051,155.809h0.131 M196.183,155.809h0.132 M197.502,151.982v8.444 M196.975,151.455h0.132 M197.107,151.455l0.131,0.132
	 M197.238,151.586h0.133 M197.371,151.586v0.132 M197.371,151.718v0.132 M197.371,151.851l0.132,0.132 M193.148,151.455h3.827
	 M192.752,151.982v-0.132 M192.752,151.851v-0.132 M192.752,151.718l0.132-0.132"/>
<path fill="none" stroke="#B2B2B2" stroke-width="0.5" stroke-linecap="round" stroke-linejoin="round" stroke-miterlimit="10" d="
	M192.884,151.587h0.132 M193.016,151.587v-0.133 M193.016,151.454h0.132 M192.752,160.427v-8.444 M193.148,160.954h-0.132
	 M193.016,160.954v-0.131 M193.016,160.823h-0.132 M192.884,160.823l-0.132-0.132 M192.752,160.691v-0.133 M192.752,160.558v-0.131
	 M196.975,160.954h-3.827 M197.502,160.427l-0.133,0.132 M197.37,160.558v0.133 M197.37,160.691v0.132 M197.37,160.823h-0.132
	 M197.238,160.823l-0.131,0.131 M197.107,160.954h-0.132 M191.566,150.268h7.124 M191.566,162.142v-11.874 M198.69,162.142h-7.124
	 M198.69,150.268v11.874 M193.939,120.053h0.133 M194.072,120.053l0.132,0.132 M194.204,120.185l0.133,0.132 M194.336,120.317v0.131
	 M194.336,120.448v0.133 M194.336,120.581v0.131 M194.336,120.712v0.132 M194.336,120.844h-0.133 M194.204,120.844v0.132
	 M194.204,120.976h-0.132 M194.072,120.976h-0.133 M193.939,120.976h-0.13 M193.809,120.976h-0.132 M193.677,120.976l-0.132-0.132
	 M193.545,120.844l-0.134-0.132 M193.412,120.712v-0.131 M193.412,120.581v-0.133 M193.412,120.448l0.134-0.131 M193.545,120.317
	v-0.132 M193.545,120.185h0.132 M193.677,120.185l0.132-0.132 M193.809,120.053h0.13 M195.128,116.886v7.389 M194.6,116.49h0.132
	 M194.732,116.49h0.132 M194.864,116.49l0.133,0.132 M194.995,116.622l0.133,0.132 M195.128,116.754v0.132 M188.53,116.49h6.07
	 M188.003,116.886v-0.132 M188.003,116.754v-0.132 M188.003,116.622h0.132 M188.135,116.622l0.132-0.132 M188.267,116.49h0.133
	 M188.398,116.49h0.132 M188.003,124.275v-7.389 M188.53,124.671h-0.132 M188.4,124.671h-0.133 M188.267,124.671l-0.132-0.132
	 M188.135,124.539l-0.132-0.132 M188.003,124.407v-0.132 M194.6,124.671h-6.07 M195.128,124.275v0.132 M195.128,124.407h-0.134
	 M194.995,124.407v0.132 M194.997,124.539l-0.133,0.132 M194.864,124.671h-0.132 M194.732,124.671H194.6 M186.816,106.991h9.499
	 M186.816,125.858v-18.867 M196.315,125.858h-9.499 M196.315,106.991v18.867 M189.19,108.178v7.125 M190.378,108.178v7.125
	 M191.566,108.178v7.125 M192.752,108.178v7.125 M193.939,108.178v7.125 M188.003,115.303v-7.125 M195.128,108.178v7.125
	 M195.128,77.04h0.396 M195.524,77.04l0.396,0.132 M195.919,77.172l0.396,0.263 M196.315,77.435l0.264,0.396 M196.578,77.831
	l0.134,0.396 M196.711,78.227v0.396 M196.711,78.623v0.396 M196.711,79.019l-0.134,0.528 M196.578,79.547l-0.263,0.264
	 M196.315,79.811l-0.395,0.263 M195.919,80.074l-0.396,0.132 M195.524,80.206l-0.396,0.132 M195.128,80.338l-0.528-0.132
	 M194.6,80.206l-0.396-0.132 M194.204,80.074l-0.264-0.263 M193.939,79.811l-0.262-0.265 M193.677,79.547l-0.132-0.528
	 M193.545,79.019l-0.134-0.396 M193.412,78.623l0.134-0.396 M193.545,78.227l0.132-0.396 M193.677,77.831l0.262-0.396
	 M193.939,77.435l0.265-0.263 M194.204,77.172l0.396-0.132 M194.6,77.04h0.528 M195.128,69.255h0.527 M195.655,69.255l0.66,0.264
	 M196.315,69.519l0.396,0.396 M196.711,69.915l0.396,0.528 M197.107,70.442l0.263,0.528 M197.37,70.97l0.133,0.66 M197.502,71.63
	l-0.133,0.528 M197.37,72.158l-0.263,0.66 M197.107,72.818l-0.396,0.396 M196.711,73.214l-0.396,0.395 M196.315,73.609l-0.66,0.264
	 M195.655,73.873h-0.527 M195.128,73.873h-0.66 M194.468,73.873l-0.529-0.264 M193.939,73.609l-0.527-0.395 M193.412,73.214
	l-0.396-0.396 M193.016,72.818l-0.264-0.66 M192.752,72.158V71.63 M192.752,71.63v-0.66 M192.752,70.97l0.264-0.528 M193.016,70.442
	l0.396-0.527 M193.412,69.915l0.527-0.396 M193.939,69.519l0.529-0.264 M194.468,69.255h0.66 M188.003,76.248l0.658,0.132
	 M188.662,76.38l0.529,0.264 M189.19,76.644l0.528,0.396 M189.718,77.04l0.264,0.395 M189.982,77.435l0.265,0.661 M190.247,78.095
	l0.132,0.528 M190.378,78.623l-0.132,0.66 M190.247,79.283l-0.265,0.528 M189.982,79.811l-0.264,0.527 M189.718,80.338l-0.528,0.396
	 M189.19,80.734l-0.528,0.264 M188.662,80.998h-0.658 M188.003,80.998h-0.66 M187.343,80.998l-0.528-0.264 M186.816,80.734
	l-0.529-0.396 M186.287,80.338l-0.395-0.527 M185.892,79.811l-0.132-0.529 M185.76,79.283l-0.132-0.66 M185.628,78.623l0.132-0.528
	 M185.76,78.095l0.132-0.66 M185.892,77.435l0.395-0.395 M186.287,77.04l0.529-0.396 M186.816,76.644l0.527-0.264 M187.343,76.38
	l0.66-0.132 M188.003,69.915h0.395 M188.398,69.915l0.397,0.264 M188.794,70.178l0.396,0.264 M189.19,70.442l0.263,0.265
	 M189.453,70.707l0.134,0.396 M189.586,71.103l0.132,0.527 M189.718,71.63l-0.132,0.396 M189.586,72.026l-0.134,0.395
	 M189.453,72.421l-0.263,0.264 M189.19,72.685l-0.396,0.265 M188.794,72.949l-0.396,0.265 M188.398,73.214h-0.395 M188.003,73.214
	h-0.397 M187.606,73.214l-0.395-0.265 M187.211,72.949l-0.396-0.264 M186.816,72.685l-0.264-0.264 M186.552,72.421l-0.133-0.395
	 M186.419,72.026l-0.133-0.396 M186.287,71.63l0.133-0.527 M186.419,71.103l0.133-0.396 M186.552,70.707l0.264-0.265
	 M186.816,70.442l0.396-0.264 M187.211,70.178l0.395-0.263 M187.606,69.915h0.397 M184.44,68.068h14.25 M184.44,82.185V68.068
	 M198.69,82.185h-14.25 M198.69,68.068v14.117 M191.566,174.808v0.132 M191.566,174.94h0.131 M191.696,174.94l0.132,0.134
	 M191.828,175.074v0.131 M191.828,175.205h-0.132 M191.696,175.205v0.131 M191.697,175.335h-0.131 M191.566,175.335h-0.133
	 M191.433,175.335l-0.131-0.131 M191.302,175.205v-0.131 M191.302,175.074v-0.134 M191.302,174.94h0.131 M191.433,174.94
	l0.133-0.132 M191.566,171.51l0.923,0.132 M192.489,171.642l0.792,0.396 M193.281,172.038l0.791,0.528 M194.072,172.565l0.528,0.792
	 M194.6,173.357l0.395,0.792 M194.995,174.149l0.133,0.925 M195.128,175.074l-0.134,0.922 M182.919,128.213V45.11"/>
<path fill="none" stroke="#B2B2B2" stroke-width="0.5" stroke-linecap="round" stroke-linejoin="round" stroke-miterlimit="10" d="
	M194.995,175.996l-0.396,0.924 M194.599,176.919l-0.527,0.66 M194.072,177.58l-0.791,0.66 M193.281,178.24l-0.791,0.264
	 M192.49,178.503l-0.924,0.131 M191.565,178.634l-0.925-0.131 M190.641,178.503l-0.924-0.264 M189.717,178.24l-0.659-0.66
	 M189.058,177.58l-0.528-0.66 M188.531,176.919l-0.396-0.924 M188.134,175.996l-0.132-0.924 M188.002,175.074l0.132-0.925
	 M188.134,174.149l0.396-0.792 M188.531,173.357l0.528-0.792 M189.058,172.565l0.659-0.528 M189.717,172.038l0.924-0.396
	 M190.641,171.642l0.925-0.132 M184.441,168.08h14.25 M184.441,182.197v-14.118 M198.69,182.197h-14.25 M198.69,168.08v14.119
	 M166.76,206.212v0.131 M166.76,206.343h-0.133 M166.627,206.343v0.131 M166.627,206.474l-0.132,0.133 M166.496,206.607h-0.132
	 M166.364,206.607h-0.131 M166.233,206.607H166.1 M166.1,206.607l-0.132-0.133 M165.968,206.474l-0.132-0.131 M165.836,206.343
	v-0.131 M165.836,206.212v-0.135 M165.836,206.078v-0.13 M165.836,205.948l0.132-0.134 M165.968,205.814l0.132-0.13 M166.1,205.684
	h0.133 M166.233,205.684h0.131 M166.364,205.684h0.132 M166.496,205.684l0.132,0.13 M166.627,205.814v0.134 M166.627,205.948
	l0.133,0.13 M166.76,206.078v0.135 M170.587,207.397h-8.577 M170.982,206.871v0.131 M170.982,207.001v0.134 M170.982,207.135h-0.132
	 M170.85,207.135l-0.131,0.131 M170.719,207.266h-0.132 M170.587,207.266v0.131 M170.982,203.044v3.826 M170.587,202.648h0.131
	 M170.719,202.648l0.131,0.132 M170.85,202.78l0.132,0.132 M170.982,202.912v0.133 M162.009,202.648h8.577 M161.616,203.044v-0.133
	 M161.616,202.912l0.132-0.132 M161.748,202.78v-0.132 M161.748,202.648h0.132 M161.878,202.648h0.132 M161.616,206.871v-3.826
	 M162.01,207.397l-0.132-0.131 M161.878,207.266h-0.132 M161.748,207.266v-0.131 M161.748,207.135h-0.132 M161.616,207.135v-0.134
	 M161.616,207.001v-0.131 M172.169,201.461v6.992 M160.427,201.461h11.742 M160.427,208.454v-6.992 M172.169,208.454h-11.742"/>
<path fill="none" stroke="#B2B2B2" stroke-width="0.5" stroke-linecap="round" stroke-linejoin="round" stroke-miterlimit="10" d="
	M153.699,188.134l-2.771,0.265 M150.927,188.399l-2.771,0.659 M148.157,189.058l-2.639,1.188"/>
<line fill="none" stroke="#B2B2B2" stroke-width="0.5" stroke-linecap="round" stroke-linejoin="round" stroke-miterlimit="10" x1="145.518" y1="190.246" x2="153.699" y2="204.627"/>
<path fill="none" stroke="#B2B2B2" stroke-width="0.5" stroke-linecap="round" stroke-linejoin="round" stroke-miterlimit="10" d="
	M153.698,205.419v0.264 M153.698,205.683h1.584 M153.698,187.08v0.132 M153.698,187.211h1.979"/>
<path fill="none" stroke="#B2B2B2" stroke-width="0.5" stroke-linecap="round" stroke-linejoin="round" stroke-miterlimit="10" d="
	M153.699,167.023l-2.771-0.263 M150.927,166.761l-2.771-0.792 M148.157,165.969l-2.639-1.188"/>
<line fill="none" stroke="#B2B2B2" stroke-width="0.5" stroke-linecap="round" stroke-linejoin="round" stroke-miterlimit="10" x1="145.518" y1="164.781" x2="153.699" y2="150.398"/>
<path fill="none" stroke="#B2B2B2" stroke-width="0.5" stroke-linecap="round" stroke-linejoin="round" stroke-miterlimit="10" d="
	M153.698,167.264v0.577 M153.698,168.08h1.584"/>
<path fill="none" stroke="#B2B2B2" stroke-width="0.5" stroke-linecap="round" stroke-linejoin="round" stroke-miterlimit="10" d="
	M15.423,170.982H49.2 M49.2,166.497H10.938 M49.2,170.982v-4.486 M10.938,166.497v12.798 M10.938,179.294h4.486 M15.423,179.294
	v-8.312 M10.938,203.967v13.724 M15.423,208.717v-4.75 M15.423,203.967h-4.486 M10.938,208.717h4.486"/>
<g>
	<path fill="none" stroke="#B2B2B2" stroke-width="0.5" stroke-linecap="round" stroke-linejoin="round" stroke-miterlimit="10" d="
		M10.938,202.251l-3.695-0.264 M7.243,201.989l-3.563-1.056 M3.682,200.933L0.25,199.35"/>
	
		<line fill="none" stroke="#B2B2B2" stroke-width="0.5" stroke-linecap="round" stroke-linejoin="round" stroke-miterlimit="10" x1="0.25" y1="199.35" x2="10.938" y2="181.009"/>
</g>
<path fill="none" stroke="#B2B2B2" stroke-width="0.5" stroke-linecap="round" stroke-linejoin="round" stroke-miterlimit="10" d="
	M10.938,202.252v1.715 M10.938,203.967h2.375 M13.313,179.294h-2.375 M10.938,179.294v1.609"/>
<path fill="none" stroke="#B2B2B2" stroke-width="0.5" stroke-linecap="round" stroke-linejoin="round" stroke-miterlimit="10" d="
	M58.172,44.45h15.964 M74.137,44.45v-8.972 M74.137,35.478h-15.7 M111.345,44.45h17.68 M130.873,44.45h28.367 M159.24,44.45v-8.972
	 M118.602,35.478h-7.257 M111.345,35.478v8.972 M190.115,44.45h8.576 M190.115,35.478v8.972 M58.437,35.478h-9.247"/>
<path fill="none" stroke="#B2B2B2" stroke-width="0.5" stroke-linecap="round" stroke-linejoin="round" stroke-miterlimit="10" d="
	M111.346,44.45h-0.133 M111.346,44.45v-8.972 M111.213,35.478v8.972 M111.213,35.478h0.133"/>
<path fill="none" stroke="#B2B2B2" stroke-width="0.5" stroke-linecap="round" stroke-linejoin="round" stroke-miterlimit="10" d="
	M49.2,35.478v77.054 M49.2,114.379v52.117 M49.2,170.982h8.972 M58.172,169.135V44.45 M49.2,114.379v-1.847"/>
<path fill="none" stroke="#B2B2B2" stroke-width="0.5" stroke-linecap="round" stroke-linejoin="round" stroke-miterlimit="10" d="
	M23.735,166.496H49.2 M10.938,166.496h12.997"/>
<path fill="none" stroke="#B2B2B2" stroke-width="0.5" stroke-linecap="round" stroke-linejoin="round" stroke-miterlimit="10" d="
	M55.534,3.152h0.396 M56.193,3.152h1.583 M58.04,3.152h0.397 M58.437,17.006H58.04 M57.776,17.006h-1.583 M55.93,17.006h-0.397
	 M55.534,17.006V3.152 M58.437,17.006V3.152"/>
<path fill="none" stroke="#B2B2B2" stroke-width="0.5" stroke-linecap="round" stroke-linejoin="round" stroke-miterlimit="10" d="
	M55.534,18.458V30.2 M55.534,30.2h2.903 M117.507,26.765h2.678 M117.507,5.046h2.678 M58.437,30.2V18.458 M58.437,18.458h-2.903"/>
<path fill="none" stroke="#B2B2B2" stroke-width="0.5" stroke-linecap="round" stroke-linejoin="round" stroke-miterlimit="10" d="
	M120.185,3.152v30.874 M117.414,3.152v30.874 M88.65,0.25h28.763 M88.65,3.152h28.763"/>
<path fill="none" stroke="#B2B2B2" stroke-width="0.5" stroke-linecap="round" stroke-linejoin="round" stroke-miterlimit="10" d="
	M120.185,0.25h-2.771 M120.185,35.478v-1.452 M117.414,34.026v1.452 M117.414,35.478h2.771"/>
<path fill="none" stroke="#B2B2B2" stroke-width="0.5" stroke-linecap="round" stroke-linejoin="round" stroke-miterlimit="10" d="
	M87.198,0.25v0.528 M87.198,2.097v1.055 M83.373,3.152V2.097 M83.373,0.778V0.25 M83.373,0.25h3.825 M83.373,3.152h3.825"/>
<path fill="none" stroke="#B2B2B2" stroke-width="0.5" stroke-linecap="round" stroke-linejoin="round" stroke-miterlimit="10" d="
	M88.65,0.25h-1.452 M87.198,0.25v2.902 M87.198,3.152h1.452 M88.65,3.152V0.25 M81.921,0.909V0.645"/>
<path fill="none" stroke="#B2B2B2" stroke-width="0.5" stroke-linecap="round" stroke-linejoin="round" stroke-miterlimit="10" d="
	M58.437,3.152v-2.69 M58.437,0.25h23.485 M58.437,3.152h23.485"/>
<path fill="none" stroke="#B2B2B2" stroke-width="0.5" stroke-linecap="round" stroke-linejoin="round" stroke-miterlimit="10" d="
	M83.373,0.25h-1.452 M81.921,0.25v2.902 M81.921,3.152h1.452 M83.373,3.152V0.25"/>
<path fill="none" stroke="#B2B2B2" stroke-width="0.5" stroke-linecap="round" stroke-linejoin="round" stroke-miterlimit="10" d="
	M150.928,3.152V30.2 M148.157,30.2V3.152 M148.157,30.2h2.771 M58.437,0.25h92.491 M148.157,3.152h-27.972 M150.928,3.152V0.25"/>
<path fill="none" stroke="#B2B2B2" stroke-width="0.5" stroke-linecap="round" stroke-linejoin="round" stroke-miterlimit="10" d="
	M168.211,35.479h2.376 M171.642,35.479h2.375 M161.086,35.479h2.243 M164.517,35.479h2.243 M163.99,35.479h10.027 M168.211,36.93
	h5.806 M161.086,36.93h5.674 M163.99,36.93h10.027"/>
<path fill="none" stroke="#B2B2B2" stroke-width="0.5" stroke-linecap="round" stroke-linejoin="round" stroke-miterlimit="10" d="
	M162.539,36.929h10.027 M172.566,35.478h-10.027"/>
<path fill="none" stroke="#B2B2B2" stroke-width="0.5" stroke-linecap="round" stroke-linejoin="round" stroke-miterlimit="10" d="
	M162.539,35.478h-1.452 M161.086,35.478v1.451 M161.086,36.929h1.452 M162.539,36.929v-1.451 M172.566,35.478v1.451 M172.566,36.929
	h1.451 M174.017,36.929v-1.451 M174.017,35.478h-1.451"/>
<path fill="none" stroke="#B2B2B2" stroke-width="0.5" stroke-linecap="round" stroke-linejoin="round" stroke-miterlimit="10" d="
	M174.017,35.479h-4.75 M165.705,35.479h-4.619 M174.017,36.93h-12.931"/>
<path fill="none" stroke="#B2B2B2" stroke-width="0.5" stroke-linecap="round" stroke-linejoin="round" stroke-miterlimit="10" d="
	M161.086,36.929h12.931 M175.336,36.929h12.931 M174.017,35.478h-12.931 M188.267,35.478h-12.931"/>
<path fill="none" stroke="#B2B2B2" stroke-width="0.5" stroke-linecap="round" stroke-linejoin="round" stroke-miterlimit="10" d="
	M175.335,35.478h-1.317 M174.017,35.478v1.451 M174.017,36.929h1.318 M175.335,36.929v-1.451 M161.085,35.478h-1.449
	 M159.636,35.478v1.451 M159.636,36.929h1.449 M161.085,36.929v-1.451 M188.268,35.478v1.451 M188.268,36.929h1.45 M189.718,36.929
	v-1.451 M189.718,35.478h-1.45"/>
<path fill="none" stroke="#B2B2B2" stroke-width="0.5" stroke-linecap="round" stroke-linejoin="round" stroke-miterlimit="10" d="
	M159.239,36.93h0.397 M159.636,36.93v-1.452 M159.636,35.478h-0.397 M159.239,35.478v1.451 M189.718,36.93h0.396 M190.114,36.93
	v-1.452 M190.114,35.478h-0.396 M189.718,35.478v1.451 M190.114,30.068v5.279 M159.239,35.347v-5.279 M159.239,30.068h30.875
	 M159.239,45.11v-8.181 M190.114,36.93v8.18 M159.239,36.93h30.875 M190.114,45.11h-30.875"/>
<path fill="none" stroke="#B2B2B2" stroke-width="0.5" stroke-linecap="round" stroke-linejoin="round" stroke-miterlimit="10" d="
	M123.352,217.69v114.789 M127.838,332.479V217.69 M123.352,332.479h4.486 M127.838,217.69h-4.486"/>
<line fill="none" stroke="#B2B2B2" stroke-width="0.5" stroke-linecap="round" stroke-linejoin="round" stroke-miterlimit="10" x1="45.375" y1="217.69" x2="43.526" y2="217.69"/>
<path fill="none" stroke="#B2B2B2" stroke-width="0.5" stroke-linecap="round" stroke-linejoin="round" stroke-miterlimit="10" d="
	M149.08,217.691l-0.265,2.901 M148.815,220.591l-0.791,2.772 M148.024,223.364l-1.188,2.639"/>
<line fill="none" stroke="#B2B2B2" stroke-width="0.5" stroke-linecap="round" stroke-linejoin="round" stroke-miterlimit="10" x1="146.836" y1="226.002" x2="132.456" y2="217.691"/>
<path fill="none" stroke="#B2B2B2" stroke-width="0.5" stroke-linecap="round" stroke-linejoin="round" stroke-miterlimit="10" d="
	M131.399,217.69v-1.451 M132.375,217.69h-0.756 M149.982,217.69h-0.902 M150.135,216.239v1.451"/>
<path fill="none" stroke="#B2B2B2" stroke-width="0.5" stroke-linecap="round" stroke-linejoin="round" stroke-miterlimit="10" d="
	M198.69,332.479h-16.625 M182.065,332.479v8.974 M151.19,332.479h-23.352 M123.351,332.479v14.118 M151.19,341.453v-8.973"/>
<path fill="none" stroke="#B2B2B2" stroke-width="0.5" stroke-linecap="round" stroke-linejoin="round" stroke-miterlimit="10" d="
	M173.092,341.453h-2.374 M169.663,341.453h-2.375 M180.218,341.453h-2.376 M176.788,341.453h-2.243 M177.316,341.453h-10.028
	 M173.092,340h-5.804 M180.218,340h-5.674 M177.316,340h-10.028"/>
<path fill="none" stroke="#B2B2B2" stroke-width="0.5" stroke-linecap="round" stroke-linejoin="round" stroke-miterlimit="10" d="
	M178.766,340h-10.027 M168.739,341.453h10.027"/>
<path fill="none" stroke="#B2B2B2" stroke-width="0.5" stroke-linecap="round" stroke-linejoin="round" stroke-miterlimit="10" d="
	M178.766,341.453h1.452 M180.218,341.453V340 M180.218,340h-1.452 M178.766,340v1.452 M168.739,341.453V340 M168.739,340h-1.45
	 M167.289,340v1.452 M167.289,341.453h1.45"/>
<path fill="none" stroke="#B2B2B2" stroke-width="0.5" stroke-linecap="round" stroke-linejoin="round" stroke-miterlimit="10" d="
	M167.289,341.453h4.749 M175.6,341.453h4.618 M167.289,340h12.93"/>
<path fill="none" stroke="#B2B2B2" stroke-width="0.5" stroke-linecap="round" stroke-linejoin="round" stroke-miterlimit="10" d="
	M180.219,340h-12.931 M165.969,340h-12.931 M167.289,341.453h12.931 M153.039,341.453h12.931"/>
<path fill="none" stroke="#B2B2B2" stroke-width="0.5" stroke-linecap="round" stroke-linejoin="round" stroke-miterlimit="10" d="
	M165.968,341.453h1.319 M167.289,341.453V340 M167.289,340h-1.32 M165.968,340v1.452 M180.218,341.453h1.45 M181.669,341.453V340
	 M181.668,340h-1.45 M180.218,340v1.452 M153.039,341.453V340 M153.039,340h-1.452 M151.586,340v1.452 M151.586,341.453h1.452"/>
<path fill="none" stroke="#B2B2B2" stroke-width="0.5" stroke-linecap="round" stroke-linejoin="round" stroke-miterlimit="10" d="
	M182.065,340h-0.395 M181.67,340v1.451 M181.67,341.453h0.395 M182.065,341.453V340 M151.586,340h-0.396 M151.19,340v1.451
	 M151.19,341.453h0.396 M151.586,341.453V340 M151.19,346.863v-5.41 M182.065,341.453v5.41 M182.065,346.863H151.19
	 M182.065,341.453H151.19 M182.065,341.453H151.19 M182.065,331.819V340 M151.19,340v-8.182 M182.065,340H151.19 M151.19,331.819
	h30.875"/>
<path fill="none" stroke="#B2B2B2" stroke-width="0.5" stroke-linecap="round" stroke-linejoin="round" stroke-miterlimit="10" d="
	M123.351,346.597h27.839 M151.19,346.597v-5.145 M182.065,346.597h25.598 M182.065,341.453v5.145"/>
</svg>
