<?xml version="1.0" encoding="utf-8"?>
<!-- Generator: Adobe Illustrator 15.0.2, SVG Export Plug-In  -->
<!DOCTYPE svg PUBLIC "-//W3C//DTD SVG 1.1//EN" "http://www.w3.org/Graphics/SVG/1.1/DTD/svg11.dtd" [
	<!ENTITY ns_flows "http://ns.adobe.com/Flows/1.0/">
]>
<svg version="1.1"
	 xmlns="http://www.w3.org/2000/svg" xmlns:xlink="http://www.w3.org/1999/xlink" xmlns:a="http://ns.adobe.com/AdobeSVGViewerExtensions/3.0/"
	 x="0px" y="0px" width="158px" height="206px" viewBox="0 0 158 206" enable-background="new 0 0 158 206" xml:space="preserve">
<defs>
</defs>
<polygon fill="#EDEDED" points="3.078,170.772 3.078,203.099 92.798,203.099 92.798,175.918 62.188,175.918 62.188,161.801 
	148.741,161.801 148.741,18.645 14.688,18.645 14.688,161.801 25.31,161.801 25.31,170.772 "/>
<g>
	<defs>
		<rect id="SVGID_5_" width="157.977" height="206.292"/>
	</defs>
	<clipPath id="SVGID_6_">
		<use xlink:href="#SVGID_5_"  overflow="visible"/>
	</clipPath>
	
		<path clip-path="url(#SVGID_6_)" fill="none" stroke="#B2B2B2" stroke-width="0.5" stroke-linecap="round" stroke-linejoin="round" stroke-miterlimit="10" d="
		M148.741,161.801h-11.743 M136.998,161.801v8.972 M106.123,161.801H78.02 M76.041,161.801H62.188 M62.187,161.801v8.972
		 M106.124,170.772v-8.972 M25.112,161.801H14.688 M5.716,161.801H0.307 M30.609,143H14.952 M0.307,170.772h24.805 M25.112,170.772
		v-8.972 M14.688,18.645h39.187 M55.722,18.645h7.125 M62.847,18.645V9.671 M84.09,18.645h15.174 M101.11,18.645h47.631
		 M157.08,9.671H84.09 M84.09,9.671v8.973"/>
</g>
<path fill="none" stroke="#B2B2B2" stroke-width="0.5" stroke-linecap="round" stroke-linejoin="round" stroke-miterlimit="10" d="
	M5.717,9.671v33.778 M5.717,45.296v42.617 M5.717,89.76v72.041 M30.609,72.738V143 M14.688,161.801V72.608 M14.688,70.761V18.645"/>
<path fill="none" stroke="#B2B2B2" stroke-width="0.5" stroke-linecap="round" stroke-linejoin="round" stroke-miterlimit="10" d="
	M5.716,89.76v-1.847 M5.716,45.296v-1.847"/>
<line fill="none" stroke="#B2B2B2" stroke-width="0.5" stroke-linecap="round" stroke-linejoin="round" stroke-miterlimit="10" x1="5.716" y1="43.45" x2="5.716" y2="9.672"/>
<line fill="none" stroke="#B2B2B2" stroke-width="0.5" stroke-linecap="round" stroke-linejoin="round" stroke-miterlimit="10" x1="5.716" y1="87.914" x2="5.716" y2="45.428"/>
<line fill="none" stroke="#B2B2B2" stroke-width="0.5" stroke-linecap="round" stroke-linejoin="round" stroke-miterlimit="10" x1="5.716" y1="138.183" x2="5.716" y2="123.934"/>
<path fill="none" stroke="#B2B2B2" stroke-width="0.5" stroke-linecap="round" stroke-linejoin="round" stroke-miterlimit="10" d="
	M53.875,72.608h1.847 M14.952,70.761h-0.263 M14.688,72.608h39.187 M14.688,70.761v1.847 M55.723,72.608h4.486 M59.152,72.608
	v-1.716 M101.11,49.915v-31.27 M99.264,18.645v30.477 M98.898,52.125l2.212-2.211 M101.11,18.645h-1.847 M78.021,161.801V73.136
	 M76.042,72.608v89.192 M76.042,161.801h1.979"/>
<path fill="none" stroke="#B2B2B2" stroke-width="0.5" stroke-linecap="round" stroke-linejoin="round" stroke-miterlimit="10" d="
	M14.688,70.762h0.264 M14.951,70.364l-0.263,0.398 M18.91,61.92h0.132 M19.042,61.92l0.132-0.13 M19.174,61.79h0.132 M19.307,61.79
	v-0.134 M19.307,61.656l0.132-0.131 M19.438,61.525v-0.133 M19.438,61.392v-0.131 M19.438,61.261l-0.132-0.133 M19.307,61.128
	l-0.132-0.131 M19.174,60.997h-0.132 M19.042,60.997H18.91 M18.91,60.997h-0.132 M18.778,60.997h-0.131 M18.647,60.997v0.131
	 M18.647,61.128h-0.133 M18.514,61.128v0.133 M18.514,61.261v0.131 M18.514,61.392v0.133 M18.514,61.525v0.131 M18.514,61.656
	l0.133,0.134 M18.647,61.79l0.131,0.13 M18.778,61.92h0.132 M16.139,68.253v0.398 M16.139,68.651l0.132,0.262 M16.271,68.913
	l0.265,0.397 M16.537,69.31l0.263,0.131 M16.799,69.441l0.395,0.133 M17.195,69.574l0.264,0.131 M17.459,69.705h30.478
	 M47.938,69.705l1.584-0.131 M49.521,69.574l1.451-0.398 M50.972,69.177l1.32-0.79 M52.292,68.387l1.319-0.924 M53.61,67.463
	l0.924-1.057 M54.534,66.406l0.792-1.318 M55.326,65.088l0.66-1.451 M55.986,63.636l0.263-1.452 M56.25,62.184v-1.582 M56.25,60.602
	l-0.264-1.451 M55.986,59.151l-0.66-1.452 M55.326,57.699l-0.792-1.318 M54.534,56.38l-0.924-1.056 M53.61,55.324L52.292,54.4
	 M52.292,54.4l-1.32-0.659 M50.972,53.741l-1.451-0.395 M49.521,53.346l-1.584-0.133 M47.938,53.213H17.459 M17.459,53.213h-0.264
	 M17.195,53.213l-0.396,0.133 M16.799,53.346l-0.263,0.261 M16.537,53.607l-0.265,0.264 M16.271,53.871l-0.132,0.265 M16.139,54.136
	v0.395 M16.139,54.531v13.722 M14.951,70.893h42.486 M57.438,70.893V52.025 M57.438,32.893V18.842 M59.152,51.818v-1.112
	 M59.152,34.058v-1.112 M59.152,52.025H14.951 M48.861,25.77h0.132 M48.993,25.77v0.13 M48.993,25.9v0.132 M48.993,26.032h0.132
	 M49.125,26.032h0.132 M49.257,26.032l0.132-0.132 M49.389,25.9v-0.13 M49.389,25.77v-0.134 M49.389,25.636l-0.132-0.131
	 M49.257,25.505h-0.132 M49.125,25.505h-0.132 M48.993,25.505v0.131 M48.993,25.636l-0.132,0.134 M45.563,25.77l0.131,0.924
	 M45.694,26.694l0.396,0.789 M46.09,27.483l0.528,0.793 M46.618,28.276l0.792,0.528 M47.41,28.804l0.792,0.395 M48.201,29.199
	l0.924,0.131 M49.125,29.33l0.923-0.131 M50.048,29.199l0.924-0.395 M50.972,28.804l0.66-0.528 M51.632,28.276l0.659-0.793
	 M52.292,27.483l0.264-0.79 M52.555,26.694l0.132-0.924 M52.688,25.77l-0.131-0.926 M52.555,24.844l-0.264-0.79 M52.292,24.054
	l-0.659-0.793 M51.632,23.261l-0.66-0.529 M50.972,22.733l-0.924-0.395 M50.048,22.338l-0.923-0.131 M49.125,22.207l-0.924,0.131
	 M48.201,22.338l-0.792,0.395 M47.41,22.733l-0.792,0.528 M46.618,23.261l-0.528,0.793 M46.09,24.054l-0.396,0.79 M45.694,24.844
	l-0.131,0.926 M56.25,18.645H42.132 M42.132,18.645v14.248 M42.132,32.893h17.02 M19.703,30.651H19.57 M19.57,30.651h-0.132
	 M19.438,30.651l-0.132,0.131 M19.307,30.782h-0.132 M19.174,30.782v0.133 M19.174,30.915v0.131 M19.174,31.046v0.133
	 M19.174,31.179v0.131 M19.174,31.31l0.132,0.134 M19.307,31.441h0.132 M19.438,31.441l0.132,0.134 M19.57,31.575h0.132
	 M19.703,31.575l0.132-0.134 M19.834,31.441h0.132 M19.966,31.444l0.132-0.134 M20.099,31.31v-0.131 M20.099,31.179v-0.133
	 M20.099,31.046v-0.131 M20.099,30.915v-0.133 M20.099,30.782h-0.132 M19.966,30.782l-0.132-0.131 M19.834,30.651h-0.132
	 M23.133,33.95l1.187,0.395 M24.32,34.345l1.187,0.264 M25.507,34.609h1.32 M26.828,34.609l1.319-0.131 M28.146,34.478l1.187-0.264
	 M29.333,34.214l1.188-0.397 M30.521,33.817l0.792-0.527 M31.313,33.29l0.791-0.661 M32.104,32.629l0.397-0.791 M32.501,31.838
	l0.131-0.792 M32.632,31.046l-0.131-0.79 M32.501,30.256l-0.397-0.662 M32.104,29.594l-0.791-0.659 M31.313,28.935l-0.792-0.659
	 M30.521,28.276l-1.187-0.395 M29.333,27.881l-1.187-0.264 M28.146,27.617l-1.319-0.134 M26.828,27.483l-1.32,0.134 M25.507,27.617
	l-1.187,0.264 M24.32,27.881l-1.187,0.395 M23.133,28.276v5.674 M21.945,27.483v7.126 M21.945,34.609v0.264 M21.945,34.873
	l-0.132,0.395 M21.813,35.268l-0.132,0.133 M21.682,35.401h2.375 M24.057,35.401l1.451,0.265 M25.507,35.666l1.452,0.13
	 M26.959,35.796l1.451-0.13 M28.41,35.666l1.32-0.265 M29.73,35.401l1.319-0.528 M31.049,34.873l1.055-0.66 M32.104,34.214
	l0.792-0.793 M32.896,33.421l0.528-0.923 M33.424,32.498l0.396-0.923 M33.82,31.575v-0.924 M33.82,30.651l-0.396-1.056
	 M33.424,29.594l-0.528-0.79 M32.896,28.804l-0.792-0.792 M32.104,28.012l-1.055-0.659 M31.049,27.353l-1.319-0.529 M29.73,26.824
	l-1.32-0.395 M28.41,26.429l-1.451-0.133 M26.959,26.296l-1.452,0.133 M25.507,26.429l-1.451,0.265 M24.057,26.694h-2.375
	 M21.682,26.694l0.132,0.263 M21.813,26.957l0.132,0.262 M21.945,27.219v0.264 M17.328,34.609v0.264 M17.328,34.873l0.132,0.395
	 M17.459,35.268l0.132,0.133 M17.591,35.401l0.264,0.265 M17.855,35.666l0.264,0.13 M18.12,35.796h0.395 M18.514,35.796h2.376
	 M20.891,35.796h0.263 M21.153,35.796l0.264-0.13 M21.417,35.666l0.264-0.265 M21.682,35.401l0.132-0.133 M21.813,35.268
	l0.132-0.395 M21.945,34.873v-0.264 M21.945,34.609v-7.126 M21.945,27.483v-0.264 M21.945,27.219l-0.132-0.262 M21.813,26.957
	l-0.132-0.264 M21.682,26.694l-0.264-0.134 M21.417,26.56l-0.264-0.131 M21.153,26.429l-0.263-0.133 M20.891,26.296h-2.376
	 M18.514,26.296l-0.395,0.133 M18.12,26.429l-0.264,0.131 M17.855,26.56l-0.264,0.134 M17.591,26.694l-0.132,0.263 M17.459,26.957
	l-0.132,0.262"/>
<path fill="none" stroke="#B2B2B2" stroke-width="0.5" stroke-linecap="round" stroke-linejoin="round" stroke-miterlimit="10" d="
	M17.327,27.219v0.264 M17.327,27.483v7.126 M17.327,45.297h0.132 M17.459,45.297l0.132-0.133 M17.592,45.164h0.131 M17.723,45.164
	v-0.131 M17.723,45.033V44.9 M17.723,44.9v-0.132 M17.723,44.768v-0.132 M17.723,44.636l-0.131-0.131 M17.592,44.505h-0.132
	 M17.459,44.505v-0.132 M17.459,44.373h-0.132 M17.327,44.373h-0.131 M17.196,44.373l-0.132,0.132 M17.063,44.505h-0.131
	 M16.932,44.505v0.131 M16.932,44.636L16.8,44.768 M16.8,44.768V44.9 M16.8,44.9v0.133 M16.8,45.033l0.131,0.131 M16.932,45.164
	l0.131,0.133 M17.063,45.297h0.132 M17.196,45.297h0.131 M16.14,49.122v0.133 M16.14,49.255v0.13 M16.14,49.385l0.132,0.134
	 M16.271,49.519h0.132 M16.404,49.519v0.131 M16.404,49.65h0.132 M16.536,49.65h3.827 M20.363,49.65h0.131 M20.494,49.65
	l0.132-0.131 M20.625,49.519l0.132-0.134 M20.758,49.385v-0.13 M20.758,49.255l0.132-0.133 M20.89,49.122v-8.444 M20.89,40.678
	l-0.132-0.132 M20.758,40.546v-0.133 M20.758,40.414l-0.132-0.131 M20.625,40.283l-0.132-0.131 M20.494,40.152h-0.131
	 M20.363,40.152h-3.827 M16.536,40.152h-0.132 M16.404,40.152v0.131 M16.404,40.283h-0.132 M16.271,40.283l-0.132,0.131
	 M16.14,40.414v0.133 M16.14,40.546v0.132 M16.14,40.678v8.444 M14.952,50.837h6.994 M21.946,50.837V38.964 M21.946,38.964h-6.994
	 M25.508,116.148l0.66-0.131 M26.167,116.018l0.528-0.265 M26.696,115.753l0.527-0.265 M27.223,115.489l0.396-0.528 M27.619,114.961
	l0.264-0.528 M27.883,114.433v-0.66 M27.883,113.772v-0.658 M27.883,113.114l-0.264-0.528 M27.619,112.586l-0.396-0.528
	 M27.223,112.058l-0.527-0.395 M26.696,111.663l-0.528-0.132 M26.167,111.531l-0.66-0.133 M25.508,111.398l-0.528,0.133
	 M24.979,111.531l-0.66,0.132 M24.321,111.663l-0.397,0.395 M23.924,112.058l-0.395,0.528 M23.529,112.586l-0.264,0.528
	 M23.265,113.114l-0.131,0.659 M23.133,113.772l0.132,0.66 M23.265,114.433l0.264,0.528 M23.529,114.961l0.395,0.528
	 M23.924,115.489l0.397,0.265 M24.32,115.753l0.66,0.265 M24.979,116.018l0.528,0.131 M18.515,109.022h0.528 M19.042,109.022
	l0.66-0.264 M19.703,108.759l0.396-0.396 M20.099,108.363l0.395-0.527 M20.494,107.836l0.264-0.528 M20.758,107.308l0.132-0.66
	 M20.89,106.647l-0.132-0.525 M20.758,106.122l-0.264-0.661 M20.494,105.461l-0.395-0.396 M20.099,105.065l-0.396-0.395
	 M19.703,104.671l-0.66-0.265 M19.042,104.406l-0.528-0.134 M18.515,104.272l-0.66,0.134 M17.854,104.406l-0.528,0.265
	 M17.327,104.671l-0.527,0.395 M16.8,105.065l-0.396,0.396 M16.404,105.461l-0.264,0.661 M16.14,106.122v0.525 M16.14,106.647v0.66
	 M16.14,107.308l0.264,0.528 M16.404,107.836l0.396,0.528 M16.8,108.363l0.527,0.396 M17.327,108.759l0.528,0.264 M17.854,109.022
	h0.66 M18.515,115.356h0.396 M18.911,115.356l0.396-0.131 M19.307,115.226l0.263-0.265 M19.571,114.961l0.264-0.396 M19.833,114.565
	l0.264-0.396 M20.099,114.169v-0.396 M20.099,113.772v-0.395 M20.099,113.379l-0.264-0.398 M19.833,112.98l-0.264-0.395
	 M19.571,112.586l-0.264-0.265 M19.307,112.321l-0.396-0.131 M18.911,112.19l-0.396-0.133 M18.515,112.058l-0.527,0.133
	 M17.988,112.19l-0.396,0.131 M17.592,112.321l-0.265,0.265 M17.327,112.586l-0.263,0.395 M17.063,112.98l-0.131,0.398
	 M16.932,113.379l-0.132,0.395 M16.8,113.772l0.131,0.396 M16.932,114.169l0.131,0.396 M17.063,114.565l0.263,0.396 M17.327,114.961
	l0.265,0.265 M17.592,115.226l0.396,0.131 M17.988,115.356h0.527 M25.508,108.363l0.528-0.131 M26.036,108.232l0.396-0.133
	 M26.432,108.1l0.263-0.264 M26.696,107.836l0.264-0.396 M26.959,107.44l0.131-0.396 M27.091,107.045l0.132-0.397 M27.223,106.647
	l-0.131-0.395 M27.091,106.253l-0.131-0.396 M26.959,105.857l-0.265-0.396 M26.696,105.461l-0.264-0.265 M26.432,105.196
	l-0.396-0.131 M26.036,105.065h-0.528 M25.508,105.065h-0.396 M25.112,105.065l-0.395,0.131 M24.717,105.196l-0.397,0.265
	 M24.32,105.461l-0.263,0.396 M24.057,105.857l-0.132,0.396 M23.924,106.253v0.395 M23.924,106.647v0.397 M23.924,107.045
	l0.133,0.396 M24.057,107.44l0.263,0.396 M24.32,107.836l0.397,0.264 M24.717,108.1l0.395,0.133 M25.112,108.232l0.396,0.131
	 M14.952,117.337H29.07 M29.071,117.337v-14.251 M29.071,103.086H14.952 M19.703,89.233h0.131 M19.833,89.233l0.132-0.131
	 M19.966,89.102h0.132 M20.099,89.102v-0.134 M20.099,88.968v-0.131 M20.099,88.837v-0.133 M20.099,88.704v-0.131 M20.099,88.573
	l-0.132-0.131 M19.966,88.442h-0.131 M19.833,88.442l-0.131-0.133 M19.703,88.309h-0.132 M19.571,88.309l-0.132,0.133
	 M19.438,88.442h-0.131 M19.307,88.442l-0.132,0.131 M19.175,88.573v0.131 M19.175,88.704v0.133 M19.175,88.837v0.131
	 M19.175,88.968v0.134 M19.175,89.102h0.132 M19.307,89.102l0.131,0.131 M19.438,89.233h0.132 M19.571,89.233h0.132 M18.515,92.4
	v0.131 M18.515,92.531v0.133 M18.515,92.664l0.132,0.131 M18.646,92.795v0.133 M18.646,92.928h0.132 M18.779,92.928h0.132
	 M18.911,92.928h6.201 M25.112,92.928h0.132 M25.244,92.928h0.132 M25.375,92.928v-0.133 M25.375,92.795l0.132-0.131 M25.508,92.664
	v-0.133 M25.508,92.531V92.4 M25.508,92.4v-7.257 M25.508,85.143V85.01 M25.508,85.01v-0.131 M25.508,84.879l-0.132-0.133
	 M25.375,84.747h-0.132 M25.244,84.747l-0.132-0.132 M25.112,84.615h-6.201 M18.911,84.615l-0.132,0.132 M18.779,84.747h-0.132
	 M18.646,84.747l-0.132,0.132 M18.515,84.879v0.131"/>
<path fill="none" stroke="#B2B2B2" stroke-width="0.5" stroke-linecap="round" stroke-linejoin="round" stroke-miterlimit="10" d="
	M18.515,85.01v0.133 M18.515,85.143V92.4 M17.327,75.247v18.866 M17.327,94.114h9.369 M26.696,94.114V75.247 M26.696,75.247h-9.369
	 M24.32,76.435v6.993 M23.133,76.435v6.993 M21.946,76.435v6.993 M20.89,76.435v6.993 M19.703,76.435v6.993 M25.508,83.428v-6.993
	 M18.515,76.435v6.993"/>
<path fill="none" stroke="#B2B2B2" stroke-width="0.5" stroke-linecap="round" stroke-linejoin="round" stroke-miterlimit="10" d="
	M59.153,34.058l2.902,0.265 M62.055,34.345l2.771,0.792 M64.826,35.137l2.639,1.187"/>
<line fill="none" stroke="#B2B2B2" stroke-width="0.5" stroke-linecap="round" stroke-linejoin="round" stroke-miterlimit="10" x1="67.465" y1="36.324" x2="59.153" y2="50.706"/>
<g>
	<defs>
		<rect id="SVGID_4_" width="157.977" height="206.292"/>
	</defs>
	<clipPath id="SVGID_7_">
		<use xlink:href="#SVGID_4_"  overflow="visible"/>
	</clipPath>
	
		<line clip-path="url(#SVGID_7_)" fill="none" stroke="#B2B2B2" stroke-width="0.5" stroke-linecap="round" stroke-linejoin="round" stroke-miterlimit="10" x1="0.834" y1="189.111" x2="0.703" y2="189.111"/>
	
		<path clip-path="url(#SVGID_7_)" fill="none" stroke="#B2B2B2" stroke-width="0.5" stroke-linecap="round" stroke-linejoin="round" stroke-miterlimit="10" d="
		M62.187,203.099v-31.006 M33.292,203.099h28.895 M33.292,205.868h28.895 M0.307,189.111h0.396 M0.834,189.111h2.243 M3.078,189.111
		v13.987 M0.307,189.111v13.987"/>
	
		<path clip-path="url(#SVGID_7_)" fill="none" stroke="#B2B2B2" stroke-width="0.5" stroke-linecap="round" stroke-linejoin="round" stroke-miterlimit="10" d="
		M62.188,205.868h2.771 M64.958,203.099V176.05 M0.307,203.099v2.77 M0.307,205.868h2.771 M62.188,170.772v1.32 M3.078,189.111
		v-1.318 M3.078,187.793H0.307 M0.307,187.793v1.318 M0.307,189.111h2.771 M62.188,178.375h2.771 M62.188,200.5h2.771"/>
	
		<path clip-path="url(#SVGID_7_)" fill="none" stroke="#B2B2B2" stroke-width="0.5" stroke-linecap="round" stroke-linejoin="round" stroke-miterlimit="10" d="
		M31.973,203.099v0.923 M31.973,205.475v0.394 M28.146,205.868v-0.394 M28.146,204.021v-0.923 M28.146,203.099h3.827
		 M28.146,205.868h3.827"/>
	
		<path clip-path="url(#SVGID_7_)" fill="none" stroke="#B2B2B2" stroke-width="0.5" stroke-linecap="round" stroke-linejoin="round" stroke-miterlimit="10" d="
		M33.292,203.099h-1.319 M31.973,203.099v2.77 M31.973,205.868h1.319 M33.292,205.868v-2.77"/>
	
		<path clip-path="url(#SVGID_7_)" fill="none" stroke="#B2B2B2" stroke-width="0.5" stroke-linecap="round" stroke-linejoin="round" stroke-miterlimit="10" d="
		M3.078,203.099h23.617 M3.078,205.868h23.617"/>
	
		<path clip-path="url(#SVGID_7_)" fill="none" stroke="#B2B2B2" stroke-width="0.5" stroke-linecap="round" stroke-linejoin="round" stroke-miterlimit="10" d="
		M28.146,203.099h-1.451 M26.695,203.099v2.77 M26.695,205.868h1.451 M28.146,205.868v-2.77"/>
	
		<path clip-path="url(#SVGID_7_)" fill="none" stroke="#B2B2B2" stroke-width="0.5" stroke-linecap="round" stroke-linejoin="round" stroke-miterlimit="10" d="
		M92.798,203.099v-27.182 M95.701,175.917v27.182 M95.701,175.917h-2.903 M64.959,203.099h27.839 M95.701,205.868H0.307
		 M0.307,203.099v2.77 M95.701,205.868v-2.77"/>
	
		<path clip-path="url(#SVGID_7_)" fill="none" stroke="#B2B2B2" stroke-width="0.5" stroke-linecap="round" stroke-linejoin="round" stroke-miterlimit="10" d="
		M3.078,187.794v-17.021 M0.307,161.801v25.993 M0.307,187.794h2.771 M78.02,73.137l7.452-7.451 M84.618,66.54l-1.452-1.321
		 M83.166,65.219l-7.125,7.3 M99.264,49.122l-1.056,1.056"/>
</g>
<path fill="none" stroke="#B2B2B2" stroke-width="0.5" stroke-linecap="round" stroke-linejoin="round" stroke-miterlimit="10" d="
	M98.735,52.289l2.111,2.506 M100.847,54.795l1.715,2.904 M102.562,57.699l1.055,3.034"/>
<line fill="none" stroke="#B2B2B2" stroke-width="0.5" stroke-linecap="round" stroke-linejoin="round" stroke-miterlimit="10" x1="103.617" y1="60.733" x2="85.644" y2="65.551"/>
<path fill="none" stroke="#B2B2B2" stroke-width="0.5" stroke-linecap="round" stroke-linejoin="round" stroke-miterlimit="10" d="
	M99.195,51.579l-1.251-1.137 M97.944,50.442l0.264-0.264 M84.618,66.539l-1.452-1.32"/>
<g>
	<defs>
		<rect id="SVGID_3_" width="157.977" height="206.292"/>
	</defs>
	<clipPath id="SVGID_8_">
		<use xlink:href="#SVGID_3_"  overflow="visible"/>
	</clipPath>
	
		<path clip-path="url(#SVGID_8_)" fill="none" stroke="#B2B2B2" stroke-width="0.5" stroke-linecap="round" stroke-linejoin="round" stroke-miterlimit="10" d="
		M157.714,175.917V77.6 M157.714,75.378V9.671 M148.741,18.645V161.8"/>
</g>
<path fill="none" stroke="#B2B2B2" stroke-width="0.5" stroke-linecap="round" stroke-linejoin="round" stroke-miterlimit="10" d="
	M76.042,76.895l-0.396,1.387 M75.646,78.282l-1.188,2.637"/>
<line fill="none" stroke="#B2B2B2" stroke-width="0.5" stroke-linecap="round" stroke-linejoin="round" stroke-miterlimit="10" x1="74.458" y1="80.919" x2="60.208" y2="72.609"/>
<path fill="none" stroke="#B2B2B2" stroke-width="0.5" stroke-linecap="round" stroke-linejoin="round" stroke-miterlimit="10" d="
	M59.153,72.609V52.025 M59.153,32.827V18.644"/>
<path fill="none" stroke="#B2B2B2" stroke-width="0.5" stroke-linecap="round" stroke-linejoin="round" stroke-miterlimit="10" d="
	M115.096,170.772h2.243 M118.526,170.772h2.243 M107.972,170.772h2.243 M111.401,170.772h2.243 M110.874,170.772h9.896
	 M115.096,169.32h5.674 M107.972,169.32h5.674 M110.874,169.32h9.896"/>
<path fill="none" stroke="#B2B2B2" stroke-width="0.5" stroke-linecap="round" stroke-linejoin="round" stroke-miterlimit="10" d="
	M109.423,169.32h10.027 M119.45,170.772h-10.027"/>
<path fill="none" stroke="#B2B2B2" stroke-width="0.5" stroke-linecap="round" stroke-linejoin="round" stroke-miterlimit="10" d="
	M120.771,170.772h-1.32 M120.771,169.32v1.452 M119.45,169.32h1.32 M119.45,170.772v-1.452 M109.423,169.32v1.452 M107.971,169.32
	h1.452 M107.971,170.772v-1.452 M109.423,170.772h-1.452"/>
<path fill="none" stroke="#B2B2B2" stroke-width="0.5" stroke-linecap="round" stroke-linejoin="round" stroke-miterlimit="10" d="
	M120.77,170.772h-4.618 M112.59,170.772h-4.618 M120.77,169.32h-12.798"/>
<path fill="none" stroke="#B2B2B2" stroke-width="0.5" stroke-linecap="round" stroke-linejoin="round" stroke-miterlimit="10" d="
	M122.221,169.32h12.931 M107.972,169.32h12.798 M135.151,170.772h-12.93 M120.77,170.772h-12.798"/>
<path fill="none" stroke="#B2B2B2" stroke-width="0.5" stroke-linecap="round" stroke-linejoin="round" stroke-miterlimit="10" d="
	M136.47,170.772h-1.318 M136.47,169.32v1.452 M135.151,169.32h1.318 M135.151,170.772v-1.452 M122.222,169.32v1.452 M120.77,169.32
	h1.452 M120.77,170.772v-1.452 M122.222,170.772h-1.452 M107.972,169.32v1.452 M106.521,169.32h1.451 M106.521,170.772v-1.452
	 M107.972,170.772h-1.451"/>
<path fill="none" stroke="#B2B2B2" stroke-width="0.5" stroke-linecap="round" stroke-linejoin="round" stroke-miterlimit="10" d="
	M136.471,170.772v-1.451 M136.998,170.772h-0.527 M136.998,169.321v1.451 M136.471,169.321h0.527 M106.124,170.772v-1.451
	 M106.521,170.772h-0.396 M106.521,169.321v1.451 M106.124,169.321h0.396 M136.998,170.772v5.278 M106.124,176.051v-5.278
	 M136.998,176.051h-30.874 M136.998,170.772h-30.874 M136.998,170.772h-30.874 M106.124,169.321v-8.312 M136.998,161.01v8.312
	 M136.998,169.321h-30.874 M106.124,161.01h30.874"/>
<g>
	<defs>
		<rect id="SVGID_2_" width="157.977" height="206.292"/>
	</defs>
	<clipPath id="SVGID_9_">
		<use xlink:href="#SVGID_2_"  overflow="visible"/>
	</clipPath>
	
		<line clip-path="url(#SVGID_9_)" fill="none" stroke="#B2B2B2" stroke-width="0.5" stroke-linecap="round" stroke-linejoin="round" stroke-miterlimit="10" x1="157.714" y1="75.378" x2="157.714" y2="77.984"/>
	
		<path clip-path="url(#SVGID_9_)" fill="none" stroke="#B2B2B2" stroke-width="0.5" stroke-linecap="round" stroke-linejoin="round" stroke-miterlimit="10" d="
		M136.998,170.772v5.145 M136.998,175.917h20.716 M62.188,170.772v2.375 M62.188,173.147v2.77 M62.188,175.917h43.937
		 M106.124,175.917v-5.145"/>
	
		<line clip-path="url(#SVGID_9_)" fill="none" stroke="#B2B2B2" stroke-width="0.5" stroke-linecap="round" stroke-linejoin="round" stroke-miterlimit="10" x1="157.714" y1="9.671" x2="157.182" y2="9.671"/>
</g>
<path fill="none" stroke="#B2B2B2" stroke-width="0.5" stroke-linecap="round" stroke-linejoin="round" stroke-miterlimit="10" d="
	M82.901,9.671l-0.263-3.298 M82.639,6.374l-0.792-3.167 M81.847,3.206l-1.452-2.903"/>
<line fill="none" stroke="#B2B2B2" stroke-width="0.5" stroke-linecap="round" stroke-linejoin="round" stroke-miterlimit="10" x1="80.396" y1="0.304" x2="64.035" y2="9.671"/>
<path fill="none" stroke="#B2B2B2" stroke-width="0.5" stroke-linecap="round" stroke-linejoin="round" stroke-miterlimit="10" d="
	M64.147,9.671H5.716 M62.847,9.671v1.978 M84.09,11.649V9.671 M84.09,9.671h-1.187"/>
<g>
	<defs>
		<rect id="SVGID_1_" width="157.977" height="206.292"/>
	</defs>
	<clipPath id="SVGID_10_">
		<use xlink:href="#SVGID_1_"  overflow="visible"/>
	</clipPath>
	
		<line clip-path="url(#SVGID_10_)" fill="none" stroke="#B2B2B2" stroke-width="0.5" stroke-linecap="round" stroke-linejoin="round" stroke-miterlimit="10" x1="157.714" y1="37.512" x2="157.714" y2="9.672"/>
	
		<path clip-path="url(#SVGID_10_)" fill="none" stroke="#B2B2B2" stroke-width="0.5" stroke-linecap="round" stroke-linejoin="round" stroke-miterlimit="10" d="
		M157.714,50.573V38.7 M157.714,109.815V95.698"/>
</g>
</svg>
