<?xml version="1.0" encoding="utf-8"?>
<!-- Generator: Adobe Illustrator 15.0.2, SVG Export Plug-In  -->
<!DOCTYPE svg PUBLIC "-//W3C//DTD SVG 1.1//EN" "http://www.w3.org/Graphics/SVG/1.1/DTD/svg11.dtd" [
	<!ENTITY ns_flows "http://ns.adobe.com/Flows/1.0/">
]>
<svg version="1.1"
	 xmlns="http://www.w3.org/2000/svg" xmlns:xlink="http://www.w3.org/1999/xlink" xmlns:a="http://ns.adobe.com/AdobeSVGViewerExtensions/3.0/"
	 x="0px" y="0px" width="154px" height="206px" viewBox="0 0 154 206" enable-background="new 0 0 154 206" xml:space="preserve">
<defs>
</defs>
<polygon fill="#EDEDED" points="4.783,18.645 4.783,161.8 18.372,161.8 18.372,170.772 4.783,170.772 4.783,186.341 21.671,203.229 
	132.627,203.229 149.514,186.341 149.514,170.772 132.89,170.772 132.89,161.8 145.027,161.8 145.027,18.645 "/>
<g>
	<defs>
		<rect id="SVGID_4_" width="154.328" height="206.292"/>
	</defs>
	<clipPath id="SVGID_5_">
		<use xlink:href="#SVGID_4_"  overflow="visible"/>
	</clipPath>
	
		<path clip-path="url(#SVGID_5_)" fill="none" stroke="#B2B2B2" stroke-width="0.5" stroke-linecap="round" stroke-linejoin="round" stroke-miterlimit="10" d="
		M4.782,161.801h13.59 M18.372,161.801v8.972 M18.372,170.772H4.906 M55.445,161.801h25.991 M83.415,161.801h12.534 M95.948,161.801
		v8.972 M55.445,170.772v-8.972 M132.891,161.801h12.138 M129.264,151.5h15.696 M149.514,170.772h-16.623 M132.891,170.772v-8.972
		 M145.028,18.645h-42.086 M101.094,18.645h-4.75 M96.345,18.645V9.671 M96.345,9.671h57.64 M75.103,18.645h-19.13 M53.993,18.645
		H4.783 M0.296,9.671h74.807 M75.103,9.671v8.973"/>
	
		<path clip-path="url(#SVGID_5_)" fill="none" stroke="#B2B2B2" stroke-width="0.5" stroke-linecap="round" stroke-linejoin="round" stroke-miterlimit="10" d="
		M0.297,175.917V9.671 M4.783,18.645V161.8 M0.297,18.645h4.486"/>
	
		<path clip-path="url(#SVGID_5_)" fill="none" stroke="#B2B2B2" stroke-width="0.5" stroke-linecap="round" stroke-linejoin="round" stroke-miterlimit="10" d="
		M4.782,170.772v2.375 M4.782,173.147v2.771 M4.782,175.918H0.296 M11.149,170.772h1.271 M4.906,170.772h6.051"/>
</g>
<path fill="none" stroke="#B2B2B2" stroke-width="0.5" stroke-linecap="round" stroke-linejoin="round" stroke-miterlimit="10" d="
	M145.028,161.656V77.601 M129.263,151.5V77.226 M145.028,75.378V18.645 M154,9.671v166.246"/>
<g>
	<defs>
		<rect id="SVGID_3_" width="154.328" height="206.292"/>
	</defs>
	<clipPath id="SVGID_6_">
		<use xlink:href="#SVGID_3_"  overflow="visible"/>
	</clipPath>
	
		<path clip-path="url(#SVGID_6_)" fill="none" stroke="#B2B2B2" stroke-width="0.5" stroke-linecap="round" stroke-linejoin="round" stroke-miterlimit="10" d="
		M152.285,187.529v-11.612 M149.514,175.917v10.424 M152.285,187.529l-2.771,2.77 M149.514,175.917h2.771 M77.083,206.002h56.599
		 M132.627,203.229H95.948 M93.047,203.229H77.083 M136.585,203.229l-2.903,2.772 M136.585,203.229l12.929-12.931 M149.514,186.341
		l-16.887,16.889"/>
</g>
<path fill="none" stroke="#B2B2B2" stroke-width="0.5" stroke-linecap="round" stroke-linejoin="round" stroke-miterlimit="10" d="
	M102.942,37.512V51.76 M102.942,51.76h-1.849 M101.094,51.76V18.645 M102.942,73.004v2.374 M102.942,77.226h-1.849 M101.094,77.226
	v-4.222 M101.094,73.004h1.848 M101.094,18.645h1.848 M102.942,75.378h42.086 M145.028,77.226h-42.086 M145.028,75.378v1.847
	 M81.437,77.226h-2.639 M78.798,77.226l-1.979-1.847 M79.589,75.378h3.826 M76.819,75.378l-2.507-2.639 M74.312,72.739l1.319-1.319
	 M75.631,71.42l3.958,3.958 M59.272,57.699l-5.279-5.146 M53.993,52.552v-2.639 M55.973,51.76l4.617,4.62 M60.59,56.379
	l-1.318,1.319 M53.993,49.915v-31.27 M55.973,18.645V51.76 M53.993,18.645h1.98 M83.415,75.378v86.422 M81.437,161.801V77.226
	 M83.415,161.801h-1.979"/>
<g>
	<defs>
		<rect id="SVGID_2_" width="154.328" height="206.292"/>
	</defs>
	<clipPath id="SVGID_7_">
		<use xlink:href="#SVGID_2_"  overflow="visible"/>
	</clipPath>
	
		<path clip-path="url(#SVGID_7_)" fill="none" stroke="#B2B2B2" stroke-width="0.5" stroke-linecap="round" stroke-linejoin="round" stroke-miterlimit="10" d="
		M4.783,186.341v-10.424 M1.88,175.917v11.612 M4.783,190.299l-2.902-2.77 M1.88,175.917h2.902 M77.082,203.229H58.349
		 M55.445,203.229H21.67 M20.482,206.002h56.6 M20.482,206.002l-2.902-2.772 M21.67,203.229L4.783,186.341 M4.783,190.299
		l12.798,12.931"/>
</g>
<path fill="none" stroke="#B2B2B2" stroke-width="0.5" stroke-linecap="round" stroke-linejoin="round" stroke-miterlimit="10" d="
	M95.949,170.772v2.375 M95.949,173.147v2.771 M95.949,175.918H55.445 M95.949,178.438h-2.902 M58.347,178.438h-2.902
	 M95.949,201.251h-2.902 M58.347,201.251h-2.902 M55.445,175.918v-2.771 M55.445,173.147v-2.375 M153.984,175.918h-4.471
	 M149.514,175.918v-2.771 M149.514,173.147v-2.375 M141.302,170.772h1.402 M142.704,170.772h6.81"/>
<path fill="none" stroke="#B2B2B2" stroke-width="0.5" stroke-linecap="round" stroke-linejoin="round" stroke-miterlimit="10" d="
	M95.948,203.229v-27.313 M93.047,175.917v27.313 M93.047,175.917h2.902 M58.347,203.229v-27.313 M55.445,175.917v27.313
	 M55.445,175.917h2.902"/>
<path fill="none" stroke="#B2B2B2" stroke-width="0.5" stroke-linecap="round" stroke-linejoin="round" stroke-miterlimit="10" d="
	M73.389,71.949l-2.507,2.112 M70.88,74.061l-2.769,1.582 M68.111,75.643l-3.166,1.187"/>
<line fill="none" stroke="#B2B2B2" stroke-width="0.5" stroke-linecap="round" stroke-linejoin="round" stroke-miterlimit="10" x1="64.944" y1="76.83" x2="60.063" y2="58.622"/>
<path fill="none" stroke="#B2B2B2" stroke-width="0.5" stroke-linecap="round" stroke-linejoin="round" stroke-miterlimit="10" d="
	M75.631,71.42l-1.318,1.319 M74.188,72.615l-0.667-0.666 M59.938,58.365l-0.541-0.541 M59.271,57.699l1.318-1.319"/>
<path fill="none" stroke="#B2B2B2" stroke-width="0.5" stroke-linecap="round" stroke-linejoin="round" stroke-miterlimit="10" d="
	M102.942,52.948l3.298,0.265 M106.24,53.213l3.166,0.792 M109.406,54.005l3.034,1.452"/>
<line fill="none" stroke="#B2B2B2" stroke-width="0.5" stroke-linecap="round" stroke-linejoin="round" stroke-miterlimit="10" x1="112.44" y1="55.457" x2="102.941" y2="71.816"/>
<path fill="none" stroke="#B2B2B2" stroke-width="0.5" stroke-linecap="round" stroke-linejoin="round" stroke-miterlimit="10" d="
	M101.094,51.761h1.848 M102.941,51.856v0.996 M102.941,71.816v1.188 M102.941,73.004h-1.848"/>
<path fill="none" stroke="#B2B2B2" stroke-width="0.5" stroke-linecap="round" stroke-linejoin="round" stroke-miterlimit="10" d="
	M76.29,9.671l0.265-3.298 M76.555,6.374l0.791-3.167 M77.346,3.206l1.452-2.903"/>
<line fill="none" stroke="#B2B2B2" stroke-width="0.5" stroke-linecap="round" stroke-linejoin="round" stroke-miterlimit="10" x1="78.798" y1="0.304" x2="95.157" y2="9.671"/>
<path fill="none" stroke="#B2B2B2" stroke-width="0.5" stroke-linecap="round" stroke-linejoin="round" stroke-miterlimit="10" d="
	M95.284,9.671h0.892 M96.345,9.671v1.978 M75.103,11.649V9.671 M75.269,9.671h0.983"/>
<g>
	<defs>
		<rect id="SVGID_1_" width="154.328" height="206.292"/>
	</defs>
	<clipPath id="SVGID_8_">
		<use xlink:href="#SVGID_1_"  overflow="visible"/>
	</clipPath>
	
		<path clip-path="url(#SVGID_8_)" fill="none" stroke="#B2B2B2" stroke-width="0.5" stroke-linecap="round" stroke-linejoin="round" stroke-miterlimit="10" d="
		M153.984,9.672"/>
</g>
<path fill="none" stroke="#B2B2B2" stroke-width="0.5" stroke-linecap="round" stroke-linejoin="round" stroke-miterlimit="10" d="
	M100.039,77.226l-0.264,2.903 M99.775,80.129l-0.792,2.77 M98.983,82.899l-1.188,2.64"/>
<line fill="none" stroke="#B2B2B2" stroke-width="0.5" stroke-linecap="round" stroke-linejoin="round" stroke-miterlimit="10" x1="97.796" y1="85.539" x2="83.415" y2="77.226"/>
<path fill="none" stroke="#B2B2B2" stroke-width="0.5" stroke-linecap="round" stroke-linejoin="round" stroke-miterlimit="10" d="
	M101.094,75.642v1.583 M100.999,77.225h-0.975"/>
<path fill="none" stroke="#B2B2B2" stroke-width="0.5" stroke-linecap="round" stroke-linejoin="round" stroke-miterlimit="10" d="
	M140.938,28.54h0.132 M141.07,28.54h0.132 M141.202,28.54l0.132-0.133 M141.334,28.406l0.132-0.131 M141.466,28.275v-0.133
	 M141.466,28.145v-0.133 M141.466,28.012l-0.132-0.131 M141.334,27.88v-0.133 M141.334,27.748h-0.132 M141.202,27.748l-0.132-0.131
	 M141.07,27.617h-0.132 M140.938,27.617h-0.132 M140.807,27.617l-0.132,0.131 M140.674,27.748l-0.131,0.133 M140.542,27.88v0.131
	 M140.542,28.012v0.133 M140.542,28.143v0.133 M140.542,28.275v0.131 M140.543,28.406h0.131 M140.674,28.406v0.133 M140.674,28.54
	h0.133 M140.807,28.54h0.132 M143.84,35.003v-13.72 M142.39,36.325h0.396 M142.785,36.325l0.264-0.133 M143.049,36.191l0.264-0.264
	 M143.313,35.928l0.264-0.262 M143.577,35.666l0.132-0.265 M143.709,35.4l0.131-0.397 M112.704,36.325h29.686 M112.704,19.832
	l-1.451,0.131 M111.253,19.962l-1.583,0.398 M109.67,20.36l-1.318,0.79 M108.351,21.15l-1.187,0.923 M107.164,22.073l-1.056,1.057
	 M106.108,23.13l-0.792,1.318 M105.317,24.448l-0.528,1.452 M104.789,25.9l-0.264,1.452 M104.525,27.353v1.582 M104.525,28.935
	l0.264,1.452 M104.789,30.387l0.528,1.451 M105.317,31.837l0.791,1.319 M106.108,33.156l1.056,1.057 M107.164,34.213l1.187,0.923
	 M108.352,35.137l1.318,0.659 M109.67,35.795l1.583,0.396 M111.253,36.191l1.451,0.133 M142.39,19.832h-29.553 M143.84,21.284
	l-0.131-0.398 M143.709,20.887l-0.132-0.265 M143.577,20.622l-0.265-0.395 M143.313,20.227l-0.264-0.131 M143.049,20.096
	l-0.264-0.133 M142.785,19.962l-0.396-0.131 M102.942,37.513h42.086 M102.941,18.752v18.868 M145.028,18.645h-42.614
	 M145.028,37.513V18.645 M140.278,57.961h-0.132 M140.146,57.961l-0.132,0.132 M140.015,58.093h-0.132 M139.883,58.093v0.133
	 M139.883,58.227l-0.132,0.131 M139.751,58.357v0.133 M139.751,58.491v0.131 M139.751,58.623l0.132,0.133 M139.883,58.755
	l0.132,0.131 M140.015,58.887h0.132 M140.146,58.887h0.132 M140.278,58.887h0.132 M140.41,58.887h0.132 M140.542,58.887v-0.131
	 M140.543,58.755h0.131 M140.674,58.755v-0.133 M140.674,58.623v-0.132 M140.674,58.491v-0.133 M140.674,58.357v-0.131
	 M140.674,58.227l-0.131-0.133 M140.542,58.093l-0.132-0.132 M140.41,57.961h-0.131 M136.716,61.261v-5.673 M136.716,55.587
	l-1.188-0.395 M135.529,55.192l-1.188-0.264 M134.342,54.929h-1.319 M133.022,54.929l-1.32,0.131 M131.703,55.06l-1.188,0.264
	 M130.516,55.323l-1.056,0.395 M129.46,55.718l-0.924,0.528 M128.536,56.247l-0.659,0.659 M127.877,56.905l-0.527,0.793
	 M127.35,57.698l-0.133,0.792 M127.217,58.491l0.133,0.79 M127.35,59.28l0.527,0.662 M127.877,59.942l0.659,0.659 M128.536,60.602
	l0.924,0.659 M129.46,61.261l1.056,0.396 M130.516,61.656l1.187,0.264 M131.703,61.919l1.319,0.134 M133.022,62.054l1.319-0.134
	 M134.342,61.919l1.188-0.264 M135.529,61.656l1.187-0.396 M138.299,62.843l-0.263-0.264 M138.035,62.58l-0.131-0.264
	 M137.903,62.315v-0.262 M135.793,62.843h2.506 M135.793,54.136l-1.319-0.265 M134.474,53.872l-1.451-0.131 M133.022,53.741
	l-1.451,0.131 M131.571,53.872l-1.452,0.265 M130.119,54.136l-1.187,0.529 M128.933,54.664l-1.056,0.66 M127.877,55.323
	l-0.924,0.792 M126.953,56.116l-0.528,0.923 M126.425,57.039l-0.263,0.924 M126.162,57.961v0.924 M126.162,58.887l0.263,1.056
	 M126.425,59.942l0.528,0.79 M126.953,60.732l0.924,0.793 M127.877,61.525l1.056,0.659 M128.933,62.185l1.187,0.529 M130.119,62.713
	l1.452,0.395 M131.571,63.108l1.451,0.132 M133.022,63.241l1.451-0.132 M134.474,63.108l1.319-0.265 M138.299,54.136h-2.506
	 M137.903,54.929v-0.265 M137.903,54.664l0.132-0.395 M138.035,54.269l0.264-0.133 M137.903,62.054v-7.125 M142.654,62.054v-7.125
	 M141.466,63.241l0.264-0.132 M141.729,63.108l0.264-0.131 M141.993,62.978l0.264-0.134 M142.257,62.843l0.133-0.264 M142.39,62.58
	l0.132-0.264 M142.521,62.315l0.133-0.262 M139.091,63.241h2.375 M137.903,62.054v0.262 M137.903,62.315l0.132,0.264 M138.035,62.58
	l0.264,0.264 M138.3,62.843l0.132,0.134 M138.432,62.978l0.396,0.131 M138.827,63.108l0.264,0.132 M137.903,54.929v7.125
	 M139.091,53.741h-0.264 M138.827,53.741l-0.396,0.131 M138.432,53.872l-0.132,0.265 M138.299,54.136l-0.263,0.133 M138.035,54.269
	l-0.131,0.395 M137.903,54.664v0.265 M141.466,53.741h-2.375 M142.654,54.929l-0.133-0.265 M142.521,54.664l-0.132-0.395
	 M142.39,54.269l-0.133-0.133 M142.257,54.136l-0.264-0.265 M141.993,53.872l-0.264-0.131 M141.729,53.741h-0.264 M142.654,45.164
	h0.131 M142.785,45.164v-0.131 M142.785,45.033h0.132 M142.917,45.033l0.132-0.133 M143.049,44.899v-0.132 M143.049,44.768v-0.132
	 M143.049,44.636v-0.131 M143.049,44.504v-0.132 M143.049,44.373h-0.132 M142.917,44.373l-0.132-0.132 M142.785,44.241h-0.131
	 M142.654,44.241h-0.133 M142.521,44.241h-0.132 M142.39,44.241l-0.133,0.133 M142.257,44.373l-0.132,0.132 M142.125,44.504v0.131
	 M142.125,44.636v0.132 M142.125,44.768l0.132,0.132 M142.257,44.899v0.133 M142.257,45.033h0.133 M142.39,45.033l0.132,0.131
	 M142.521,45.164h0.133 M143.84,48.859v-8.446 M143.313,49.384h0.132 M143.445,49.384l0.132-0.13 M143.577,49.254h0.132
	 M143.709,49.254v-0.133 M143.709,49.122l0.131-0.131 M143.84,48.991v-0.131 M139.487,49.384h3.826 M139.091,48.859v0.131
	 M139.091,48.991v0.131 M139.091,49.122l0.133,0.133 M139.224,49.254h0.132 M139.355,49.254v0.13 M139.355,49.384h0.132
	 M139.091,40.414v8.446 M139.487,39.887h-0.132 M139.355,39.887v0.131 M139.355,40.018h-0.132 M139.224,40.018l-0.133,0.134
	 M139.091,40.151v0.131 M139.091,40.283v0.131"/>
<path fill="none" stroke="#B2B2B2" stroke-width="0.5" stroke-linecap="round" stroke-linejoin="round" stroke-miterlimit="10" d="
	M143.313,39.886h-3.826 M143.841,40.414v-0.131 M143.841,40.282l-0.132-0.131 M143.709,40.151v-0.133 M143.709,40.019h-0.132
	 M143.577,40.019l-0.133-0.132 M143.444,39.886h-0.132 M137.903,50.573h7.124 M137.903,38.699v11.874 M145.027,38.699h-7.124
	 M145.027,50.573V38.699 M130.779,109.815h14.248 M130.779,95.698v14.118 M145.027,95.698h-14.249 M145.027,109.815V95.697
	 M142.39,127.626h0.132 M142.521,127.626l0.132-0.131 M142.653,127.495l0.132-0.133 M142.786,127.362v-0.131 M142.786,127.231
	v-0.133 M142.786,127.1v-0.132 M142.786,126.968v-0.132 M142.786,126.836h-0.133 M142.653,126.836v-0.133 M142.653,126.703h-0.132
	 M142.521,126.703h-0.132 M142.39,126.703h-0.132 M142.258,126.703h-0.132 M142.126,126.703l-0.132,0.133 M141.994,126.836
	l-0.133,0.132 M141.861,126.968v0.132 M141.861,127.1v0.133 M141.861,127.231l0.133,0.131 M141.994,127.362v0.133 M141.994,127.495
	h0.132 M142.126,127.495l0.132,0.131 M142.258,127.626h0.132 M143.577,130.794v-7.389 M143.05,131.189h0.131 M143.182,131.189h0.131
	 M143.313,131.189l0.132-0.131 M143.444,131.059l0.133-0.133 M143.577,130.926v-0.132 M136.98,131.189h6.069 M136.453,130.794v0.132
	 M136.453,130.926l0.132,0.134 M136.585,131.059l0.131,0.131 M136.716,131.189h0.132 M136.849,131.189h0.131 M136.453,123.404v7.39
	 M136.98,123.01h-0.132 M136.849,123.01h-0.132 M136.716,123.01l-0.131,0.132 M136.585,123.142v0.133 M136.585,123.273l-0.132,0.131
	 M143.05,123.01h-6.07 M143.577,123.404l-0.133-0.131 M143.444,123.273v-0.133 M143.444,123.142l-0.132-0.132 M143.313,123.01
	h-0.131 M143.182,123.01h-0.132 M135.265,140.69h9.5 M135.265,121.822v18.868 M144.765,121.822h-9.5 M137.64,139.502v-7.125
	 M138.827,139.502v-7.125 M140.015,139.502v-7.125 M141.202,139.502v-7.125 M142.39,139.502v-7.125 M136.453,132.377v7.125
	 M143.577,139.502v-7.125"/>
<line fill="none" stroke="#B2B2B2" stroke-width="0.5" stroke-linecap="round" stroke-linejoin="round" stroke-miterlimit="10" x1="134.407" y1="108.673" x2="133.747" y2="108.542"/>
<line fill="none" stroke="#B2B2B2" stroke-width="0.5" stroke-linecap="round" stroke-linejoin="round" stroke-miterlimit="10" x1="133.748" y1="108.542" x2="133.22" y2="108.277"/>
<line fill="none" stroke="#B2B2B2" stroke-width="0.5" stroke-linecap="round" stroke-linejoin="round" stroke-miterlimit="10" x1="133.22" y1="108.278" x2="132.692" y2="108.014"/>
<line fill="none" stroke="#B2B2B2" stroke-width="0.5" stroke-linecap="round" stroke-linejoin="round" stroke-miterlimit="10" x1="132.692" y1="108.014" x2="132.296" y2="107.485"/>
<line fill="none" stroke="#B2B2B2" stroke-width="0.5" stroke-linecap="round" stroke-linejoin="round" stroke-miterlimit="10" x1="132.297" y1="107.485" x2="132.032" y2="106.957"/>
<line fill="none" stroke="#B2B2B2" stroke-width="0.5" stroke-linecap="round" stroke-linejoin="round" stroke-miterlimit="10" x1="132.032" y1="106.958" x2="132.032" y2="106.299"/>
<line fill="none" stroke="#B2B2B2" stroke-width="0.5" stroke-linecap="round" stroke-linejoin="round" stroke-miterlimit="10" x1="132.032" y1="106.298" x2="132.032" y2="105.64"/>
<line fill="none" stroke="#B2B2B2" stroke-width="0.5" stroke-linecap="round" stroke-linejoin="round" stroke-miterlimit="10" x1="132.032" y1="105.639" x2="132.296" y2="105.11"/>
<line fill="none" stroke="#B2B2B2" stroke-width="0.5" stroke-linecap="round" stroke-linejoin="round" stroke-miterlimit="10" x1="132.296" y1="105.11" x2="132.691" y2="104.582"/>
<line fill="none" stroke="#B2B2B2" stroke-width="0.5" stroke-linecap="round" stroke-linejoin="round" stroke-miterlimit="10" x1="132.692" y1="104.582" x2="133.219" y2="104.187"/>
<line fill="none" stroke="#B2B2B2" stroke-width="0.5" stroke-linecap="round" stroke-linejoin="round" stroke-miterlimit="10" x1="133.22" y1="104.187" x2="133.747" y2="104.057"/>
<line fill="none" stroke="#B2B2B2" stroke-width="0.5" stroke-linecap="round" stroke-linejoin="round" stroke-miterlimit="10" x1="133.748" y1="104.057" x2="134.407" y2="103.924"/>
<line fill="none" stroke="#B2B2B2" stroke-width="0.5" stroke-linecap="round" stroke-linejoin="round" stroke-miterlimit="10" x1="134.407" y1="103.923" x2="134.935" y2="104.056"/>
<line fill="none" stroke="#B2B2B2" stroke-width="0.5" stroke-linecap="round" stroke-linejoin="round" stroke-miterlimit="10" x1="134.935" y1="104.057" x2="135.595" y2="104.187"/>
<line fill="none" stroke="#B2B2B2" stroke-width="0.5" stroke-linecap="round" stroke-linejoin="round" stroke-miterlimit="10" x1="135.595" y1="104.187" x2="135.99" y2="104.583"/>
<line fill="none" stroke="#B2B2B2" stroke-width="0.5" stroke-linecap="round" stroke-linejoin="round" stroke-miterlimit="10" x1="135.99" y1="104.582" x2="136.386" y2="105.11"/>
<line fill="none" stroke="#B2B2B2" stroke-width="0.5" stroke-linecap="round" stroke-linejoin="round" stroke-miterlimit="10" x1="136.386" y1="105.11" x2="136.65" y2="105.64"/>
<line fill="none" stroke="#B2B2B2" stroke-width="0.5" stroke-linecap="round" stroke-linejoin="round" stroke-miterlimit="10" x1="136.65" y1="105.639" x2="136.781" y2="106.298"/>
<line fill="none" stroke="#B2B2B2" stroke-width="0.5" stroke-linecap="round" stroke-linejoin="round" stroke-miterlimit="10" x1="136.781" y1="106.298" x2="136.65" y2="106.957"/>
<line fill="none" stroke="#B2B2B2" stroke-width="0.5" stroke-linecap="round" stroke-linejoin="round" stroke-miterlimit="10" x1="136.65" y1="106.958" x2="136.386" y2="107.485"/>
<line fill="none" stroke="#B2B2B2" stroke-width="0.5" stroke-linecap="round" stroke-linejoin="round" stroke-miterlimit="10" x1="136.386" y1="107.485" x2="135.99" y2="108.014"/>
<line fill="none" stroke="#B2B2B2" stroke-width="0.5" stroke-linecap="round" stroke-linejoin="round" stroke-miterlimit="10" x1="135.99" y1="108.014" x2="135.594" y2="108.277"/>
<line fill="none" stroke="#B2B2B2" stroke-width="0.5" stroke-linecap="round" stroke-linejoin="round" stroke-miterlimit="10" x1="135.595" y1="108.278" x2="134.935" y2="108.543"/>
<line fill="none" stroke="#B2B2B2" stroke-width="0.5" stroke-linecap="round" stroke-linejoin="round" stroke-miterlimit="10" x1="134.935" y1="108.542" x2="134.408" y2="108.674"/>
<line fill="none" stroke="#B2B2B2" stroke-width="0.5" stroke-linecap="round" stroke-linejoin="round" stroke-miterlimit="10" x1="141.399" y1="101.548" x2="140.871" y2="101.548"/>
<line fill="none" stroke="#B2B2B2" stroke-width="0.5" stroke-linecap="round" stroke-linejoin="round" stroke-miterlimit="10" x1="140.872" y1="101.548" x2="140.213" y2="101.284"/>
<line fill="none" stroke="#B2B2B2" stroke-width="0.5" stroke-linecap="round" stroke-linejoin="round" stroke-miterlimit="10" x1="140.212" y1="101.284" x2="139.816" y2="100.889"/>
<line fill="none" stroke="#B2B2B2" stroke-width="0.5" stroke-linecap="round" stroke-linejoin="round" stroke-miterlimit="10" x1="139.816" y1="100.889" x2="139.421" y2="100.36"/>
<line fill="none" stroke="#B2B2B2" stroke-width="0.5" stroke-linecap="round" stroke-linejoin="round" stroke-miterlimit="10" x1="139.421" y1="100.361" x2="139.156" y2="99.832"/>
<line fill="none" stroke="#B2B2B2" stroke-width="0.5" stroke-linecap="round" stroke-linejoin="round" stroke-miterlimit="10" x1="139.156" y1="99.832" x2="139.024" y2="99.173"/>
<line fill="none" stroke="#B2B2B2" stroke-width="0.5" stroke-linecap="round" stroke-linejoin="round" stroke-miterlimit="10" x1="139.024" y1="99.173" x2="139.156" y2="98.646"/>
<line fill="none" stroke="#B2B2B2" stroke-width="0.5" stroke-linecap="round" stroke-linejoin="round" stroke-miterlimit="10" x1="139.156" y1="98.647" x2="139.422" y2="97.985"/>
<line fill="none" stroke="#B2B2B2" stroke-width="0.5" stroke-linecap="round" stroke-linejoin="round" stroke-miterlimit="10" x1="139.421" y1="97.985" x2="139.816" y2="97.59"/>
<line fill="none" stroke="#B2B2B2" stroke-width="0.5" stroke-linecap="round" stroke-linejoin="round" stroke-miterlimit="10" x1="139.816" y1="97.59" x2="140.212" y2="97.195"/>
<line fill="none" stroke="#B2B2B2" stroke-width="0.5" stroke-linecap="round" stroke-linejoin="round" stroke-miterlimit="10" x1="140.212" y1="97.195" x2="140.871" y2="96.931"/>
<line fill="none" stroke="#B2B2B2" stroke-width="0.5" stroke-linecap="round" stroke-linejoin="round" stroke-miterlimit="10" x1="140.872" y1="96.931" x2="141.399" y2="96.797"/>
<line fill="none" stroke="#B2B2B2" stroke-width="0.5" stroke-linecap="round" stroke-linejoin="round" stroke-miterlimit="10" x1="141.399" y1="96.798" x2="142.06" y2="96.931"/>
<line fill="none" stroke="#B2B2B2" stroke-width="0.5" stroke-linecap="round" stroke-linejoin="round" stroke-miterlimit="10" x1="142.06" y1="96.931" x2="142.587" y2="97.195"/>
<line fill="none" stroke="#B2B2B2" stroke-width="0.5" stroke-linecap="round" stroke-linejoin="round" stroke-miterlimit="10" x1="142.587" y1="97.195" x2="143.115" y2="97.59"/>
<line fill="none" stroke="#B2B2B2" stroke-width="0.5" stroke-linecap="round" stroke-linejoin="round" stroke-miterlimit="10" x1="143.115" y1="97.59" x2="143.511" y2="97.985"/>
<line fill="none" stroke="#B2B2B2" stroke-width="0.5" stroke-linecap="round" stroke-linejoin="round" stroke-miterlimit="10" x1="143.511" y1="97.985" x2="143.774" y2="98.647"/>
<line fill="none" stroke="#B2B2B2" stroke-width="0.5" stroke-linecap="round" stroke-linejoin="round" stroke-miterlimit="10" x1="143.774" y1="98.647" x2="143.774" y2="99.173"/>
<line fill="none" stroke="#B2B2B2" stroke-width="0.5" stroke-linecap="round" stroke-linejoin="round" stroke-miterlimit="10" x1="143.774" y1="99.173" x2="143.774" y2="99.832"/>
<line fill="none" stroke="#B2B2B2" stroke-width="0.5" stroke-linecap="round" stroke-linejoin="round" stroke-miterlimit="10" x1="143.774" y1="99.832" x2="143.511" y2="100.361"/>
<line fill="none" stroke="#B2B2B2" stroke-width="0.5" stroke-linecap="round" stroke-linejoin="round" stroke-miterlimit="10" x1="143.511" y1="100.361" x2="143.114" y2="100.889"/>
<line fill="none" stroke="#B2B2B2" stroke-width="0.5" stroke-linecap="round" stroke-linejoin="round" stroke-miterlimit="10" x1="143.115" y1="100.889" x2="142.587" y2="101.284"/>
<line fill="none" stroke="#B2B2B2" stroke-width="0.5" stroke-linecap="round" stroke-linejoin="round" stroke-miterlimit="10" x1="142.587" y1="101.284" x2="142.059" y2="101.548"/>
<line fill="none" stroke="#B2B2B2" stroke-width="0.5" stroke-linecap="round" stroke-linejoin="round" stroke-miterlimit="10" x1="142.06" y1="101.548" x2="141.399" y2="101.548"/>
<line fill="none" stroke="#B2B2B2" stroke-width="0.5" stroke-linecap="round" stroke-linejoin="round" stroke-miterlimit="10" x1="141.399" y1="107.881" x2="141.004" y2="107.881"/>
<line fill="none" stroke="#B2B2B2" stroke-width="0.5" stroke-linecap="round" stroke-linejoin="round" stroke-miterlimit="10" x1="141.004" y1="107.881" x2="140.607" y2="107.75"/>
<line fill="none" stroke="#B2B2B2" stroke-width="0.5" stroke-linecap="round" stroke-linejoin="round" stroke-miterlimit="10" x1="140.607" y1="107.75" x2="140.344" y2="107.485"/>
<line fill="none" stroke="#B2B2B2" stroke-width="0.5" stroke-linecap="round" stroke-linejoin="round" stroke-miterlimit="10" x1="140.345" y1="107.485" x2="140.08" y2="107.091"/>
<line fill="none" stroke="#B2B2B2" stroke-width="0.5" stroke-linecap="round" stroke-linejoin="round" stroke-miterlimit="10" x1="140.08" y1="107.09" x2="139.816" y2="106.693"/>
<line fill="none" stroke="#B2B2B2" stroke-width="0.5" stroke-linecap="round" stroke-linejoin="round" stroke-miterlimit="10" x1="139.816" y1="106.693" x2="139.816" y2="106.298"/>
<line fill="none" stroke="#B2B2B2" stroke-width="0.5" stroke-linecap="round" stroke-linejoin="round" stroke-miterlimit="10" x1="139.816" y1="106.298" x2="139.816" y2="105.903"/>
<line fill="none" stroke="#B2B2B2" stroke-width="0.5" stroke-linecap="round" stroke-linejoin="round" stroke-miterlimit="10" x1="139.816" y1="105.903" x2="140.08" y2="105.505"/>
<line fill="none" stroke="#B2B2B2" stroke-width="0.5" stroke-linecap="round" stroke-linejoin="round" stroke-miterlimit="10" x1="140.08" y1="105.506" x2="140.344" y2="105.11"/>
<line fill="none" stroke="#B2B2B2" stroke-width="0.5" stroke-linecap="round" stroke-linejoin="round" stroke-miterlimit="10" x1="140.345" y1="105.11" x2="140.608" y2="104.847"/>
<line fill="none" stroke="#B2B2B2" stroke-width="0.5" stroke-linecap="round" stroke-linejoin="round" stroke-miterlimit="10" x1="140.607" y1="104.847" x2="141.004" y2="104.715"/>
<line fill="none" stroke="#B2B2B2" stroke-width="0.5" stroke-linecap="round" stroke-linejoin="round" stroke-miterlimit="10" x1="141.004" y1="104.716" x2="141.4" y2="104.582"/>
<line fill="none" stroke="#B2B2B2" stroke-width="0.5" stroke-linecap="round" stroke-linejoin="round" stroke-miterlimit="10" x1="141.399" y1="104.582" x2="141.928" y2="104.716"/>
<line fill="none" stroke="#B2B2B2" stroke-width="0.5" stroke-linecap="round" stroke-linejoin="round" stroke-miterlimit="10" x1="141.928" y1="104.716" x2="142.323" y2="104.847"/>
<line fill="none" stroke="#B2B2B2" stroke-width="0.5" stroke-linecap="round" stroke-linejoin="round" stroke-miterlimit="10" x1="142.323" y1="104.847" x2="142.587" y2="105.11"/>
<line fill="none" stroke="#B2B2B2" stroke-width="0.5" stroke-linecap="round" stroke-linejoin="round" stroke-miterlimit="10" x1="142.587" y1="105.11" x2="142.851" y2="105.505"/>
<line fill="none" stroke="#B2B2B2" stroke-width="0.5" stroke-linecap="round" stroke-linejoin="round" stroke-miterlimit="10" x1="142.852" y1="105.506" x2="142.982" y2="105.903"/>
<line fill="none" stroke="#B2B2B2" stroke-width="0.5" stroke-linecap="round" stroke-linejoin="round" stroke-miterlimit="10" x1="142.982" y1="105.903" x2="143.114" y2="106.298"/>
<line fill="none" stroke="#B2B2B2" stroke-width="0.5" stroke-linecap="round" stroke-linejoin="round" stroke-miterlimit="10" x1="143.115" y1="106.298" x2="142.982" y2="106.693"/>
<line fill="none" stroke="#B2B2B2" stroke-width="0.5" stroke-linecap="round" stroke-linejoin="round" stroke-miterlimit="10" x1="142.982" y1="106.693" x2="142.852" y2="107.09"/>
<line fill="none" stroke="#B2B2B2" stroke-width="0.5" stroke-linecap="round" stroke-linejoin="round" stroke-miterlimit="10" x1="142.851" y1="107.09" x2="142.587" y2="107.485"/>
<line fill="none" stroke="#B2B2B2" stroke-width="0.5" stroke-linecap="round" stroke-linejoin="round" stroke-miterlimit="10" x1="142.587" y1="107.485" x2="142.323" y2="107.749"/>
<line fill="none" stroke="#B2B2B2" stroke-width="0.5" stroke-linecap="round" stroke-linejoin="round" stroke-miterlimit="10" x1="142.323" y1="107.75" x2="141.928" y2="107.881"/>
<line fill="none" stroke="#B2B2B2" stroke-width="0.5" stroke-linecap="round" stroke-linejoin="round" stroke-miterlimit="10" x1="141.928" y1="107.881" x2="141.399" y2="107.881"/>
<line fill="none" stroke="#B2B2B2" stroke-width="0.5" stroke-linecap="round" stroke-linejoin="round" stroke-miterlimit="10" x1="134.407" y1="100.889" x2="133.879" y2="100.758"/>
<line fill="none" stroke="#B2B2B2" stroke-width="0.5" stroke-linecap="round" stroke-linejoin="round" stroke-miterlimit="10" x1="133.879" y1="100.757" x2="133.483" y2="100.625"/>
<line fill="none" stroke="#B2B2B2" stroke-width="0.5" stroke-linecap="round" stroke-linejoin="round" stroke-miterlimit="10" x1="133.483" y1="100.625" x2="133.22" y2="100.36"/>
<line fill="none" stroke="#B2B2B2" stroke-width="0.5" stroke-linecap="round" stroke-linejoin="round" stroke-miterlimit="10" x1="133.22" y1="100.361" x2="132.955" y2="99.966"/>
<line fill="none" stroke="#B2B2B2" stroke-width="0.5" stroke-linecap="round" stroke-linejoin="round" stroke-miterlimit="10" x1="132.955" y1="99.965" x2="132.824" y2="99.57"/>
<line fill="none" stroke="#B2B2B2" stroke-width="0.5" stroke-linecap="round" stroke-linejoin="round" stroke-miterlimit="10" x1="132.824" y1="99.57" x2="132.692" y2="99.172"/>
<line fill="none" stroke="#B2B2B2" stroke-width="0.5" stroke-linecap="round" stroke-linejoin="round" stroke-miterlimit="10" x1="132.692" y1="99.173" x2="132.824" y2="98.777"/>
<line fill="none" stroke="#B2B2B2" stroke-width="0.5" stroke-linecap="round" stroke-linejoin="round" stroke-miterlimit="10" x1="132.824" y1="98.777" x2="132.955" y2="98.382"/>
<line fill="none" stroke="#B2B2B2" stroke-width="0.5" stroke-linecap="round" stroke-linejoin="round" stroke-miterlimit="10" x1="132.955" y1="98.382" x2="133.22" y2="97.985"/>
<line fill="none" stroke="#B2B2B2" stroke-width="0.5" stroke-linecap="round" stroke-linejoin="round" stroke-miterlimit="10" x1="133.22" y1="97.985" x2="133.483" y2="97.721"/>
<line fill="none" stroke="#B2B2B2" stroke-width="0.5" stroke-linecap="round" stroke-linejoin="round" stroke-miterlimit="10" x1="133.483" y1="97.721" x2="133.88" y2="97.59"/>
<line fill="none" stroke="#B2B2B2" stroke-width="0.5" stroke-linecap="round" stroke-linejoin="round" stroke-miterlimit="10" x1="133.879" y1="97.59" x2="134.407" y2="97.59"/>
<line fill="none" stroke="#B2B2B2" stroke-width="0.5" stroke-linecap="round" stroke-linejoin="round" stroke-miterlimit="10" x1="134.407" y1="97.59" x2="134.804" y2="97.59"/>
<line fill="none" stroke="#B2B2B2" stroke-width="0.5" stroke-linecap="round" stroke-linejoin="round" stroke-miterlimit="10" x1="134.803" y1="97.59" x2="135.199" y2="97.721"/>
<line fill="none" stroke="#B2B2B2" stroke-width="0.5" stroke-linecap="round" stroke-linejoin="round" stroke-miterlimit="10" x1="135.198" y1="97.721" x2="135.595" y2="97.985"/>
<line fill="none" stroke="#B2B2B2" stroke-width="0.5" stroke-linecap="round" stroke-linejoin="round" stroke-miterlimit="10" x1="135.595" y1="97.985" x2="135.857" y2="98.382"/>
<line fill="none" stroke="#B2B2B2" stroke-width="0.5" stroke-linecap="round" stroke-linejoin="round" stroke-miterlimit="10" x1="135.858" y1="98.382" x2="135.99" y2="98.777"/>
<line fill="none" stroke="#B2B2B2" stroke-width="0.5" stroke-linecap="round" stroke-linejoin="round" stroke-miterlimit="10" x1="135.99" y1="98.777" x2="135.99" y2="99.173"/>
<line fill="none" stroke="#B2B2B2" stroke-width="0.5" stroke-linecap="round" stroke-linejoin="round" stroke-miterlimit="10" x1="135.99" y1="99.173" x2="135.99" y2="99.571"/>
<line fill="none" stroke="#B2B2B2" stroke-width="0.5" stroke-linecap="round" stroke-linejoin="round" stroke-miterlimit="10" x1="135.99" y1="99.57" x2="135.858" y2="99.965"/>
<line fill="none" stroke="#B2B2B2" stroke-width="0.5" stroke-linecap="round" stroke-linejoin="round" stroke-miterlimit="10" x1="135.858" y1="99.965" x2="135.595" y2="100.36"/>
<line fill="none" stroke="#B2B2B2" stroke-width="0.5" stroke-linecap="round" stroke-linejoin="round" stroke-miterlimit="10" x1="135.595" y1="100.361" x2="135.199" y2="100.625"/>
<line fill="none" stroke="#B2B2B2" stroke-width="0.5" stroke-linecap="round" stroke-linejoin="round" stroke-miterlimit="10" x1="135.198" y1="100.625" x2="134.803" y2="100.757"/>
<line fill="none" stroke="#B2B2B2" stroke-width="0.5" stroke-linecap="round" stroke-linejoin="round" stroke-miterlimit="10" x1="134.803" y1="100.757" x2="134.407" y2="100.889"/>
</svg>
