<?xml version="1.0" encoding="utf-8"?>
<!-- Generator: Adobe Illustrator 15.0.2, SVG Export Plug-In  -->
<!DOCTYPE svg PUBLIC "-//W3C//DTD SVG 1.1//EN" "http://www.w3.org/Graphics/SVG/1.1/DTD/svg11.dtd" [
	<!ENTITY ns_flows "http://ns.adobe.com/Flows/1.0/">
]>
<svg version="1.1"
	 xmlns="http://www.w3.org/2000/svg" xmlns:xlink="http://www.w3.org/1999/xlink" xmlns:a="http://ns.adobe.com/AdobeSVGViewerExtensions/3.0/"
	 x="0px" y="0px" width="192px" height="202px" viewBox="-0.155 -1.045 192 202" enable-background="new -0.155 -1.045 192 202"
	 xml:space="preserve">
<defs>
</defs>
<path fill="none" stroke="#938B84" stroke-width="2" stroke-linecap="round" stroke-linejoin="round" stroke-miterlimit="10" d="
	M53.776,139.786c-1.938-49.137,50.512-43.964,38.445-95.672c0,0-0.518,10.547-6.896,14.641c-6.158,3.952-12.586,1.227-15.172,1.077
	c-2.585-0.149-6.163,5.171-10.26,9.267c-9.095,9.095-25.082-3.879-12.801-16.162C58.131,41.9,78.56,16.086,78.56,16.086L76.834,1
	l11.188,7.358c4.111-5.31,10.366-3.693,10.366-3.693c36.204,8.618,54.988,34.265,53.793,63.572
	c-1.089,26.718-14.144,45.935-14.144,71.549"/>
<path fill="none" stroke="#938B84" stroke-width="2" stroke-linecap="round" stroke-linejoin="round" stroke-miterlimit="10" d="
	M145.667,145.604c0,3.214-2.605,5.819-5.818,5.819H51.924c-3.214,0-5.82-2.605-5.82-5.819c0-3.213,2.606-5.818,5.82-5.818h87.925
	C143.062,139.785,145.667,142.391,145.667,145.604z"/>
<path fill="none" stroke="#938B84" stroke-width="2" stroke-linecap="round" stroke-linejoin="round" stroke-miterlimit="10" d="
	M153.65,188.004c0,3.214-2.604,5.819-5.818,5.819H43.939c-3.213,0-5.818-2.605-5.818-5.819s2.605-5.819,5.818-5.819h103.893
	C151.046,182.185,153.65,184.79,153.65,188.004z"/>
<path fill="none" stroke="#938B84" stroke-width="2" stroke-linecap="round" stroke-linejoin="round" stroke-miterlimit="10" d="
	M124.469,166.804c0-8.494,6.886-15.381,15.38-15.381H51.924c8.494,0,15.382,6.887,15.382,15.381c0,8.495-6.888,15.381-15.382,15.381
	h87.925C131.354,182.185,124.469,175.299,124.469,166.804z"/>
<line fill="none" stroke="#938B84" stroke-width="2" stroke-linecap="round" stroke-linejoin="round" stroke-miterlimit="10" x1="9.126" y1="193.822" x2="182.646" y2="193.822"/>
<line fill="none" stroke="#938B84" stroke-width="2" stroke-linecap="round" stroke-linejoin="round" stroke-miterlimit="10" x1="153.954" y1="190.024" x2="170.685" y2="190.024"/>
<line fill="none" stroke="#938B84" stroke-width="2" stroke-linecap="round" stroke-linejoin="round" stroke-miterlimit="10" x1="21.017" y1="190.024" x2="38.359" y2="190.024"/>
<line fill="none" stroke="#938B84" stroke-width="2" stroke-linecap="round" stroke-linejoin="round" stroke-miterlimit="10" x1="42.628" y1="198.591" x2="149.145" y2="198.591"/>
<circle fill="none" stroke="#938B84" stroke-width="2" stroke-linecap="round" stroke-linejoin="round" stroke-miterlimit="10" cx="2.465" cy="193.822" r="1.465"/>
<circle fill="none" stroke="#938B84" stroke-width="2" stroke-linecap="round" stroke-linejoin="round" stroke-miterlimit="10" cx="189.306" cy="193.822" r="1.467"/>
<path fill="none" stroke="#938B84" stroke-width="2" stroke-linecap="round" stroke-linejoin="round" stroke-miterlimit="10" d="
	M87.122,41.164c0,0,1.229,9.69-4.851,13.592c-5.866,3.767-10.452-0.481-14.654,0.82c-3.603,1.114-6.71,5.712-10.613,9.616
	c-3.395,3.394-7.783,2.624-8.996-0.753"/>
<path fill="none" stroke="#938B84" stroke-width="2" stroke-linecap="round" stroke-linejoin="round" stroke-miterlimit="10" d="
	M99.789,9.166c41.263,12.521,47.942,41.087,47.942,58.22c0,22.843-13.789,42.013-13.789,72.4"/>
<path fill="none" stroke="#938B84" stroke-width="2" stroke-linecap="round" stroke-linejoin="round" stroke-miterlimit="10" d="
	M74.199,35.063c0,0.608-0.493,1.099-1.098,1.099c-0.608,0-1.103-0.491-1.103-1.099s0.494-1.1,1.103-1.1
	C73.706,33.963,74.199,34.455,74.199,35.063z"/>
<path fill="none" stroke="#938B84" stroke-width="2" stroke-linecap="round" stroke-linejoin="round" stroke-miterlimit="10" d="
	M70.556,32.114c1.192-1.779,4.16-1.658,5.092-0.049"/>
<path fill="none" stroke="#938B84" stroke-width="2" stroke-linecap="round" stroke-linejoin="round" stroke-miterlimit="10" d="
	M75.972,101.048c-11.314,9.967-17.297,21.335-17.297,38.306"/>
<path fill="none" stroke="#938B84" stroke-width="2" stroke-linecap="round" stroke-linejoin="round" stroke-miterlimit="10" d="
	M51.924,147.354h87.925c0.934,0,1.984-0.813,1.984-1.751"/>
<path fill="none" stroke="#938B84" stroke-width="2" stroke-linecap="round" stroke-linejoin="round" stroke-miterlimit="10" d="
	M43.647,190.024h103.44c1.857,0,2.504-1.539,2.504-2.479"/>
<path fill="none" stroke="#938B84" stroke-width="2" stroke-linecap="round" stroke-linejoin="round" stroke-miterlimit="10" d="
	M68.698,155.517h55.063c0,0-3.72,3.665-3.72,11.287c0,7.623,3.72,11.18,3.72,11.18"/>
<path fill="none" stroke="#938B84" stroke-width="2" stroke-linecap="round" stroke-linejoin="round" stroke-miterlimit="10" d="
	M133.47,84.611c0,0,7.759,4.615,8.2,13.16"/>
<path fill="none" stroke="#938B84" stroke-width="2" stroke-linecap="round" stroke-linejoin="round" stroke-miterlimit="10" d="
	M128.037,102.115c0,0,7.979,4.216,8.854,12.729"/>
<path fill="none" stroke="#938B84" stroke-width="2" stroke-linecap="round" stroke-linejoin="round" stroke-miterlimit="10" d="
	M123.761,120.768c0,0,8.454,3.154,10.418,11.481"/>
<path fill="none" stroke="#938B84" stroke-width="2" stroke-linecap="round" stroke-linejoin="round" stroke-miterlimit="10" d="
	M135.882,68.235c0,0,8.483,3.074,10.524,11.383"/>
<path fill="none" stroke="#938B84" stroke-width="2" stroke-linecap="round" stroke-linejoin="round" stroke-miterlimit="10" d="
	M133.975,52.956c0,0,9.001,0.663,13.216,8.109"/>
<path fill="none" stroke="#938B84" stroke-width="2" stroke-linecap="round" stroke-linejoin="round" stroke-miterlimit="10" d="
	M127.429,39.05c0,0,7.234-2.926,14.255,1.967"/>
<path fill="none" stroke="#938B84" stroke-width="2" stroke-linecap="round" stroke-linejoin="round" stroke-miterlimit="10" d="
	M117.909,27.166c0,0,4.668-5.777,12.615-1.011"/>
<path fill="none" stroke="#938B84" stroke-width="2" stroke-linecap="round" stroke-linejoin="round" stroke-miterlimit="10" d="
	M105.793,19.888c0,0,2.463-5.4,9.68-4.361"/>
<path fill="none" stroke="#938B84" stroke-width="2" stroke-linecap="round" stroke-linejoin="round" stroke-miterlimit="10" d="
	M94.515,11.835c0,0,2.029-3.307,5.274-2.669"/>
</svg>
