<?xml version="1.0" encoding="utf-8"?>
<!-- Generator: Adobe Illustrator 15.0.2, SVG Export Plug-In  -->
<!DOCTYPE svg PUBLIC "-//W3C//DTD SVG 1.1//EN" "http://www.w3.org/Graphics/SVG/1.1/DTD/svg11.dtd" [
	<!ENTITY ns_flows "http://ns.adobe.com/Flows/1.0/">
]>
<svg version="1.1"
	 xmlns="http://www.w3.org/2000/svg" xmlns:xlink="http://www.w3.org/1999/xlink" xmlns:a="http://ns.adobe.com/AdobeSVGViewerExtensions/3.0/"
	 x="0px" y="0px" width="59px" height="48px" viewBox="-1.518 -1.208 59 48" enable-background="new -1.518 -1.208 59 48"
	 xml:space="preserve">
<defs>
</defs>
<path fill="#4ab931" d="M56.077,44.16h-4.986v-2.212c1.694-0.466,2.955-2.185,2.955-4.228c0-2.401-1.74-4.355-3.878-4.355
	s-3.878,1.954-3.878,4.355c0,2.043,1.261,3.762,2.955,4.228v2.212h-4.063v-9.457c1.799-1.248,2.955-3.17,2.955-5.324
	c0-1.788-0.829-6.362-2.061-10.324c-1.729-5.559-3.613-8.261-5.757-8.261c-1.611,0-3.074,1.535-4.444,4.673
	C33.3,8.104,29.557,0.947,29.319,0.493C29.159,0.19,28.844,0,28.5,0c-0.343,0-0.658,0.19-0.817,0.493
	c-0.02,0.038-2.001,3.813-4.067,8.639c-2.524,5.891-4.088,10.74-4.657,14.436c-0.088-0.01-0.177-0.016-0.267-0.016
	c-1.613,0-3.013,1.715-4.274,5.24c-0.229-1.754-0.7-4.191-1.313-6.39c-0.801-2.877-2.123-6.701-4.343-6.701
	c-2.221,0-3.542,3.824-4.343,6.701c-0.876,3.146-1.464,6.781-1.464,8.203c0,2.79,2.14,5.106,4.924,5.517v8.038H0.924
	C0.414,44.16,0,44.572,0,45.08C0,45.588,0.414,46,0.924,46h55.153C56.588,46,57,45.588,57,45.08
	C57,44.572,56.588,44.16,56.077,44.16 M48.137,37.72c0-1.388,0.911-2.516,2.031-2.516s2.031,1.128,2.031,2.516
	c0,1.386-0.911,2.514-2.031,2.514S48.137,39.106,48.137,37.72 M43.336,44.16h-2.093v-8.022c0.732-0.075,1.436-0.238,2.093-0.479
	V44.16z M15.636,39.419c0.627,0.311,1.335,0.527,2.092,0.628v4.112h-2.092V39.419z M19.575,40.059
	c1.18-0.144,2.243-0.569,3.078-1.188v5.288h-3.078V40.059z M24.499,35.334c0.973,0.436,2.011,0.707,3.078,0.808v8.018h-3.078V35.334
	z M29.424,36.142c1.473-0.138,2.852-0.604,4.063-1.32v9.338h-4.063V36.142z M37.328,30.643l2.067,2.061v1.582
	c-1.323-0.17-2.53-0.704-3.45-1.532C36.492,32.116,36.959,31.408,37.328,30.643 M35.334,34.624c1.154,0.835,2.558,1.362,4.062,1.516
	v8.021h-4.062V34.624z M38.691,14.066c0.597-0.909,1.19-1.432,1.628-1.432c0.24,0,0.905,0.181,1.887,1.849
	c0.714,1.213,1.441,2.982,2.105,5.117c1.274,4.092,1.979,8.38,1.979,9.778c0,2.479-2.192,4.537-5.047,4.908v-3.546l2.684-2.675
	c0.36-0.358,0.36-0.942,0-1.3c-0.36-0.36-0.945-0.36-1.306,0l-1.378,1.373v-1.705c0-0.508-0.414-0.92-0.924-0.92
	c-0.511,0-0.924,0.412-0.924,0.92v3.667l-1.379-1.373c-0.001-0.001-0.003-0.003-0.004-0.004c0.179-0.735,0.275-1.501,0.275-2.29
	c0-2.34-0.609-5.221-1.509-8.203C37.403,16.45,38.046,15.049,38.691,14.066 M28.5,2.963c2.177,4.392,7.941,16.67,7.941,23.471
	c0,4.052-3.072,7.399-7.018,7.856v-6.493l3.669-3.656c0.361-0.359,0.361-0.942,0-1.301c-0.361-0.36-0.945-0.36-1.306,0l-2.363,2.354
	v-3.666c0-0.508-0.413-0.92-0.924-0.92c-0.509,0-0.923,0.412-0.923,0.92v6.611l-2.363-2.355c-0.361-0.359-0.946-0.359-1.306,0
	c-0.36,0.359-0.36,0.942,0,1.301l3.669,3.656v3.552c-1.21-0.141-2.37-0.554-3.396-1.218c-0.005-0.004-0.011-0.006-0.015-0.009
	c-0.257-1.245-0.651-2.73-1.149-4.141c-0.726-2.061-1.498-3.517-2.33-4.388C21.546,17.535,26.516,6.968,28.5,2.963 M16.111,29.534
	c1.155-3.275,2.193-4.142,2.58-4.142c0.389,0,1.428,0.866,2.584,4.142c0.887,2.518,1.378,5.132,1.378,5.979
	c0,1.285-1.341,2.397-3.078,2.687v-1.951c0-0.508-0.413-0.92-0.923-0.92c-0.511,0-0.925,0.412-0.925,0.92v1.938
	c-1.697-0.31-2.995-1.408-2.995-2.673C14.732,34.666,15.223,32.051,16.111,29.534 M4.802,30.605c0-1.102,0.497-4.481,1.397-7.711
	c1.236-4.444,2.336-5.353,2.563-5.353s1.326,0.909,2.563,5.353c0.898,3.229,1.396,6.609,1.396,7.711
	c0,1.749-1.276,3.221-2.996,3.629v-1.911c0-0.508-0.413-0.92-0.923-0.92s-0.924,0.412-0.924,0.92v1.929
	C6.119,33.871,4.802,32.382,4.802,30.605 M9.726,36.108c1.271-0.205,2.403-0.809,3.253-1.672c-0.061,0.436-0.093,0.804-0.093,1.076
	c0,0.903,0.332,1.747,0.903,2.459v6.188H9.726V36.108z"/>
</svg>
