<?xml version="1.0" encoding="utf-8"?>
<!-- Generator: Adobe Illustrator 15.0.2, SVG Export Plug-In  -->
<!DOCTYPE svg PUBLIC "-//W3C//DTD SVG 1.1//EN" "http://www.w3.org/Graphics/SVG/1.1/DTD/svg11.dtd" [
	<!ENTITY ns_flows "http://ns.adobe.com/Flows/1.0/">
]>
<svg version="1.1"
	 xmlns="http://www.w3.org/2000/svg" xmlns:xlink="http://www.w3.org/1999/xlink" xmlns:a="http://ns.adobe.com/AdobeSVGViewerExtensions/3.0/"
	 x="0px" y="0px" width="281px" height="178px" viewBox="-1.092 -0.597 281 178" enable-background="new -1.092 -0.597 281 178"
	 xml:space="preserve">
<defs>
</defs>
<path fill="none" stroke="#938B84" stroke-width="2" stroke-linecap="round" stroke-linejoin="round" stroke-miterlimit="10" d="
	M231.332,114.416v20.873c0,1.559-1.275,2.834-2.834,2.834H3.834c-1.559,0-2.834-1.275-2.834-2.834V3.834C1,2.275,2.275,1,3.834,1
	h224.664c1.559,0,2.834,1.275,2.834,2.834v48.944"/>
<polyline fill="none" stroke="#938B84" stroke-width="2" stroke-linecap="round" stroke-linejoin="round" stroke-miterlimit="10" points="
	222.662,105.676 222.662,124.059 9.67,124.059 9.67,10.096 222.662,10.096 222.662,49.096 "/>
<polyline fill="none" stroke="#938B84" stroke-width="2" stroke-linecap="round" stroke-linejoin="round" stroke-miterlimit="10" points="
	136.955,168.55 157.392,168.55 157.392,174.51 74.945,174.51 74.945,168.55 95.383,168.55 "/>
<path fill="none" stroke="#938B84" stroke-width="2" stroke-linecap="round" stroke-linejoin="round" stroke-miterlimit="10" d="
	M9.67,53.312c74.763-32.027,100.906,41.583,172.483-17.39"/>
<path fill="none" stroke="#938B84" stroke-width="2" stroke-linecap="round" stroke-linejoin="round" stroke-miterlimit="10" d="
	M87.247,10.513c0,0,45.914,49.667,92.878,20.523"/>
<path fill="none" stroke="#938B84" stroke-width="2" stroke-linecap="round" stroke-linejoin="round" stroke-miterlimit="10" d="
	M9.67,116.005c67.862-60.634,119.059,1.932,174.79-75.073"/>
<path fill="none" stroke="#938B84" stroke-width="2" stroke-linecap="round" stroke-linejoin="round" stroke-miterlimit="10" d="
	M91.31,124.06c31.603-28.747,68.957-17.795,95.433-77.9"/>
<polyline fill="none" stroke="#938B84" stroke-width="2" stroke-linecap="round" stroke-linejoin="round" stroke-miterlimit="10" points="
	247.026,130.234 202.837,85.687 180.125,31.036 234.602,54.166 278.791,98.714 "/>
<polyline fill="none" stroke="#938B84" stroke-width="2" stroke-linecap="round" stroke-linejoin="round" stroke-miterlimit="10" points="
	202.837,85.687 216.796,80.159 229.931,67.124 234.602,54.166 "/>
<line fill="none" stroke="#938B84" stroke-width="2" stroke-linecap="round" stroke-linejoin="round" stroke-miterlimit="10" x1="229.931" y1="67.124" x2="273.493" y2="111.024"/>
<line fill="none" stroke="#938B84" stroke-width="2" stroke-linecap="round" stroke-linejoin="round" stroke-miterlimit="10" x1="216.795" y1="80.159" x2="260.357" y2="124.06"/>
<path fill="none" stroke="#938B84" stroke-width="2" stroke-linecap="round" stroke-linejoin="round" stroke-miterlimit="10" d="
	M187.447,48.66c0,0,8.366-1.816,10.248-10.165l-17.57-7.46L187.447,48.66z"/>
<path fill="none" stroke="#938B84" stroke-width="2" stroke-linecap="round" stroke-linejoin="round" stroke-miterlimit="10" d="
	M119.369,130.909c0,1.76-1.426,3.183-3.181,3.183c-1.759,0-3.186-1.423-3.186-3.183c0-1.761,1.427-3.184,3.186-3.184
	C117.943,127.726,119.369,129.148,119.369,130.909z"/>
<line fill="none" stroke="#938B84" stroke-width="2" stroke-linecap="round" stroke-linejoin="round" stroke-miterlimit="10" x1="9.67" y1="174.51" x2="222.663" y2="174.51"/>
<line fill="none" stroke="#938B84" stroke-width="2" stroke-linecap="round" stroke-linejoin="round" stroke-miterlimit="10" x1="99.338" y1="141.888" x2="133.058" y2="141.888"/>
<line fill="none" stroke="#938B84" stroke-width="2" stroke-linecap="round" stroke-linejoin="round" stroke-miterlimit="10" x1="41.803" y1="170.536" x2="74.239" y2="170.536"/>
<line fill="none" stroke="#938B84" stroke-width="2" stroke-linecap="round" stroke-linejoin="round" stroke-miterlimit="10" x1="157.393" y1="170.536" x2="190.589" y2="170.536"/>
<rect x="95.325" y="138.123" fill="none" stroke="#938B84" stroke-width="2" stroke-linecap="round" stroke-linejoin="round" stroke-miterlimit="10" width="41.748" height="30.428"/>
<line fill="none" stroke="#938B84" stroke-width="2" stroke-linecap="round" stroke-linejoin="round" stroke-miterlimit="10" x1="93.148" y1="10.096" x2="93.148" y2="15.554"/>
<line fill="none" stroke="#938B84" stroke-width="2" stroke-linecap="round" stroke-linejoin="round" stroke-miterlimit="10" x1="101.269" y1="10.096" x2="101.269" y2="22.584"/>
<line fill="none" stroke="#938B84" stroke-width="2" stroke-linecap="round" stroke-linejoin="round" stroke-miterlimit="10" x1="109.385" y1="10.096" x2="109.385" y2="27.5"/>
<line fill="none" stroke="#938B84" stroke-width="2" stroke-linecap="round" stroke-linejoin="round" stroke-miterlimit="10" x1="117.507" y1="10.096" x2="117.507" y2="31.607"/>
<line fill="none" stroke="#938B84" stroke-width="2" stroke-linecap="round" stroke-linejoin="round" stroke-miterlimit="10" x1="125.628" y1="10.096" x2="125.628" y2="35.862"/>
<line fill="none" stroke="#938B84" stroke-width="2" stroke-linecap="round" stroke-linejoin="round" stroke-miterlimit="10" x1="133.75" y1="10.096" x2="133.75" y2="38.163"/>
<line fill="none" stroke="#938B84" stroke-width="2" stroke-linecap="round" stroke-linejoin="round" stroke-miterlimit="10" x1="141.866" y1="10.096" x2="141.866" y2="39.848"/>
<line fill="none" stroke="#938B84" stroke-width="2" stroke-linecap="round" stroke-linejoin="round" stroke-miterlimit="10" x1="149.987" y1="10.096" x2="149.987" y2="39.848"/>
<line fill="none" stroke="#938B84" stroke-width="2" stroke-linecap="round" stroke-linejoin="round" stroke-miterlimit="10" x1="158.109" y1="10.096" x2="158.109" y2="38.163"/>
<line fill="none" stroke="#938B84" stroke-width="2" stroke-linecap="round" stroke-linejoin="round" stroke-miterlimit="10" x1="166.23" y1="10.096" x2="166.23" y2="35.862"/>
<line fill="none" stroke="#938B84" stroke-width="2" stroke-linecap="round" stroke-linejoin="round" stroke-miterlimit="10" x1="174.351" y1="10.096" x2="174.351" y2="33.146"/>
<line fill="none" stroke="#938B84" stroke-width="2" stroke-linecap="round" stroke-linejoin="round" stroke-miterlimit="10" x1="182.467" y1="10.096" x2="182.467" y2="31.56"/>
<line fill="none" stroke="#938B84" stroke-width="2" stroke-linecap="round" stroke-linejoin="round" stroke-miterlimit="10" x1="190.588" y1="10.096" x2="190.588" y2="35.18"/>
<line fill="none" stroke="#938B84" stroke-width="2" stroke-linecap="round" stroke-linejoin="round" stroke-miterlimit="10" x1="198.71" y1="10.096" x2="198.71" y2="38.904"/>
<line fill="none" stroke="#938B84" stroke-width="2" stroke-linecap="round" stroke-linejoin="round" stroke-miterlimit="10" x1="206.832" y1="10.096" x2="206.832" y2="42.375"/>
<line fill="none" stroke="#938B84" stroke-width="2" stroke-linecap="round" stroke-linejoin="round" stroke-miterlimit="10" x1="214.658" y1="10.096" x2="214.658" y2="45.903"/>
<line fill="none" stroke="#938B84" stroke-width="2" stroke-linecap="round" stroke-linejoin="round" stroke-miterlimit="10" x1="93.148" y1="122.437" x2="93.148" y2="124.059"/>
<line fill="none" stroke="#938B84" stroke-width="2" stroke-linecap="round" stroke-linejoin="round" stroke-miterlimit="10" x1="101.269" y1="116.793" x2="101.269" y2="124.06"/>
<line fill="none" stroke="#938B84" stroke-width="2" stroke-linecap="round" stroke-linejoin="round" stroke-miterlimit="10" x1="109.385" y1="112.611" x2="109.385" y2="124.06"/>
<line fill="none" stroke="#938B84" stroke-width="2" stroke-linecap="round" stroke-linejoin="round" stroke-miterlimit="10" x1="117.507" y1="107.229" x2="117.507" y2="124.059"/>
<line fill="none" stroke="#938B84" stroke-width="2" stroke-linecap="round" stroke-linejoin="round" stroke-miterlimit="10" x1="125.628" y1="104.246" x2="125.628" y2="124.06"/>
<line fill="none" stroke="#938B84" stroke-width="2" stroke-linecap="round" stroke-linejoin="round" stroke-miterlimit="10" x1="133.75" y1="100.051" x2="133.75" y2="124.06"/>
<line fill="none" stroke="#938B84" stroke-width="2" stroke-linecap="round" stroke-linejoin="round" stroke-miterlimit="10" x1="141.866" y1="96.3" x2="141.866" y2="124.059"/>
<line fill="none" stroke="#938B84" stroke-width="2" stroke-linecap="round" stroke-linejoin="round" stroke-miterlimit="10" x1="149.987" y1="91.737" x2="149.987" y2="124.059"/>
<line fill="none" stroke="#938B84" stroke-width="2" stroke-linecap="round" stroke-linejoin="round" stroke-miterlimit="10" x1="158.109" y1="85.687" x2="158.109" y2="124.06"/>
<line fill="none" stroke="#938B84" stroke-width="2" stroke-linecap="round" stroke-linejoin="round" stroke-miterlimit="10" x1="166.23" y1="78.942" x2="166.23" y2="124.06"/>
<line fill="none" stroke="#938B84" stroke-width="2" stroke-linecap="round" stroke-linejoin="round" stroke-miterlimit="10" x1="174.351" y1="69.926" x2="174.351" y2="124.06"/>
<line fill="none" stroke="#938B84" stroke-width="2" stroke-linecap="round" stroke-linejoin="round" stroke-miterlimit="10" x1="182.467" y1="56.882" x2="182.467" y2="124.06"/>
<line fill="none" stroke="#938B84" stroke-width="2" stroke-linecap="round" stroke-linejoin="round" stroke-miterlimit="10" x1="190.588" y1="55.522" x2="190.588" y2="124.059"/>
<line fill="none" stroke="#938B84" stroke-width="2" stroke-linecap="round" stroke-linejoin="round" stroke-miterlimit="10" x1="198.71" y1="76.643" x2="198.71" y2="124.06"/>
<line fill="none" stroke="#938B84" stroke-width="2" stroke-linecap="round" stroke-linejoin="round" stroke-miterlimit="10" x1="206.832" y1="89.79" x2="206.832" y2="124.06"/>
<line fill="none" stroke="#938B84" stroke-width="2" stroke-linecap="round" stroke-linejoin="round" stroke-miterlimit="10" x1="214.658" y1="98.6" x2="214.658" y2="124.059"/>
<polyline fill="none" stroke="#938B84" stroke-width="2" stroke-linecap="round" stroke-linejoin="round" stroke-miterlimit="10" points="
	13.65,124.06 13.65,14.064 90.731,14.064 "/>
<path fill="none" stroke="#938B84" stroke-width="2" stroke-linecap="round" stroke-linejoin="round" stroke-miterlimit="10" d="
	M229.494,174.51c0,0.785-0.637,1.423-1.426,1.423c-0.783,0-1.422-0.638-1.422-1.423s0.639-1.423,1.422-1.423
	C228.857,173.087,229.494,173.725,229.494,174.51z"/>
<circle fill="none" stroke="#938B84" stroke-width="2" stroke-linecap="round" stroke-linejoin="round" stroke-miterlimit="10" cx="4.264" cy="174.51" r="1.421"/>
</svg>
