<?xml version="1.0" encoding="utf-8"?>
<!-- Generator: Adobe Illustrator 15.0.2, SVG Export Plug-In  -->
<!DOCTYPE svg PUBLIC "-//W3C//DTD SVG 1.1//EN" "http://www.w3.org/Graphics/SVG/1.1/DTD/svg11.dtd" [
	<!ENTITY ns_flows "http://ns.adobe.com/Flows/1.0/">
]>
<svg version="1.1"
	 xmlns="http://www.w3.org/2000/svg" xmlns:xlink="http://www.w3.org/1999/xlink" xmlns:a="http://ns.adobe.com/AdobeSVGViewerExtensions/3.0/"
	 x="0px" y="0px" width="42px" height="40px" viewBox="-0.555 -0.807 42 40" enable-background="new -0.555 -0.807 42 40"
	 xml:space="preserve">
<defs>
</defs>
<path fill="#4ab931" d="M40.894,18.928c-0.48-4.285-2.555-8.223-5.844-11.087c-3.266-2.844-7.463-4.409-11.82-4.409
	c-0.631,0-1.27,0.033-1.902,0.099c-0.524,0.003-4.145,0.124-6.534,2.727c-1.646,1.795-2.308,4.309-1.968,7.474
	c-0.022,0.41-0.02,1.919,1.078,3.111c0.897,0.975,2.251,1.468,4.025,1.468c0.37,0,0.764-0.021,1.169-0.065
	c0.112-0.012,0.225-0.018,0.336-0.018c1.559,0,2.865,1.145,3.035,2.661c0.088,0.791-0.145,1.57-0.656,2.191
	c-0.511,0.623-1.24,1.012-2.05,1.098c-1.632,0.174-2.877,0.824-3.699,1.934c-1.47,1.982-1.002,4.727-0.923,5.125
	c0.303,2.65,1.334,4.604,3.065,5.803c1.23,0.854,2.824,1.303,4.611,1.303c1.193,0,2.121-0.199,2.381-0.26
	C34.917,37.012,41.955,28.432,40.894,18.928 M24.951,36.43c-0.043,0.004-0.086,0.014-0.129,0.023
	c-0.008,0.002-0.869,0.221-2.006,0.221c-3.55,0-5.563-1.902-5.981-5.654c-0.003-0.025-0.008-0.055-0.013-0.08
	c-0.005-0.023-0.483-2.363,0.628-3.854c0.535-0.719,1.352-1.127,2.497-1.25c1.264-0.133,2.398-0.742,3.197-1.711
	c0.797-0.969,1.16-2.182,1.023-3.416c-0.268-2.365-2.303-4.149-4.734-4.149c-0.173,0-0.347,0.009-0.52,0.027
	c-0.345,0.037-0.677,0.056-0.985,0.056c-1.261,0-2.184-0.304-2.744-0.904c-0.749-0.801-0.652-2.055-0.653-2.114
	c-0.011-2.698,0.213-4.813,1.535-6.252c1.971-2.149,5.153-2.174,5.294-2.174c0.035,0.001,0.071-0.001,0.105-0.004
	c0.586-0.063,1.18-0.095,1.766-0.095c8.207,0,15.072,6.023,15.963,14.009C40.158,27.719,33.767,35.488,24.951,36.43"/>
<path fill="#4ab931" d="M25.439,14.187c0.586-0.712,0.852-1.603,0.75-2.507c-0.193-1.739-1.688-3.05-3.473-3.05
	c-0.127,0-0.254,0.007-0.383,0.02c-1.916,0.206-3.307,1.896-3.099,3.768c0.194,1.736,1.686,3.046,3.47,3.046
	c0.127,0,0.258-0.007,0.385-0.021C24.019,15.344,24.853,14.898,25.439,14.187 M24.107,13.141c-0.299,0.364-0.727,0.593-1.203,0.643
	c-0.066,0.007-0.133,0.011-0.199,0.011c-0.912,0-1.673-0.67-1.772-1.557c-0.106-0.958,0.606-1.824,1.586-1.929
	c0.064-0.007,0.131-0.011,0.197-0.011c0.912,0,1.676,0.671,1.773,1.563C24.542,12.322,24.406,12.777,24.107,13.141"/>
<path fill="#4ab931" d="M30.439,18.943c0.125,0,0.252-0.006,0.379-0.02c1.918-0.205,3.309-1.896,3.1-3.767
	c-0.193-1.738-1.686-3.048-3.475-3.048c-0.127,0-0.258,0.007-0.383,0.02c-0.932,0.099-1.766,0.546-2.352,1.259
	c-0.586,0.712-0.852,1.604-0.748,2.508C27.158,17.633,28.652,18.943,30.439,18.943 M29.041,14.433
	c0.299-0.365,0.727-0.594,1.203-0.645c0.066-0.006,0.133-0.01,0.199-0.01c0.914,0,1.678,0.67,1.775,1.559
	c0.107,0.958-0.605,1.823-1.584,1.928c-0.064,0.007-0.131,0.011-0.195,0.011c-0.914,0-1.68-0.672-1.781-1.563
	C28.605,15.251,28.742,14.796,29.041,14.433"/>
<path fill="#4ab931" d="M24.611,25.635c-0.125,0-0.254,0.006-0.381,0.02c-1.918,0.205-3.307,1.896-3.098,3.766
	c0.191,1.738,1.684,3.051,3.475,3.051c0.125,0,0.254-0.008,0.381-0.021c1.918-0.205,3.309-1.898,3.1-3.773
	C27.89,26.941,26.396,25.635,24.611,25.635 M24.802,30.791c-0.064,0.006-0.131,0.01-0.195,0.01c-0.916,0-1.678-0.67-1.775-1.559
	c-0.109-0.959,0.604-1.824,1.584-1.93c0.064-0.006,0.131-0.01,0.195-0.01c0.914,0,1.678,0.67,1.777,1.555
	C26.496,29.818,25.783,30.686,24.802,30.791"/>
<path fill="#4ab931" d="M31.388,20.609c-0.127,0-0.254,0.006-0.383,0.02c-1.916,0.207-3.305,1.898-3.098,3.77
	c0.193,1.738,1.686,3.047,3.473,3.047c0.127,0,0.256-0.006,0.383-0.02c1.918-0.205,3.309-1.896,3.102-3.771
	C34.669,21.918,33.175,20.609,31.388,20.609 M31.578,25.768c-0.066,0.006-0.133,0.01-0.197,0.01c-0.912,0-1.676-0.67-1.775-1.559
	c-0.105-0.959,0.607-1.824,1.586-1.932c0.066-0.006,0.133-0.01,0.197-0.01c0.914,0,1.678,0.67,1.779,1.559
	C33.273,24.797,32.56,25.662,31.578,25.768"/>
<path fill="#4ab931" d="M5.103,0C3.638,0,2.39,1.742,1.289,5.324C0.487,7.936,0.003,10.767,0,11.995
	c-0.006,1.639,0.793,3.488,2.036,4.711c0.043,0.041,0.087,0.082,0.13,0.123c-0.065,0.117-0.101,0.251-0.101,0.394v8.16
	c0,0.006,0,0.012,0,0.02c0.001,0.006,0,0.014,0,0.02L2.673,38.08c0.021,0.445,0.398,0.795,0.853,0.795H3.54l2.989-0.047
	c0.448-0.008,0.815-0.354,0.839-0.789l0.701-12.598c0.001-0.006,0-0.014,0-0.021s0.001-0.016,0.001-0.023v-8.173
	c0-0.145-0.038-0.282-0.105-0.401c0.268-0.248,0.524-0.532,0.763-0.85c0.877-1.168,1.404-2.642,1.409-3.945
	c0.004-1.23-0.461-4.066-1.247-6.684C7.811,1.753,6.575,0.005,5.103,0 M5.706,37.172L4.34,37.193l-0.369-7.711l2.162,0.012
	L5.706,37.172z M6.226,27.826l-2.335-0.014l-0.077-1.594l1.402,0.006l1.099,0.004L6.226,27.826z M6.362,24.559l-2.589-0.008v-6.493
	h1.086c0.063,0.003,0.125,0.005,0.188,0.005h0.014c0.054,0,0.109-0.003,0.164-0.005h1.137V24.559z M5.188,16.389H4.913
	c-0.704-0.054-1.289-0.49-1.665-0.86C2.337,14.633,1.704,13.183,1.708,12c0.003-0.946,0.427-3.625,1.217-6.196
	C3.98,2.371,4.912,1.669,5.102,1.669C5.293,1.67,6.218,2.375,7.25,5.813c0.71,2.362,1.182,5.117,1.178,6.208
	C8.421,13.884,6.866,16.272,5.188,16.389"/>
</svg>
