<?xml version="1.0" encoding="utf-8"?>
<!-- Generator: Adobe Illustrator 15.0.2, SVG Export Plug-In  -->
<!DOCTYPE svg PUBLIC "-//W3C//DTD SVG 1.1//EN" "http://www.w3.org/Graphics/SVG/1.1/DTD/svg11.dtd" [
	<!ENTITY ns_flows "http://ns.adobe.com/Flows/1.0/">
]>
<svg version="1.1"
	 xmlns="http://www.w3.org/2000/svg" xmlns:xlink="http://www.w3.org/1999/xlink" xmlns:a="http://ns.adobe.com/AdobeSVGViewerExtensions/3.0/"
	 x="0px" y="0px" width="51px" height="56px" viewBox="-1.031 -1.203 51 56" enable-background="new -1.031 -1.203 51 56"
	 xml:space="preserve">
<defs>
</defs>
<path fill="#4ab931" d="M37.863,33.654c0.335,0.216,0.787,0.186,1.083-0.083c0.267-0.242,0.353-0.632,0.214-0.961
	c-0.134-0.316-0.453-0.527-0.802-0.532c-0.373-0.004-0.717,0.236-0.837,0.581C37.393,33.022,37.535,33.442,37.863,33.654"/>
<path fill="#4ab931" d="M48.123,39.773h-2.921c-0.274-2.143-1.578-4.166-3.811-5.896c-0.38-0.295-0.933-0.231-1.232,0.142
	c-0.3,0.372-0.234,0.913,0.146,1.209c1.28,0.992,2.777,2.544,3.125,4.545h-3.67c-0.485,0-0.877,0.385-0.877,0.859
	c0,0.476,0.392,0.861,0.877,0.861h3.669c-0.382,2.208-2.227,4.291-5.292,5.938c-3.422,1.84-7.924,2.897-12.759,3.013v-3.009
	c0-0.477-0.394-0.861-0.877-0.861c-0.485,0-0.877,0.385-0.877,0.861v3.009c-4.835-0.115-9.338-1.173-12.76-3.013
	c-3.065-1.646-4.91-3.729-5.291-5.938h3.669c0.484,0,0.877-0.386,0.877-0.861c0-0.475-0.393-0.859-0.877-0.859H5.57
	c0.386-2.257,2.225-3.959,3.796-5.033c2.369-1.618,5.646-2.827,9.307-3.448v6.914c0,1.813,1.504,3.288,3.352,3.288
	c0.979,0,1.862-0.414,2.475-1.073c0.613,0.659,1.495,1.073,2.475,1.073c1.848,0,3.351-1.475,3.351-3.288v-6.914
	c1.828,0.308,3.555,0.759,5.143,1.348c0.102,0.037,0.207,0.056,0.31,0.056c0.354,0,0.688-0.211,0.82-0.557
	c0.171-0.444-0.058-0.94-0.51-1.108c-1.778-0.659-3.715-1.157-5.763-1.484v-0.792h0.551c1.631,0,2.957-1.301,2.957-2.901v-8.645
	c0-3.146-2.225-5.791-5.213-6.502c1.296-1.122,2.117-2.762,2.117-4.587C30.738,2.744,27.939,0,24.5,0
	c-3.44,0-6.238,2.744-6.238,6.119c0,1.825,0.82,3.465,2.117,4.587c-2.988,0.711-5.214,3.356-5.214,6.502v8.645
	c0,1.6,1.327,2.901,2.958,2.901h0.55v0.791c-4.031,0.648-7.669,1.979-10.309,3.783c-2.66,1.817-4.252,4.078-4.564,6.445H0.877
	C0.393,39.773,0,40.158,0,40.633c0,0.477,0.393,0.861,0.877,0.861h2.92c0.365,2.851,2.542,5.469,6.224,7.447
	c3.672,1.974,8.474,3.107,13.602,3.224v0.974c0,0.476,0.392,0.861,0.877,0.861c0.484,0,0.877-0.386,0.877-0.861v-0.974
	c5.127-0.116,9.929-1.25,13.602-3.224c3.681-1.979,5.859-4.597,6.223-7.447h2.921c0.484,0,0.877-0.385,0.877-0.861
	C49,40.158,48.607,39.773,48.123,39.773 M20.016,6.119c0-2.426,2.011-4.399,4.484-4.399c2.472,0,4.484,1.973,4.484,4.399
	c0,2.424-2.012,4.398-4.484,4.398C22.027,10.517,20.016,8.544,20.016,6.119 M16.919,25.853v-8.645c0-2.741,2.274-4.971,5.068-4.971
	h5.025c2.795,0,5.067,2.23,5.067,4.971v8.645c0,0.651-0.539,1.181-1.203,1.181h-0.551v-9.539c0-0.475-0.392-0.86-0.877-0.86
	c-0.483,0-0.877,0.385-0.877,0.86v20.711c0,0.864-0.717,1.567-1.597,1.567c-0.881,0-1.598-0.703-1.598-1.567V27.895
	c0-0.476-0.394-0.86-0.877-0.86s-0.877,0.385-0.877,0.86v10.312c0,0.864-0.717,1.567-1.598,1.567c-0.88,0-1.597-0.703-1.597-1.567
	V17.495c0-0.475-0.393-0.86-0.877-0.86c-0.485,0-0.877,0.385-0.877,0.86v9.539h-0.551C17.459,27.034,16.919,26.504,16.919,25.853"/>
</svg>
