<?xml version="1.0" encoding="utf-8"?>
<!-- Generator: Adobe Illustrator 15.0.2, SVG Export Plug-In  -->
<!DOCTYPE svg PUBLIC "-//W3C//DTD SVG 1.1//EN" "http://www.w3.org/Graphics/SVG/1.1/DTD/svg11.dtd" [
	<!ENTITY ns_flows "http://ns.adobe.com/Flows/1.0/">
]>
<svg version="1.1"
	 xmlns="http://www.w3.org/2000/svg" xmlns:xlink="http://www.w3.org/1999/xlink" xmlns:a="http://ns.adobe.com/AdobeSVGViewerExtensions/3.0/"
	 x="0px" y="0px" width="50px" height="50px" viewBox="-1.015 -0.86 50 50" enable-background="new -1.015 -0.86 50 50"
	 xml:space="preserve">
<defs>
</defs>
<path fill="#4ab931" d="M47.198,24.801C47.641,24.801,48,24.441,48,24c0-0.441-0.359-0.801-0.802-0.801h-2.422
	c-0.047-1.269-0.207-2.547-0.491-3.804l2.332-0.625c0.426-0.118,0.68-0.555,0.566-0.981c-0.118-0.43-0.551-0.68-0.98-0.566
	l-2.336,0.625c-0.375-1.207-0.863-2.391-1.473-3.543l2.098-1.211c0.383-0.223,0.516-0.711,0.293-1.094
	c-0.224-0.383-0.716-0.516-1.095-0.293l-2.093,1.211c-0.696-1.106-1.48-2.121-2.336-3.047l1.707-1.711
	c0.312-0.312,0.312-0.816,0-1.129c-0.313-0.312-0.817-0.312-1.129,0l-1.707,1.707c-0.949-0.879-1.973-1.656-3.051-2.332l1.211-2.097
	c0.223-0.383,0.09-0.871-0.293-1.094c-0.383-0.219-0.871-0.09-1.095,0.293l-1.211,2.101c-1.136-0.597-2.323-1.086-3.547-1.464
	l0.629-2.348c0.114-0.426-0.14-0.863-0.565-0.981c-0.422-0.113-0.863,0.141-0.981,0.567L28.602,3.73
	c-1.247-0.285-2.52-0.453-3.801-0.503V0.801C24.801,0.359,24.44,0,24,0c-0.441,0-0.802,0.359-0.802,0.801v2.422
	C21.93,3.27,20.651,3.43,19.395,3.715L18.77,1.383c-0.114-0.426-0.551-0.68-0.98-0.567c-0.427,0.118-0.681,0.555-0.566,0.981
	l0.625,2.34c-1.207,0.371-2.391,0.859-3.543,1.468l-1.211-2.097C12.871,3.125,12.379,2.996,12,3.215
	c-0.383,0.223-0.517,0.711-0.293,1.094l1.211,2.097c-1.106,0.692-2.121,1.477-3.047,2.336L8.16,7.031
	c-0.313-0.312-0.816-0.312-1.13,0c-0.312,0.313-0.312,0.817,0,1.129l1.707,1.707c-0.879,0.949-1.655,1.973-2.332,3.051l-2.097-1.211
	C3.926,11.484,3.438,11.617,3.215,12c-0.219,0.383-0.09,0.871,0.293,1.094l2.101,1.211c-0.597,1.136-1.086,2.324-1.464,3.547
	l-2.348-0.629c-0.422-0.114-0.863,0.14-0.978,0.566c-0.116,0.426,0.138,0.863,0.563,0.981l2.347,0.628
	c-0.285,1.247-0.453,2.52-0.503,3.801H0.801C0.358,23.199,0,23.559,0,24c0,0.441,0.358,0.801,0.801,0.801h2.422
	c0.047,1.27,0.207,2.547,0.492,3.804l-2.332,0.625c-0.426,0.118-0.68,0.556-0.567,0.981c0.099,0.358,0.418,0.594,0.774,0.594
	c0.07,0,0.137-0.008,0.207-0.028l2.336-0.625c0.375,1.207,0.863,2.392,1.472,3.543l-2.097,1.212C3.125,35.129,2.996,35.617,3.215,36
	c0.147,0.258,0.418,0.397,0.695,0.397c0.137,0,0.273-0.03,0.398-0.104l2.102-1.215c0.694,1.105,1.477,2.121,2.332,3.047L7.03,39.84
	c-0.312,0.312-0.312,0.816,0,1.129c0.157,0.156,0.36,0.234,0.563,0.234c0.207,0,0.41-0.078,0.566-0.234l1.715-1.711
	c0.948,0.875,1.969,1.656,3.047,2.332l-1.215,2.101c-0.224,0.384-0.09,0.871,0.293,1.095c0.125,0.069,0.262,0.105,0.397,0.105
	c0.278,0,0.547-0.145,0.696-0.398l1.215-2.105c1.136,0.593,2.32,1.086,3.543,1.465l-0.629,2.352
	c-0.118,0.426,0.136,0.862,0.566,0.98c0.065,0.016,0.137,0.027,0.207,0.027c0.352,0,0.676-0.238,0.77-0.594l0.632-2.352
	c1.247,0.281,2.517,0.453,3.801,0.504v2.43C23.198,47.641,23.559,48,24,48c0.44,0,0.801-0.359,0.801-0.801v-2.427
	c1.269-0.046,2.543-0.211,3.804-0.5l0.625,2.345c0.099,0.355,0.418,0.594,0.774,0.594c0.065,0,0.137-0.012,0.207-0.027
	c0.426-0.118,0.68-0.555,0.565-0.98l-0.629-2.34c1.207-0.375,2.392-0.863,3.543-1.473l1.215,2.102
	c0.149,0.254,0.418,0.398,0.696,0.398c0.132,0,0.273-0.036,0.398-0.105c0.383-0.224,0.512-0.711,0.293-1.095l-1.211-2.097
	c1.102-0.692,2.116-1.477,3.047-2.336l1.707,1.711c0.156,0.156,0.362,0.234,0.565,0.234c0.207,0,0.41-0.078,0.567-0.234
	c0.312-0.313,0.312-0.817,0-1.129l-1.707-1.707c0.879-0.949,1.652-1.973,2.332-3.051l2.097,1.211
	c0.125,0.074,0.263,0.104,0.399,0.104c0.277,0,0.547-0.14,0.69-0.397c0.224-0.383,0.091-0.871-0.288-1.094l-2.102-1.212
	c0.597-1.136,1.086-2.323,1.464-3.547l2.344,0.629c0.071,0.021,0.142,0.028,0.212,0.028c0.352,0,0.676-0.235,0.77-0.594
	c0.117-0.426-0.137-0.863-0.567-0.981l-2.343-0.628c0.285-1.247,0.453-2.52,0.503-3.801H47.198z M33.602,40.629
	c-8.938,5.156-20.34,2.293-25.813-6.348l9.039-5.216c1.688,2.392,4.398,3.731,7.188,3.731c1.492,0,3.004-0.379,4.382-1.176
	c1.142-0.66,2.071-1.543,2.782-2.556l9.027,5.216C38.602,36.819,36.379,39.022,33.602,40.629 M14.397,7.371
	c2.782-1.601,5.797-2.422,8.801-2.543v10.418c-1.229,0.113-2.456,0.477-3.597,1.133c-3.969,2.293-5.473,7.226-3.586,11.309
	l-9.023,5.21C2.246,23.836,5.465,12.531,14.397,7.371 M27.598,30.233c-3.438,1.985-7.848,0.802-9.832-2.636
	c-1.985-3.438-0.801-7.848,2.636-9.832c3.435-1.985,7.849-0.805,9.832,2.636C32.219,23.84,31.035,28.25,27.598,30.233
	 M31.979,27.684c1.153-2.508,1.122-5.516-0.358-8.082c-1.484-2.567-4.074-4.098-6.82-4.356V4.832
	c6.344,0.273,12.426,3.672,15.828,9.566c3.401,5.899,3.309,12.864,0.375,18.497L31.979,27.684z"/>
<path fill="#4ab931" d="M25.242,19.363c-1.234-0.332-2.531-0.16-3.641,0.481c-1.114,0.64-1.907,1.676-2.239,2.914
	s-0.159,2.531,0.481,3.644c0.64,1.11,1.676,1.903,2.914,2.235c0.414,0.109,0.832,0.164,1.25,0.164c0.832,0,1.652-0.215,2.394-0.645
	c1.11-0.641,1.903-1.677,2.235-2.914c0.332-1.238,0.16-2.531-0.481-3.64C27.516,20.488,26.479,19.695,25.242,19.363 M27.09,24.828
	c-0.219,0.825-0.75,1.516-1.488,1.942c-0.743,0.43-1.602,0.539-2.43,0.32c-0.824-0.219-1.517-0.75-1.942-1.488
	c-0.429-0.743-0.542-1.606-0.319-2.43c0.223-0.824,0.75-1.516,1.487-1.942c0.497-0.285,1.043-0.429,1.599-0.429
	c0.276,0,0.555,0.035,0.832,0.109c0.823,0.219,1.516,0.75,1.941,1.488C27.198,23.141,27.312,24.004,27.09,24.828"/>
</svg>
