<?xml version="1.0" encoding="utf-8"?>
<!-- Generator: Adobe Illustrator 15.0.2, SVG Export Plug-In  -->
<!DOCTYPE svg PUBLIC "-//W3C//DTD SVG 1.1//EN" "http://www.w3.org/Graphics/SVG/1.1/DTD/svg11.dtd" [
	<!ENTITY ns_flows "http://ns.adobe.com/Flows/1.0/">
]>
<svg version="1.1"
	 xmlns="http://www.w3.org/2000/svg" xmlns:xlink="http://www.w3.org/1999/xlink" xmlns:a="http://ns.adobe.com/AdobeSVGViewerExtensions/3.0/"
	 x="0px" y="0px" width="285px" height="203px" viewBox="-0.821 -0.626 285 203" enable-background="new -0.821 -0.626 285 203"
	 xml:space="preserve">
<defs>
</defs>
<circle fill="none" stroke="#938B84" stroke-width="2" stroke-linecap="round" stroke-linejoin="round" stroke-miterlimit="10" cx="281.655" cy="195.48" r="1.424"/>
<circle fill="none" stroke="#938B84" stroke-width="2" stroke-linecap="round" stroke-linejoin="round" stroke-miterlimit="10" cx="2.421" cy="195.48" r="1.421"/>
<polygon fill="none" stroke="#938B84" stroke-width="2" stroke-linecap="round" stroke-linejoin="round" stroke-miterlimit="10" points="
	245.85,195.48 113.341,195.48 245.85,1 "/>
<polygon fill="none" stroke="#938B84" stroke-width="2" stroke-linecap="round" stroke-linejoin="round" stroke-miterlimit="10" points="
	217.374,160.864 170.935,160.864 217.374,92.706 "/>
<line fill="none" stroke="#938B84" stroke-width="2" stroke-linecap="round" stroke-linejoin="round" stroke-miterlimit="10" x1="127.78" y1="175.482" x2="139.91" y2="183.747"/>
<line fill="none" stroke="#938B84" stroke-width="2" stroke-linecap="round" stroke-linejoin="round" stroke-miterlimit="10" x1="141.738" y1="155.002" x2="153.863" y2="163.268"/>
<line fill="none" stroke="#938B84" stroke-width="2" stroke-linecap="round" stroke-linejoin="round" stroke-miterlimit="10" x1="155.687" y1="134.525" x2="167.818" y2="142.791"/>
<line fill="none" stroke="#938B84" stroke-width="2" stroke-linecap="round" stroke-linejoin="round" stroke-miterlimit="10" x1="169.642" y1="114.046" x2="181.767" y2="122.311"/>
<line fill="none" stroke="#938B84" stroke-width="2" stroke-linecap="round" stroke-linejoin="round" stroke-miterlimit="10" x1="183.595" y1="93.568" x2="195.726" y2="101.833"/>
<line fill="none" stroke="#938B84" stroke-width="2" stroke-linecap="round" stroke-linejoin="round" stroke-miterlimit="10" x1="197.548" y1="73.089" x2="209.675" y2="81.353"/>
<line fill="none" stroke="#938B84" stroke-width="2" stroke-linecap="round" stroke-linejoin="round" stroke-miterlimit="10" x1="211.502" y1="52.611" x2="223.634" y2="60.876"/>
<line fill="none" stroke="#938B84" stroke-width="2" stroke-linecap="round" stroke-linejoin="round" stroke-miterlimit="10" x1="225.456" y1="32.131" x2="237.582" y2="40.397"/>
<polygon fill="none" stroke="#938B84" stroke-width="2" stroke-linecap="round" stroke-linejoin="round" stroke-miterlimit="10" points="
	238.258,1 43.778,1 43.778,195.48 106.558,195.48 "/>
<polyline fill="none" stroke="#938B84" stroke-width="2" stroke-linecap="round" stroke-linejoin="round" stroke-miterlimit="10" points="
	51.561,89.202 51.561,9.312 232.871,9.312 "/>
<polyline fill="none" stroke="#938B84" stroke-width="2" stroke-linecap="round" stroke-linejoin="round" stroke-miterlimit="10" points="
	111.473,187.325 51.562,187.325 51.562,97.702 "/>
<polyline fill="none" stroke="#938B84" stroke-width="2" stroke-linecap="round" stroke-linejoin="round" stroke-miterlimit="10" points="
	51.561,89.771 116.492,89.771 116.492,97.7 51.561,97.7 "/>
<polyline fill="none" stroke="#938B84" stroke-width="2" stroke-linecap="round" stroke-linejoin="round" stroke-miterlimit="10" points="
	172.817,97.7 152.251,97.7 152.251,89.771 178.125,89.771 "/>
<rect x="51.561" y="9.313" fill="none" stroke="#938B84" stroke-width="2" stroke-linecap="round" stroke-linejoin="round" stroke-miterlimit="10" width="83.394" height="29.329"/>
<rect x="51.561" y="65.242" fill="none" stroke="#938B84" stroke-width="2" stroke-linecap="round" stroke-linejoin="round" stroke-miterlimit="10" width="24.467" height="23.959"/>
<path fill="none" stroke="#938B84" stroke-width="2" stroke-linecap="round" stroke-linejoin="round" stroke-miterlimit="10" d="
	M130.485,160.364h-39.94c-9.704,0-17.571-7.868-17.571-17.574c0-9.707,7.867-17.574,17.571-17.574h44.13
	c6.039,0,11.366,3.045,14.528,7.683"/>
<path fill="none" stroke="#938B84" stroke-width="2" stroke-linecap="round" stroke-linejoin="round" stroke-miterlimit="10" d="
	M130.485,160.364h-39.94c-9.704,0-17.571-7.868-17.571-17.574c0-9.707,7.867-17.574,17.571-17.574h44.13
	c6.039,0,11.366,3.045,14.528,7.683"/>
<polyline fill="none" stroke="#938B84" stroke-width="2" stroke-linecap="round" stroke-linejoin="round" stroke-miterlimit="10" points="
	178.125,89.771 161.123,89.771 161.123,59.601 198.067,59.601 "/>
<circle fill="none" stroke="#938B84" stroke-width="2" stroke-linecap="round" stroke-linejoin="round" stroke-miterlimit="10" cx="146.176" cy="20.627" r="6.977"/>
<line fill="none" stroke="#938B84" stroke-width="2" stroke-linecap="round" stroke-linejoin="round" stroke-miterlimit="10" x1="93.202" y1="118.568" x2="106.376" y2="118.568"/>
<line fill="none" stroke="#938B84" stroke-width="2" stroke-linecap="round" stroke-linejoin="round" stroke-miterlimit="10" x1="66.931" y1="136.203" x2="66.931" y2="149.376"/>
<line fill="none" stroke="#938B84" stroke-width="2" stroke-linecap="round" stroke-linejoin="round" stroke-miterlimit="10" x1="47.669" y1="129.4" x2="47.669" y2="160.364"/>
<line fill="none" stroke="#938B84" stroke-width="2" stroke-linecap="round" stroke-linejoin="round" stroke-miterlimit="10" x1="47.669" y1="34.459" x2="47.669" y2="64.74"/>
<line fill="none" stroke="#938B84" stroke-width="2" stroke-linecap="round" stroke-linejoin="round" stroke-miterlimit="10" x1="209.237" y1="5.105" x2="173.802" y2="5.105"/>
<line fill="none" stroke="#938B84" stroke-width="2" stroke-linecap="round" stroke-linejoin="round" stroke-miterlimit="10" x1="118.688" y1="118.568" x2="131.862" y2="118.568"/>
<line fill="none" stroke="#938B84" stroke-width="2" stroke-linecap="round" stroke-linejoin="round" stroke-miterlimit="10" x1="93.261" y1="167.011" x2="106.435" y2="167.011"/>
<line fill="none" stroke="#938B84" stroke-width="2" stroke-linecap="round" stroke-linejoin="round" stroke-miterlimit="10" x1="118.688" y1="167.011" x2="125.956" y2="167.011"/>
<line fill="none" stroke="#938B84" stroke-width="2" stroke-linecap="round" stroke-linejoin="round" stroke-miterlimit="10" x1="51.561" y1="10.253" x2="134.955" y2="38.642"/>
<line fill="none" stroke="#938B84" stroke-width="2" stroke-linecap="round" stroke-linejoin="round" stroke-miterlimit="10" x1="51.561" y1="38.642" x2="134.955" y2="9.313"/>
<line fill="none" stroke="#938B84" stroke-width="2" stroke-linecap="round" stroke-linejoin="round" stroke-miterlimit="10" x1="52.502" y1="65.242" x2="76.028" y2="88.36"/>
<line fill="none" stroke="#938B84" stroke-width="2" stroke-linecap="round" stroke-linejoin="round" stroke-miterlimit="10" x1="51.561" y1="89.201" x2="76.028" y2="65.242"/>
<line fill="none" stroke="#938B84" stroke-width="2" stroke-linecap="round" stroke-linejoin="round" stroke-miterlimit="10" x1="161.122" y1="59.6" x2="188.555" y2="74.095"/>
<line fill="none" stroke="#938B84" stroke-width="2" stroke-linecap="round" stroke-linejoin="round" stroke-miterlimit="10" x1="161.122" y1="89.771" x2="188.555" y2="74.096"/>
<line fill="none" stroke="#938B84" stroke-width="2" stroke-linecap="round" stroke-linejoin="round" stroke-miterlimit="10" x1="43.778" y1="129.4" x2="51.561" y2="129.4"/>
<line fill="none" stroke="#938B84" stroke-width="2" stroke-linecap="round" stroke-linejoin="round" stroke-miterlimit="10" x1="43.778" y1="160.364" x2="51.561" y2="160.364"/>
<line fill="none" stroke="#938B84" stroke-width="2" stroke-linecap="round" stroke-linejoin="round" stroke-miterlimit="10" x1="43.778" y1="34.459" x2="51.561" y2="34.459"/>
<line fill="none" stroke="#938B84" stroke-width="2" stroke-linecap="round" stroke-linejoin="round" stroke-miterlimit="10" x1="43.778" y1="65.242" x2="51.561" y2="65.242"/>
<line fill="none" stroke="#938B84" stroke-width="2" stroke-linecap="round" stroke-linejoin="round" stroke-miterlimit="10" x1="174.106" y1="1" x2="174.106" y2="9.208"/>
<line fill="none" stroke="#938B84" stroke-width="2" stroke-linecap="round" stroke-linejoin="round" stroke-miterlimit="10" x1="209.237" y1="1" x2="209.237" y2="9.312"/>
<rect x="95.476" y="118.569" fill="none" stroke="#938B84" stroke-width="2" stroke-linecap="round" stroke-linejoin="round" stroke-miterlimit="10" width="8.626" height="6.646"/>
<rect x="120.963" y="118.569" fill="none" stroke="#938B84" stroke-width="2" stroke-linecap="round" stroke-linejoin="round" stroke-miterlimit="10" width="8.626" height="6.646"/>
<rect x="95.476" y="160.365" fill="none" stroke="#938B84" stroke-width="2" stroke-linecap="round" stroke-linejoin="round" stroke-miterlimit="10" width="8.626" height="6.646"/>
<polyline fill="none" stroke="#938B84" stroke-width="2" stroke-linecap="round" stroke-linejoin="round" stroke-miterlimit="10" points="
	73.479,147.103 66.931,147.103 66.931,138.477 73.479,138.477 "/>
<line fill="none" stroke="#938B84" stroke-width="2" stroke-linecap="round" stroke-linejoin="round" stroke-miterlimit="10" x1="120.962" y1="167.011" x2="120.962" y2="160.365"/>
<line fill="none" stroke="#938B84" stroke-width="2" stroke-linecap="round" stroke-linejoin="round" stroke-miterlimit="10" x1="80.576" y1="85.066" x2="111.473" y2="85.066"/>
<polyline fill="none" stroke="#938B84" stroke-width="2" stroke-linecap="round" stroke-linejoin="round" stroke-miterlimit="10" points="
	179.595,156.427 212.948,156.427 212.948,106.919 "/>
<line fill="none" stroke="#938B84" stroke-width="2" stroke-linecap="round" stroke-linejoin="round" stroke-miterlimit="10" x1="10.028" y1="195.48" x2="43.778" y2="195.48"/>
<line fill="none" stroke="#938B84" stroke-width="2" stroke-linecap="round" stroke-linejoin="round" stroke-miterlimit="10" x1="240.831" y1="195.48" x2="274.581" y2="195.48"/>
<line fill="none" stroke="#938B84" stroke-width="2" stroke-linecap="round" stroke-linejoin="round" stroke-miterlimit="10" x1="245.85" y1="191.088" x2="264.862" y2="191.088"/>
<line fill="none" stroke="#938B84" stroke-width="2" stroke-linecap="round" stroke-linejoin="round" stroke-miterlimit="10" x1="24.771" y1="191.088" x2="43.778" y2="191.088"/>
<line fill="none" stroke="#938B84" stroke-width="2" stroke-linecap="round" stroke-linejoin="round" stroke-miterlimit="10" x1="43.778" y1="200.499" x2="245.851" y2="200.499"/>
</svg>
