<?xml version="1.0" encoding="utf-8"?>
<!-- Generator: Adobe Illustrator 15.0.2, SVG Export Plug-In  -->
<!DOCTYPE svg PUBLIC "-//W3C//DTD SVG 1.1//EN" "http://www.w3.org/Graphics/SVG/1.1/DTD/svg11.dtd" [
	<!ENTITY ns_flows "http://ns.adobe.com/Flows/1.0/">
]>
<svg version="1.1"
	 xmlns="http://www.w3.org/2000/svg" xmlns:xlink="http://www.w3.org/1999/xlink" xmlns:a="http://ns.adobe.com/AdobeSVGViewerExtensions/3.0/"
	 x="0px" y="0px" width="256px" height="218px" viewBox="-0.545 -1.002 256 218" enable-background="new -0.545 -1.002 256 218"
	 xml:space="preserve">
<defs>
</defs>
<path fill="none" stroke="#938B84" stroke-width="2" stroke-linecap="round" stroke-linejoin="round" stroke-miterlimit="10" d="
	M90.349,163.435c0,0-62.735-25.094-62.735-138.018"/>
<path fill="none" stroke="#938B84" stroke-width="2" stroke-linecap="round" stroke-linejoin="round" stroke-miterlimit="10" d="
	M27.613,25.417c-1.584,6.099-2.737,14.478-5.375,20.494c-0.734,1.676-4.452,1.879-5.227,3.555
	c-1.672,3.615-0.576,11.21-2.301,14.847c-1.243,2.615-4.196-0.135-5.384,2.504C7.266,71.395,9.437,81.787,7.81,86.479
	c-0.973,2.808-4.453,1.261-5.168,4.125c-1.686,6.736,4.318,19.244,4.749,26.406c0.188,3.127-7.064-0.169-6.34,3.06
	c0.402,1.791,0.892,3.598,1.478,5.422c9.301,28.928,44.441,40.87,68.578,24.603c17.434-11.749,32.774-39.228,13.194-67.494
	c-1.422-2.05-4.946,0.656-6.747-1.397c-4.553-5.193-7.139-14.186-11.488-17.792c-1.206-0.999-3.75,0.91-4.929,0
	c-3.975-3.075-6.439-8.546-10-10.97c-1.14-0.777-3.868,0.739-4.953-0.009c-3.47-2.389-5.031-6.948-7.81-9.428
	c-0.849-0.756-2.397,0.796-3.169-0.004C31.304,38.952,29.145,31.901,27.613,25.417z"/>
<path fill="none" stroke="#938B84" stroke-width="2" stroke-linecap="round" stroke-linejoin="round" stroke-miterlimit="10" d="
	M1.053,120.072c28.602,22.66,55.734,13.752,55.734,13.752s26.592-13.797,27.516-51.222"/>
<path fill="none" stroke="#938B84" stroke-width="2" stroke-linecap="round" stroke-linejoin="round" stroke-miterlimit="10" d="
	M2.642,90.604c13.846,15.695,39.022,15.653,39.022,15.653s22.796-6.422,24.396-42.847"/>
<path fill="none" stroke="#938B84" stroke-width="2" stroke-linecap="round" stroke-linejoin="round" stroke-miterlimit="10" d="
	M10.005,67.335c0,0,9.124,12.252,23.666,13.868c0,0,14.404-5.52,17.453-28.771"/>
<path fill="none" stroke="#938B84" stroke-width="2" stroke-linecap="round" stroke-linejoin="round" stroke-miterlimit="10" d="
	M18.124,50.041c0,0,5.205,9.032,11.53,8.985c0,0,8.604-5.031,8.719-16.027"/>
<path fill="none" stroke="#938B84" stroke-width="2" stroke-linecap="round" stroke-linejoin="round" stroke-miterlimit="10" d="
	M6.283,144.489c13.174,18.401,42.867,26.139,63.778,12.393c0,0,9.504,7.827,15.634,11.027"/>
<circle fill="none" stroke="#938B84" stroke-width="2" stroke-linecap="round" stroke-linejoin="round" stroke-miterlimit="10" cx="2.64" cy="140.065" r="1.067"/>
<path fill="none" stroke="#938B84" stroke-width="2" stroke-linecap="round" stroke-linejoin="round" stroke-miterlimit="10" d="
	M62.39,149.424c0,0-5.223-5.943-8.259-10.425"/>
<path fill="none" stroke="#938B84" stroke-width="2" stroke-linecap="round" stroke-linejoin="round" stroke-miterlimit="10" d="
	M48.588,130.498c0,0-5.908-8.679-9.933-20.074"/>
<path fill="none" stroke="#938B84" stroke-width="2" stroke-linecap="round" stroke-linejoin="round" stroke-miterlimit="10" d="
	M30.029,85.563c1.076,5.261,3.396,11.999,4.757,15.24"/>
<path fill="none" stroke="#938B84" stroke-width="2" stroke-linecap="round" stroke-linejoin="round" stroke-miterlimit="10" d="
	M25.873,62.195c0,0,0.273,6.509,1.74,12.782"/>
<line fill="none" stroke="#938B84" stroke-width="2" stroke-linecap="round" stroke-linejoin="round" stroke-miterlimit="10" x1="24.699" y1="48.995" x2="25.089" y2="52.812"/>
<path fill="none" stroke="#938B84" stroke-width="2" stroke-linecap="round" stroke-linejoin="round" stroke-miterlimit="10" d="
	M154.951,170.232c-32.333,22.971-61.219,20.229-61.219,20.229"/>
<path fill="none" stroke="#938B84" stroke-width="2" stroke-linecap="round" stroke-linejoin="round" stroke-miterlimit="10" d="
	M236.143,1c-6.813,47.272-18.346,82.784-31.99,109.452"/>
<path fill="none" stroke="#938B84" stroke-width="2" stroke-linecap="round" stroke-linejoin="round" stroke-miterlimit="10" d="
	M127.815,184.599c53.119,15.064,94.106,3.772,114.181-33.034c1.545-2.832-2.796-4.427-1.582-7.318
	c4.873-11.619,12.892-24.931,13.507-36.911c0.149-2.899-3.668-2.655-3.705-5.54c-0.108-8.684,3.321-21.384,1.987-29.694
	c-0.503-3.127-4.517-1.563-5.123-4.601c-1.196-5.98,0.775-17.065-0.627-22.585c-0.449-1.778-3.731-0.58-4.185-2.3
	c-1.267-4.8,0.208-12.352-0.938-16.625c-0.555-2.061-2.963-1.74-3.452-3.66c-2.18-8.526-1.998-16.255-1.735-21.33
	c-2.846,4.203-5.086,10.792-8.301,14.429c-1.18,1.333-3.188-0.061-4.408,1.205c-3.059,3.167-6.771,8.317-10.058,11.108
	c-1.635,1.387-3.913-1.072-5.593,0.234c-5.35,4.166-10.672,13.91-16.328,17.435c-2.395,1.493-3.898-1.412-6.317,0.001
	c-6.364,3.717-13.896,12.812-20.2,16.233c-2.652,1.438-4.166-2.753-6.766-1.32c-6.909,3.81-12.975,13.656-19.206,17.792
	c-1.899,1.259-4.374-3.458-6.184-2.136c-11.346,8.297-20.78,17.962-26.714,30.833C85.946,150.476,127.815,184.599,127.815,184.599"
	/>
<path fill="none" stroke="#938B84" stroke-width="2" stroke-linecap="round" stroke-linejoin="round" stroke-miterlimit="10" d="
	M186.768,160.916c14.339,1.537,35.669,1.197,55.229-9.351"/>
<path fill="none" stroke="#938B84" stroke-width="2" stroke-linecap="round" stroke-linejoin="round" stroke-miterlimit="10" d="
	M132.785,75.983c-6.439,17.681-1.572,37.623,7.918,53.638"/>
<path fill="none" stroke="#938B84" stroke-width="2" stroke-linecap="round" stroke-linejoin="round" stroke-miterlimit="10" d="
	M177.038,110.897c-8.437-9.571-16.894-25.291-18.867-50.573"/>
<path fill="none" stroke="#938B84" stroke-width="2" stroke-linecap="round" stroke-linejoin="round" stroke-miterlimit="10" d="
	M253.853,106.588c-12.255,20.811-36.379,21.147-49.201,19.631"/>
<path fill="none" stroke="#938B84" stroke-width="2" stroke-linecap="round" stroke-linejoin="round" stroke-miterlimit="10" d="
	M185.135,45.411c0,0,1.277,43.025,25.793,50.627c22.728,7.047,37.668-12.825,41.379-23.191"/>
<path fill="none" stroke="#938B84" stroke-width="2" stroke-linecap="round" stroke-linejoin="round" stroke-miterlimit="10" d="
	M245.827,45.411c-5.658,29.067-20.333,22.771-24.21,21.607c-17.494-5.253-13.226-39.081-13.226-39.081"/>
<path fill="none" stroke="#938B84" stroke-width="2" stroke-linecap="round" stroke-linejoin="round" stroke-miterlimit="10" d="
	M223.431,16.632c0,0-1.578,20.636,5.649,22.632c7.227,1.996,11.603-13.113,11.603-13.113"/>
<path fill="none" stroke="#938B84" stroke-width="2" stroke-linecap="round" stroke-linejoin="round" stroke-miterlimit="10" d="
	M139.828,131.084c-7.3,13.319-2.424,30.03,10.891,37.33c13.321,7.299,30.302,0.69,39.479-11.411
	c18.61-24.539,15.813-51.862,9.41-60.965C180.368,118.786,151.5,109.782,139.828,131.084z"/>
<path fill="none" stroke="#938B84" stroke-width="2" stroke-linecap="round" stroke-linejoin="round" stroke-miterlimit="10" d="
	M239.549,166.203c-33.537,49.562-111.564,24.872-111.564,24.872c-9.047,3.017-15.723,4.643-30.444,5.219"/>
<circle fill="none" stroke="#938B84" stroke-width="2" stroke-linecap="round" stroke-linejoin="round" stroke-miterlimit="10" cx="243.063" cy="160.976" r="1.067"/>
<path fill="none" stroke="#938B84" stroke-width="2" stroke-linecap="round" stroke-linejoin="round" stroke-miterlimit="10" d="
	M156.857,141.509c-2.333,4.967-6.65,7.85-9.643,6.444c-2.999-1.406-3.536-6.568-1.203-11.535c2.333-4.964,6.646-7.847,9.643-6.443
	C158.648,131.382,159.19,136.544,156.857,141.509z"/>
<path fill="none" stroke="#938B84" stroke-width="2" stroke-linecap="round" stroke-linejoin="round" stroke-miterlimit="10" d="
	M162.129,122.77c0.537,1.185-0.436,2.775-2.171,3.561c-1.735,0.784-3.573,0.459-4.107-0.723c-0.537-1.186,0.437-2.777,2.171-3.562
	C159.759,121.262,161.595,121.587,162.129,122.77z"/>
<path fill="none" stroke="#938B84" stroke-width="2" stroke-linecap="round" stroke-linejoin="round" stroke-miterlimit="10" d="
	M152.086,164.14c25.176,12.205,49.562-20.26,48.62-51.784"/>
<path fill="none" stroke="#938B84" stroke-width="2" stroke-linecap="round" stroke-linejoin="round" stroke-miterlimit="10" d="
	M157.365,174.787c26.652,5.226,46.929-20.428,50.997-48.22"/>
<path fill="none" stroke="#938B84" stroke-width="2" stroke-linecap="round" stroke-linejoin="round" stroke-miterlimit="10" d="
	M142.103,183.56c10.782-5.317,20.173-12.1,20.173-12.1"/>
<path fill="none" stroke="#938B84" stroke-width="2" stroke-linecap="round" stroke-linejoin="round" stroke-miterlimit="10" d="
	M204.651,118.472c0,0,6.325-9.41,8.749-16.311"/>
<path fill="none" stroke="#938B84" stroke-width="2" stroke-linecap="round" stroke-linejoin="round" stroke-miterlimit="10" d="
	M217.331,93.378c0,0,4.075-8.726,7.215-20.703"/>
<path fill="none" stroke="#938B84" stroke-width="2" stroke-linecap="round" stroke-linejoin="round" stroke-miterlimit="10" d="
	M227.271,63.7c0,0,2.568-8.43,5.432-20.249"/>
<line fill="none" stroke="#938B84" stroke-width="2" stroke-linecap="round" stroke-linejoin="round" stroke-miterlimit="10" x1="234.897" y1="31.818" x2="236.143" y2="25.572"/>
<path fill="none" stroke="#938B84" stroke-width="2" stroke-linecap="round" stroke-linejoin="round" stroke-miterlimit="10" d="
	M142.101,167.688c3.322,3.358,8.18,5.554,8.18,5.554"/>
</svg>
