<?xml version="1.0" encoding="utf-8"?>
<!-- Generator: Adobe Illustrator 15.0.2, SVG Export Plug-In  -->
<!DOCTYPE svg PUBLIC "-//W3C//DTD SVG 1.1//EN" "http://www.w3.org/Graphics/SVG/1.1/DTD/svg11.dtd" [
	<!ENTITY ns_flows "http://ns.adobe.com/Flows/1.0/">
]>
<svg version="1.1"
	 xmlns="http://www.w3.org/2000/svg" xmlns:xlink="http://www.w3.org/1999/xlink" xmlns:a="http://ns.adobe.com/AdobeSVGViewerExtensions/3.0/"
	 x="0px" y="0px" width="42px" height="42px" viewBox="-0.918 -1.066 42 42" enable-background="new -0.918 -1.066 42 42"
	 xml:space="preserve">
<defs>
</defs>
<path fill="#4ab931" d="M1.602,20.801h4.796v-1.602H1.602V1.602H20V0H0.801C0.359,0,0,0.359,0,0.801v38.398
	C0,39.641,0.359,40,0.801,40h9.597v-1.602H1.602V20.801z"/>
<path fill="#4ab931" d="M39.199,0h-9.598v1.602h8.797v17.597h-4.797v1.602h4.797v17.597H20V40h19.199C39.641,40,40,39.641,40,39.199
	V0.801C40,0.359,39.641,0,39.199,0"/>
<polygon fill="#4ab931" points="33.613,30.398 33.613,28.801 20.801,28.801 20.801,11.199 33.613,11.199 33.613,9.602 6.398,9.602 
	6.398,11.199 19.199,11.199 19.199,28.801 6.398,28.801 6.398,30.398 "/>
</svg>
