<?xml version="1.0" encoding="utf-8"?>
<!-- Generator: Adobe Illustrator 15.0.2, SVG Export Plug-In  -->
<!DOCTYPE svg PUBLIC "-//W3C//DTD SVG 1.1//EN" "http://www.w3.org/Graphics/SVG/1.1/DTD/svg11.dtd" [
	<!ENTITY ns_flows "http://ns.adobe.com/Flows/1.0/">
]>
<svg version="1.1"
	 xmlns="http://www.w3.org/2000/svg" xmlns:xlink="http://www.w3.org/1999/xlink" xmlns:a="http://ns.adobe.com/AdobeSVGViewerExtensions/3.0/"
	 x="0px" y="0px" width="147px" height="278px" viewBox="-0.611 -0.506 147 278" enable-background="new -0.611 -0.506 147 278"
	 xml:space="preserve">
<defs>
</defs>
<circle fill="none" stroke="#938B84" stroke-width="2" stroke-linecap="round" stroke-linejoin="round" stroke-miterlimit="10" cx="134.785" cy="270.395" r="1.423"/>
<circle fill="none" stroke="#938B84" stroke-width="2" stroke-linecap="round" stroke-linejoin="round" stroke-miterlimit="10" cx="19.521" cy="270.395" r="1.423"/>
<line fill="none" stroke="#938B84" stroke-width="2" stroke-linecap="round" stroke-linejoin="round" stroke-miterlimit="10" x1="26.023" y1="270.395" x2="128.282" y2="270.395"/>
<line fill="none" stroke="#938B84" stroke-width="2" stroke-linecap="round" stroke-linejoin="round" stroke-miterlimit="10" x1="49.25" y1="275.619" x2="105.055" y2="275.619"/>
<path fill="none" stroke="#938B84" stroke-width="2" stroke-linecap="round" stroke-linejoin="round" stroke-miterlimit="10" d="
	M135.953,54.504c1.936,4.58,3.007,9.616,3.007,14.901c0,38.833-38.281,77.468-38.281,77.468s-38.277-39.625-38.277-77.468
	c0-21.141,17.139-38.278,38.277-38.278c9.827,0,18.786,3.701,25.565,9.784"/>
<path fill="none" stroke="#938B84" stroke-width="2" stroke-linecap="round" stroke-linejoin="round" stroke-miterlimit="10" d="
	M106.182,140.786c-3.313,3.87-5.504,6.087-5.504,6.087s-2.162-2.244-5.44-6.141c-1.654,1.494-2.715,3.633-2.715,6.037
	c0,4.506,3.651,8.156,8.155,8.156s8.155-3.65,8.155-8.156C108.833,144.396,107.802,142.277,106.182,140.786z"/>
<path fill="none" stroke="#938B84" stroke-width="2" stroke-linecap="round" stroke-linejoin="round" stroke-miterlimit="10" d="
	M133.144,100.354c1.983,3.146,5.231,8.934,6.724,12.472c14.771,35.013-1.636,75.371-36.65,90.142
	c-35.015,14.77-75.37-1.642-90.143-36.656c-14.767-35.012,1.64-75.37,36.654-90.139c4.629-1.953,8.271-2.985,12.241-3.876"/>
<line fill="none" stroke="#938B84" stroke-width="2" stroke-linecap="round" stroke-linejoin="round" stroke-miterlimit="10" x1="49.728" y1="76.173" x2="103.198" y2="202.929"/>
<line fill="none" stroke="#938B84" stroke-width="2" stroke-linecap="round" stroke-linejoin="round" stroke-miterlimit="10" x1="89.827" y1="134.35" x2="13.116" y2="166.297"/>
<path fill="none" stroke="#938B84" stroke-width="2" stroke-linecap="round" stroke-linejoin="round" stroke-miterlimit="10" d="
	M116.303,129.145c0.135,0.408,1.934,6.02,2.066,6.427c10.158,31.616,3.708,59.417-15.16,67.375
	c-20.771,8.762-49.573-12.512-64.34-47.515c-14.765-35.004-9.901-70.479,10.868-79.239c4.463-1.881,7.313-2.096,12.23-1.879"/>
<path fill="none" stroke="#938B84" stroke-width="2" stroke-linecap="round" stroke-linejoin="round" stroke-miterlimit="10" d="
	M44.854,200.438c8.374-10.799,24.386-22.27,44.355-30.694c20.132-8.491,39.675-11.943,53.27-10.312"/>
<path fill="none" stroke="#938B84" stroke-width="2" stroke-linecap="round" stroke-linejoin="round" stroke-miterlimit="10" d="
	M71.795,105.907c-2.909,1.448-4.609,2.188-7.727,3.503c-20.131,8.493-39.675,11.943-53.267,10.309"/>
<polyline fill="none" stroke="#938B84" stroke-width="2" stroke-linecap="round" stroke-linejoin="round" stroke-miterlimit="10" points="
	79.892,216.164 79.892,262.406 74.413,262.406 74.413,216.164 "/>
<path fill="none" stroke="#938B84" stroke-width="2" stroke-linecap="round" stroke-linejoin="round" stroke-miterlimit="10" d="
	M108.871,137.578c2.575,2.27,4.2,5.592,4.2,9.295c0,6.844-5.548,12.39-12.39,12.39c-6.843,0-12.391-5.546-12.391-12.39
	c0-3.746,1.661-7.104,4.288-9.375"/>
<path fill="none" stroke="#938B84" stroke-width="2" stroke-linecap="round" stroke-linejoin="round" stroke-miterlimit="10" d="
	M105.597,209.854c-38.69,15.918-82.96-2.544-98.879-41.232c-15.92-38.69,2.543-82.96,41.233-98.879"/>
<path fill="none" stroke="#938B84" stroke-width="2" stroke-linecap="round" stroke-linejoin="round" stroke-miterlimit="10" d="
	M105.055,266.4c0,2.206-1.789,3.994-3.994,3.994H53.245c-2.205,0-3.994-1.788-3.994-3.994s1.789-3.994,3.994-3.994h47.816
	C103.266,262.406,105.055,264.194,105.055,266.4z"/>
<polygon fill="none" stroke="#938B84" stroke-width="2" stroke-linecap="round" stroke-linejoin="round" stroke-miterlimit="10" points="
	77.709,59.25 100.142,83.415 107.935,83.415 141.111,40.752 136.719,36.388 105.442,66.899 93.665,47.103 "/>
<line fill="none" stroke="#938B84" stroke-width="2" stroke-linecap="round" stroke-linejoin="round" stroke-miterlimit="10" x1="54.117" y1="72.298" x2="134.629" y2="126.519"/>
<line fill="none" stroke="#938B84" stroke-width="2" stroke-linecap="round" stroke-linejoin="round" stroke-miterlimit="10" x1="54.117" y1="66.813" x2="134.629" y2="121.034"/>
<line fill="none" stroke="#938B84" stroke-width="2" stroke-linecap="round" stroke-linejoin="round" stroke-miterlimit="10" x1="54.117" y1="61.329" x2="134.629" y2="115.55"/>
<line fill="none" stroke="#938B84" stroke-width="2" stroke-linecap="round" stroke-linejoin="round" stroke-miterlimit="10" x1="54.117" y1="55.844" x2="134.629" y2="110.065"/>
<line fill="none" stroke="#938B84" stroke-width="2" stroke-linecap="round" stroke-linejoin="round" stroke-miterlimit="10" x1="54.117" y1="50.36" x2="134.629" y2="104.581"/>
<line fill="none" stroke="#938B84" stroke-width="2" stroke-linecap="round" stroke-linejoin="round" stroke-miterlimit="10" x1="54.117" y1="44.875" x2="134.629" y2="99.097"/>
<line fill="none" stroke="#938B84" stroke-width="2" stroke-linecap="round" stroke-linejoin="round" stroke-miterlimit="10" x1="54.117" y1="39.391" x2="134.629" y2="93.612"/>
<line fill="none" stroke="#938B84" stroke-width="2" stroke-linecap="round" stroke-linejoin="round" stroke-miterlimit="10" x1="54.117" y1="33.907" x2="134.629" y2="88.127"/>
<line fill="none" stroke="#938B84" stroke-width="2" stroke-linecap="round" stroke-linejoin="round" stroke-miterlimit="10" x1="54.117" y1="28.422" x2="134.629" y2="82.643"/>
<line fill="none" stroke="#938B84" stroke-width="2" stroke-linecap="round" stroke-linejoin="round" stroke-miterlimit="10" x1="54.117" y1="22.938" x2="134.629" y2="77.159"/>
<line fill="none" stroke="#938B84" stroke-width="2" stroke-linecap="round" stroke-linejoin="round" stroke-miterlimit="10" x1="54.117" y1="17.453" x2="134.629" y2="71.674"/>
<line fill="none" stroke="#938B84" stroke-width="2" stroke-linecap="round" stroke-linejoin="round" stroke-miterlimit="10" x1="54.117" y1="11.969" x2="134.629" y2="66.19"/>
<line fill="none" stroke="#938B84" stroke-width="2" stroke-linecap="round" stroke-linejoin="round" stroke-miterlimit="10" x1="54.117" y1="6.484" x2="134.629" y2="60.706"/>
<line fill="none" stroke="#938B84" stroke-width="2" stroke-linecap="round" stroke-linejoin="round" stroke-miterlimit="10" x1="54.117" y1="1" x2="134.629" y2="55.221"/>
<path fill="none" d="M72.023,69.405c0,15.826,12.829,28.655,28.653,28.655c15.826,0,28.658-12.829,28.658-28.655
	c0-3.819-0.764-7.456-2.118-10.788l-19.284,24.798h-7.793L77.707,59.25l15.956-12.147l11.777,19.796l16.77-16.359
	c-5.254-5.988-12.941-9.789-21.533-9.789C84.852,40.751,72.023,53.58,72.023,69.405"/>
<path fill="none" stroke="#938B84" stroke-width="2" stroke-linecap="round" stroke-linejoin="round" stroke-miterlimit="10" d="
	M107.932,83.415h-7.793L77.707,59.25l15.956-12.147l11.777,19.796l16.77-16.359c-5.254-5.988-12.941-9.789-21.533-9.789
	c-15.824,0-28.653,12.829-28.653,28.654c0,15.826,12.829,28.655,28.653,28.655c15.826,0,28.656-12.829,28.656-28.655
	c0-3.819-0.762-7.456-2.116-10.788L107.932,83.415z"/>
<path fill="none" stroke="#938B84" stroke-width="2" stroke-linecap="round" stroke-linejoin="round" stroke-miterlimit="10" d="
	M127.38,58.986c1.45,3.428,1.952,6.464,1.952,10.42c0,15.825-12.828,28.654-28.654,28.654S72.023,85.231,72.023,69.406
	c0-15.826,12.829-28.655,28.655-28.655c8.595,0,16.304,3.784,21.556,9.777"/>
</svg>
