<?xml version="1.0" encoding="utf-8"?>
<!-- Generator: Adobe Illustrator 15.0.2, SVG Export Plug-In  -->
<!DOCTYPE svg PUBLIC "-//W3C//DTD SVG 1.1//EN" "http://www.w3.org/Graphics/SVG/1.1/DTD/svg11.dtd" [
	<!ENTITY ns_flows "http://ns.adobe.com/Flows/1.0/">
]>
<svg version="1.1"
	 xmlns="http://www.w3.org/2000/svg" xmlns:xlink="http://www.w3.org/1999/xlink" xmlns:a="http://ns.adobe.com/AdobeSVGViewerExtensions/3.0/"
	 x="0px" y="0px" width="326px" height="216px" viewBox="-1.358 -0.691 326 216" enable-background="new -1.358 -0.691 326 216"
	 xml:space="preserve">
<defs>
</defs>
<path fill="none" stroke="#9B9B9B" stroke-width="2" stroke-linecap="round" stroke-linejoin="round" stroke-miterlimit="10" d="
	M69.827,146.366V6.669C69.827,3.551,72.378,1,75.496,1h120.729c3.118,0,5.669,2.551,5.669,5.669v65.392"/>
<path fill="none" stroke="#9B9B9B" stroke-width="2" stroke-linecap="round" stroke-linejoin="round" stroke-miterlimit="10" d="
	M69.827,146.366V6.669C69.827,3.551,72.378,1,75.496,1h120.729c3.118,0,5.669,2.551,5.669,5.669v65.392"/>
<path fill="none" stroke="#9B9B9B" stroke-width="2" stroke-linecap="round" stroke-linejoin="round" stroke-miterlimit="10" d="
	M69.827,20.129c0-8.094,6.621-14.715,14.716-14.715h102.636c8.094,0,14.715,6.621,14.715,14.715"/>
<line fill="none" stroke="#9B9B9B" stroke-width="2" stroke-linecap="round" stroke-linejoin="round" stroke-miterlimit="10" x1="92.241" y1="119.977" x2="92.241" y2="6.03"/>
<line fill="none" stroke="#9B9B9B" stroke-width="2" stroke-linecap="round" stroke-linejoin="round" stroke-miterlimit="10" x1="120.92" y1="6.03" x2="120.92" y2="119.977"/>
<path fill="none" stroke="#9B9B9B" stroke-width="2" stroke-linecap="round" stroke-linejoin="round" stroke-miterlimit="10" d="
	M120.92,121.868c0,0,0,3.083-4.559,3.083H96.73c-3.894,0-4.489-3.083-4.489-3.083v-9.897h28.679V121.868z"/>
<line fill="none" stroke="#9B9B9B" stroke-width="2" stroke-linecap="round" stroke-linejoin="round" stroke-miterlimit="10" x1="150.802" y1="119.977" x2="150.802" y2="6.03"/>
<line fill="none" stroke="#9B9B9B" stroke-width="2" stroke-linecap="round" stroke-linejoin="round" stroke-miterlimit="10" x1="179.479" y1="6.03" x2="179.479" y2="119.977"/>
<path fill="none" stroke="#9B9B9B" stroke-width="2" stroke-linecap="round" stroke-linejoin="round" stroke-miterlimit="10" d="
	M179.479,121.219c0,0,0.805,3.731-4.388,3.731h-19.631c-4.218,0-4.659-3.569-4.659-3.569v-9.409h28.678V121.219z"/>
<line fill="none" stroke="#9B9B9B" stroke-width="2" stroke-linecap="round" stroke-linejoin="round" stroke-miterlimit="10" x1="58.989" y1="146.366" x2="80.669" y2="146.366"/>
<path fill="none" stroke="#9B9B9B" stroke-width="2" stroke-linecap="round" stroke-linejoin="round" stroke-miterlimit="10" d="
	M119.513,181.334c90.674,0,59.729-145.429,119.458-145.429h65.93v8.223h-32.539c-48.687,0-18.678,146.722-102.644,146.722h-50.205"
	/>
<line fill="none" stroke="#9B9B9B" stroke-width="2" stroke-linecap="round" stroke-linejoin="round" stroke-miterlimit="10" x1="263.639" y1="24.145" x2="263.639" y2="35.905"/>
<line fill="none" stroke="#9B9B9B" stroke-width="2" stroke-linecap="round" stroke-linejoin="round" stroke-miterlimit="10" x1="301.44" y1="24.145" x2="301.44" y2="35.905"/>
<path fill="none" stroke="#9B9B9B" stroke-width="2" stroke-linecap="round" stroke-linejoin="round" stroke-miterlimit="10" d="
	M254.981,24.145h48.922c4.767,0,7.145,2.492,7.145,7.47v133.127c0,5.729,2.566,9.283,8.964,9.283"/>
<line fill="none" stroke="#9B9B9B" stroke-width="2" stroke-linecap="round" stroke-linejoin="round" stroke-miterlimit="10" x1="130.763" y1="200.914" x2="130.763" y2="190.85"/>
<line fill="none" stroke="#9B9B9B" stroke-width="2" stroke-linecap="round" stroke-linejoin="round" stroke-miterlimit="10" x1="123.262" y1="202.176" x2="138.556" y2="202.176"/>
<line fill="none" stroke="#9B9B9B" stroke-width="2" stroke-linecap="round" stroke-linejoin="round" stroke-miterlimit="10" x1="169.718" y1="200.914" x2="169.718" y2="190.85"/>
<line fill="none" stroke="#9B9B9B" stroke-width="2" stroke-linecap="round" stroke-linejoin="round" stroke-miterlimit="10" x1="162.217" y1="202.176" x2="177.508" y2="202.176"/>
<line fill="none" stroke="#9B9B9B" stroke-width="2" stroke-linecap="round" stroke-linejoin="round" stroke-miterlimit="10" x1="254.843" y1="202.176" x2="270.131" y2="202.176"/>
<line fill="none" stroke="#9B9B9B" stroke-width="2" stroke-linecap="round" stroke-linejoin="round" stroke-miterlimit="10" x1="262.485" y1="46.361" x2="262.485" y2="202.176"/>
<line fill="none" stroke="#9B9B9B" stroke-width="2" stroke-linecap="round" stroke-linejoin="round" stroke-miterlimit="10" x1="293.792" y1="202.176" x2="309.083" y2="202.176"/>
<line fill="none" stroke="#9B9B9B" stroke-width="2" stroke-linecap="round" stroke-linejoin="round" stroke-miterlimit="10" x1="301.44" y1="44.805" x2="301.44" y2="202.177"/>
<line fill="none" stroke="#9B9B9B" stroke-width="2" stroke-linecap="round" stroke-linejoin="round" stroke-miterlimit="10" x1="262.485" y1="52.995" x2="301.44" y2="52.995"/>
<line fill="none" stroke="#9B9B9B" stroke-width="2" stroke-linecap="round" stroke-linejoin="round" stroke-miterlimit="10" x1="262.485" y1="65.546" x2="301.44" y2="65.546"/>
<line fill="none" stroke="#9B9B9B" stroke-width="2" stroke-linecap="round" stroke-linejoin="round" stroke-miterlimit="10" x1="262.485" y1="78.097" x2="301.44" y2="78.097"/>
<line fill="none" stroke="#9B9B9B" stroke-width="2" stroke-linecap="round" stroke-linejoin="round" stroke-miterlimit="10" x1="262.485" y1="90.65" x2="301.44" y2="90.65"/>
<line fill="none" stroke="#9B9B9B" stroke-width="2" stroke-linecap="round" stroke-linejoin="round" stroke-miterlimit="10" x1="262.485" y1="103.2" x2="301.44" y2="103.2"/>
<line fill="none" stroke="#9B9B9B" stroke-width="2" stroke-linecap="round" stroke-linejoin="round" stroke-miterlimit="10" x1="262.485" y1="115.751" x2="301.44" y2="115.751"/>
<line fill="none" stroke="#9B9B9B" stroke-width="2" stroke-linecap="round" stroke-linejoin="round" stroke-miterlimit="10" x1="262.485" y1="128.305" x2="301.44" y2="128.305"/>
<line fill="none" stroke="#9B9B9B" stroke-width="2" stroke-linecap="round" stroke-linejoin="round" stroke-miterlimit="10" x1="262.485" y1="140.855" x2="301.44" y2="140.855"/>
<line fill="none" stroke="#9B9B9B" stroke-width="2" stroke-linecap="round" stroke-linejoin="round" stroke-miterlimit="10" x1="262.485" y1="153.405" x2="301.44" y2="153.405"/>
<line fill="none" stroke="#9B9B9B" stroke-width="2" stroke-linecap="round" stroke-linejoin="round" stroke-miterlimit="10" x1="262.485" y1="165.959" x2="301.44" y2="165.959"/>
<line fill="none" stroke="#9B9B9B" stroke-width="2" stroke-linecap="round" stroke-linejoin="round" stroke-miterlimit="10" x1="262.485" y1="178.51" x2="301.44" y2="178.51"/>
<path fill="none" stroke="#9B9B9B" stroke-width="2" stroke-linecap="round" stroke-linejoin="round" stroke-miterlimit="10" d="
	M272.361,44.128h-30.336c-53.568,0-22.776,146.722-122.513,146.722c-2.591,0-4.692-2.232-4.692-4.823
	c0-2.592,2.102-4.692,4.692-4.692"/>
<polyline fill="none" stroke="#9B9B9B" stroke-width="2" stroke-linecap="round" stroke-linejoin="round" stroke-miterlimit="10" points="
	113.279,189.456 30.375,189.456 30.375,152.021 165.14,152.021 "/>
<polyline fill="none" stroke="#9B9B9B" stroke-width="2" stroke-linecap="round" stroke-linejoin="round" stroke-miterlimit="10" points="
	117.533,202.176 30.375,202.176 30.375,164.742 154.546,164.742 "/>
<circle fill="none" stroke="#9B9B9B" stroke-width="2" stroke-linecap="round" stroke-linejoin="round" stroke-miterlimit="10" cx="43.49" cy="171.665" r="0.929"/>
<circle fill="none" stroke="#9B9B9B" stroke-width="2" stroke-linecap="round" stroke-linejoin="round" stroke-miterlimit="10" cx="60.89" cy="171.665" r="0.929"/>
<circle fill="none" stroke="#9B9B9B" stroke-width="2" stroke-linecap="round" stroke-linejoin="round" stroke-miterlimit="10" cx="37.188" cy="178.9" r="0.929"/>
<circle fill="none" stroke="#9B9B9B" stroke-width="2" stroke-linecap="round" stroke-linejoin="round" stroke-miterlimit="10" cx="78.603" cy="180.756" r="0.928"/>
<circle fill="none" stroke="#9B9B9B" stroke-width="2" stroke-linecap="round" stroke-linejoin="round" stroke-miterlimit="10" cx="76.746" cy="171.665" r="0.929"/>
<circle fill="none" stroke="#9B9B9B" stroke-width="2" stroke-linecap="round" stroke-linejoin="round" stroke-miterlimit="10" cx="55.45" cy="177.045" r="0.929"/>
<circle fill="none" stroke="#9B9B9B" stroke-width="2" stroke-linecap="round" stroke-linejoin="round" stroke-miterlimit="10" cx="68.192" cy="177.973" r="0.928"/>
<circle fill="none" stroke="#9B9B9B" stroke-width="2" stroke-linecap="round" stroke-linejoin="round" stroke-miterlimit="10" cx="88.923" cy="170.737" r="0.928"/>
<circle fill="none" stroke="#9B9B9B" stroke-width="2" stroke-linecap="round" stroke-linejoin="round" stroke-miterlimit="10" cx="46.277" cy="181.684" r="0.928"/>
<circle fill="none" stroke="#9B9B9B" stroke-width="2" stroke-linecap="round" stroke-linejoin="round" stroke-miterlimit="10" cx="103.533" cy="171.665" r="0.929"/>
<circle fill="none" stroke="#9B9B9B" stroke-width="2" stroke-linecap="round" stroke-linejoin="round" stroke-miterlimit="10" cx="104.463" cy="184.386" r="0.929"/>
<circle fill="none" stroke="#9B9B9B" stroke-width="2" stroke-linecap="round" stroke-linejoin="round" stroke-miterlimit="10" cx="118.462" cy="171.665" r="0.929"/>
<circle fill="none" stroke="#9B9B9B" stroke-width="2" stroke-linecap="round" stroke-linejoin="round" stroke-miterlimit="10" cx="97.166" cy="179.828" r="0.929"/>
<circle fill="none" stroke="#9B9B9B" stroke-width="2" stroke-linecap="round" stroke-linejoin="round" stroke-miterlimit="10" cx="63.676" cy="184.386" r="0.929"/>
<circle fill="none" stroke="#9B9B9B" stroke-width="2" stroke-linecap="round" stroke-linejoin="round" stroke-miterlimit="10" cx="109.909" cy="175.384" r="0.929"/>
<circle fill="none" stroke="#9B9B9B" stroke-width="2" stroke-linecap="round" stroke-linejoin="round" stroke-miterlimit="10" cx="129.825" cy="172.599" r="0.927"/>
<circle fill="none" stroke="#9B9B9B" stroke-width="2" stroke-linecap="round" stroke-linejoin="round" stroke-miterlimit="10" cx="87.066" cy="184.386" r="0.929"/>
<line fill="none" stroke="#9B9B9B" stroke-width="2" stroke-linecap="round" stroke-linejoin="round" stroke-miterlimit="10" x1="9.608" y1="207.449" x2="212.927" y2="207.449"/>
<line fill="none" stroke="#9B9B9B" stroke-width="2" stroke-linecap="round" stroke-linejoin="round" stroke-miterlimit="10" x1="114.82" y1="213.209" x2="192.16" y2="213.209"/>
<line fill="none" stroke="#9B9B9B" stroke-width="2" stroke-linecap="round" stroke-linejoin="round" stroke-miterlimit="10" x1="21.938" y1="202.541" x2="31.471" y2="202.541"/>
<line fill="none" stroke="#9B9B9B" stroke-width="2" stroke-linecap="round" stroke-linejoin="round" stroke-miterlimit="10" x1="247.45" y1="207.449" x2="316.476" y2="207.449"/>
<line fill="none" stroke="#9B9B9B" stroke-width="2" stroke-linecap="round" stroke-linejoin="round" stroke-miterlimit="10" x1="97.048" y1="146.366" x2="113.875" y2="146.366"/>
<line fill="none" stroke="#9B9B9B" stroke-width="2" stroke-linecap="round" stroke-linejoin="round" stroke-miterlimit="10" x1="156.749" y1="146.366" x2="170.767" y2="146.366"/>
<path fill="none" stroke="#9B9B9B" stroke-width="2" stroke-linecap="round" stroke-linejoin="round" stroke-miterlimit="10" d="
	M223.114,63.003c4.26-7.301,10.769-12.9,18.822-12.9h15.329"/>
<path fill="none" stroke="#9B9B9B" stroke-width="2" stroke-linecap="round" stroke-linejoin="round" stroke-miterlimit="10" d="
	M159.842,185.542c0,0,35.448,4.71,51.43-23.165"/>
<path fill="none" stroke="#9B9B9B" stroke-width="2" stroke-linecap="round" stroke-linejoin="round" stroke-miterlimit="10" d="
	M115.882,118.515L115.882,118.515c0,1.522-1.103,2.758-2.464,2.758H99.512c-1.361,0-2.465-1.235-2.465-2.758"/>
<path fill="none" stroke="#9B9B9B" stroke-width="2" stroke-linecap="round" stroke-linejoin="round" stroke-miterlimit="10" d="
	M174.58,118.515L174.58,118.515c0,1.522-1.104,2.758-2.464,2.758h-13.907c-1.361,0-2.464-1.235-2.464-2.758"/>
<path fill="none" stroke="#9B9B9B" stroke-width="2" stroke-linecap="round" stroke-linejoin="round" stroke-miterlimit="10" d="
	M323.883,207.449c0,0.811-0.659,1.473-1.474,1.473c-0.811,0-1.47-0.662-1.47-1.473c0-0.812,0.659-1.473,1.47-1.473
	C323.224,205.977,323.883,206.638,323.883,207.449z"/>
<path fill="none" stroke="#9B9B9B" stroke-width="2" stroke-linecap="round" stroke-linejoin="round" stroke-miterlimit="10" d="
	M243.194,207.449c0,0.811-0.659,1.473-1.473,1.473c-0.812,0-1.471-0.662-1.471-1.473c0-0.812,0.659-1.473,1.471-1.473
	C242.535,205.977,243.194,206.638,243.194,207.449z"/>
<path fill="none" stroke="#9B9B9B" stroke-width="2" stroke-linecap="round" stroke-linejoin="round" stroke-miterlimit="10" d="
	M220.866,207.449c0,0.811-0.659,1.473-1.474,1.473c-0.811,0-1.47-0.662-1.47-1.473c0-0.812,0.659-1.473,1.47-1.473
	C220.207,205.977,220.866,206.638,220.866,207.449z"/>
<path fill="none" stroke="#9B9B9B" stroke-width="2" stroke-linecap="round" stroke-linejoin="round" stroke-miterlimit="10" d="
	M3.943,207.449c0,0.811-0.659,1.473-1.473,1.473c-0.811,0-1.47-0.662-1.47-1.473c0-0.812,0.659-1.473,1.47-1.473
	C3.284,205.977,3.943,206.638,3.943,207.449z"/>
</svg>
