<?xml version="1.0" encoding="utf-8"?>
<!-- Generator: Adobe Illustrator 15.0.2, SVG Export Plug-In  -->
<!DOCTYPE svg PUBLIC "-//W3C//DTD SVG 1.1//EN" "http://www.w3.org/Graphics/SVG/1.1/DTD/svg11.dtd" [
	<!ENTITY ns_flows "http://ns.adobe.com/Flows/1.0/">
]>
<svg version="1.1"
	 xmlns="http://www.w3.org/2000/svg" xmlns:xlink="http://www.w3.org/1999/xlink" xmlns:a="http://ns.adobe.com/AdobeSVGViewerExtensions/3.0/"
	 x="0px" y="0px" width="196px" height="290px" viewBox="-1.063 -1.358 196 290" enable-background="new -1.063 -1.358 196 290"
	 xml:space="preserve">
<defs>
</defs>
<path fill="none" stroke="#9B9B9B" stroke-width="2" stroke-linecap="round" stroke-linejoin="round" stroke-miterlimit="10" d="
	M30.092,80.951h54.38c21.308,0,34.774,12.156,34.774,30.846c0,20.528-16.477,31.25-36.603,31.25h-36.47v58.688H30.092V80.951z
	 M83.163,128.525c12.156,0,19.745-6.79,19.745-16.592c0-10.72-7.712-16.341-19.745-16.341h-36.99v32.933H83.163z"/>
<line fill="none" stroke="#9B9B9B" stroke-width="2" stroke-linecap="round" stroke-linejoin="round" stroke-miterlimit="10" x1="9.93" y1="110.76" x2="119.639" y2="1"/>
<line fill="none" stroke="#9B9B9B" stroke-width="2" stroke-linecap="round" stroke-linejoin="round" stroke-miterlimit="10" x1="10.169" y1="118.944" x2="119.881" y2="9.184"/>
<line fill="none" stroke="#9B9B9B" stroke-width="2" stroke-linecap="round" stroke-linejoin="round" stroke-miterlimit="10" x1="10.411" y1="127.128" x2="120.12" y2="17.365"/>
<line fill="none" stroke="#9B9B9B" stroke-width="2" stroke-linecap="round" stroke-linejoin="round" stroke-miterlimit="10" x1="10.65" y1="135.309" x2="120.361" y2="25.549"/>
<line fill="none" stroke="#9B9B9B" stroke-width="2" stroke-linecap="round" stroke-linejoin="round" stroke-miterlimit="10" x1="10.892" y1="143.493" x2="120.601" y2="33.733"/>
<line fill="none" stroke="#9B9B9B" stroke-width="2" stroke-linecap="round" stroke-linejoin="round" stroke-miterlimit="10" x1="11.134" y1="151.68" x2="120.843" y2="41.917"/>
<line fill="none" stroke="#9B9B9B" stroke-width="2" stroke-linecap="round" stroke-linejoin="round" stroke-miterlimit="10" x1="11.372" y1="159.862" x2="121.084" y2="50.102"/>
<line fill="none" stroke="#9B9B9B" stroke-width="2" stroke-linecap="round" stroke-linejoin="round" stroke-miterlimit="10" x1="11.614" y1="168.045" x2="121.323" y2="58.285"/>
<line fill="none" stroke="#9B9B9B" stroke-width="2" stroke-linecap="round" stroke-linejoin="round" stroke-miterlimit="10" x1="11.853" y1="176.23" x2="121.564" y2="66.47"/>
<line fill="none" stroke="#9B9B9B" stroke-width="2" stroke-linecap="round" stroke-linejoin="round" stroke-miterlimit="10" x1="12.095" y1="184.414" x2="121.804" y2="74.65"/>
<line fill="none" stroke="#9B9B9B" stroke-width="2" stroke-linecap="round" stroke-linejoin="round" stroke-miterlimit="10" x1="12.336" y1="192.597" x2="122.045" y2="82.834"/>
<line fill="none" stroke="#9B9B9B" stroke-width="2" stroke-linecap="round" stroke-linejoin="round" stroke-miterlimit="10" x1="12.576" y1="200.779" x2="122.287" y2="91.019"/>
<line fill="none" stroke="#9B9B9B" stroke-width="2" stroke-linecap="round" stroke-linejoin="round" stroke-miterlimit="10" x1="12.817" y1="208.962" x2="122.526" y2="99.203"/>
<line fill="none" stroke="#9B9B9B" stroke-width="2" stroke-linecap="round" stroke-linejoin="round" stroke-miterlimit="10" x1="13.057" y1="217.147" x2="122.769" y2="107.387"/>
<line fill="none" stroke="#9B9B9B" stroke-width="2" stroke-linecap="round" stroke-linejoin="round" stroke-miterlimit="10" x1="13.298" y1="225.331" x2="123.008" y2="115.567"/>
<line fill="none" stroke="#9B9B9B" stroke-width="2" stroke-linecap="round" stroke-linejoin="round" stroke-miterlimit="10" x1="13.54" y1="233.514" x2="123.249" y2="123.754"/>
<line fill="none" stroke="#9B9B9B" stroke-width="2" stroke-linecap="round" stroke-linejoin="round" stroke-miterlimit="10" x1="13.779" y1="241.699" x2="123.491" y2="131.938"/>
<line fill="none" stroke="#9B9B9B" stroke-width="2" stroke-linecap="round" stroke-linejoin="round" stroke-miterlimit="10" x1="14.021" y1="249.882" x2="123.73" y2="140.12"/>
<line fill="none" stroke="#9B9B9B" stroke-width="2" stroke-linecap="round" stroke-linejoin="round" stroke-miterlimit="10" x1="14.259" y1="258.064" x2="123.972" y2="148.303"/>
<line fill="none" stroke="#9B9B9B" stroke-width="2" stroke-linecap="round" stroke-linejoin="round" stroke-miterlimit="10" x1="14.501" y1="266.248" x2="124.211" y2="156.488"/>
<path fill="none" d="M46.173,95.592h36.99c12.033,0,19.745,5.621,19.745,16.341c0,9.801-7.589,16.592-19.745,16.592h-36.99V95.592z
	 M30.093,80.95v120.784h16.081v-58.688h36.469c20.127,0,36.604-10.72,36.604-31.249c0-18.69-13.466-30.847-34.773-30.847H30.093z"/>
<path fill="none" stroke="#9B9B9B" stroke-width="2" stroke-linecap="round" stroke-linejoin="round" stroke-miterlimit="10" d="
	M30.092,80.951h54.38c21.308,0,34.774,12.156,34.774,30.846c0,20.528-16.477,31.25-36.603,31.25h-36.47v58.688H30.092V80.951z
	 M83.163,128.525c12.156,0,19.745-6.79,19.745-16.592c0-10.72-7.712-16.341-19.745-16.341h-36.99v32.933H83.163z"/>
<path fill="none" stroke="#9B9B9B" stroke-width="2" stroke-linecap="round" stroke-linejoin="round" stroke-miterlimit="10" d="
	M186.835,229.406c0,4.217-3.419,7.637-7.634,7.637H8.633c-4.214,0-7.633-3.42-7.633-7.637V58.841c0-4.217,3.419-7.636,7.633-7.636
	h170.568c4.215,0,7.634,3.419,7.634,7.636V229.406z"/>
<line fill="none" stroke="#9B9B9B" stroke-width="2" stroke-linecap="round" stroke-linejoin="round" stroke-miterlimit="10" x1="84.339" y1="242.173" x2="13.764" y2="242.173"/>
<path fill="none" stroke="#9B9B9B" stroke-width="2" stroke-linecap="round" stroke-linejoin="round" stroke-miterlimit="10" d="
	M191.965,63.972v165.667c0,6.148-4.15,12.533-12.533,12.533h-76.862"/>
<rect x="8.403" y="58.612" fill="none" stroke="#9B9B9B" stroke-width="2" stroke-linecap="round" stroke-linejoin="round" stroke-miterlimit="10" width="171.027" height="171.027"/>
<polyline fill="none" stroke="#9B9B9B" stroke-width="2" stroke-linecap="round" stroke-linejoin="round" stroke-miterlimit="10" points="
	85.265,287.65 85.265,237.042 102.569,237.042 102.569,287.65 "/>
<polyline fill="none" stroke="#9B9B9B" stroke-width="2" stroke-linecap="round" stroke-linejoin="round" stroke-miterlimit="10" points="
	130.229,162.014 104.199,162.014 97.808,177.085 151.531,177.085 145.141,162.014 130.229,162.014 "/>
<path fill="none" stroke="#9B9B9B" stroke-width="2" stroke-linecap="round" stroke-linejoin="round" stroke-miterlimit="10" d="
	M157.693,178.518v17.026c0,3.416-2.771,6.189-6.189,6.189H97.835c-3.416,0-6.189-2.773-6.189-6.189v-17.026l7.326-18.614
	c0.625-1.581,2.526-2.881,4.229-2.881h42.938c1.701,0,3.604,1.3,4.229,2.881L157.693,178.518z"/>
<rect x="97.104" y="201.733" fill="none" stroke="#9B9B9B" stroke-width="2" stroke-linecap="round" stroke-linejoin="round" stroke-miterlimit="10" width="7.827" height="10.969"/>
<rect x="144.41" y="201.733" fill="none" stroke="#9B9B9B" stroke-width="2" stroke-linecap="round" stroke-linejoin="round" stroke-miterlimit="10" width="7.826" height="10.969"/>
<path fill="none" stroke="#9B9B9B" stroke-width="2" stroke-linecap="round" stroke-linejoin="round" stroke-miterlimit="10" d="
	M151.027,187.446c0,2.162-1.752,3.915-3.909,3.915c-2.162,0-3.915-1.753-3.915-3.915c0-2.156,1.753-3.909,3.915-3.909
	C149.275,183.537,151.027,185.29,151.027,187.446z"/>
<path fill="none" stroke="#9B9B9B" stroke-width="2" stroke-linecap="round" stroke-linejoin="round" stroke-miterlimit="10" d="
	M106.137,187.446c0,2.162-1.752,3.915-3.914,3.915c-2.159,0-3.909-1.753-3.909-3.915c0-2.156,1.75-3.909,3.909-3.909
	C104.385,183.537,106.137,185.29,106.137,187.446z"/>
<polyline fill="none" stroke="#9B9B9B" stroke-width="2" stroke-linecap="round" stroke-linejoin="round" stroke-miterlimit="10" points="
	8.403,202.611 80.242,202.611 80.242,213.446 179.43,213.446 "/>
<line fill="none" stroke="#9B9B9B" stroke-width="2" stroke-linecap="round" stroke-linejoin="round" stroke-miterlimit="10" x1="97.064" y1="237.042" x2="97.064" y2="287.985"/>
<circle fill="none" stroke="#9B9B9B" stroke-width="2" stroke-linecap="round" stroke-linejoin="round" stroke-miterlimit="10" cx="191.964" cy="58.608" r="1.316"/>
<path fill="none" stroke="#9B9B9B" stroke-width="2" stroke-linecap="round" stroke-linejoin="round" stroke-miterlimit="10" d="
	M9.719,242.224c0,0.729-0.589,1.318-1.318,1.318c-0.726,0-1.315-0.589-1.315-1.318c0-0.725,0.589-1.314,1.315-1.314
	C9.129,240.91,9.719,241.5,9.719,242.224z"/>
</svg>
