<?xml version="1.0" encoding="utf-8"?>
<!-- Generator: Adobe Illustrator 15.0.2, SVG Export Plug-In  -->
<!DOCTYPE svg PUBLIC "-//W3C//DTD SVG 1.1//EN" "http://www.w3.org/Graphics/SVG/1.1/DTD/svg11.dtd" [
	<!ENTITY ns_flows "http://ns.adobe.com/Flows/1.0/">
]>
<svg version="1.1"
	 xmlns="http://www.w3.org/2000/svg" xmlns:xlink="http://www.w3.org/1999/xlink" xmlns:a="http://ns.adobe.com/AdobeSVGViewerExtensions/3.0/"
	 x="0px" y="0px" width="264px" height="261px" viewBox="-1.739 -1.341 264 261" enable-background="new -1.739 -1.341 264 261"
	 xml:space="preserve">
<defs>
</defs>
<path fill="#9B9B9B" d="M3.408,252.582c0,0.939-0.763,1.703-1.706,1.703c-0.939,0-1.702-0.764-1.702-1.703
	c0-0.938,0.763-1.703,1.702-1.703C2.645,250.879,3.408,251.644,3.408,252.582"/>
<path fill="#9B9B9B" d="M260.765,252.582c0,0.939-0.763,1.703-1.705,1.703c-0.939,0-1.703-0.764-1.703-1.703
	c0-0.938,0.764-1.703,1.703-1.703C260.002,250.879,260.765,251.644,260.765,252.582"/>
<polygon fill="none" stroke="#9B9B9B" stroke-width="2" stroke-linecap="round" stroke-linejoin="round" stroke-miterlimit="10" points="
	225.516,252.582 91.991,252.582 91.991,36.901 217.751,36.901 217.751,204.107 "/>
<polygon fill="none" stroke="#9B9B9B" stroke-width="2" stroke-linecap="round" stroke-linejoin="round" stroke-miterlimit="10" points="
	91.992,252.582 34.621,252.582 40.384,204.107 40.384,36.901 91.992,36.901 "/>
<polyline fill="none" stroke="#9B9B9B" stroke-width="2" stroke-linecap="round" stroke-linejoin="round" stroke-miterlimit="10" points="
	34.621,252.582 75.205,207.865 91.992,252.582 "/>
<line fill="none" stroke="#9B9B9B" stroke-width="2" stroke-linecap="round" stroke-linejoin="round" stroke-miterlimit="10" x1="75.205" y1="38.766" x2="75.205" y2="207.864"/>
<path fill="none" stroke="#9B9B9B" stroke-width="2" stroke-linecap="round" stroke-linejoin="round" stroke-miterlimit="10" d="
	M144.225,32.377v-5.261C144.225,12.693,132.531,1,118.107,1c-14.423,0-26.116,11.693-26.116,26.116v5.261"/>
<path fill="none" stroke="#9B9B9B" stroke-width="2" stroke-linecap="round" stroke-linejoin="round" stroke-miterlimit="10" d="
	M181.86,49.663V27.116C181.86,12.693,170.171,1,155.745,1c-14.422,0-26.118,11.693-26.118,26.116v22.547"/>
<path fill="none" stroke="#9B9B9B" stroke-width="2" stroke-linecap="round" stroke-linejoin="round" stroke-miterlimit="10" d="
	M134.83,49.663c0,2.868-2.331,5.196-5.202,5.196c-2.866,0-5.196-2.328-5.196-5.196"/>
<path fill="none" stroke="#9B9B9B" stroke-width="2" stroke-linecap="round" stroke-linejoin="round" stroke-miterlimit="10" d="
	M187.063,49.663c0,2.868-2.332,5.196-5.203,5.196c-2.865,0-5.195-2.328-5.195-5.196"/>
<line fill="none" stroke="#9B9B9B" stroke-width="2" stroke-linecap="round" stroke-linejoin="round" x1="91.992" y1="204.107" x2="93.492" y2="204.107"/>
<line fill="none" stroke="#9B9B9B" stroke-width="2" stroke-linecap="round" stroke-linejoin="round" stroke-dasharray="2.994,2.994" x1="96.486" y1="204.107" x2="214.753" y2="204.107"/>
<line fill="none" stroke="#9B9B9B" stroke-width="2" stroke-linecap="round" stroke-linejoin="round" x1="216.251" y1="204.107" x2="217.751" y2="204.107"/>
<path fill="none" stroke="#9B9B9B" stroke-width="2" stroke-linecap="round" stroke-linejoin="round" stroke-miterlimit="10" d="
	M152.999,225.277c0,3.458-2.804,6.262-6.262,6.262h-36.829c-3.458,0-6.262-2.804-6.262-6.262c0-3.461,2.804-6.266,6.262-6.266
	h36.829C150.195,219.012,152.999,221.816,152.999,225.277z"/>
<line fill="none" stroke="#9B9B9B" stroke-width="2" stroke-linecap="round" stroke-linejoin="round" stroke-miterlimit="10" x1="182.425" y1="225.274" x2="211.236" y2="225.274"/>
<circle fill="none" stroke="#9B9B9B" stroke-width="2" stroke-linecap="round" stroke-linejoin="round" stroke-miterlimit="10" cx="154.873" cy="125.91" r="52.356"/>
<path fill="none" stroke="#9B9B9B" stroke-width="2" stroke-linecap="round" stroke-linejoin="round" stroke-miterlimit="10" d="
	M202.481,125.896c0,26.293-21.316,47.609-47.609,47.609c-26.292,0-47.608-21.316-47.608-47.609"/>
<line fill="none" stroke="#9B9B9B" stroke-width="2" stroke-linecap="round" stroke-linejoin="round" stroke-miterlimit="10" x1="8.824" y1="252.582" x2="251.828" y2="252.582"/>
<line fill="none" stroke="#9B9B9B" stroke-width="2" stroke-linecap="round" stroke-linejoin="round" stroke-miterlimit="10" x1="225.195" y1="246.617" x2="241.801" y2="246.617"/>
<line fill="none" stroke="#9B9B9B" stroke-width="2" stroke-linecap="round" stroke-linejoin="round" stroke-miterlimit="10" x1="18.853" y1="246.617" x2="35.138" y2="246.617"/>
<line fill="none" stroke="#9B9B9B" stroke-width="2" stroke-linecap="round" stroke-linejoin="round" stroke-miterlimit="10" x1="35.138" y1="258.598" x2="225.516" y2="258.598"/>
<polyline fill="none" stroke="#9B9B9B" stroke-width="2" stroke-linecap="round" stroke-linejoin="round" stroke-miterlimit="10" points="
	79.802,41.772 79.802,207.407 92.079,239.912 "/>
<line fill="none" stroke="#9B9B9B" stroke-width="2" stroke-linecap="round" stroke-linejoin="round" stroke-miterlimit="10" x1="45.331" y1="41.772" x2="74.454" y2="41.772"/>
<line fill="none" stroke="#9B9B9B" stroke-width="2" stroke-linecap="round" stroke-linejoin="round" stroke-miterlimit="10" x1="79.802" y1="41.772" x2="91.991" y2="41.772"/>
<path fill="none" stroke="#9B9B9B" stroke-width="2" stroke-linecap="round" stroke-linejoin="round" stroke-miterlimit="10" d="
	M159.167,118.395l-6.652-1.764c-6.482-1.938-8.082-4.219-8.082-7.669c0-3.869,2.781-6.734,8.082-7.154l6.652,0.587
	c3.957,0.846,7.745,2.61,11.446,5.393l4.715-7.918c-4.626-3.446-9.931-5.642-16.079-6.399v-5.053h-6.82v4.888
	c-10.521,0.84-17.924,6.984-17.924,16.079c0,9.598,5.715,14.228,18.01,17.427l6.652,1.604c6.564,1.934,8.334,4.207,8.334,7.911
	c0,4.207-3.031,6.901-8.334,7.318l-6.652-0.332c-5.469-0.842-10.02-3.366-14.816-7.238l-5.387,7.659
	c5.721,4.548,12.8,7.489,20.117,8.335v8.423h6.82v-8.335c10.695-0.934,18.184-7.075,18.184-16.252
	C177.433,126.727,171.964,121.595,159.167,118.395z"/>
</svg>
