<?xml version="1.0" encoding="utf-8"?>
<!-- Generator: Adobe Illustrator 15.0.2, SVG Export Plug-In  -->
<!DOCTYPE svg PUBLIC "-//W3C//DTD SVG 1.1//EN" "http://www.w3.org/Graphics/SVG/1.1/DTD/svg11.dtd" [
	<!ENTITY ns_flows "http://ns.adobe.com/Flows/1.0/">
]>
<svg version="1.1"
	 xmlns="http://www.w3.org/2000/svg" xmlns:xlink="http://www.w3.org/1999/xlink" xmlns:a="http://ns.adobe.com/AdobeSVGViewerExtensions/3.0/"
	 x="0px" y="0px" width="324px" height="220px" viewBox="-1.012 -0.511 324 220" enable-background="new -1.012 -0.511 324 220"
	 xml:space="preserve">
<defs>
</defs>
<path fill="none" stroke="#9B9B9B" stroke-width="2" stroke-linecap="round" stroke-linejoin="round" stroke-miterlimit="10" d="
	M308.47,153.81c0,3.781-3.064,6.848-6.849,6.848H175.634c-3.784,0-6.849-3.066-6.849-6.848s3.064-6.848,6.849-6.848h125.987
	C305.405,146.962,308.47,150.028,308.47,153.81z"/>
<path fill="none" stroke="#9B9B9B" stroke-width="2" stroke-linecap="round" stroke-linejoin="round" stroke-miterlimit="10" d="
	M250.868,146.961c-2.507-30.176,6.672-40.852,17.23-43.175c7.095-1.559,13.321,1.428,16.266,7.79
	c1.527,3.303,5.438,4.742,8.743,3.215c3.303-1.528,4.741-5.441,3.215-8.745c-5.514-11.919-18.007-18.001-31.058-15.124
	c-6.529,1.436-13.521,5.321-19.399,12.06c1.925-19.199,7.903-28.631,13.573-31.001c2.342-0.98,4.676-0.647,6.243,0.899
	c2.593,2.553,6.763,2.523,9.316-0.064c2.555-2.595,2.526-6.766-0.065-9.319c-5.396-5.319-13.279-6.725-20.58-3.668
	c-2.681,1.12-5.944,3.13-9.139,6.705V42.116c0-3.641-2.948-6.588-6.587-6.588c-3.638,0-6.587,2.947-6.587,6.588v24.418
	c-3.192-3.575-6.458-5.585-9.138-6.705c-7.298-3.059-15.184-1.648-20.58,3.668c-2.592,2.553-2.619,6.724-0.066,9.319
	c2.552,2.587,6.723,2.617,9.317,0.064c1.565-1.544,3.902-1.879,6.244-0.899c5.67,2.37,11.647,11.802,13.572,31.001
	c-5.88-6.739-12.869-10.624-19.399-12.06c-13.059-2.878-25.544,3.204-31.058,15.124c-1.526,3.304-0.087,7.217,3.216,8.745
	c3.295,1.521,7.213,0.088,8.742-3.215c2.946-6.362,9.18-9.349,16.267-7.79c10.557,2.323,21.856,12.774,19.346,43.175"/>
<circle fill="none" stroke="#9B9B9B" stroke-width="2" stroke-linecap="round" stroke-linejoin="round" stroke-miterlimit="10" cx="238.625" cy="22.879" r="4.058"/>
<path fill="none" stroke="#9B9B9B" stroke-width="2" stroke-linecap="round" stroke-linejoin="round" stroke-miterlimit="10" d="
	M289.837,204.02c-11.975,0-21.682-9.707-21.682-21.682c0-11.974,9.707-21.681,21.682-21.681H187.418
	c11.975,0,21.682,9.707,21.682,21.681c0,11.975-9.707,21.682-21.682,21.682"/>
<polyline fill="none" stroke="#9B9B9B" stroke-width="2" stroke-linecap="round" stroke-linejoin="round" stroke-miterlimit="10" points="
	289.837,204.02 289.837,212.457 187.418,212.457 187.418,204.02 "/>
<path fill="none" stroke="#9B9B9B" stroke-width="2" stroke-linecap="round" stroke-linejoin="round" stroke-miterlimit="10" d="
	M108.778,118.603c9.894,16.343,23.771,16.664,27.255,16.664c20.465,0,37.061-19.286,37.061-43.073
	c0-11.019-3.594-21.044-9.451-28.663c0.321-1.972,0.505-4.001,0.505-6.082c0-16.615-10.684-30.309-24.498-32.379
	C137.92,11.459,127.854,1,115.656,1c-13.41,0-24.28,12.636-24.28,28.225c0,1.562,0.135,3.083,0.343,4.577
	C80.57,38.14,72.525,50.353,72.525,64.769c0,4.02,0.654,7.858,1.799,11.414c-5.071,6.974-8.141,15.978-8.141,25.822
	c0,22.117,15.431,40.05,34.459,40.05c4.701,0,9.174-1.098,13.251-3.084"/>
<line fill="none" stroke="#9B9B9B" stroke-width="2" stroke-linecap="round" stroke-linejoin="round" stroke-miterlimit="10" x1="114.479" y1="126.643" x2="114.479" y2="155.669"/>
<path fill="none" stroke="#9B9B9B" stroke-width="2" stroke-linecap="round" stroke-linejoin="round" stroke-miterlimit="10" d="
	M57.751,184.823v-26.32c0-1.559,1.275-2.835,2.835-2.835h96.545c1.559,0,2.835,1.276,2.835,2.835v26.32"/>
<rect x="49.344" y="184.823" fill="none" stroke="#9B9B9B" stroke-width="2" stroke-linecap="round" stroke-linejoin="round" stroke-miterlimit="10" width="119.035" height="11.848"/>
<line fill="none" stroke="#9B9B9B" stroke-width="2" stroke-linecap="round" stroke-linejoin="round" stroke-miterlimit="10" x1="57.784" y1="211.081" x2="57.784" y2="196.954"/>
<line fill="none" stroke="#9B9B9B" stroke-width="2" stroke-linecap="round" stroke-linejoin="round" stroke-miterlimit="10" x1="159.999" y1="196.954" x2="159.999" y2="211.081"/>
<line fill="none" stroke="#9B9B9B" stroke-width="2" stroke-linecap="round" stroke-linejoin="round" stroke-miterlimit="10" x1="168.379" y1="175.598" x2="168.379" y2="184.823"/>
<line fill="none" stroke="#9B9B9B" stroke-width="2" stroke-linecap="round" stroke-linejoin="round" stroke-miterlimit="10" x1="49.343" y1="175.598" x2="49.343" y2="184.823"/>
<line fill="none" stroke="#9B9B9B" stroke-width="2" stroke-linecap="round" stroke-linejoin="round" stroke-miterlimit="10" x1="10.325" y1="212.457" x2="311.045" y2="212.457"/>
<line fill="none" stroke="#9B9B9B" stroke-width="2" stroke-linecap="round" stroke-linejoin="round" stroke-miterlimit="10" x1="187.418" y1="217.762" x2="289.836" y2="217.762"/>
<line fill="none" stroke="#9B9B9B" stroke-width="2" stroke-linecap="round" stroke-linejoin="round" stroke-miterlimit="10" x1="57.751" y1="217.762" x2="160.878" y2="217.762"/>
<line fill="none" stroke="#9B9B9B" stroke-width="2" stroke-linecap="round" stroke-linejoin="round" stroke-miterlimit="10" x1="123.232" y1="155.668" x2="123.232" y2="132.617"/>
<rect x="24.62" y="182.438" fill="none" stroke="#9B9B9B" stroke-width="2" stroke-linecap="round" stroke-linejoin="round" stroke-miterlimit="10" width="14.295" height="20.352"/>
<line fill="none" stroke="#9B9B9B" stroke-width="2" stroke-linecap="round" stroke-linejoin="round" stroke-miterlimit="10" x1="31.768" y1="211.96" x2="31.768" y2="202.789"/>
<path fill="none" stroke="#9B9B9B" stroke-width="2" stroke-linecap="round" stroke-linejoin="round" stroke-miterlimit="10" d="
	M80.964,110.856c-6.679-11.598-2.979-27.94,9.676-30.725"/>
<path fill="none" stroke="#9B9B9B" stroke-width="2" stroke-linecap="round" stroke-linejoin="round" stroke-miterlimit="10" d="
	M131.52,118.452c18.089,5.511,35.486-20.5,20.884-34.677"/>
<path fill="none" stroke="#9B9B9B" stroke-width="2" stroke-linecap="round" stroke-linejoin="round" stroke-miterlimit="10" d="
	M140.61,53.925c5.182-12.326-6.943-24.275-19.409-19.459"/>
<path fill="none" stroke="#9B9B9B" stroke-width="2" stroke-linecap="round" stroke-linejoin="round" stroke-miterlimit="10" d="
	M301.174,151.365c1.354,0,2.444,1.094,2.444,2.444s-1.09,2.444-2.444,2.444h-67.462"/>
<path fill="none" stroke="#9B9B9B" stroke-width="2" stroke-linecap="round" stroke-linejoin="round" stroke-miterlimit="10" d="
	M176.023,156.253c-1.354,0-2.444-1.093-2.444-2.443c0-1.352,1.09-2.444,2.444-2.444"/>
<path fill="none" stroke="#9B9B9B" stroke-width="2" stroke-linecap="round" stroke-linejoin="round" stroke-miterlimit="10" d="
	M255.103,160.657c0,0-13.707,18.683,1.054,43.187"/>
<path fill="none" stroke="#9B9B9B" stroke-width="2" stroke-linecap="round" stroke-linejoin="round" stroke-miterlimit="10" d="
	M222.152,160.657c0,0,13.707,18.683-1.054,43.187"/>
<line fill="none" stroke="#9B9B9B" stroke-width="2" stroke-linecap="round" stroke-linejoin="round" stroke-miterlimit="10" x1="187.418" y1="204.02" x2="289.836" y2="204.02"/>
<path fill="none" stroke="#9B9B9B" stroke-width="2" stroke-linecap="round" stroke-linejoin="round" stroke-miterlimit="10" d="
	M257.228,123.496c1.229-3.954,7.556-20.297,19.682-12.916"/>
<path fill="none" stroke="#9B9B9B" stroke-width="2" stroke-linecap="round" stroke-linejoin="round" stroke-miterlimit="10" d="
	M221.159,123.496c-1.23-3.954-7.557-20.297-19.683-12.916"/>
<path fill="none" stroke="#9B9B9B" stroke-width="2" stroke-linecap="round" stroke-linejoin="round" stroke-miterlimit="10" d="
	M254.943,87.015c0,0,1.93-6.966,6.625-9.042"/>
<path fill="none" stroke="#9B9B9B" stroke-width="2" stroke-linecap="round" stroke-linejoin="round" stroke-miterlimit="10" d="
	M222.34,87.015c0,0-1.931-6.966-6.627-9.042"/>
<path fill="none" stroke="#9B9B9B" stroke-width="2" stroke-linecap="round" stroke-linejoin="round" stroke-miterlimit="10" d="
	M245.923,146.415c0,0-2.812-27.175,7.614-38.664"/>
<path fill="none" stroke="#9B9B9B" stroke-width="2" stroke-linecap="round" stroke-linejoin="round" stroke-miterlimit="10" d="
	M292.607,108.69c0,1.197-0.97,2.166-2.167,2.166s-2.169-0.969-2.169-2.166"/>
<path fill="none" stroke="#9B9B9B" stroke-width="2" stroke-linecap="round" stroke-linejoin="round" stroke-miterlimit="10" d="
	M189.39,108.69c0,1.197-0.969,2.166-2.166,2.166c-1.198,0-2.17-0.969-2.17-2.166"/>
<path fill="none" stroke="#9B9B9B" stroke-width="2" stroke-linecap="round" stroke-linejoin="round" stroke-miterlimit="10" d="
	M208.97,68.217c0,1.197-0.969,2.166-2.166,2.166s-2.17-0.969-2.17-2.166"/>
<path fill="none" stroke="#9B9B9B" stroke-width="2" stroke-linecap="round" stroke-linejoin="round" stroke-miterlimit="10" d="
	M272.37,68.217c0,1.197-0.969,2.166-2.166,2.166s-2.17-0.969-2.17-2.166"/>
<path fill="none" stroke="#9B9B9B" stroke-width="2" stroke-linecap="round" stroke-linejoin="round" stroke-miterlimit="10" d="
	M242.76,94.278c0,0,1.991-18.743,12.184-24.979"/>
<line fill="none" stroke="#9B9B9B" stroke-width="2" stroke-linecap="round" stroke-linejoin="round" stroke-miterlimit="10" x1="240.3" y1="42.643" x2="240.3" y2="66.982"/>
<line fill="none" stroke="#9B9B9B" stroke-width="2" stroke-linecap="round" stroke-linejoin="round" stroke-miterlimit="10" x1="33.346" y1="186.83" x2="33.346" y2="198.077"/>
<path fill="none" stroke="#9B9B9B" stroke-width="2" stroke-linecap="round" stroke-linejoin="round" stroke-miterlimit="10" d="
	M67.35,160.657h86.186c0.779,0,1.417,0.638,1.417,1.417v18.136"/>
<line fill="none" stroke="#9B9B9B" stroke-width="2" stroke-linecap="round" stroke-linejoin="round" stroke-miterlimit="10" x1="166.023" y1="175.598" x2="171.207" y2="175.598"/>
<line fill="none" stroke="#9B9B9B" stroke-width="2" stroke-linecap="round" stroke-linejoin="round" stroke-miterlimit="10" x1="46.751" y1="175.598" x2="51.936" y2="175.598"/>
<polyline fill="none" stroke="#9B9B9B" stroke-width="2" stroke-linecap="round" stroke-linejoin="round" stroke-miterlimit="10" points="
	53.906,192.454 164.441,192.454 164.441,188.412 "/>
<path fill="none" stroke="#9B9B9B" stroke-width="2" stroke-linecap="round" stroke-linejoin="round" stroke-miterlimit="10" d="
	M319.988,212.459c0,0.88-0.714,1.594-1.595,1.594c-0.88,0-1.594-0.714-1.594-1.594c0-0.884,0.714-1.598,1.594-1.598
	C319.274,210.861,319.988,211.575,319.988,212.459z"/>
<path fill="none" stroke="#9B9B9B" stroke-width="2" stroke-linecap="round" stroke-linejoin="round" stroke-miterlimit="10" d="
	M4.188,212.459c0,0.88-0.714,1.594-1.595,1.594c-0.879,0-1.594-0.714-1.594-1.594c0-0.884,0.715-1.598,1.594-1.598
	C3.475,210.861,4.188,211.575,4.188,212.459z"/>
</svg>
