<?xml version="1.0" encoding="utf-8"?>
<!-- Generator: Adobe Illustrator 15.0.2, SVG Export Plug-In  -->
<!DOCTYPE svg PUBLIC "-//W3C//DTD SVG 1.1//EN" "http://www.w3.org/Graphics/SVG/1.1/DTD/svg11.dtd" [
	<!ENTITY ns_flows "http://ns.adobe.com/Flows/1.0/">
]>
<svg version="1.1"
	 xmlns="http://www.w3.org/2000/svg" xmlns:xlink="http://www.w3.org/1999/xlink" xmlns:a="http://ns.adobe.com/AdobeSVGViewerExtensions/3.0/"
	 x="0px" y="0px" width="50px" height="50px" viewBox="-0.865 -1.25 50 50" enable-background="new -0.865 -1.25 50 50"
	 xml:space="preserve">
<defs>
</defs>
<path fill="#BFBFBF" d="M33.294,25.396c-0.474-0.476-1.101-0.737-1.771-0.737c-0.162,0-0.32,0.016-0.477,0.046l-11.01-11.078
	l2.133-2.147c0.342-0.344,0.342-0.902,0-1.246l-0.539-0.542l8.1-8.151c0.242-0.244,0.321-0.608,0.2-0.932
	c-0.12-0.323-0.417-0.545-0.76-0.57c-4.647-0.32-9.203,1.362-12.542,4.619l-0.543-0.546c-0.164-0.165-0.387-0.258-0.618-0.258
	c-0.232,0-0.455,0.093-0.619,0.258l-8.692,8.746c-0.341,0.344-0.341,0.902,0,1.246l0.837,0.842l-1.533,1.543l-0.838-0.842
	c-0.342-0.344-0.896-0.344-1.238,0l-3.129,3.149C0.092,18.96,0,19.185,0,19.418c0,0.234,0.092,0.457,0.256,0.622l6.084,6.122
	c0.171,0.172,0.395,0.258,0.619,0.258c0.224,0,0.448-0.086,0.619-0.258l3.129-3.147c0.164-0.166,0.256-0.39,0.256-0.624
	c0-0.233-0.092-0.458-0.256-0.623L9.87,20.927l1.533-1.544l0.839,0.843c0.163,0.165,0.386,0.258,0.618,0.258
	s0.455-0.093,0.619-0.258l2.133-2.147l11.011,11.079c-0.152,0.794,0.076,1.648,0.686,2.26l13.057,13.14
	c0.473,0.476,1.103,0.737,1.771,0.737s1.297-0.262,1.771-0.737l2.444-2.462c0.976-0.98,0.976-2.578,0-3.561L33.294,25.396z
	 M26.996,1.8l-6.604,6.646l-2.527-2.543C20.352,3.487,23.588,2.047,26.996,1.8 M6.959,24.294l-4.846-4.876l1.891-1.904l4.847,4.877
	L6.959,24.294z M8.632,19.681l-1.934-1.946l1.534-1.544l1.934,1.947L8.632,19.681z M12.86,18.358L8.014,13.48l7.454-7.501
	l4.846,4.877L12.86,18.358z M18.8,14.872l10.707,10.774l-1.95,1.962L16.85,16.833L18.8,14.872z M45.113,40.851l-2.445,2.461
	c-0.143,0.143-0.332,0.222-0.533,0.222c-0.2,0-0.389-0.08-0.531-0.222l-13.057-13.14c-0.293-0.294-0.294-0.773-0.001-1.069
	l2.446-2.462c0.143-0.143,0.33-0.222,0.531-0.222s0.391,0.079,0.532,0.222L45.113,39.78C45.406,40.075,45.406,40.556,45.113,40.851"
	/>
<path fill="#BFBFBF" d="M28.997,19.837c-0.342,0.344-0.342,0.901,0,1.245c0.343,0.344,0.896,0.344,1.237,0l1.87-1.881
	c2.218-2.232,3.295-5.268,2.956-8.328c-0.203-1.834,0.5-3.657,1.88-4.879c0.397-0.351,0.84-0.641,1.315-0.864l-0.719,2.32
	c-0.298,0.96-0.206,1.98,0.258,2.871c0.465,0.891,1.246,1.547,2.2,1.847c1.972,0.618,4.074-0.492,4.688-2.474l0.744-2.397
	c0.52,0.852,0.805,1.831,0.82,2.859c0.025,1.541-0.559,2.991-1.642,4.081c-0.636,0.64-1.39,1.105-2.24,1.38
	c-1.585,0.513-3.028,1.394-4.174,2.547l-4.573,4.602c-0.342,0.344-0.342,0.9,0,1.245c0.171,0.172,0.395,0.258,0.619,0.258
	s0.447-0.086,0.619-0.258l4.572-4.603c0.951-0.956,2.151-1.688,3.473-2.115c1.102-0.358,2.119-0.984,2.941-1.811
	c1.422-1.431,2.187-3.333,2.154-5.355c-0.031-2.023-0.857-3.901-2.326-5.289c-0.22-0.207-0.529-0.286-0.822-0.209
	c-0.291,0.077-0.522,0.3-0.612,0.589l-1.224,3.95c-0.328,1.055-1.447,1.647-2.496,1.318c-0.51-0.16-0.926-0.51-1.172-0.984
	c-0.248-0.475-0.297-1.017-0.139-1.528l1.211-3.905c0.09-0.292,0.025-0.609-0.175-0.84C40.045,3,39.741,2.889,39.442,2.939
	c-1.364,0.223-2.629,0.822-3.657,1.732c-1.811,1.601-2.73,3.993-2.465,6.397c0.281,2.526-0.614,5.036-2.454,6.888L28.997,19.837z"/>
<path fill="#BFBFBF" d="M24.714,31.726c-2.219,2.232-3.296,5.268-2.957,8.328c0.204,1.834-0.499,3.658-1.88,4.879
	c-0.396,0.352-0.839,0.642-1.315,0.864l0.719-2.32c0.298-0.96,0.206-1.979-0.258-2.87c-0.465-0.892-1.246-1.547-2.2-1.847
	c-0.955-0.3-1.968-0.208-2.854,0.259c-0.886,0.469-1.537,1.255-1.835,2.216l-0.743,2.396c-0.52-0.852-0.806-1.831-0.822-2.858
	c-0.024-1.541,0.559-2.991,1.643-4.081c0.636-0.642,1.39-1.104,2.24-1.381c1.584-0.513,3.028-1.394,4.173-2.547l4.647-4.675
	c0.342-0.344,0.342-0.902,0-1.246c-0.342-0.344-0.896-0.344-1.238,0l-4.646,4.676c-0.951,0.956-2.151,1.688-3.472,2.116
	c-1.101,0.357-2.119,0.983-2.942,1.812c-1.421,1.43-2.186,3.332-2.155,5.354c0.032,2.022,0.858,3.901,2.327,5.288
	c0.22,0.208,0.53,0.287,0.821,0.209c0.292-0.077,0.524-0.3,0.614-0.589l1.224-3.95c0.158-0.511,0.505-0.93,0.977-1.179
	c0.471-0.248,1.011-0.298,1.519-0.138c0.508,0.159,0.924,0.509,1.172,0.982c0.247,0.476,0.296,1.019,0.137,1.529l-1.21,3.904
	c-0.09,0.292-0.025,0.608,0.174,0.84C16.742,47.891,16.984,48,17.235,48c0.047,0,0.094-0.003,0.141-0.011
	c1.364-0.225,2.629-0.823,3.657-1.732c1.81-1.602,2.731-3.994,2.465-6.397c-0.281-2.526,0.614-5.036,2.454-6.889
	c0.341-0.343,0.341-0.9,0-1.245C25.61,31.382,25.056,31.382,24.714,31.726"/>
</svg>
