<?xml version="1.0" encoding="utf-8"?>
<!-- Generator: Adobe Illustrator 15.0.2, SVG Export Plug-In  -->
<!DOCTYPE svg PUBLIC "-//W3C//DTD SVG 1.1//EN" "http://www.w3.org/Graphics/SVG/1.1/DTD/svg11.dtd" [
	<!ENTITY ns_flows "http://ns.adobe.com/Flows/1.0/">
]>
<svg version="1.1"
	 xmlns="http://www.w3.org/2000/svg" xmlns:xlink="http://www.w3.org/1999/xlink" xmlns:a="http://ns.adobe.com/AdobeSVGViewerExtensions/3.0/"
	 x="0px" y="0px" width="33px" height="45px" viewBox="-1.1 -1.031 33 45" enable-background="new -1.1 -1.031 33 45"
	 xml:space="preserve">
<defs>
</defs>
<path fill="#BFBFBF" d="M30.149,5.898h-1.102V2.867l1.395-1.405c0.332-0.334,0.332-0.876,0-1.211c-0.332-0.335-0.871-0.335-1.203,0
	l-1.645,1.655c-0.158,0.159-0.249,0.382-0.249,0.606v3.386h-0.794c-0.471,0-0.852,0.384-0.852,0.857v7.657
	c0,0.473,0.381,0.857,0.852,0.857h3.598c0.47,0,0.851-0.384,0.851-0.857V6.755C31,6.282,30.619,5.898,30.149,5.898 M29.299,13.555
	h-1.896V7.611h1.896V13.555z"/>
<path fill="#BFBFBF" d="M28.3,20.558c-0.471,0-0.852,0.383-0.852,0.856v8.674c0,2.809-2.27,5.094-5.06,5.094h-1.154V18.993h1.41
	c0.47,0,0.851-0.383,0.851-0.856V2.098c0-0.473-0.381-0.856-0.851-0.856H0.852C0.382,1.242,0,1.625,0,2.098v16.039
	c0,0.473,0.382,0.856,0.852,0.856h1.411v23.15C2.263,42.617,2.644,43,3.113,43h17.271c0.47,0,0.851-0.384,0.851-0.857v-5.248h1.154
	c3.728,0,6.762-3.053,6.762-6.807v-8.674C29.15,20.941,28.77,20.558,28.3,20.558 M19.532,41.288H3.965V18.994h15.567V41.288z
	 M1.702,2.955h20.091V17.28H1.702V2.955z"/>
<path fill="#BFBFBF" d="M28.299,16.447c-0.47,0-0.851,0.383-0.851,0.857v1.37c0,0.473,0.381,0.856,0.851,0.856
	c0.471,0,0.852-0.383,0.852-0.856v-1.37C29.15,16.83,28.77,16.447,28.299,16.447"/>
<path fill="#BFBFBF" d="M19.218,4.76H4.279c-0.47,0-0.851,0.383-0.851,0.856v9.003c0,0.473,0.381,0.856,0.851,0.856h14.938
	c0.47,0,0.851-0.383,0.851-0.856V5.616C20.068,5.143,19.688,4.76,19.218,4.76 M18.366,13.762H5.129v-7.29h13.237V13.762z"/>
<path fill="#BFBFBF" d="M11.748,36.895c2.553,0,4.629-2.091,4.629-4.66c0-1.041-0.656-2.664-2.007-4.961
	c-0.952-1.618-1.888-2.953-1.927-3.01c-0.16-0.227-0.419-0.361-0.695-0.361c-0.275,0-0.535,0.135-0.695,0.361
	c-0.038,0.057-0.975,1.392-1.926,3.01c-1.352,2.297-2.009,3.92-2.009,4.961C7.118,34.804,9.195,36.895,11.748,36.895 M11.748,26.28
	c1.338,2.039,2.927,4.829,2.927,5.956c0,1.624-1.313,2.945-2.927,2.945S8.82,33.86,8.82,32.236
	C8.82,31.11,10.41,28.319,11.748,26.28"/>
<path fill="#BFBFBF" d="M8.353,11.05h6.637c0.47,0,0.851-0.384,0.851-0.857s-0.381-0.856-0.851-0.856H8.353
	c-0.471,0-0.852,0.383-0.852,0.856S7.882,11.05,8.353,11.05"/>
</svg>
