<?xml version="1.0" encoding="utf-8"?>
<!-- Generator: Adobe Illustrator 15.0.2, SVG Export Plug-In  -->
<!DOCTYPE svg PUBLIC "-//W3C//DTD SVG 1.1//EN" "http://www.w3.org/Graphics/SVG/1.1/DTD/svg11.dtd" [
	<!ENTITY ns_flows "http://ns.adobe.com/Flows/1.0/">
]>
<svg version="1.1"
	 xmlns="http://www.w3.org/2000/svg" xmlns:xlink="http://www.w3.org/1999/xlink" xmlns:a="http://ns.adobe.com/AdobeSVGViewerExtensions/3.0/"
	 x="0px" y="0px" width="34px" height="46px" viewBox="-0.446 -0.353 34 46" enable-background="new -0.446 -0.353 34 46"
	 xml:space="preserve">
<defs>
</defs>
<path fill="#BFBFBF" d="M32.692,43.657l-4.564-4.555c1.188-0.158,2.271-0.703,3.101-1.576c0.997-1.045,1.505-2.43,1.431-3.896
	L31.23,5.448C31.077,2.444,28.503,0,25.489,0H7.414C4.399,0,1.824,2.444,1.672,5.448L0.243,33.63
	c-0.075,1.467,0.433,2.852,1.43,3.896c0.831,0.873,1.912,1.418,3.101,1.576L0.21,43.657c-0.205,0.205-0.267,0.514-0.156,0.781
	c0.112,0.268,0.373,0.441,0.663,0.441h31.467c0.29,0,0.552-0.174,0.663-0.441C32.958,44.171,32.897,43.862,32.692,43.657
	 M26.148,39.151l1.435,1.432H5.319l1.434-1.432H26.148z M1.676,33.704L3.105,5.521c0.114-2.255,2.047-4.089,4.308-4.089h18.076
	c2.262,0,4.193,1.834,4.309,4.089l1.429,28.183c0.054,1.068-0.313,2.076-1.037,2.838c-0.724,0.758-1.714,1.178-2.787,1.178H5.5
	c-1.074,0-2.064-0.42-2.787-1.178C1.99,35.78,1.622,34.772,1.676,33.704 M2.449,43.448l1.435-1.432h25.134l1.434,1.432H2.449z"/>
<path fill="#BFBFBF" d="M10.712,4.776H22.19c0.396,0,0.718-0.32,0.718-0.716s-0.321-0.716-0.718-0.716H10.712
	c-0.396,0-0.717,0.32-0.717,0.716S10.316,4.776,10.712,4.776"/>
<path fill="#BFBFBF" d="M25.714,19.351c0-0.395-0.322-0.716-0.718-0.716H7.906c-0.396,0-0.717,0.321-0.717,0.716
	s0.321,0.716,0.717,0.716h17.09C25.392,20.067,25.714,19.746,25.714,19.351"/>
<path fill="#BFBFBF" d="M4.628,28.128h6.673c0.191,0,0.373-0.076,0.508-0.211c0.134-0.133,0.21-0.316,0.21-0.506
	c0-2.734-2.227-4.957-4.965-4.957H5.597L6.325,8.121h20.252l0.727,14.334h-1.455c-2.738,0-4.965,2.222-4.965,4.957
	c0,0.189,0.074,0.373,0.209,0.506c0.135,0.135,0.317,0.211,0.508,0.211h6.674c0.195,0,0.384-0.082,0.52-0.223
	c0.135-0.143,0.207-0.334,0.196-0.531l-0.214-4.23c-0.001-0.008-0.001-0.015-0.001-0.021L27.977,7.369
	c-0.019-0.381-0.335-0.681-0.718-0.681H5.644c-0.382,0-0.697,0.299-0.717,0.681L4.127,23.124c0,0.006,0,0.013-0.001,0.021
	l-0.214,4.23c-0.01,0.197,0.061,0.389,0.196,0.531C4.245,28.046,4.432,28.128,4.628,28.128 M27.52,26.694h-5.128
	c0.332-1.602,1.756-2.809,3.457-2.809h1.529L27.52,26.694z M5.525,23.886h1.529c1.701,0,3.125,1.207,3.457,2.809H5.383L5.525,23.886
	z"/>
<path fill="#BFBFBF" d="M14.171,26.694c-0.396,0-0.717,0.322-0.717,0.717c0,0.396,0.321,0.717,0.717,0.717h4.559
	c0.397,0,0.718-0.32,0.718-0.717c0-0.395-0.32-0.717-0.718-0.717H14.171z"/>
<path fill="#BFBFBF" d="M29.78,33.667c0-0.396-0.32-0.717-0.717-0.717H3.84c-0.397,0-0.718,0.32-0.718,0.717
	c0,0.395,0.321,0.715,0.718,0.715h25.224C29.46,34.382,29.78,34.062,29.78,33.667"/>
</svg>
