<?xml version="1.0" encoding="utf-8"?>
<!-- Generator: Adobe Illustrator 15.0.2, SVG Export Plug-In  -->
<!DOCTYPE svg PUBLIC "-//W3C//DTD SVG 1.1//EN" "http://www.w3.org/Graphics/SVG/1.1/DTD/svg11.dtd" [
	<!ENTITY ns_flows "http://ns.adobe.com/Flows/1.0/">
]>
<svg version="1.1"
	 xmlns="http://www.w3.org/2000/svg" xmlns:xlink="http://www.w3.org/1999/xlink" xmlns:a="http://ns.adobe.com/AdobeSVGViewerExtensions/3.0/"
	 x="0px" y="0px" width="50px" height="37px" viewBox="-1.197 -1.067 50 37" enable-background="new -1.197 -1.067 50 37"
	 xml:space="preserve">
<defs>
</defs>
<path fill="#BFBFBF" d="M44.625,0H3.375C1.512,0,0,1.512,0,3.375v28.453c0,1.858,1.512,3.371,3.375,3.371h41.25
	c1.863,0,3.375-1.513,3.375-3.371V3.375C48,1.512,46.488,0,44.625,0 M46.398,31.828c0,0.977-0.793,1.773-1.773,1.773H3.375
	c-0.98,0-1.773-0.797-1.773-1.773V3.375c0-0.98,0.793-1.773,1.773-1.773h41.25c0.98,0,1.773,0.793,1.773,1.773V31.828z"/>
<path fill="#BFBFBF" d="M38.398,20c-1.02,0-1.973,0.276-2.797,0.758C34.773,20.276,33.82,20,32.801,20
	c-3.09,0-5.602,2.512-5.602,5.602c0,3.085,2.512,5.598,5.602,5.598c1.02,0,1.973-0.277,2.801-0.759
	c0.824,0.481,1.777,0.759,2.797,0.759c3.09,0,5.602-2.513,5.602-5.598C44,22.512,41.488,20,38.398,20 M36.801,25.602
	c0,1.113-0.461,2.121-1.199,2.848c-0.742-0.727-1.203-1.734-1.203-2.848c0-1.118,0.461-2.125,1.203-2.852
	C36.34,23.477,36.801,24.483,36.801,25.602 M28.801,25.602c0-2.207,1.793-4,4-4c0.504,0,0.984,0.102,1.43,0.273
	c-0.887,0.992-1.43,2.293-1.43,3.727c0,1.43,0.543,2.73,1.43,3.723c-0.445,0.172-0.926,0.277-1.43,0.277
	C30.594,29.602,28.801,27.805,28.801,25.602 M38.398,29.602c-0.504,0-0.984-0.105-1.43-0.277c0.887-0.992,1.43-2.293,1.43-3.723
	c0-1.434-0.543-2.734-1.43-3.727c0.445-0.172,0.926-0.273,1.43-0.273c2.207,0,4,1.793,4,4
	C42.398,27.805,40.605,29.602,38.398,29.602"/>
<path fill="#BFBFBF" d="M6.605,17.602h10.789c0.996,0,1.805-0.813,1.805-1.805V8.203c0-0.992-0.809-1.805-1.805-1.805H6.605
	c-0.996,0-1.805,0.813-1.805,1.805v7.594C4.801,16.789,5.609,17.602,6.605,17.602 M9.602,12.801H6.398v-1.602h3.203V12.801z
	 M6.398,15.797v-1.399h3.203v1.399c0,0.07,0.012,0.137,0.02,0.203H6.605C6.492,16,6.398,15.91,6.398,15.797 M17.602,12.801h-3.203
	v-1.399c0-0.109,0.094-0.203,0.207-0.203h2.789c0.07,0,0.137-0.012,0.207-0.019V12.801z M17.395,16h-3.016
	c0.008-0.066,0.02-0.133,0.02-0.203v-1.399h3.203v1.399C17.602,15.91,17.508,16,17.395,16 M17.395,8c0.113,0,0.207,0.09,0.207,0.203
	v1.192c0,0.113-0.094,0.207-0.207,0.207h-2.789c-0.996,0-1.805,0.808-1.805,1.8v4.395c0,0.113-0.094,0.203-0.203,0.203h-1.195
	c-0.109,0-0.203-0.09-0.203-0.203V8.203C11.199,8.09,11.293,8,11.402,8H17.395z M6.605,8h3.016c-0.008,0.066-0.02,0.133-0.02,0.203
	v1.399H6.398V8.203C6.398,8.09,6.492,8,6.605,8"/>
</svg>
