<?xml version="1.0" encoding="utf-8"?>
<!-- Generator: Adobe Illustrator 15.0.2, SVG Export Plug-In  -->
<!DOCTYPE svg PUBLIC "-//W3C//DTD SVG 1.1//EN" "http://www.w3.org/Graphics/SVG/1.1/DTD/svg11.dtd" [
	<!ENTITY ns_flows "http://ns.adobe.com/Flows/1.0/">
]>
<svg version="1.1"
	 xmlns="http://www.w3.org/2000/svg" xmlns:xlink="http://www.w3.org/1999/xlink" xmlns:a="http://ns.adobe.com/AdobeSVGViewerExtensions/3.0/"
	 x="0px" y="0px" width="51px" height="43px" viewBox="-1.21 -1.045 51 43" enable-background="new -1.21 -1.045 51 43"
	 xml:space="preserve">
<defs>
</defs>
<path fill="#BFBFBF" d="M15.509,35.142H1.877L3.667,1.83h23.99l0.926,17.249c0.027,0.505,0.457,0.891,0.963,0.865
	c0.502-0.027,0.889-0.459,0.862-0.964L29.436,0.866C29.409,0.38,29.009,0,28.523,0H2.801C2.315,0,1.916,0.38,1.889,0.866
	L0.001,36.008c-0.013,0.251,0.077,0.497,0.249,0.679c0.172,0.183,0.412,0.285,0.663,0.285h14.596c0.504,0,0.913-0.409,0.913-0.915
	C16.422,35.552,16.013,35.142,15.509,35.142"/>
<path fill="#BFBFBF" d="M8.706,3.401c-0.504,0-0.913,0.41-0.913,0.915v4.287c0,4.138,3.36,7.505,7.49,7.505
	c4.131,0,7.491-3.367,7.491-7.505V4.316c0-0.505-0.409-0.915-0.914-0.915s-0.913,0.41-0.913,0.915v4.287
	c0,3.129-2.541,5.674-5.664,5.674c-3.123,0-5.664-2.545-5.664-5.674V4.316C9.619,3.811,9.211,3.401,8.706,3.401"/>
<path fill="#BFBFBF" d="M48.086,21.049h-2.534l-0.537-10.116c-0.024-0.486-0.426-0.866-0.912-0.866h-1.461V9.133
	c0-1.806-1.467-3.276-3.271-3.276s-3.271,1.47-3.271,3.276v0.934h-1.194c-0.486,0-0.888,0.38-0.913,0.866l-0.535,10.116H18.491
	c-0.505,0-0.913,0.41-0.913,0.915v18.12c0,0.506,0.408,0.916,0.913,0.916h29.595C48.591,41,49,40.59,49,40.084v-18.12
	C49,21.459,48.591,21.049,48.086,21.049 M37.927,9.133c0-0.797,0.647-1.446,1.444-1.446c0.796,0,1.442,0.649,1.442,1.446v0.934
	h-2.887V9.133z M35.772,11.897h7.463l0.486,9.152h-8.435L35.772,11.897z M47.173,25.625H19.405v-2.746h27.768V25.625z
	 M19.405,27.455h27.768v11.714H19.405V27.455z"/>
</svg>
