<?xml version="1.0" encoding="utf-8"?>
<!-- Generator: Adobe Illustrator 15.0.2, SVG Export Plug-In  -->
<!DOCTYPE svg PUBLIC "-//W3C//DTD SVG 1.1//EN" "http://www.w3.org/Graphics/SVG/1.1/DTD/svg11.dtd" [
	<!ENTITY ns_flows "http://ns.adobe.com/Flows/1.0/">
]>
<svg version="1.1"
	 xmlns="http://www.w3.org/2000/svg" xmlns:xlink="http://www.w3.org/1999/xlink" xmlns:a="http://ns.adobe.com/AdobeSVGViewerExtensions/3.0/"
	 x="0px" y="0px" width="42px" height="50px" viewBox="-0.417 -0.771 42 50" enable-background="new -0.417 -0.771 42 50"
	 xml:space="preserve">
<defs>
</defs>
<path fill="#BFBFBF" d="M13.313,43.588V34.34c6.514-0.421,11.685-5.851,11.685-12.466v-0.069c0-0.435-0.341-0.789-0.771-0.813
	c0.131-0.51,0.2-1.036,0.2-1.575c0-3.329-2.583-6.064-5.849-6.313c-0.779-2.674-3.236-4.552-6.079-4.552
	c-2.844,0-5.302,1.878-6.08,4.552c-3.267,0.25-5.849,2.984-5.849,6.313c0,0.539,0.068,1.065,0.199,1.575
	C0.341,21.016,0,21.37,0,21.805v0.069c0,6.615,5.17,12.045,11.683,12.466v9.248c-2.548,0.268-4.809,1.782-6.024,4.085
	c-0.133,0.252-0.124,0.556,0.024,0.801c0.147,0.244,0.412,0.394,0.697,0.394h12.236c0.286,0,0.551-0.149,0.697-0.394
	c0.147-0.245,0.156-0.549,0.023-0.801C18.123,45.37,15.862,43.855,13.313,43.588 M22.797,19.417c0,0.544-0.091,1.072-0.269,1.573
	h-8.87c-0.085-0.239-0.152-0.484-0.197-0.735c-0.05-0.275-0.075-0.557-0.075-0.838c0-2.563,2.006-4.629,4.569-4.703
	c0.046-0.001,0.091-0.002,0.137-0.002C20.686,14.712,22.797,16.823,22.797,19.417 M12.499,10.181c1.98,0,3.71,1.227,4.393,3.017
	c-1.264,0.242-2.425,0.862-3.34,1.802c-0.423,0.434-0.774,0.919-1.054,1.44c-0.278-0.521-0.631-1.006-1.053-1.44
	c-0.915-0.94-2.078-1.561-3.341-1.802C8.788,11.408,10.517,10.181,12.499,10.181 M6.906,14.712c0.045,0,0.09,0.001,0.137,0.002
	c2.561,0.074,4.568,2.139,4.568,4.703c0,0.281-0.026,0.564-0.076,0.84c-0.045,0.25-0.112,0.495-0.197,0.733H2.469
	C2.29,20.489,2.2,19.961,2.2,19.417C2.2,16.823,4.31,14.712,6.906,14.712 M1.655,22.619h21.687
	c-0.384,5.645-5.101,10.119-10.844,10.119C6.756,32.738,2.04,28.264,1.655,22.619 M7.924,47.238
	c1.143-1.299,2.797-2.064,4.574-2.064c1.778,0,3.432,0.766,4.575,2.064H7.924z"/>
<path fill="#BFBFBF" d="M40.444,2.506l-5.866-2.444c-0.23-0.096-0.493-0.081-0.712,0.041c-0.219,0.123-0.368,0.339-0.406,0.586
	l-0.903,5.826h-6.344L25.164,2.42c-0.11-0.436-0.554-0.699-0.989-0.587c-0.437,0.111-0.7,0.555-0.589,0.99l0.944,3.692h-4.637
	c-0.229,0-0.447,0.096-0.602,0.265s-0.23,0.395-0.21,0.622l0.428,4.77c0.041,0.448,0.438,0.779,0.885,0.739
	c0.448-0.041,0.779-0.436,0.738-0.884l-0.085-0.945h15.288l-0.498,5.532H25.606c-0.45,0-0.815,0.365-0.815,0.815
	c0,0.45,0.365,0.814,0.815,0.814h10.086l-0.176,1.956h-9.04c-0.451,0-0.815,0.364-0.815,0.814c0,0.45,0.364,0.815,0.815,0.815h8.894
	l-0.387,4.306h-9.522c-0.448,0-0.813,0.365-0.813,0.814c0,0.45,0.365,0.814,0.813,0.814h9.375l-0.314,3.512H22.783
	c-0.149-0.281-0.46-0.459-0.8-0.424c-0.447,0.045-0.774,0.444-0.728,0.892l0.116,1.15c0.164,1.832,1.003,3.524,2.361,4.766
	c1.156,1.056,2.604,1.707,4.144,1.877v5.042c-1.871,0.254-3.52,1.393-4.419,3.095c-0.133,0.254-0.124,0.558,0.023,0.802
	s0.412,0.394,0.698,0.394h8.996c0.284,0,0.55-0.149,0.696-0.394c0.148-0.244,0.157-0.548,0.024-0.802
	c-0.896-1.693-2.53-2.828-4.39-3.091v-5.046c1.54-0.17,2.988-0.821,4.144-1.877c1.358-1.241,2.197-2.933,2.361-4.765l2.292-25.491
	c0.02-0.227-0.057-0.453-0.211-0.622s-0.372-0.265-0.602-0.265h-3.286l0.706-4.55l4.906,2.044c0.416,0.173,0.893-0.023,1.066-0.438
	C41.057,3.155,40.86,2.678,40.444,2.506 M32.304,8.145l-0.203,1.309h-5.138l-0.334-1.309H32.304z M20.784,8.145h4.162l0.335,1.309
	h-4.38L20.784,8.145z M25.831,47.238c0.771-0.688,1.776-1.086,2.847-1.086c1.069,0,2.075,0.397,2.846,1.086H25.831z M28.691,37.954
	c-2.925,0-5.336-2.156-5.678-5.05H34.37C34.033,35.793,31.62,37.954,28.691,37.954 M36.601,8.145l-0.118,1.309h-2.733l0.203-1.309
	H36.601z"/>
</svg>
