<?xml version="1.0" encoding="utf-8"?>
<!-- Generator: Adobe Illustrator 15.0.2, SVG Export Plug-In  -->
<!DOCTYPE svg PUBLIC "-//W3C//DTD SVG 1.1//EN" "http://www.w3.org/Graphics/SVG/1.1/DTD/svg11.dtd" [
	<!ENTITY ns_flows "http://ns.adobe.com/Flows/1.0/">
]>
<svg version="1.1"
	 xmlns="http://www.w3.org/2000/svg" xmlns:xlink="http://www.w3.org/1999/xlink" xmlns:a="http://ns.adobe.com/AdobeSVGViewerExtensions/3.0/"
	 x="0px" y="0px" width="63px" height="34px" viewBox="-0.672 -0.666 63 34" enable-background="new -0.672 -0.666 63 34"
	 xml:space="preserve">
<defs>
</defs>
<path fill="#BFBFBF" d="M38.769,23.083c0.258-0.309,0.312-0.736,0.137-1.096c-0.174-0.361-0.543-0.591-0.948-0.591H1.051
	c-0.406,0-0.776,0.229-0.95,0.591c-0.173,0.359-0.12,0.787,0.137,1.096l4.714,5.647l0.982,3.254
	c0.132,0.438,0.542,0.738,1.007,0.738h25.126c0.464,0,0.874-0.3,1.007-0.738l0.983-3.254L38.769,23.083z M35.735,23.461
	l-3.123,3.743H6.395l-3.123-3.743H35.735z M31.281,30.659H7.725l-0.42-1.389h24.396L31.281,30.659z"/>
<path fill="#BFBFBF" d="M46.053,13.258c2.782,2.067,4.865,5,5.862,8.26c0.138,0.447,0.555,0.735,1.006,0.735
	c0.101,0,0.202-0.015,0.304-0.045c0.556-0.163,0.871-0.739,0.704-1.285c-1.126-3.677-3.474-6.983-6.609-9.313
	c-3.243-2.408-7.106-3.681-11.173-3.681c-0.58,0-1.05,0.462-1.05,1.032s0.47,1.033,1.05,1.033
	C39.752,9.994,43.178,11.122,46.053,13.258"/>
<path fill="#BFBFBF" d="M60.946,25.399h-2.749C57.819,14.793,49.65,6.101,39.154,4.689c0.209-0.428,0.327-0.908,0.327-1.413
	C39.481,1.47,37.984,0,36.147,0c-1.838,0-3.335,1.47-3.335,3.276c0,0.505,0.118,0.983,0.326,1.41
	C29.69,5.147,26.414,6.4,23.53,8.377c-3.627,2.488-6.383,5.937-7.973,9.974c-0.209,0.533,0.061,1.13,0.602,1.336
	s1.15-0.059,1.359-0.591c1.438-3.653,3.932-6.774,7.215-9.025c3.357-2.303,7.303-3.519,11.413-3.519
	c10.747,0,19.537,8.385,19.95,18.847H39.033c-0.581,0-1.051,0.462-1.051,1.033c0,0.57,0.47,1.032,1.051,1.032h21.913
	c0.58,0,1.05-0.462,1.05-1.032C61.996,25.861,61.526,25.399,60.946,25.399 M34.915,3.276c0-0.668,0.553-1.211,1.232-1.211
	c0.679,0,1.232,0.543,1.232,1.211s-0.554,1.211-1.232,1.211C35.468,4.487,34.915,3.944,34.915,3.276"/>
</svg>
