<?xml version="1.0" encoding="utf-8"?>
<!-- Generator: Adobe Illustrator 18.1.1, SVG Export Plug-In . SVG Version: 6.00 Build 0)  -->
<svg version="1.1" id="Layer_1" xmlns="http://www.w3.org/2000/svg" xmlns:xlink="http://www.w3.org/1999/xlink" x="0px" y="0px"
	 viewBox="0 0 151 143" enable-background="new 0 0 151 143" xml:space="preserve">
<title>logo dvor</title>
<g>
	
		<linearGradient id="SVGID_1_" gradientUnits="userSpaceOnUse" x1="223.0697" y1="97.4248" x2="223.0697" y2="96.4243" gradientTransform="matrix(24.2813 0 0 -55.3875 -5340.001 5444.5078)">
		<stop  offset="0" style="stop-color:#F2904C"/>
		<stop  offset="1" style="stop-color:#EE713E"/>
	</linearGradient>
	<path fill="url(#SVGID_1_)" d="M80.1,53.2h3.7v4h4.8v46.6c0,0-4.2-0.9-12.1-0.9s-12.1,0.9-12.1,0.9V57.2h4.8v-4h3.7v-4.8h7.3V53.2
		L80.1,53.2z"/>
	
		<linearGradient id="SVGID_2_" gradientUnits="userSpaceOnUse" x1="214.3231" y1="96.6511" x2="214.3231" y2="95.6516" gradientTransform="matrix(13.7604 0 0 -42.5903 -2861.095 4178.7944)">
		<stop  offset="0" style="stop-color:#F6E83C"/>
		<stop  offset="1" style="stop-color:#EAE325;stop-opacity:0.65"/>
	</linearGradient>
	<path fill="url(#SVGID_2_)" d="M81.2,62.3l13.8,9.5v33c0,0-2-0.6-6.6-1.3c-4.6-0.6-7.2-0.7-7.2-0.7V62.3L81.2,62.3z"/>
	
		<linearGradient id="SVGID_3_" gradientUnits="userSpaceOnUse" x1="213.7138" y1="95.3116" x2="213.7138" y2="94.3119" gradientTransform="matrix(13.3554 0 0 -30.424 -2790.2041 2974.3381)">
		<stop  offset="0" style="stop-color:#73B72B;stop-opacity:0.63"/>
		<stop  offset="1" style="stop-color:#C2D100"/>
	</linearGradient>
	<path fill="url(#SVGID_3_)" d="M59.7,76.8h-2.4v28.3c0,0,1.8-0.4,6.1-1.1s7.3-0.7,7.3-0.7V76.8h-2.4v-2.2h-8.4L59.7,76.8L59.7,76.8
		z"/>
	<path fill="#805D49" d="M102.3,92.2l-3.1-3.3l-3.3-0.6l3.7-0.6l2.9,2.4l0.2-3.1l-2.8-16.9l1.5-9h1.3l-0.6,8.6l0.9,5l2.4-1.1
		l5.7-1.8l3.5-3.5l-2.6,3.9l-5.1,2.6l-3.5,1.7l2,12.5l-0.4,19.4l-3.7-1.7L102.3,92.2L102.3,92.2z"/>
	<path fill="#81BB38" d="M86.9,38.5l9.9-9.9l16.9,5.9l5,15l-9.2,11.9l-13.9,1.7L84.1,50.8L86.9,38.5L86.9,38.5z"/>
	<path fill="#98C449" d="M94.9,39.2l7-5.9l10.5,8.4l-16.1,7.3l-3.7-7.3L94.9,39.2z"/>
	<path fill="#80BA27" d="M86.9,38.5l7,1.5l-7,11.4l-2.8-0.6L86.9,38.5L86.9,38.5z"/>
	<path fill="#66A330" d="M86.5,51.1l7,5l1.8,2.8v4.2L84.1,50.6L86.5,51.1L86.5,51.1z"/>
	<path fill="#80BA27" d="M104.1,57.7l5.1,3.5l-13.9,2v-2.9L104.1,57.7L104.1,57.7z"/>
	<path fill="#98C449" d="M118.4,49.5l-9.2,11.7l-5.5-3.5l7.3-15.8L118.4,49.5L118.4,49.5z"/>
	<path fill="#9AC449" d="M103.2,34.3h10.5l5,15.4L103.2,34.3z M86.9,38.3l9.7-9.9l4.8,6.1l-8.6,7L86.9,38.3L86.9,38.3z"/>
	<path fill="#D5DE6C" d="M96.6,28.4l16.5,5.9c0,0,0.7,0.4,0.4,0.4c-3.7,0.2-12.3,0.2-12.3,0.2L96.6,28.4L96.6,28.4z"/>
	<g>
		<path fill="#805D49" d="M50.9,98.3l1.7-1.7l1.8-0.4l-2-0.4l-1.7,1.3v-1.7l0.6-3.7l3.7-1.5l0.4-2.4l-0.9,2l-2.9,1.1l0.4-1.7
			l0.6-2.9L51.5,82h-0.7l0.4,4.6l-0.4,2.6l-1.3-0.6l-3.3-1.1l-1.8-1.8l1.5,2l2.8,1.3l1.8,0.9l-1.1,6.8l0.2,10.3l2-0.9L50.9,98.3
			L50.9,98.3z"/>
		<path fill="#81BB38" d="M59.5,69.9l-5.3-5.3l-8.8,3.1l-2.6,7.9l4.8,6.2l7.3,0.9l6.1-6.4L59.5,69.9L59.5,69.9z"/>
		<path fill="#98C449" d="M55.3,70l-3.7-3.1l-5.5,4.6l8.6,4l2-4L55.3,70L55.3,70z"/>
		<path fill="#80BA27" d="M59.5,69.9l-3.7,0.7l3.7,6.1l1.5-0.2L59.5,69.9z"/>
		<path fill="#66A330" d="M59.7,76.5L55.9,79l-0.9,1.5v2.2l6.1-6.4L59.7,76.5L59.7,76.5z"/>
		<path fill="#80BA27" d="M50.4,79.9l-2.8,1.8l7.3,0.9v-1.5L50.4,79.9L50.4,79.9z"/>
		<path fill="#98C449" d="M42.8,75.4l4.8,6.2l2.9-1.8l-3.9-8.3C46.7,71.3,42.8,75.4,42.8,75.4z"/>
		<path fill="#9AC449" d="M50.9,67.3h-5.5l-2.6,8.1L50.9,67.3z M59.4,69.7l-5.1-5.3l-2.6,3.1l4.6,3.7L59.4,69.7L59.4,69.7z"/>
		<path fill="#D5DE6C" d="M54,64.5l-9,3.1c0,0-0.4,0.2-0.2,0.2c2,0,6.6,0,6.6,0L54,64.5L54,64.5z"/>
	</g>
	<g>
		<path fill="#805D49" d="M58.8,102.3l-0.4-4.2l-0.2-1.7h0.2l0.4,1.7l0.4,4.6l-0.4,1.7l-0.7,0.4L58.8,102.3L58.8,102.3z"/>
		<path fill="#81BB38" d="M55.9,92.6l1.7-1.8l2.8,1.1l0.9,2.6l-1.7,2.2L57.3,97l-1.8-2.2L55.9,92.6L55.9,92.6z"/>
		<path fill="#98C449" d="M57.3,92.6l1.1-1.1l1.7,1.5l-2.6,1.3L57,93L57.3,92.6L57.3,92.6z"/>
		<path fill="#80BA27" d="M55.9,92.4l1.5,0.2l-1.5,1.8h-0.6L55.9,92.4L55.9,92.4z"/>
		<path fill="#66A330" d="M55.9,95l1.3,0.9l0.4,0.4V97l-2.2-2.2L55.9,95L55.9,95z"/>
		<path fill="#80BA27" d="M58.8,95.7l0.9,0.7l-2.4,0.4v-0.7L58.8,95.7L58.8,95.7z"/>
		<path fill="#98C449" d="M61.4,94.3l-1.8,2.2l-1.1-0.7l1.5-2.9L61.4,94.3L61.4,94.3z"/>
		<path fill="#9AC449" d="M58.6,91.5h2l0.9,2.8L58.6,91.5z M55.7,92.6l2-1.8l0.9,1.1L57,93.2L55.7,92.6L55.7,92.6z"/>
		<path fill="#D5DE6C" d="M57.3,90.4l2.8,1.1c0,0,0.2,0,0,0c-0.6,0-2,0-2,0L57.3,90.4L57.3,90.4z"/>
	</g>
	<g>
		<g>
			<path fill="#010202" d="M92.6,100.7l-1.3-3.3l0.7-1.5h-0.2l-0.9,1.3l1.3,3.7l-0.9,2.9l0.7,0.4L92.6,100.7L92.6,100.7z"/>
			<path fill="#010202" d="M88.9,92.1l1.7-1.8l2.8,1.1l0.9,2.6l-1.5,2l-2.2,0.4l-1.8-2.2L88.9,92.1L88.9,92.1z"/>
			<path fill="#010202" d="M90.5,92.2l1.1-1.1l1.7,1.5l-2.6,1.3l-0.6-1.3L90.5,92.2L90.5,92.2z"/>
			<path fill="#010202" d="M89.1,92.1l1.5,0.2l-1.5,1.8h-0.6L89.1,92.1L89.1,92.1z M88.9,94.1l1.3,0.9l0.4,0.4v0.7l-2-2L88.9,94.1
				L88.9,94.1z"/>
			<path fill="#010202" d="M92,95.2l0.9,0.7l-2.4,0.4v-0.7L92,95.2L92,95.2z"/>
			<path fill="#010202" d="M94.6,93.9l-1.8,2.2l-1.1-0.7l1.5-2.9L94.6,93.9L94.6,93.9z"/>
			<path fill="#010202" d="M91.8,91.1h2l0.9,2.8L91.8,91.1L91.8,91.1z M88.9,92.2l2-1.8l0.9,1.1l-1.7,1.3L88.9,92.2L88.9,92.2z"/>
			<path fill="#010202" d="M90.5,90l2.8,1.1c0,0,0.2,0,0,0c-0.6,0-2,0-2,0L90.5,90z"/>
		</g>
		<path fill="#805D49" d="M92.6,100.7l-1.3-3.3l0.7-1.5h-0.2l-0.9,1.3l1.3,3.7l-0.9,2.9l0.7,0.4L92.6,100.7L92.6,100.7z"/>
		<path fill="#81BB38" d="M88.9,92.1l1.7-1.8l2.8,1.1l0.9,2.6l-1.5,2l-2.2,0.4l-1.8-2.2L88.9,92.1L88.9,92.1z"/>
		<path fill="#98C449" d="M90.5,92.2l1.1-1.1l1.7,1.5l-2.6,1.3l-0.6-1.3L90.5,92.2L90.5,92.2z"/>
		<path fill="#80BA27" d="M89.1,92.1l1.5,0.2l-1.5,1.8h-0.6L89.1,92.1L89.1,92.1z"/>
		<path fill="#66A330" d="M88.9,94.1l1.3,0.9l0.4,0.4v0.7l-2-2L88.9,94.1L88.9,94.1z"/>
		<path fill="#80BA27" d="M92,95.2l0.9,0.7l-2.4,0.4v-0.7L92,95.2L92,95.2z"/>
		<path fill="#98C449" d="M94.6,93.9l-1.8,2.2l-1.1-0.7l1.5-2.9L94.6,93.9L94.6,93.9z"/>
		<path fill="#9AC449" d="M91.8,91.1h2l0.9,2.8L91.8,91.1L91.8,91.1z M88.9,92.2l2-1.8l0.9,1.1l-1.7,1.3L88.9,92.2L88.9,92.2z"/>
		<path fill="#D5DE6C" d="M90.5,90l2.8,1.1c0,0,0.2,0,0,0c-0.6,0-2,0-2,0L90.5,90z"/>
	</g>
	<g>
		<path fill="#805D49" d="M43.2,105.1l-0.9-0.9l-0.4-0.9l0.6,0.6l0.7,0.6v-0.9l-0.7-4.6l0.4-2.4h0.6l-0.2,2.4l0.2,1.5h0.4h0.4
			c0,0,1.7-0.4,2-0.2l-1.5,0.6l-1.1,0.4l0.6,2.9v4.8l-0.9,0.4V105.1L43.2,105.1z"/>
		<path fill="#81BB38" d="M39,91l2.6-2.6l4.4,1.5l1.3,3.9l-2.4,3.1l-3.7,0.4l-2.9-3.1L39,91L39,91z"/>
		<path fill="#98C449" d="M41.4,91.1l1.8-1.5l2.8,2.2l-4.2,1.8l-0.9-1.8L41.4,91.1L41.4,91.1z"/>
		<path fill="#80BA27" d="M39.2,90.8l2,0.4l-2,2.9l-0.9-0.2L39.2,90.8L39.2,90.8z"/>
		<path fill="#66A330" d="M39,94.3l2,1.3l0.6,0.7v1.1l-3.3-3.3L39,94.3L39,94.3z"/>
		<path fill="#80BA27" d="M43.9,95.7l1.3,0.9l-3.7,0.6v-0.9L43.9,95.7L43.9,95.7z"/>
		<path fill="#98C449" d="M47.6,93.7L45,96.8l-1.5-0.9l2-4.2L47.6,93.7L47.6,93.7z"/>
		<path fill="#9AC449" d="M43.6,90h2.8l1.3,4L43.6,90L43.6,90z M39.2,91.1l2.8-2.8l1.3,1.7l-2.4,2L39.2,91.1L39.2,91.1z"/>
		<path fill="#D5DE6C" d="M41.6,88.4l4.4,1.5h0.2c-0.9,0-3.1,0-3.1,0L41.6,88.4L41.6,88.4z"/>
	</g>
</g>
</svg>
