<?xml version="1.0" encoding="utf-8"?>
<!-- Generator: Adobe Illustrator 15.0.2, SVG Export Plug-In  -->
<!DOCTYPE svg PUBLIC "-//W3C//DTD SVG 1.1//EN" "http://www.w3.org/Graphics/SVG/1.1/DTD/svg11.dtd" [
	<!ENTITY ns_flows "http://ns.adobe.com/Flows/1.0/">
]>
<svg version="1.1"
	 xmlns="http://www.w3.org/2000/svg" xmlns:xlink="http://www.w3.org/1999/xlink" xmlns:a="http://ns.adobe.com/AdobeSVGViewerExtensions/3.0/"
	 x="0px" y="0px" width="336px" height="191px" viewBox="-0.368 -0.288 336 191" enable-background="new -0.368 -0.288 336 191"
	 xml:space="preserve">
<defs>
</defs>
<path fill="none" stroke="#9B9B9B" stroke-width="2" stroke-linecap="round" stroke-linejoin="round" stroke-miterlimit="10" d="
	M283.433,181.072c0,1.56-1.275,2.836-2.835,2.836H67.289c-1.559,0-2.835-1.276-2.835-2.836V60.265c0-1.559,1.276-2.835,2.835-2.835
	h213.309c1.56,0,2.835,1.276,2.835,2.835V181.072z"/>
<path fill="none" stroke="#9B9B9B" stroke-width="2" stroke-linecap="round" stroke-linejoin="round" stroke-miterlimit="10" d="
	M60.242,133.862l-53.509-7.748c-3.67-0.56-6.213-4.019-5.657-7.688L18.083,6.733c0.559-3.67,4.017-6.213,7.688-5.656l203.14,30.929
	c3.67,0.559,6.213,4.018,5.656,7.688l-2.092,13.729"/>
<path fill="none" stroke="#9B9B9B" stroke-width="2" stroke-linecap="round" stroke-linejoin="round" stroke-miterlimit="10" d="
	M28.832,5.477l195.345,29.741c5.795,1.143,6.457,2.037,5.655,7.688l-1.628,10.668"/>
<path fill="none" stroke="#9B9B9B" stroke-width="2" stroke-linecap="round" stroke-linejoin="round" stroke-miterlimit="10" d="
	M151.498,119.974L64.496,75.091 M283.392,75.091l-85.948,44.342"/>
<path fill="none" stroke="#9B9B9B" stroke-width="2" stroke-linecap="round" stroke-linejoin="round" stroke-miterlimit="10" d="
	M146.697,122.185L69.276,82.242 M278.607,82.246l-77.343,39.901 M72.189,178.974h205c0.78,0,1.418-0.639,1.418-1.417V82.246"/>
<path fill="none" stroke="#9B9B9B" stroke-width="2" stroke-linecap="round" stroke-linejoin="round" stroke-miterlimit="10" d="
	M196.21,123.843c0,3.401,2.213,7.95,0.94,10.882c-1.593,3.673-5.532,5.134-8.629,7.587c-4.104,3.253-7.479,8.71-12.83,6.926
	c-3.597-1.203-7.592-3.033-9.591-3.569c-4.541-1.221-5.8-0.446-9.414-6.397c-1.664-2.74-5.481-5.019-6.545-8.117
	c-0.846-2.457,1.636-4.992,1.636-7.735c0-2.938-0.763-6.029,0.201-8.632c1.294-3.499,5.03-3.349,7.683-5.865
	c1.928-1.825,2.504-6.598,4.949-7.713c3.038-1.38,5.779,0.425,9.331,0.425c3.502,0,6.968-0.682,9.97,0.662
	c3.002,1.342,4.522,4.408,6.723,6.797c1.482,1.606,4.398,1.138,5.4,3.099C197.718,115.478,196.21,119.899,196.21,123.843z"/>
<circle fill="none" stroke="#9B9B9B" stroke-width="2" stroke-linecap="round" stroke-linejoin="round" stroke-miterlimit="10" cx="174.557" cy="124.658" r="16.208"/>
<path fill="none" stroke="#9B9B9B" stroke-width="2" stroke-linecap="round" stroke-linejoin="round" stroke-miterlimit="10" d="
	M186.888,124.658c0,6.813-5.518,12.332-12.33,12.332c-6.809,0-12.329-5.52-12.329-12.332"/>
<polyline fill="none" stroke="#9B9B9B" stroke-width="2" stroke-linecap="round" stroke-linejoin="round" stroke-miterlimit="10" points="
	164.751,145.202 145.226,167.049 142.468,154.971 130.71,154.045 150.72,131.717 "/>
<polyline fill="none" stroke="#9B9B9B" stroke-width="2" stroke-linecap="round" stroke-linejoin="round" stroke-miterlimit="10" points="
	183.779,146.659 201.767,167.05 204.524,154.972 216.279,154.046 197.546,133.673 "/>
<line fill="none" stroke="#9B9B9B" stroke-width="2" stroke-linecap="round" stroke-linejoin="round" stroke-miterlimit="10" x1="168.412" y1="146.466" x2="148.356" y2="169.338"/>
<line fill="none" stroke="#9B9B9B" stroke-width="2" stroke-linecap="round" stroke-linejoin="round" stroke-miterlimit="10" x1="181.222" y1="149.587" x2="198.774" y2="169.337"/>
<line fill="none" stroke="#9B9B9B" stroke-width="2" stroke-linecap="round" stroke-linejoin="round" stroke-miterlimit="10" x1="64.497" y1="188.396" x2="283.433" y2="188.396"/>
<line fill="none" stroke="#9B9B9B" stroke-width="2" stroke-linecap="round" stroke-linejoin="round" stroke-miterlimit="10" x1="21.63" y1="183.907" x2="325.088" y2="183.907"/>
<line fill="none" stroke="#9B9B9B" stroke-width="2" stroke-linecap="round" stroke-linejoin="round" stroke-miterlimit="10" x1="283.433" y1="178.974" x2="315.29" y2="178.974"/>
<line fill="none" stroke="#9B9B9B" stroke-width="2" stroke-linecap="round" stroke-linejoin="round" stroke-miterlimit="10" x1="31.427" y1="178.974" x2="64.496" y2="178.974"/>
<line fill="none" stroke="#9B9B9B" stroke-width="2" stroke-linecap="round" stroke-linejoin="round" stroke-miterlimit="10" x1="278.606" y1="72.657" x2="278.606" y2="64.328"/>
<path fill="none" stroke="#9B9B9B" stroke-width="2" stroke-linecap="round" stroke-linejoin="round" stroke-miterlimit="10" d="
	M16.447,183.91c0,0.803-0.654,1.457-1.463,1.457c-0.803,0-1.457-0.654-1.457-1.457c0-0.812,0.654-1.465,1.457-1.465
	C15.793,182.445,16.447,183.099,16.447,183.91z"/>
<path fill="none" stroke="#9B9B9B" stroke-width="2" stroke-linecap="round" stroke-linejoin="round" stroke-miterlimit="10" d="
	M333.194,183.91c0,0.803-0.654,1.457-1.466,1.457c-0.805,0-1.457-0.654-1.457-1.457c0-0.812,0.652-1.465,1.457-1.465
	C332.54,182.445,333.194,183.099,333.194,183.91z"/>
<path fill="none" stroke="#9B9B9B" stroke-width="2" stroke-linecap="round" stroke-linejoin="round" stroke-miterlimit="10" d="
	M60.202,50.339l0.619-3.95c-1.082-0.168-1.822-1.178-1.654-2.26c0.169-1.077,1.181-1.818,2.264-1.651l0.614-3.963
	c-1.08-0.168-1.823-1.18-1.654-2.258c0.171-1.082,1.183-1.819,2.263-1.653l0.616-3.96c-1.079-0.169-1.819-1.181-1.651-2.263
	c0.169-1.077,1.178-1.817,2.261-1.646l0.616-3.965c-1.079-0.166-1.819-1.181-1.651-2.258l-5.399-0.843
	c-0.167,1.08-1.179,1.82-2.261,1.651c-1.077-0.166-1.817-1.181-1.649-2.258l-3.962-0.619c-0.169,1.08-1.183,1.817-2.26,1.651
	c-1.08-0.168-1.818-1.183-1.652-2.258L41.7,17.217c-0.166,1.082-1.178,1.82-2.258,1.651c-1.08-0.171-1.82-1.178-1.649-2.26
	l-4.364-0.68c-0.167,1.08-1.179,1.82-2.259,1.649l-0.619,3.967c1.08,0.166,1.82,1.178,1.654,2.258
	c-0.169,1.08-1.183,1.818-2.263,1.651l-0.617,3.96c1.083,0.171,1.823,1.181,1.652,2.263c-0.169,1.077-1.178,1.82-2.261,1.649
	l-0.614,3.965c1.077,0.166,1.817,1.178,1.651,2.258c-0.168,1.079-1.183,1.817-2.26,1.651l-0.62,3.959
	c1.078,0.169,1.813,1.176,1.652,2.248l4.362,0.683c0.169-1.08,1.178-1.82,2.261-1.654c1.08,0.168,1.82,1.18,1.648,2.263l3.965,0.614
	c0.166-1.08,1.178-1.817,2.261-1.651c1.08,0.168,1.817,1.18,1.648,2.26l3.963,0.617c0.171-1.077,1.18-1.818,2.26-1.649
	c1.08,0.166,1.82,1.181,1.649,2.258l5.399,0.838C58.113,50.91,59.122,50.17,60.202,50.339z"/>
<line fill="none" stroke="#9B9B9B" stroke-width="2" stroke-linecap="round" stroke-linejoin="round" stroke-miterlimit="10" x1="15.951" y1="109.001" x2="60.733" y2="116.599"/>
<line fill="none" stroke="#9B9B9B" stroke-width="2" stroke-linecap="round" stroke-linejoin="round" stroke-miterlimit="10" x1="17.134" y1="101.915" x2="60.776" y2="109.343"/>
<line fill="none" stroke="#9B9B9B" stroke-width="2" stroke-linecap="round" stroke-linejoin="round" stroke-miterlimit="10" x1="18.317" y1="94.829" x2="60.733" y2="102.081"/>
<line fill="none" stroke="#9B9B9B" stroke-width="2" stroke-linecap="round" stroke-linejoin="round" stroke-miterlimit="10" x1="19.498" y1="87.738" x2="60.776" y2="94.829"/>
<line fill="none" stroke="#9B9B9B" stroke-width="2" stroke-linecap="round" stroke-linejoin="round" stroke-miterlimit="10" x1="8.221" y1="121.947" x2="60.305" y2="129.572"/>
<path fill="none" stroke="#9B9B9B" stroke-width="2" stroke-linecap="round" stroke-linejoin="round" stroke-miterlimit="10" d="
	M46.835,27.633l-8.136-0.992l-0.835,5.951c0,0,9.626,0.675,8.767,5.463c-0.805,4.505-10.676,2.335-10.676,2.335"/>
<line fill="none" stroke="#9B9B9B" stroke-width="2" stroke-linecap="round" stroke-linejoin="round" stroke-miterlimit="10" x1="52.041" y1="37.997" x2="51.434" y2="42.672"/>
<polyline fill="none" stroke="#9B9B9B" stroke-width="2" stroke-linecap="round" stroke-linejoin="round" stroke-miterlimit="10" points="
	55.042,38.483 52.328,40.26 54.896,42.783 "/>
</svg>
