<?xml version="1.0" encoding="utf-8"?>
<!-- Generator: Adobe Illustrator 15.0.2, SVG Export Plug-In  -->
<!DOCTYPE svg PUBLIC "-//W3C//DTD SVG 1.1//EN" "http://www.w3.org/Graphics/SVG/1.1/DTD/svg11.dtd" [
	<!ENTITY ns_flows "http://ns.adobe.com/Flows/1.0/">
]>
<svg version="1.1"
	 xmlns="http://www.w3.org/2000/svg" xmlns:xlink="http://www.w3.org/1999/xlink" xmlns:a="http://ns.adobe.com/AdobeSVGViewerExtensions/3.0/"
	 x="0px" y="0px" width="262px" height="196px" viewBox="-1.157 -0.395 262 196" enable-background="new -1.157 -0.395 262 196"
	 xml:space="preserve">
<defs>
</defs>
<path fill="none" stroke="#9B9B9B" stroke-width="2" stroke-linecap="round" stroke-linejoin="round" stroke-miterlimit="10" d="
	M253.663,146.291c0,1.559-1.276,2.835-2.835,2.835H7.684c-1.559,0-2.834-1.276-2.834-2.835V3.834C4.85,2.275,6.125,1,7.684,1
	h243.145c1.559,0,2.835,1.275,2.835,2.834V146.291z"/>
<polyline fill="none" stroke="#9B9B9B" stroke-width="2" stroke-linecap="round" stroke-linejoin="round" stroke-miterlimit="10" points="
	151.733,10.826 244.297,10.826 244.297,133.933 159.925,133.933 "/>
<polyline fill="none" stroke="#9B9B9B" stroke-width="2" stroke-linecap="round" stroke-linejoin="round" stroke-miterlimit="10" points="
	151.713,181.993 173.79,181.993 173.79,188.432 84.727,188.432 84.727,181.993 106.805,181.993 "/>
<path fill="none" stroke="#9B9B9B" stroke-width="2" stroke-linecap="round" stroke-linejoin="round" stroke-miterlimit="10" d="
	M20.658,141.332c0,1.66-1.345,3.005-3.002,3.005c-1.662,0-3.007-1.345-3.007-3.005s1.345-3.005,3.007-3.005
	C19.313,138.327,20.658,139.672,20.658,141.332z"/>
<line fill="none" stroke="#9B9B9B" stroke-width="2" stroke-linecap="round" stroke-linejoin="round" stroke-miterlimit="10" x1="8.376" y1="188.432" x2="251.678" y2="188.432"/>
<line fill="none" stroke="#9B9B9B" stroke-width="2" stroke-linecap="round" stroke-linejoin="round" stroke-miterlimit="10" x1="27.21" y1="193.853" x2="231.302" y2="193.853"/>
<polyline fill="none" stroke="#9B9B9B" stroke-width="2" stroke-linecap="round" stroke-linejoin="round" stroke-miterlimit="10" points="
	111.077,153.191 147.504,153.191 147.504,177.758 "/>
<rect x="106.742" y="149.125" fill="none" stroke="#9B9B9B" stroke-width="2" stroke-linecap="round" stroke-linejoin="round" stroke-miterlimit="10" width="45.098" height="32.868"/>
<path fill="none" stroke="#9B9B9B" stroke-width="2" stroke-linecap="round" stroke-linejoin="round" stroke-miterlimit="10" d="
	M259.058,188.432c0,0.847-0.688,1.535-1.541,1.535c-0.847,0-1.535-0.688-1.535-1.535c0-0.848,0.688-1.535,1.535-1.535
	C258.37,186.896,259.058,187.584,259.058,188.432z"/>
<circle fill="none" stroke="#9B9B9B" stroke-width="2" stroke-linecap="round" stroke-linejoin="round" stroke-miterlimit="10" cx="2.536" cy="188.432" r="1.536"/>
<polyline fill="none" stroke="#9B9B9B" stroke-width="2" stroke-linecap="round" stroke-linejoin="round" stroke-miterlimit="10" points="
	98.424,133.933 14.215,133.933 14.215,10.826 106.133,10.826 "/>
<path fill="none" stroke="#9B9B9B" stroke-width="2" stroke-linecap="round" stroke-linejoin="round" stroke-miterlimit="10" d="
	M196.239,73.941c0,36.998-29.991,66.985-66.98,66.985c-36.996,0-66.986-29.987-66.986-66.985c0-36.992,29.99-66.98,66.986-66.98
	C166.248,6.961,196.239,36.949,196.239,73.941z"/>
<path fill="none" stroke="#9B9B9B" stroke-width="2" stroke-linecap="round" stroke-linejoin="round" stroke-miterlimit="10" d="
	M191.271,73.941c0,34.253-27.768,62.017-62.013,62.017c-34.25,0-62.016-27.764-62.016-62.017c0-34.247,27.766-62.011,62.016-62.011
	C163.503,11.93,191.271,39.694,191.271,73.941z"/>
<circle fill="none" stroke="#9B9B9B" stroke-width="2" stroke-linecap="round" stroke-linejoin="round" stroke-miterlimit="10" cx="129.256" cy="73.944" r="4.49"/>
<path fill="none" stroke="#9B9B9B" stroke-width="2" stroke-linecap="round" stroke-linejoin="round" stroke-miterlimit="10" d="
	M132.843,71.233h38.603c1.496,0,2.711,1.213,2.711,2.711c0,1.498-1.215,2.711-2.711,2.711h-38.603"/>
<path fill="none" stroke="#9B9B9B" stroke-width="2" stroke-linecap="round" stroke-linejoin="round" stroke-miterlimit="10" d="
	M126.545,70.27V31.667c0-1.496,1.213-2.711,2.711-2.711s2.712,1.215,2.712,2.711V70.27"/>
<line fill="none" stroke="#9B9B9B" stroke-width="2" stroke-linecap="round" stroke-linejoin="round" stroke-miterlimit="10" x1="129.256" y1="126.912" x2="129.256" y2="135.959"/>
<line fill="none" stroke="#9B9B9B" stroke-width="2" stroke-linecap="round" stroke-linejoin="round" stroke-miterlimit="10" x1="129.256" y1="11.93" x2="129.256" y2="20.976"/>
<line fill="none" stroke="#9B9B9B" stroke-width="2" stroke-linecap="round" stroke-linejoin="round" stroke-miterlimit="10" x1="76.288" y1="73.944" x2="67.241" y2="73.944"/>
<line fill="none" stroke="#9B9B9B" stroke-width="2" stroke-linecap="round" stroke-linejoin="round" stroke-miterlimit="10" x1="191.271" y1="73.944" x2="182.225" y2="73.944"/>
<line fill="none" stroke="#9B9B9B" stroke-width="2" stroke-linecap="round" stroke-linejoin="round" stroke-miterlimit="10" x1="82.72" y1="48.642" x2="74.773" y2="44.322"/>
<line fill="none" stroke="#9B9B9B" stroke-width="2" stroke-linecap="round" stroke-linejoin="round" stroke-miterlimit="10" x1="183.739" y1="103.566" x2="175.792" y2="99.246"/>
<line fill="none" stroke="#9B9B9B" stroke-width="2" stroke-linecap="round" stroke-linejoin="round" stroke-miterlimit="10" x1="102.302" y1="28.345" x2="97.698" y2="20.561"/>
<line fill="none" stroke="#9B9B9B" stroke-width="2" stroke-linecap="round" stroke-linejoin="round" stroke-miterlimit="10" x1="160.813" y1="127.328" x2="156.211" y2="119.542"/>
<line fill="none" stroke="#9B9B9B" stroke-width="2" stroke-linecap="round" stroke-linejoin="round" stroke-miterlimit="10" x1="154.559" y1="27.408" x2="158.878" y2="19.461"/>
<line fill="none" stroke="#9B9B9B" stroke-width="2" stroke-linecap="round" stroke-linejoin="round" stroke-miterlimit="10" x1="99.634" y1="128.427" x2="103.953" y2="120.479"/>
<line fill="none" stroke="#9B9B9B" stroke-width="2" stroke-linecap="round" stroke-linejoin="round" stroke-miterlimit="10" x1="174.854" y1="46.99" x2="182.641" y2="42.386"/>
<line fill="none" stroke="#9B9B9B" stroke-width="2" stroke-linecap="round" stroke-linejoin="round" stroke-miterlimit="10" x1="75.872" y1="105.502" x2="83.657" y2="100.898"/>
<g>
	<defs>
		<path id="SVGID_2_" d="M14.215,10.827v123.106h84.209l0.031-0.513c-21.49-11.153-36.182-33.592-36.182-59.476
			c0-28.861,18.253-53.456,43.844-62.878l0.015-0.24H14.215z"/>
	</defs>
	<clipPath id="SVGID_3_">
		<use xlink:href="#SVGID_2_"  overflow="visible"/>
	</clipPath>
	
		<line clip-path="url(#SVGID_3_)" fill="none" stroke="#9B9B9B" stroke-width="2" stroke-linecap="round" stroke-linejoin="round" stroke-miterlimit="10" x1="14.215" y1="16.451" x2="244.297" y2="16.451"/>
	
		<line clip-path="url(#SVGID_3_)" fill="none" stroke="#9B9B9B" stroke-width="2" stroke-linecap="round" stroke-linejoin="round" stroke-miterlimit="10" x1="14.215" y1="23.382" x2="244.297" y2="23.382"/>
	
		<line clip-path="url(#SVGID_3_)" fill="none" stroke="#9B9B9B" stroke-width="2" stroke-linecap="round" stroke-linejoin="round" stroke-miterlimit="10" x1="14.215" y1="30.312" x2="244.297" y2="30.312"/>
	
		<line clip-path="url(#SVGID_3_)" fill="none" stroke="#9B9B9B" stroke-width="2" stroke-linecap="round" stroke-linejoin="round" stroke-miterlimit="10" x1="14.215" y1="37.24" x2="244.297" y2="37.24"/>
	
		<line clip-path="url(#SVGID_3_)" fill="none" stroke="#9B9B9B" stroke-width="2" stroke-linecap="round" stroke-linejoin="round" stroke-miterlimit="10" x1="14.215" y1="44.17" x2="244.297" y2="44.17"/>
	
		<line clip-path="url(#SVGID_3_)" fill="none" stroke="#9B9B9B" stroke-width="2" stroke-linecap="round" stroke-linejoin="round" stroke-miterlimit="10" x1="14.215" y1="51.101" x2="244.297" y2="51.101"/>
	
		<line clip-path="url(#SVGID_3_)" fill="none" stroke="#9B9B9B" stroke-width="2" stroke-linecap="round" stroke-linejoin="round" stroke-miterlimit="10" x1="14.215" y1="58.029" x2="244.297" y2="58.029"/>
	
		<line clip-path="url(#SVGID_3_)" fill="none" stroke="#9B9B9B" stroke-width="2" stroke-linecap="round" stroke-linejoin="round" stroke-miterlimit="10" x1="14.215" y1="64.959" x2="244.297" y2="64.959"/>
	
		<line clip-path="url(#SVGID_3_)" fill="none" stroke="#9B9B9B" stroke-width="2" stroke-linecap="round" stroke-linejoin="round" stroke-miterlimit="10" x1="14.215" y1="71.89" x2="244.297" y2="71.89"/>
	
		<line clip-path="url(#SVGID_3_)" fill="none" stroke="#9B9B9B" stroke-width="2" stroke-linecap="round" stroke-linejoin="round" stroke-miterlimit="10" x1="14.215" y1="78.82" x2="244.297" y2="78.82"/>
	
		<line clip-path="url(#SVGID_3_)" fill="none" stroke="#9B9B9B" stroke-width="2" stroke-linecap="round" stroke-linejoin="round" stroke-miterlimit="10" x1="14.215" y1="85.751" x2="244.297" y2="85.751"/>
	
		<line clip-path="url(#SVGID_3_)" fill="none" stroke="#9B9B9B" stroke-width="2" stroke-linecap="round" stroke-linejoin="round" stroke-miterlimit="10" x1="14.215" y1="92.679" x2="244.297" y2="92.679"/>
	
		<line clip-path="url(#SVGID_3_)" fill="none" stroke="#9B9B9B" stroke-width="2" stroke-linecap="round" stroke-linejoin="round" stroke-miterlimit="10" x1="14.215" y1="99.608" x2="244.297" y2="99.608"/>
	
		<line clip-path="url(#SVGID_3_)" fill="none" stroke="#9B9B9B" stroke-width="2" stroke-linecap="round" stroke-linejoin="round" stroke-miterlimit="10" x1="14.215" y1="106.539" x2="244.297" y2="106.539"/>
	
		<line clip-path="url(#SVGID_3_)" fill="none" stroke="#9B9B9B" stroke-width="2" stroke-linecap="round" stroke-linejoin="round" stroke-miterlimit="10" x1="14.215" y1="113.467" x2="244.297" y2="113.467"/>
	
		<line clip-path="url(#SVGID_3_)" fill="none" stroke="#9B9B9B" stroke-width="2" stroke-linecap="round" stroke-linejoin="round" stroke-miterlimit="10" x1="14.215" y1="120.397" x2="244.297" y2="120.397"/>
	
		<line clip-path="url(#SVGID_3_)" fill="none" stroke="#9B9B9B" stroke-width="2" stroke-linecap="round" stroke-linejoin="round" stroke-miterlimit="10" x1="14.215" y1="127.328" x2="244.297" y2="127.328"/>
	
		<line clip-path="url(#SVGID_3_)" fill="none" stroke="#9B9B9B" stroke-width="2" stroke-linecap="round" stroke-linejoin="round" stroke-miterlimit="10" x1="14.215" y1="16.451" x2="244.297" y2="16.451"/>
	
		<line clip-path="url(#SVGID_3_)" fill="none" stroke="#9B9B9B" stroke-width="2" stroke-linecap="round" stroke-linejoin="round" stroke-miterlimit="10" x1="14.215" y1="23.382" x2="244.297" y2="23.382"/>
	
		<line clip-path="url(#SVGID_3_)" fill="none" stroke="#9B9B9B" stroke-width="2" stroke-linecap="round" stroke-linejoin="round" stroke-miterlimit="10" x1="14.215" y1="30.312" x2="244.297" y2="30.312"/>
	
		<line clip-path="url(#SVGID_3_)" fill="none" stroke="#9B9B9B" stroke-width="2" stroke-linecap="round" stroke-linejoin="round" stroke-miterlimit="10" x1="14.215" y1="37.24" x2="244.297" y2="37.24"/>
	
		<line clip-path="url(#SVGID_3_)" fill="none" stroke="#9B9B9B" stroke-width="2" stroke-linecap="round" stroke-linejoin="round" stroke-miterlimit="10" x1="14.215" y1="44.17" x2="244.297" y2="44.17"/>
	
		<line clip-path="url(#SVGID_3_)" fill="none" stroke="#9B9B9B" stroke-width="2" stroke-linecap="round" stroke-linejoin="round" stroke-miterlimit="10" x1="14.215" y1="51.101" x2="244.297" y2="51.101"/>
	
		<line clip-path="url(#SVGID_3_)" fill="none" stroke="#9B9B9B" stroke-width="2" stroke-linecap="round" stroke-linejoin="round" stroke-miterlimit="10" x1="14.215" y1="58.029" x2="244.297" y2="58.029"/>
	
		<line clip-path="url(#SVGID_3_)" fill="none" stroke="#9B9B9B" stroke-width="2" stroke-linecap="round" stroke-linejoin="round" stroke-miterlimit="10" x1="14.215" y1="64.959" x2="244.297" y2="64.959"/>
	
		<line clip-path="url(#SVGID_3_)" fill="none" stroke="#9B9B9B" stroke-width="2" stroke-linecap="round" stroke-linejoin="round" stroke-miterlimit="10" x1="14.215" y1="71.89" x2="244.297" y2="71.89"/>
	
		<line clip-path="url(#SVGID_3_)" fill="none" stroke="#9B9B9B" stroke-width="2" stroke-linecap="round" stroke-linejoin="round" stroke-miterlimit="10" x1="14.215" y1="78.82" x2="244.297" y2="78.82"/>
	
		<line clip-path="url(#SVGID_3_)" fill="none" stroke="#9B9B9B" stroke-width="2" stroke-linecap="round" stroke-linejoin="round" stroke-miterlimit="10" x1="14.215" y1="85.751" x2="244.297" y2="85.751"/>
	
		<line clip-path="url(#SVGID_3_)" fill="none" stroke="#9B9B9B" stroke-width="2" stroke-linecap="round" stroke-linejoin="round" stroke-miterlimit="10" x1="14.215" y1="92.679" x2="244.297" y2="92.679"/>
	
		<line clip-path="url(#SVGID_3_)" fill="none" stroke="#9B9B9B" stroke-width="2" stroke-linecap="round" stroke-linejoin="round" stroke-miterlimit="10" x1="14.215" y1="99.608" x2="244.297" y2="99.608"/>
	
		<line clip-path="url(#SVGID_3_)" fill="none" stroke="#9B9B9B" stroke-width="2" stroke-linecap="round" stroke-linejoin="round" stroke-miterlimit="10" x1="14.215" y1="106.539" x2="244.297" y2="106.539"/>
	
		<line clip-path="url(#SVGID_3_)" fill="none" stroke="#9B9B9B" stroke-width="2" stroke-linecap="round" stroke-linejoin="round" stroke-miterlimit="10" x1="14.215" y1="113.467" x2="244.297" y2="113.467"/>
	
		<line clip-path="url(#SVGID_3_)" fill="none" stroke="#9B9B9B" stroke-width="2" stroke-linecap="round" stroke-linejoin="round" stroke-miterlimit="10" x1="14.215" y1="120.397" x2="244.297" y2="120.397"/>
	
		<line clip-path="url(#SVGID_3_)" fill="none" stroke="#9B9B9B" stroke-width="2" stroke-linecap="round" stroke-linejoin="round" stroke-miterlimit="10" x1="14.215" y1="127.328" x2="244.297" y2="127.328"/>
</g>
<path fill="none" stroke="#9B9B9B" stroke-width="2" stroke-linecap="round" stroke-linejoin="round" stroke-miterlimit="10" d="
	M62.273,73.944c0-28.86,18.253-53.456,43.843-62.877l0.016-0.241H14.215v123.107h84.209l0.031-0.513
	C76.965,122.267,62.273,99.829,62.273,73.944z"/>
<g>
	<defs>
		<path id="SVGID_1_" d="M151.733,10.827c25.953,9.23,44.54,33.998,44.54,63.118c0,25.961-14.779,48.455-36.376,59.573l0.027,0.415
			h84.372V10.827H151.733z"/>
	</defs>
	<clipPath id="SVGID_4_">
		<use xlink:href="#SVGID_1_"  overflow="visible"/>
	</clipPath>
	
		<line clip-path="url(#SVGID_4_)" fill="none" stroke="#9B9B9B" stroke-width="2" stroke-linecap="round" stroke-linejoin="round" stroke-miterlimit="10" x1="14.215" y1="16.451" x2="244.297" y2="16.451"/>
	
		<line clip-path="url(#SVGID_4_)" fill="none" stroke="#9B9B9B" stroke-width="2" stroke-linecap="round" stroke-linejoin="round" stroke-miterlimit="10" x1="14.215" y1="23.382" x2="244.297" y2="23.382"/>
	
		<line clip-path="url(#SVGID_4_)" fill="none" stroke="#9B9B9B" stroke-width="2" stroke-linecap="round" stroke-linejoin="round" stroke-miterlimit="10" x1="14.215" y1="30.312" x2="244.297" y2="30.312"/>
	
		<line clip-path="url(#SVGID_4_)" fill="none" stroke="#9B9B9B" stroke-width="2" stroke-linecap="round" stroke-linejoin="round" stroke-miterlimit="10" x1="14.215" y1="37.24" x2="244.297" y2="37.24"/>
	
		<line clip-path="url(#SVGID_4_)" fill="none" stroke="#9B9B9B" stroke-width="2" stroke-linecap="round" stroke-linejoin="round" stroke-miterlimit="10" x1="14.215" y1="44.17" x2="244.297" y2="44.17"/>
	
		<line clip-path="url(#SVGID_4_)" fill="none" stroke="#9B9B9B" stroke-width="2" stroke-linecap="round" stroke-linejoin="round" stroke-miterlimit="10" x1="14.215" y1="51.101" x2="244.297" y2="51.101"/>
	
		<line clip-path="url(#SVGID_4_)" fill="none" stroke="#9B9B9B" stroke-width="2" stroke-linecap="round" stroke-linejoin="round" stroke-miterlimit="10" x1="14.215" y1="58.029" x2="244.297" y2="58.029"/>
	
		<line clip-path="url(#SVGID_4_)" fill="none" stroke="#9B9B9B" stroke-width="2" stroke-linecap="round" stroke-linejoin="round" stroke-miterlimit="10" x1="14.215" y1="64.959" x2="244.297" y2="64.959"/>
	
		<line clip-path="url(#SVGID_4_)" fill="none" stroke="#9B9B9B" stroke-width="2" stroke-linecap="round" stroke-linejoin="round" stroke-miterlimit="10" x1="14.215" y1="71.89" x2="244.297" y2="71.89"/>
	
		<line clip-path="url(#SVGID_4_)" fill="none" stroke="#9B9B9B" stroke-width="2" stroke-linecap="round" stroke-linejoin="round" stroke-miterlimit="10" x1="14.215" y1="78.82" x2="244.297" y2="78.82"/>
	
		<line clip-path="url(#SVGID_4_)" fill="none" stroke="#9B9B9B" stroke-width="2" stroke-linecap="round" stroke-linejoin="round" stroke-miterlimit="10" x1="14.215" y1="85.751" x2="244.297" y2="85.751"/>
	
		<line clip-path="url(#SVGID_4_)" fill="none" stroke="#9B9B9B" stroke-width="2" stroke-linecap="round" stroke-linejoin="round" stroke-miterlimit="10" x1="14.215" y1="92.679" x2="244.297" y2="92.679"/>
	
		<line clip-path="url(#SVGID_4_)" fill="none" stroke="#9B9B9B" stroke-width="2" stroke-linecap="round" stroke-linejoin="round" stroke-miterlimit="10" x1="14.215" y1="99.608" x2="244.297" y2="99.608"/>
	
		<line clip-path="url(#SVGID_4_)" fill="none" stroke="#9B9B9B" stroke-width="2" stroke-linecap="round" stroke-linejoin="round" stroke-miterlimit="10" x1="14.215" y1="106.539" x2="244.297" y2="106.539"/>
	
		<line clip-path="url(#SVGID_4_)" fill="none" stroke="#9B9B9B" stroke-width="2" stroke-linecap="round" stroke-linejoin="round" stroke-miterlimit="10" x1="14.215" y1="113.467" x2="244.297" y2="113.467"/>
	
		<line clip-path="url(#SVGID_4_)" fill="none" stroke="#9B9B9B" stroke-width="2" stroke-linecap="round" stroke-linejoin="round" stroke-miterlimit="10" x1="14.215" y1="120.397" x2="244.297" y2="120.397"/>
	
		<line clip-path="url(#SVGID_4_)" fill="none" stroke="#9B9B9B" stroke-width="2" stroke-linecap="round" stroke-linejoin="round" stroke-miterlimit="10" x1="14.215" y1="127.328" x2="244.297" y2="127.328"/>
</g>
<path fill="none" stroke="#9B9B9B" stroke-width="2" stroke-linecap="round" stroke-linejoin="round" stroke-miterlimit="10" d="
	M151.733,10.826L151.733,10.826c25.953,9.231,44.54,33.998,44.54,63.118c0,25.962-14.78,48.455-36.376,59.573l0.027,0.416h84.372
	V10.826H151.733z"/>
</svg>
