<?xml version="1.0" encoding="utf-8"?>
<!-- Generator: Adobe Illustrator 15.0.0, SVG Export Plug-In  -->
<!DOCTYPE svg PUBLIC "-//W3C//DTD SVG 1.1//EN" "http://www.w3.org/Graphics/SVG/1.1/DTD/svg11.dtd" [
	<!ENTITY ns_flows "http://ns.adobe.com/Flows/1.0/">
]>
<svg version="1.1"
	 xmlns="http://www.w3.org/2000/svg" xmlns:xlink="http://www.w3.org/1999/xlink" xmlns:a="http://ns.adobe.com/AdobeSVGViewerExtensions/3.0/"
	 x="0px" y="0px" width="100px" height="100px" viewBox="0 0 100 100" enable-background="new 0 0 100 100" xml:space="preserve" style="fill: #464e64;">
<defs>
</defs>
<g>
	<defs>
		<rect id="SVGID_4_" x="0.254" width="99.746" height="100"/>
	</defs>
	<clipPath id="SVGID_5_">
		<use xlink:href="#SVGID_4_"  overflow="visible"/>
	</clipPath>
	<path fill="#ffffff" clip-path="url(#SVGID_5_)" d="M71.984,45.959c6.325,0,12.634-2.826,17.763-7.953c4.722-4.723,8.181-11.037,9.49-17.326
		c1.421-6.829,0.158-12.636-3.558-16.352c-2.693-2.693-6.548-4.117-11.148-4.117c-7.581,0-16.424,3.945-22.528,10.051
		c-4.022,4.023-6.645,8.791-7.579,13.793c-0.813,4.331-0.28,8.646,1.496,12.299L4.18,80.239c-0.244,0.207-0.466,0.41-0.677,0.621
		c-4.313,4.313-4.313,11.332,0,15.645c2.09,2.09,4.868,3.241,7.823,3.241s5.734-1.151,7.824-3.241
		c0.212-0.213,0.414-0.433,0.619-0.675l43.887-51.742C66.179,45.315,69.031,45.959,71.984,45.959 M62.061,41.056L17.346,93.775
		c-0.148,0.176-0.293,0.335-0.443,0.483c-1.49,1.489-3.47,2.31-5.577,2.31c-2.106,0-4.086-0.82-5.576-2.31
		c-3.076-3.074-3.076-8.077,0-11.152c0.148-0.149,0.307-0.294,0.484-0.444l52.718-44.713c0.588-0.5,0.732-1.349,0.344-2.015
		c-4.079-6.969-2.088-16.384,4.954-23.426c5.541-5.541,13.502-9.12,20.281-9.12c3.739,0,6.818,1.102,8.902,3.187
		c2.934,2.933,3.891,7.712,2.694,13.458c-1.187,5.698-4.33,11.43-8.626,15.727c-4.529,4.529-10.04,7.022-15.517,7.022
		c-2.861,0-5.597-0.716-7.911-2.069C63.408,40.324,62.561,40.469,62.061,41.056"/>
</g>
<g>
	<defs>
		<rect id="SVGID_3_" width="100" height="100"/>
	</defs>
	<clipPath id="SVGID_6_">
		<use xlink:href="#SVGID_3_"  overflow="visible"/>
	</clipPath>
	<path fill="#ffffff" clip-path="url(#SVGID_6_)" d="M64.778,32.726c-1.116-1.906-1.466-4.363-0.988-6.917c0.582-3.104,2.293-6.151,4.952-8.809
		c3.392-3.393,8.076-5.972,12.528-6.898c2.533-0.527,4.782-0.482,6.333,0.127c0.815,0.322,1.737-0.081,2.059-0.896
		c0.321-0.816-0.081-1.739-0.896-2.06c-2.149-0.845-4.966-0.942-8.143-0.282c-5.033,1.049-10.314,3.951-14.128,7.763
		c-3.112,3.113-5.127,6.734-5.827,10.471c-0.62,3.305-0.134,6.539,1.368,9.106c0.295,0.504,0.827,0.786,1.372,0.786
		c0.273,0,0.549-0.071,0.801-0.217C64.966,34.456,65.221,33.483,64.778,32.726"/>
	<path fill="#ffffff" clip-path="url(#SVGID_6_)" d="M83.008,31.267c-2.658,2.658-5.703,4.37-8.809,4.951c-0.861,0.162-1.43,0.992-1.269,1.854
		c0.144,0.763,0.81,1.296,1.56,1.296c0.098,0,0.195-0.009,0.294-0.027c3.737-0.7,7.358-2.716,10.471-5.828
		c0.619-0.62,0.619-1.626,0-2.246C84.635,30.647,83.63,30.647,83.008,31.267"/>
</g>
<g>
	<defs>
		<rect id="SVGID_2_" x="0.254" width="99.746" height="100"/>
	</defs>
	<clipPath id="SVGID_7_">
		<use xlink:href="#SVGID_2_"  overflow="visible"/>
	</clipPath>
	<path fill="#ffffff" clip-path="url(#SVGID_7_)" d="M14.741,89.482c-0.669-0.568-1.671-0.486-2.239,0.182c-0.034,0.04-0.065,0.076-0.093,0.103
		c-0.598,0.598-1.57,0.598-2.167,0c-0.598-0.598-0.598-1.57,0-2.168c0.028-0.028,0.062-0.059,0.101-0.093
		c0.669-0.566,0.752-1.569,0.184-2.238c-0.568-0.668-1.57-0.751-2.239-0.184c-0.108,0.092-0.208,0.183-0.293,0.269
		c-1.836,1.836-1.836,4.824,0,6.662c0.918,0.916,2.124,1.376,3.33,1.376c1.206,0,2.413-0.46,3.331-1.38
		c0.085-0.084,0.174-0.182,0.267-0.289C15.491,91.053,15.409,90.05,14.741,89.482"/>
	<path fill="#ffffff" clip-path="url(#SVGID_7_)" d="M10.313,38.006c4.021,4.021,8.792,6.643,13.792,7.579c4.331,0.81,8.646,0.278,12.299-1.497
		l1.268,1.496c0.314,0.37,0.762,0.56,1.212,0.56c0.363,0,0.728-0.124,1.027-0.376c0.669-0.568,0.751-1.57,0.184-2.239L38,41.057
		c-0.499-0.588-1.348-0.733-2.014-0.344c-6.97,4.08-16.384,2.088-23.426-4.953c-4.295-4.297-7.44-10.028-8.626-15.727
		C2.736,14.288,3.693,9.509,6.627,6.575c2.932-2.933,7.712-3.889,13.457-2.693c5.699,1.186,11.43,4.331,15.726,8.626
		c7.043,7.042,9.033,16.457,4.955,23.427c-0.39,0.666-0.245,1.515,0.343,2.013l2.984,2.53c0.669,0.568,1.67,0.485,2.238-0.184
		c0.567-0.669,0.485-1.671-0.184-2.238l-2.006-1.701c1.774-3.654,2.307-7.969,1.496-12.299c-0.937-5.002-3.558-9.771-7.579-13.794
		c-4.723-4.722-11.037-8.181-17.326-9.49C13.902-0.65,8.095,0.613,4.381,4.329c-3.717,3.715-4.98,9.523-3.559,16.351
		C2.132,26.97,5.59,33.283,10.313,38.006"/>
	<path fill="#ffffff" clip-path="url(#SVGID_7_)" d="M95.882,80.24L62.938,52.299c-0.669-0.568-1.671-0.485-2.239,0.184
		c-0.566,0.669-0.484,1.671,0.185,2.239l32.942,27.941c0.178,0.149,0.335,0.295,0.483,0.442c3.076,3.076,3.076,8.079,0,11.154
		c-3.074,3.074-8.077,3.075-11.151,0c-0.148-0.149-0.295-0.307-0.445-0.485L55.406,61.581c-0.566-0.67-1.569-0.752-2.238-0.186
		c-0.67,0.568-0.75,1.57-0.185,2.239l27.308,32.196c0.206,0.243,0.409,0.464,0.62,0.675c2.157,2.156,4.989,3.234,7.823,3.234
		c2.832,0,5.665-1.078,7.822-3.234c4.313-4.315,4.313-11.332,0-15.647C96.346,80.649,96.124,80.447,95.882,80.24"/>
</g>
<g>
	<defs>
		<rect id="SVGID_1_" width="100" height="100"/>
	</defs>
	<clipPath id="SVGID_8_">
		<use xlink:href="#SVGID_1_"  overflow="visible"/>
	</clipPath>
	<path fill="#ffffff" clip-path="url(#SVGID_8_)" d="M9.384,10.347c-0.817-0.322-1.738,0.079-2.06,0.896c-0.844,2.15-0.943,4.965-0.281,8.143
		c1.048,5.033,3.95,10.314,7.763,14.127c3.112,3.112,6.733,5.128,10.47,5.828c0.937,0.176,1.867,0.261,2.779,0.261
		c2.306,0,4.488-0.554,6.327-1.629c0.757-0.444,1.012-1.417,0.569-2.174c-0.443-0.757-1.416-1.011-2.174-0.568
		c-1.905,1.115-4.362,1.466-6.916,0.987c-3.106-0.581-6.151-2.294-8.809-4.952c-3.393-3.392-5.972-8.076-6.898-12.528
		c-0.528-2.533-0.483-4.782,0.127-6.332C10.602,11.59,10.2,10.668,9.384,10.347"/>
	<path fill="#ffffff" clip-path="url(#SVGID_8_)" d="M37.829,27.105c0.097,0,0.196-0.008,0.295-0.027c0.861-0.162,1.43-0.991,1.269-1.854
		c-0.7-3.737-2.716-7.357-5.828-10.47c-0.621-0.62-1.626-0.62-2.246,0c-0.621,0.621-0.621,1.627,0,2.246
		c2.657,2.658,4.369,5.704,4.951,8.809C36.412,26.573,37.079,27.105,37.829,27.105"/>
	<path fill="#ffffff" clip-path="url(#SVGID_8_)" d="M87.652,89.769c-0.029-0.028-0.06-0.063-0.094-0.104c-0.567-0.667-1.569-0.75-2.239-0.183
		c-0.669,0.566-0.75,1.569-0.183,2.238c0.091,0.107,0.18,0.205,0.268,0.293c0.918,0.918,2.124,1.377,3.33,1.377
		c1.205,0,2.412-0.459,3.33-1.377c1.837-1.837,1.837-4.825,0-6.661c-0.085-0.085-0.184-0.176-0.293-0.268
		c-0.669-0.568-1.671-0.485-2.239,0.184c-0.566,0.669-0.484,1.671,0.185,2.239c0.039,0.033,0.072,0.063,0.101,0.092
		c0.599,0.597,0.599,1.569,0,2.167C89.221,90.364,88.248,90.364,87.652,89.769"/>
</g>
</svg>
