<?xml version="1.0" encoding="utf-8"?>
<!-- Generator: Adobe Illustrator 15.0.0, SVG Export Plug-In  -->
<!DOCTYPE svg PUBLIC "-//W3C//DTD SVG 1.1//EN" "http://www.w3.org/Graphics/SVG/1.1/DTD/svg11.dtd" [
	<!ENTITY ns_flows "http://ns.adobe.com/Flows/1.0/">
]>
<svg version="1.1"
	 xmlns="http://www.w3.org/2000/svg" xmlns:xlink="http://www.w3.org/1999/xlink" xmlns:a="http://ns.adobe.com/AdobeSVGViewerExtensions/3.0/"
	 x="0px" y="0px" width="52px" height="100px" viewBox="0 0 52 100" enable-background="new 0 0 52 100" xml:space="preserve" style="fill: #464e64;">
<defs>
</defs>
<g>
	<defs>
		<rect id="SVGID_1_" width="51.578" height="100"/>
	</defs>
	<clipPath id="SVGID_2_">
		<use xlink:href="#SVGID_1_"  overflow="visible"/>
	</clipPath>
	<path clip-path="url(#SVGID_2_)" d="M44.73,5.291H30.846V5.184c0-2.79-2.269-5.059-5.057-5.059c-2.791,0-5.06,2.269-5.06,5.059
		v0.107H6.845c-3.739,0-6.781,3.042-6.781,6.781v1.722c0,0.892,0.724,1.615,1.615,1.615h1.909l1.574,31.502
		c-1.964,0.695-3.376,2.57-3.376,4.77c0,1.514,0.67,2.873,1.727,3.801c0.123,7.747,4.218,14.546,10.334,18.444L12.25,89.896
		c-2.069,0.636-3.576,2.563-3.576,4.837c0,2.788,2.269,5.058,5.059,5.058h24.108c2.79,0,5.059-2.27,5.059-5.058
		c0-2.273-1.507-4.201-3.573-4.837l-1.599-15.971c6.117-3.898,10.213-10.697,10.334-18.444c1.059-0.927,1.728-2.287,1.728-3.801
		c0-2.2-1.411-4.075-3.376-4.77l1.574-31.502h1.908c0.893,0,1.615-0.723,1.615-1.615v-1.722C51.512,8.333,48.47,5.291,44.73,5.291
		 M23.958,5.184c0-1.009,0.821-1.83,1.831-1.83c1.008,0,1.828,0.821,1.828,1.83v0.107h-3.659V5.184z M37.842,96.563H13.734
		c-1.009,0-1.83-0.82-1.83-1.829s0.821-1.83,1.83-1.83h24.108c1.009,0,1.83,0.821,1.83,1.83S38.851,96.563,37.842,96.563
		 M36.059,89.675H15.517l1.412-14.11c2.716,1.184,5.713,1.839,8.86,1.839c3.146,0,6.142-0.655,8.858-1.839L36.059,89.675z
		 M25.789,74.175c-9.962,0-18.161-7.684-18.982-17.437c0.012,0,0.025,0.001,0.038,0.001H44.73c0.014,0,0.026,0,0.039-0.001
		C43.947,66.491,35.75,74.175,25.789,74.175 M44.73,53.51H6.845c-1.009,0-1.83-0.821-1.83-1.829c0-1.009,0.821-1.83,1.83-1.83H44.73
		c1.009,0,1.83,0.821,1.83,1.83C46.561,52.688,45.739,53.51,44.73,53.51 M43.195,46.622H8.38L6.819,15.409h37.938L43.195,46.622z
		 M48.282,12.18H3.292v-0.108c0-1.959,1.594-3.552,3.552-3.552H44.73c1.959,0,3.552,1.593,3.552,3.552V12.18z"/>
</g>
</svg>
