<?xml version="1.0" encoding="utf-8"?>
<!-- Generator: Adobe Illustrator 15.0.0, SVG Export Plug-In  -->
<!DOCTYPE svg PUBLIC "-//W3C//DTD SVG 1.1//EN" "http://www.w3.org/Graphics/SVG/1.1/DTD/svg11.dtd" [
	<!ENTITY ns_flows "http://ns.adobe.com/Flows/1.0/">
]>
<svg version="1.1"
	 xmlns="http://www.w3.org/2000/svg" xmlns:xlink="http://www.w3.org/1999/xlink" xmlns:a="http://ns.adobe.com/AdobeSVGViewerExtensions/3.0/"
	 x="0px" y="0px" width="94px" height="100px" viewBox="0 0 94 100" enable-background="new 0 0 94 100" xml:space="preserve" style="fill: #464e64;">
<defs>
</defs>
<g>
	<defs>
		<rect id="SVGID_1_" width="93.583" height="99.672"/>
	</defs>
	<clipPath id="SVGID_2_">
		<use xlink:href="#SVGID_1_"  overflow="visible"/>
	</clipPath>
	<path clip-path="url(#SVGID_2_)" d="M88.708,54.434H4.859c-2.569,0-4.658,2.09-4.658,4.658c0,0.857,0.695,1.554,1.552,1.554
		c0.858,0,1.553-0.696,1.553-1.554c0-0.855,0.697-1.553,1.553-1.553h1.273L2.526,79.17c-0.544,3.272,0.095,6.644,1.802,9.488
		l2.084,3.472v5.587c0,0.964,0.784,1.748,1.747,1.748h77.249c0.963,0,1.747-0.784,1.747-1.748V92.13l2.084-3.472
		c1.707-2.845,2.347-6.216,1.802-9.488l-3.604-21.631h1.271c0.856,0,1.554,0.697,1.554,1.553c0,0.857,0.694,1.554,1.553,1.554
		c0.856,0,1.552-0.696,1.552-1.554C93.366,56.523,91.277,54.434,88.708,54.434 M78.813,87.061l-1.854,3.087h-4.591l1.098-2.743
		c0.852-2.128,1.167-4.456,0.914-6.733l-2.569-23.132h4.713l3.69,22.142C80.638,82.227,80.141,84.848,78.813,87.061 M64.369,90.147
		l1.036-3.628c0.459-1.61,0.625-3.272,0.492-4.941l-1.905-24.039h4.693l2.608,23.475c0.196,1.771-0.05,3.583-0.712,5.238
		l-1.558,3.896H64.369z M56.19,90.147l0.319-5.678c0.019-0.332,0.025-0.669,0.021-1.003l-0.406-25.928h4.752l1.927,24.285
		c0.102,1.298-0.026,2.591-0.385,3.843l-1.277,4.48H56.19z M48.336,90.147V57.539h4.684l0.404,25.976
		c0.006,0.26-0.001,0.522-0.015,0.781l-0.33,5.852H48.336z M40.479,90.147l-0.363-5.812c-0.018-0.288-0.024-0.58-0.019-0.867
		l0.45-25.93h4.685v32.608H40.479z M16.608,90.147l-1.853-3.087c-1.328-2.213-1.825-4.833-1.402-7.38l3.691-22.142h4.713
		l-2.569,23.132c-0.254,2.277,0.062,4.605,0.913,6.733l1.098,2.743H16.608z M24.543,90.147l-1.558-3.896
		c-0.662-1.655-0.908-3.467-0.712-5.238l2.609-23.475h4.693l-1.92,24.023c-0.133,1.68,0.035,3.354,0.501,4.974l1.038,3.611H24.543z
		 M32.425,90.147l-1.285-4.469c-0.362-1.26-0.493-2.563-0.388-3.869l1.938-24.271h4.75l-0.449,25.875
		c-0.007,0.369,0.002,0.744,0.024,1.115l0.352,5.618H32.425z M5.59,79.681l3.69-22.142h4.615L10.291,79.17
		c-0.545,3.272,0.095,6.644,1.802,9.488l0.894,1.489H8.844l-1.853-3.087C5.664,84.848,5.167,82.227,5.59,79.681 M84.051,96.358
		H9.517v-3.105h6.209h0.003h0.004h7.754h0.005h0.009h7.749h0.005h0.006h31.045h0.006h0.005h7.75h0.008h0.005h7.754h0.004h0.003h6.21
		V96.358z M86.576,87.061l-1.853,3.087h-4.142l0.894-1.489c1.707-2.845,2.347-6.216,1.802-9.488l-3.605-21.631h4.615l3.691,22.142
		C88.401,82.227,87.904,84.848,86.576,87.061"/>
	<path clip-path="url(#SVGID_2_)" d="M17.281,51.328c0.858,0,1.553-0.695,1.553-1.552V3.193h55.899v46.583
		c0,0.857,0.695,1.552,1.554,1.552c0.856,0,1.552-0.695,1.552-1.552V3.193c0-1.713-1.393-3.106-3.105-3.106H18.834
		c-1.712,0-3.105,1.393-3.105,3.106v46.583C15.729,50.633,16.424,51.328,17.281,51.328"/>
	<path clip-path="url(#SVGID_2_)" d="M70.075,51.328c0.857,0,1.553-0.694,1.553-1.552V7.851c0-0.858-0.695-1.552-1.553-1.552H23.492
		c-0.857,0-1.552,0.694-1.552,1.552v41.925c0,0.858,0.695,1.552,1.552,1.552c0.858,0,1.553-0.694,1.553-1.552V26.484h15.527
		c0.858,0,1.554-0.695,1.554-1.553c0-0.857-0.696-1.552-1.554-1.552H25.045V9.403h20.187v40.373c0,0.858,0.694,1.552,1.552,1.552
		c0.857,0,1.552-0.694,1.552-1.552V26.484h20.188v23.292C68.523,50.634,69.218,51.328,70.075,51.328 M48.336,9.403h20.188v13.975
		H48.336V9.403z"/>
</g>
</svg>
