<?xml version="1.0" encoding="utf-8"?>
<!-- Generator: Adobe Illustrator 15.0.0, SVG Export Plug-In  -->
<!DOCTYPE svg PUBLIC "-//W3C//DTD SVG 1.1//EN" "http://www.w3.org/Graphics/SVG/1.1/DTD/svg11.dtd" [
	<!ENTITY ns_flows "http://ns.adobe.com/Flows/1.0/">
]>
<svg version="1.1"
	 xmlns="http://www.w3.org/2000/svg" xmlns:xlink="http://www.w3.org/1999/xlink" xmlns:a="http://ns.adobe.com/AdobeSVGViewerExtensions/3.0/"
	 x="0px" y="0px" width="75px" height="100px" viewBox="0 0 75 100" enable-background="new 0 0 75 100" xml:space="preserve" style="fill: #464e64;">
<defs>
</defs>
<g>
	<defs>
		<rect id="SVGID_1_" width="75.344" height="100"/>
	</defs>
	<clipPath id="SVGID_2_">
		<use xlink:href="#SVGID_1_"  overflow="visible"/>
	</clipPath>
	<path clip-path="url(#SVGID_2_)" d="M28.018,46.67c0.212,0.21,0.489,0.317,0.767,0.317c0.277,0,0.554-0.105,0.766-0.317
		l0.511-0.512l0.511,0.512c0.211,0.21,0.489,0.317,0.767,0.317c0.277,0,0.555-0.105,0.766-0.317c0.423-0.424,0.423-1.11,0-1.534
		l-0.511-0.51l0.511-0.512c0.423-0.423,0.423-1.109,0-1.533c-0.423-0.423-1.11-0.423-1.533,0l-0.511,0.511l-0.511-0.511
		c-0.423-0.423-1.109-0.423-1.533,0c-0.423,0.424-0.423,1.11,0,1.533l0.512,0.512l-0.512,0.51
		C27.595,45.561,27.595,46.247,28.018,46.67"/>
	<path clip-path="url(#SVGID_2_)" d="M28.018,33.63c0.212,0.212,0.489,0.318,0.767,0.318c0.277,0,0.554-0.106,0.766-0.318
		l0.511-0.51l0.511,0.51c0.211,0.212,0.489,0.318,0.767,0.318c0.277,0,0.555-0.106,0.766-0.318c0.423-0.422,0.423-1.109,0-1.533
		l-0.511-0.51l0.511-0.511c0.423-0.424,0.423-1.11,0-1.533c-0.423-0.424-1.11-0.424-1.533,0l-0.511,0.51l-0.511-0.51
		c-0.423-0.424-1.109-0.424-1.533,0c-0.423,0.423-0.423,1.109,0,1.533l0.512,0.511l-0.512,0.51
		C27.595,32.521,27.595,33.208,28.018,33.63"/>
	<path clip-path="url(#SVGID_2_)" d="M28.018,20.592c0.212,0.212,0.489,0.318,0.767,0.318c0.277,0,0.554-0.106,0.766-0.318
		l0.511-0.51l0.511,0.51c0.211,0.212,0.489,0.318,0.767,0.318c0.277,0,0.555-0.106,0.766-0.318c0.423-0.423,0.423-1.109,0-1.533
		l-0.511-0.511l0.511-0.51c0.423-0.424,0.423-1.111,0-1.534c-0.423-0.422-1.11-0.422-1.533,0l-0.511,0.511l-0.511-0.511
		c-0.423-0.422-1.109-0.422-1.533,0c-0.423,0.423-0.423,1.11,0,1.534l0.512,0.51l-0.512,0.511
		C27.595,19.482,27.595,20.168,28.018,20.592"/>
	<path clip-path="url(#SVGID_2_)" d="M43.115,46.67c0.212,0.21,0.488,0.317,0.767,0.317c0.277,0,0.554-0.105,0.766-0.317
		l0.512-0.512l0.51,0.512c0.212,0.21,0.49,0.317,0.767,0.317c0.277,0,0.555-0.105,0.767-0.317c0.423-0.424,0.423-1.11,0-1.534
		l-0.511-0.51l0.511-0.512c0.423-0.423,0.423-1.109,0-1.533c-0.424-0.423-1.109-0.423-1.533,0l-0.51,0.511l-0.512-0.511
		c-0.424-0.423-1.109-0.423-1.532,0c-0.424,0.424-0.424,1.11,0,1.533l0.51,0.512l-0.51,0.51
		C42.691,45.561,42.691,46.247,43.115,46.67"/>
	<path clip-path="url(#SVGID_2_)" d="M43.115,33.63c0.212,0.212,0.488,0.318,0.767,0.318c0.277,0,0.554-0.106,0.766-0.318
		l0.512-0.51l0.51,0.51c0.212,0.212,0.49,0.318,0.767,0.318c0.277,0,0.555-0.106,0.767-0.318c0.423-0.422,0.423-1.109,0-1.533
		l-0.511-0.51l0.511-0.511c0.423-0.424,0.423-1.11,0-1.533c-0.424-0.424-1.109-0.424-1.533,0l-0.51,0.51l-0.512-0.51
		c-0.424-0.424-1.109-0.424-1.532,0c-0.424,0.423-0.424,1.109,0,1.533l0.51,0.511l-0.51,0.51
		C42.691,32.521,42.691,33.208,43.115,33.63"/>
	<path clip-path="url(#SVGID_2_)" d="M43.115,20.592c0.212,0.212,0.488,0.318,0.767,0.318c0.277,0,0.554-0.106,0.766-0.318
		l0.512-0.51l0.51,0.51c0.212,0.212,0.49,0.318,0.767,0.318c0.277,0,0.555-0.106,0.767-0.318c0.423-0.423,0.423-1.109,0-1.533
		l-0.511-0.511l0.511-0.51c0.423-0.424,0.423-1.111,0-1.534c-0.424-0.422-1.109-0.422-1.533,0l-0.51,0.511l-0.512-0.511
		c-0.424-0.422-1.109-0.422-1.532,0c-0.424,0.423-0.424,1.11,0,1.534l0.51,0.51l-0.51,0.511
		C42.691,19.482,42.691,20.168,43.115,20.592"/>
	<path clip-path="url(#SVGID_2_)" d="M39.653,36.344c-0.423-0.424-1.109-0.424-1.533,0l-0.51,0.51l-0.511-0.51
		c-0.423-0.424-1.108-0.424-1.532,0c-0.423,0.422-0.423,1.109-0.001,1.532l0.512,0.512l-0.512,0.51
		c-0.422,0.424-0.422,1.111,0.001,1.533c0.211,0.212,0.488,0.318,0.766,0.318c0.277,0,0.555-0.106,0.766-0.318l0.511-0.51l0.51,0.51
		c0.212,0.212,0.49,0.318,0.768,0.318c0.276,0,0.554-0.106,0.766-0.318c0.423-0.422,0.423-1.109,0-1.533l-0.51-0.51l0.51-0.512
		C40.076,37.453,40.076,36.767,39.653,36.344"/>
	<path clip-path="url(#SVGID_2_)" d="M35.566,26.83c0.212,0.212,0.489,0.318,0.767,0.318c0.277,0,0.555-0.106,0.766-0.318
		l0.511-0.51l0.51,0.51c0.212,0.212,0.49,0.318,0.768,0.318s0.556-0.106,0.767-0.318c0.424-0.423,0.424-1.109,0-1.533l-0.511-0.511
		l0.511-0.51c0.424-0.424,0.424-1.111,0-1.534c-0.423-0.422-1.11-0.422-1.534,0l-0.51,0.511L37.1,22.742
		c-0.423-0.422-1.11-0.424-1.533,0c-0.424,0.423-0.424,1.11,0,1.534l0.512,0.51l-0.512,0.511
		C35.143,25.721,35.143,26.407,35.566,26.83"/>
	<path clip-path="url(#SVGID_2_)" d="M71.302,72.782c0.829-1.04,1.327-2.357,1.327-3.787v-3.691c0-2.991-2.17-5.483-5.018-5.99
		c0.132-0.82,0.698-2.218,2.811-3.677c4.238-2.922,4.729-5.986,4.729-8.038c0-3.275-2.374-6.58-7.681-6.58
		c-0.643,0-1.371,0.053-2.14,0.196c2.04-3.567,5.149-10.279,5.149-18.075c0-4.656-1.436-8.191-4.263-10.508
		c-2.61-2.141-5.798-2.719-8.192-2.795C56.538,7.748,50.227,0.07,37.61,0.07c-12.615,0-18.929,7.678-20.413,9.767
		c-2.396,0.076-5.582,0.654-8.193,2.795c-2.829,2.317-4.261,5.853-4.261,10.508c0,7.796,3.107,14.508,5.148,18.075
		c-0.769-0.143-1.497-0.196-2.141-0.196c-5.305,0-7.68,3.305-7.68,6.58c0,2.052,0.491,5.116,4.728,8.04
		c2.114,1.457,2.68,2.854,2.811,3.675c-2.847,0.507-5.018,2.999-5.018,5.99v3.691c0,1.431,0.498,2.747,1.327,3.787
		c-0.898,1.363-3.116,5.892,1.411,12.49c4.451,6.486,2.963,7.565,1.077,8.932C3.974,95.967,3.85,97.104,3.85,98.83
		c0,0.598,0.486,1.084,1.085,1.084h6.324c0.202,0,0.4-0.057,0.572-0.162c1.967-1.218,5.203-4.752,3.364-9.402
		c-0.395-0.999-0.793-1.928-1.178-2.828c-1.394-3.252-2.495-5.819-1.422-7.249c1.35-1.801,3.389-2.409,9.368,0.114
		c5.003,2.112,9.682,3.013,15.647,3.013c5.966,0,10.646-0.9,15.647-3.013c5.979-2.523,8.018-1.915,9.368-0.114
		c1.072,1.431-0.029,3.997-1.421,7.249c-0.386,0.899-0.784,1.829-1.18,2.828c-1.837,4.65,1.398,8.185,3.365,9.402
		c0.172,0.105,0.37,0.162,0.571,0.162h6.324c0.598,0,1.084-0.502,1.084-1.102c0-1.709-0.123-2.846-2.556-4.608
		c-1.886-1.366-3.374-2.445,1.078-8.932C74.419,78.674,72.2,74.146,71.302,72.782 M37.61,59.217H14.758
		c0.282-0.131,0.6-0.266,0.963-0.404c2.953-1.109,9.148-2.433,21.889-2.433c14.085,0,20.218,1.607,22.849,2.837H37.61z
		 M9.776,59.217c-0.148-1.309-0.888-3.376-3.705-5.334c-0.289-0.226-1.099-1.028-1.152-1.835c-0.026-0.406,0.151-0.797,0.545-1.195
		c0.802-0.813,2.117-0.246,2.999,0.625c2.442,2.41,2.498,6.072,2.376,7.739H9.776z M64.379,59.217
		c-0.127-1.664-0.076-5.315,2.378-7.739c0.881-0.87,2.196-1.437,2.998-0.625c0.394,0.397,0.572,0.786,0.547,1.189
		c-0.05,0.797-0.843,1.595-1.154,1.843c-2.815,1.957-3.555,4.023-3.702,5.332H64.379z M72.983,47.599
		c0,0.907-0.125,1.97-0.754,3.117c-0.176-0.443-0.467-0.916-0.932-1.386c-1.558-1.579-4.108-1.324-6.063,0.605
		c-2.388,2.358-2.98,5.504-3.055,7.75c-0.86-0.483-2.042-0.982-3.656-1.445v-0.945c0-10.928,6.257-12.107,8.946-12.107
		C71.534,43.187,72.983,45.466,72.983,47.599 M68.311,23.14c0,9.812-5.445,18.059-6.33,19.333c-0.753,0.453-1.49,1.032-2.18,1.784
		c-0.476,0.519-0.899,1.094-1.277,1.717v-33.94C62.135,12.296,68.311,14.074,68.311,23.14 M37.61,2.238
		c5.466,0,10.303,1.548,14.378,4.601c2.481,1.861,3.911,3.747,4.368,4.4V55.7c-3.985-0.857-9.916-1.49-18.746-1.49
		s-14.76,0.633-18.745,1.49V11.239C19.873,9.794,25.711,2.238,37.61,2.238 M6.911,23.14c0-9.066,6.175-10.844,9.786-11.106v33.94
		c-0.377-0.623-0.802-1.198-1.277-1.717c-0.689-0.752-1.428-1.331-2.179-1.784C12.355,41.202,6.911,32.975,6.911,23.14 M7.75,43.187
		c2.69,0,8.947,1.18,8.947,12.108v0.945c-1.615,0.463-2.795,0.962-3.656,1.445c-0.074-2.246-0.667-5.393-3.055-7.75
		c-1.955-1.93-4.505-2.184-6.064-0.605c-0.464,0.47-0.755,0.942-0.931,1.386c-0.629-1.147-0.753-2.21-0.753-3.117
		C2.238,45.466,3.686,43.187,7.75,43.187 M4.759,65.304c0-2.161,1.758-3.919,3.918-3.919h57.866c2.16,0,3.918,1.758,3.918,3.919
		v3.691c0,2.16-1.757,3.917-3.918,3.917H8.677c-2.16,0-3.918-1.757-3.918-3.917V65.304z M67.542,95.959
		c1.093,0.793,1.467,1.215,1.594,1.786h-4.84c-0.866-0.632-3.669-3.021-2.255-6.599c0.384-0.97,0.776-1.886,1.156-2.771
		c1.669-3.896,2.985-6.972,1.163-9.404c-2.815-3.756-7.406-2.499-11.945-0.582c-4.783,2.02-9.071,2.843-14.805,2.843
		c-5.732,0-10.021-0.823-14.804-2.843c-4.54-1.917-9.13-3.174-11.946,0.582c-1.824,2.433-0.506,5.509,1.163,9.404
		c0.38,0.886,0.772,1.801,1.155,2.771c1.415,3.579-1.391,5.97-2.253,6.599H6.084c0.126-0.569,0.499-0.991,1.595-1.786
		c3.801-2.755,3.66-5.761-0.563-11.913c-3.548-5.173-2.233-8.624-1.545-9.821c0.91,0.543,1.972,0.855,3.106,0.855h57.866
		c1.134,0,2.196-0.313,3.107-0.855c0.688,1.199,2.003,4.649-1.546,9.821C63.882,90.198,63.741,93.204,67.542,95.959"/>
</g>
</svg>
