<?xml version="1.0" encoding="utf-8"?>
<!-- Generator: Adobe Illustrator 15.0.0, SVG Export Plug-In  -->
<!DOCTYPE svg PUBLIC "-//W3C//DTD SVG 1.1//EN" "http://www.w3.org/Graphics/SVG/1.1/DTD/svg11.dtd" [
	<!ENTITY ns_flows "http://ns.adobe.com/Flows/1.0/">
]>
<svg version="1.1"
	 xmlns="http://www.w3.org/2000/svg" xmlns:xlink="http://www.w3.org/1999/xlink" xmlns:a="http://ns.adobe.com/AdobeSVGViewerExtensions/3.0/"
	 x="0px" y="0px" width="87px" height="100px" viewBox="0 0 87 100" enable-background="new 0 0 87 100" xml:space="preserve" style="fill: #464e64;">
<defs>
</defs>
<g>
	<defs>
		<rect id="SVGID_1_" width="86.833" height="100"/>
	</defs>
	<clipPath id="SVGID_2_">
		<use xlink:href="#SVGID_1_"  overflow="visible"/>
	</clipPath>
	<path fill="#ffffff" clip-path="url(#SVGID_2_)" d="M82.148,74.143H81.77V7.374c1.457-0.439,2.522-1.792,2.522-3.391
		c0-1.953-1.59-3.542-3.543-3.542s-3.542,1.589-3.542,3.542c0,1.598,1.064,2.952,2.521,3.391v1.365H61.825
		C60.778,8.69,57.803,8.288,56.27,7c-3.099-2.601-7.285-3.172-12.6-3.192c-0.007,0-0.014-0.002-0.021-0.002
		c-0.047,0-0.094,0.001-0.14,0.001c-0.048,0-0.093-0.001-0.14-0.001c-0.007,0-0.013,0.001-0.021,0.002
		c-5.314,0.02-9.5,0.591-12.601,3.192c-1.784,1.498-5.276,1.722-5.559,1.739H7.291V7.374c1.456-0.439,2.52-1.792,2.52-3.391
		c0-1.953-1.588-3.542-3.542-3.542c-1.953,0-3.542,1.589-3.542,3.542c0,1.598,1.065,2.951,2.521,3.391v66.769H4.871
		c-2.402,0-4.284,2.804-4.284,6.38v18.264c0,0.563,0.458,1.021,1.022,1.021s1.02-0.458,1.02-1.021V94.53h81.76v4.256
		c0,0.563,0.457,1.021,1.021,1.021c0.563,0,1.021-0.458,1.021-1.021V80.522C86.432,76.946,84.55,74.143,82.148,74.143
		 M82.148,76.187c1.06,0,2.24,1.78,2.24,4.336v7.933H81.77V76.187H82.148z M7.291,88.455v-64.41H25.08
		c-0.767,0.469-1.417,1.267-1.586,2.49l-9.939,5.388c-0.475,0.222-3.531,1.816-3.641,6.222c-0.033,1.353,0.439,6.448,0.459,6.665
		c0.028,0.306,0.193,0.583,0.449,0.754c0.256,0.172,0.575,0.218,0.869,0.127l2.556-0.786v15.747c0,0.338,0.166,0.653,0.445,0.844
		c0.122,0.084,3.069,2.045,9.758,2.045s9.637-1.962,9.758-2.045c0.28-0.191,0.446-0.506,0.446-0.844V44.904l2.557,0.787
		c0.293,0.09,0.613,0.045,0.869-0.127c0.254-0.171,0.42-0.448,0.448-0.754c0.02-0.217,0.492-5.312,0.458-6.665
		c-0.109-4.406-3.166-6-3.64-6.222l-9.789-5.306c0.233-0.928,1.04-1.062,1.412-1.071c0.564,0,1.021-0.458,1.021-1.022v-0.479h24.253
		c-0.768,0.469-1.416,1.267-1.586,2.49l-9.97,5.406c-0.411,0.222-0.619,0.695-0.503,1.148c0.114,0.453,0.522,0.771,0.989,0.771
		h2.069v34.823c0,0.564,0.457,1.022,1.02,1.022h7.748c-0.373,2.933-0.597,6.318-0.597,10.22c0,0.564,0.457,1.021,1.021,1.021h24.535
		c0.564,0,1.022-0.457,1.022-1.021c0-18.176-4.871-25.164-6.956-27.322c4.67-5.074,3.934-12.351,3.898-12.673
		c-0.057-0.518-0.494-0.91-1.015-0.91c-1.244,0-1.544-0.794-1.611-1.101V33.86h2.833c0.468,0,0.875-0.318,0.99-0.771
		c0.114-0.452-0.093-0.925-0.502-1.148l-9.821-5.324c0.233-0.928,1.041-1.062,1.412-1.071c0.564,0,1.022-0.458,1.022-1.022v-0.479
		h11.484v64.41H7.291z M79.728,22.003H68.235c-0.079-1.748-1.521-3.147-3.288-3.147s-3.209,1.399-3.287,3.147h-6.514
		c-0.078-1.748-1.521-3.147-3.287-3.147c-1.768,0-3.209,1.399-3.287,3.147H27.984c-0.079-1.748-1.52-3.147-3.288-3.147
		c-1.767,0-3.21,1.399-3.287,3.147H7.291v-4.369h72.437V22.003z M68.976,53.486c0.069,0.048,6.751,4.941,6.968,25.418H53.461
		c0.216-20.477,6.898-25.37,6.958-25.412c0.261-0.174,0.429-0.459,0.452-0.772c0.023-0.313-0.096-0.62-0.329-0.832
		c-3.829-3.5-4.121-8.901-4.083-10.93c1.832-0.409,2.547-1.94,2.669-2.808c0.006-0.046,0.01-0.316,0.01-0.316
		c1.181,1.289,2.962,2.258,5.563,2.258c2.603,0,4.384-0.969,5.564-2.258c0,0,0.003,0.27,0.011,0.317
		c0.12,0.867,0.837,2.399,2.67,2.807c0.043,2.028-0.239,7.417-4.084,10.93c-0.229,0.21-0.348,0.517-0.326,0.825
		C68.556,53.022,68.721,53.309,68.976,53.486 M45.2,31.817l6.414-3.477l4.4,2.386l-2.013,1.091H45.2z M45.284,33.859h11.811v4.054
		c-0.072,0.325-0.378,1.105-1.61,1.105c-0.521,0-0.958,0.392-1.016,0.91c-0.035,0.323-0.77,7.6,3.9,12.673
		c-1.53,1.584-4.56,5.768-6.064,15.061h-7.021V33.859z M69.426,35.518c-0.953,1.68-2.542,2.531-4.725,2.531
		c-2.182,0-3.771-0.851-4.724-2.531c-0.329-0.583-0.532-1.176-0.655-1.659h10.76C69.958,34.343,69.756,34.935,69.426,35.518
		 M62.311,31.817l-2.01-1.091l4.4-2.386l6.414,3.477H62.311z M63.745,26.535l-5.587,3.029l-5.438-2.947
		c0.232-0.928,1.04-1.062,1.411-1.071c0.564,0,1.022-0.458,1.022-1.022v-0.479h10.178C64.565,24.514,63.915,25.312,63.745,26.535
		 M50.615,22.003c0.074-0.621,0.603-1.105,1.244-1.105c0.64,0,1.17,0.484,1.242,1.105H50.615z M63.704,22.003
		c0.073-0.621,0.602-1.105,1.243-1.105c0.641,0,1.17,0.484,1.243,1.105H63.704z M25.938,22.003h-2.485
		c0.073-0.621,0.602-1.105,1.243-1.105C25.337,20.898,25.865,21.382,25.938,22.003 M34.483,33.775c0.098,0.043,2.38,1.1,2.462,4.421
		c0.02,0.8-0.184,3.39-0.338,5.172l-2.674-0.823c-0.31-0.096-0.647-0.038-0.907,0.155c-0.26,0.193-0.414,0.497-0.414,0.821v16.524
		c-0.979,0.469-3.58,1.453-8.162,1.453c-4.585,0-7.187-0.986-8.16-1.452V43.521c0-0.324-0.154-0.628-0.416-0.821
		c-0.26-0.193-0.597-0.251-0.906-0.155l-2.674,0.823c-0.154-1.782-0.357-4.372-0.338-5.172c0.082-3.321,2.365-4.378,2.453-4.418
		c0.03-0.012,2.701-1.458,2.701-1.458c0.137,0.912,0.488,2.024,1.324,3.002c1.281,1.499,3.305,2.259,6.017,2.259
		c2.711,0,4.736-0.76,6.017-2.259c0.835-0.978,1.186-2.089,1.324-3.002C31.792,32.32,34.461,33.765,34.483,33.775 M29.019,33.859
		c-0.034,0.045-0.629,1.68-4.569,1.68c-3.939,0-4.53-1.63-4.569-1.68H29.019z M29.828,31.255c0,0.159-0.008,0.35-0.031,0.562H19.104
		c-0.023-0.212-0.031-0.403-0.031-0.562l5.377-2.915L29.828,31.255z M79.249,3.983c0-0.828,0.673-1.5,1.5-1.5s1.5,0.674,1.5,1.5
		c0,0.828-0.673,1.5-1.5,1.5S79.249,4.811,79.249,3.983 M75.874,10.781h3.854v4.81h-4.143c0.562-0.757,0.869-1.666,0.869-2.625
		C76.454,12.187,76.25,11.44,75.874,10.781 M61.759,10.78c0.015,0.001,7.449,0.001,7.449,0.001
		c-0.185,0.408-0.286,0.855-0.286,1.317c0,0.855,0.333,1.659,0.938,2.264c0.398,0.399,1.046,0.399,1.444,0
		c0.398-0.399,0.398-1.046-0.001-1.444c-0.218-0.22-0.339-0.51-0.339-0.819c0-0.31,0.121-0.6,0.34-0.82
		c0.321-0.321,0.749-0.498,1.204-0.498c0.456,0,0.883,0.177,1.205,0.499c0.451,0.45,0.699,1.049,0.699,1.686
		c0,0.637-0.248,1.235-0.699,1.686c-0.531,0.531-1.563,0.881-2.759,0.94h-2.611c-2.183-0.085-6.687-0.63-8.981-3.583
		c-0.572-0.736-1.158-1.412-1.75-2.026C59.631,10.677,61.636,10.774,61.759,10.78 M49.97,7.904c2.265,0,5.164,1.995,7.779,5.359
		c0.759,0.976,1.687,1.736,2.689,2.329h-8.375c0.808-1.137,0.78-2.602-0.132-3.591c-0.382-0.415-1.027-0.44-1.443-0.058
		c-0.414,0.382-0.44,1.028-0.058,1.442c0.356,0.387,0.088,0.929-0.179,1.198c-0.226,0.229-1.063,0.883-2.313-0.256
		c-1.643-1.492-1.961-3.235-0.874-4.782c0.756-1.076,1.676-1.612,2.813-1.64C49.907,7.904,49.938,7.904,49.97,7.904 M43.51,5.849
		c1.768,0.003,3.391,0.067,4.873,0.248c-1.168,0.36-2.185,1.128-2.989,2.275c-1.63,2.321-1.269,5.059,0.916,7.219h-5.601
		c2.185-2.16,2.546-4.898,0.916-7.219c-0.804-1.147-1.822-1.915-2.989-2.275C40.118,5.916,41.742,5.852,43.51,5.849 M37.141,7.904
		c1.137,0.028,2.058,0.565,2.813,1.641c1.086,1.547,0.768,3.29-0.873,4.782c-1.253,1.139-2.088,0.484-2.314,0.256
		c-0.269-0.269-0.537-0.811-0.179-1.198c0.383-0.414,0.356-1.06-0.058-1.442c-0.415-0.382-1.061-0.357-1.443,0.058
		c-0.913,0.989-0.941,2.454-0.132,3.59h-8.376c1.001-0.592,1.931-1.351,2.691-2.328C31.92,9.852,34.864,7.853,37.141,7.904
		 M13.306,11.279c0.321-0.321,0.749-0.498,1.204-0.498c0.456,0,0.883,0.177,1.205,0.498c0.219,0.22,0.339,0.51,0.339,0.819
		c0.001,0.31-0.12,0.6-0.339,0.819c-0.399,0.399-0.399,1.046,0,1.445c0.399,0.397,1.045,0.399,1.445,0
		c0.604-0.605,0.937-1.409,0.937-2.264c0-0.463-0.101-0.909-0.286-1.317c0,0,7.435-0.001,7.449-0.001
		c0.122-0.006,2.129-0.103,4.149-0.798c-0.593,0.614-1.178,1.291-1.751,2.026c-2.295,2.953-6.798,3.498-8.982,3.583h-2.611
		c-1.198-0.058-2.228-0.408-2.759-0.939c-0.451-0.451-0.699-1.05-0.699-1.686C12.607,12.329,12.855,11.73,13.306,11.279
		 M11.144,10.781c-0.375,0.659-0.579,1.406-0.579,2.185c0,0.959,0.308,1.869,0.868,2.625H7.291v-4.81H11.144z M4.769,3.983
		c0-0.828,0.673-1.5,1.5-1.5s1.5,0.674,1.5,1.5c0,0.828-0.673,1.5-1.5,1.5S4.769,4.811,4.769,3.983 M4.871,76.187h0.377v12.269
		H2.629v-7.933C2.629,77.967,3.81,76.187,4.871,76.187 M2.629,90.498h81.76v1.99H2.629V90.498z"/>
</g>
</svg>
